<svg xmlns="http://www.w3.org/2000/svg" width="44.051" height="52.077" viewBox="0 0 44.051 52.077">
  <g id="icon" transform="translate(0.356 0.338)">
    <path id="Path_52634" data-name="Path 52634" d="M296.574,710.095l-.773-4.526a10.836,10.836,0,0,0-.56-2.318,6.435,6.435,0,0,0-1.3-2.084,7.261,7.261,0,0,0-4.325-2.111,9.059,9.059,0,0,0-1.207-.088l-.312.006c-.051,0-.169,0-.252,0-.177-.006-.361-.014-.54-.034a7.619,7.619,0,0,1-3.962-1.589c-.141-.111-.277-.227-.406-.348l-.1-.1v-.9a19.991,19.991,0,0,0,3.473-.208,9.468,9.468,0,0,0,1.965-.53l.24-.1.118-.054.161-.082a4.231,4.231,0,0,0,.762-.5,2.888,2.888,0,0,0,.462-.525l.346-.456-.922-.031a3.023,3.023,0,0,1-.7-.108l-.144-.041-.059-.026a.986.986,0,0,1-.116-.053,2.2,2.2,0,0,1-.22-.132,2.412,2.412,0,0,1-.7-.794,6.066,6.066,0,0,1-.641-2.259,19.869,19.869,0,0,1,.2-4.963c.063-.415.132-.828.214-1.236l.031-.152c.014-.055-.013.024.021-.061l.128-.3c.083-.2.163-.406.237-.618a13.181,13.181,0,0,0,.654-2.56,10,10,0,0,0,.063-2.669,8.01,8.01,0,0,0-.706-2.4l.353-1.045.049-.149c.016-.05-.05-.088-.071-.128l-.2-.246-.244-.281q-.219-.245-.448-.477c-.306-.311-.625-.606-.954-.89a15.748,15.748,0,0,0-4.437-2.7,13.809,13.809,0,0,0-10.228,0,15.751,15.751,0,0,0-4.437,2.7c-.329.284-.648.579-.952.89q-.23.232-.45.477l-.243.281-.2.246c-.02.043-.088.079-.071.128l.039.117a8.961,8.961,0,0,0-1.251,2.7,9.213,9.213,0,0,0-.238,3.272,13.7,13.7,0,0,0,.686,3.164c.088.257.177.508.277.758l.077.186.016.041h0l.023.088.088.372c.117.5.22,1,.311,1.511a19.683,19.683,0,0,1,.275,6.086,5.417,5.417,0,0,1-1.034,2.653,3,3,0,0,1-2.423,1.039v.929a4.526,4.526,0,0,0,1.711-.318,3.59,3.59,0,0,0,.989-.618,6,6,0,0,0,1.648.011,6.365,6.365,0,0,0,1.8-.5,6.617,6.617,0,0,0,1.578-1l.53-.477V696.9l-.1.1-.2.177c-.135.115-.275.225-.419.33a7.606,7.606,0,0,1-3.972,1.449c-.177.013-.364.018-.53.019s-.4-.01-.591,0a9.135,9.135,0,0,0-1.191.123,7.129,7.129,0,0,0-4.218,2.209,6.512,6.512,0,0,0-1.236,2.1,11.909,11.909,0,0,0-.53,2.3l-.767,4.482-1.635,9.507h43.339Zm-13.815-21.111c-.111.326-.257.7-.4,1.047a15.34,15.34,0,0,1-2.295,3.89,4.206,4.206,0,0,1-7.2-.026,15.412,15.412,0,0,1-2.287-3.9l-.213-.53-.177-.484-.193-1.132-.4-2.3-.651-3.787h.024c.216.064.463.129.695.177a12.521,12.521,0,0,0,1.479.241c.154.016.313.023.469.034a11.076,11.076,0,0,0,1.814,2.179,6.751,6.751,0,0,0,3.28,1.735,5.336,5.336,0,0,0,.953.088h5.578l-.286,1.666Zm-.854,7.949-5.48,7.606-5.221-7.6V693.2a13.178,13.178,0,0,0,.941,1.3A7.862,7.862,0,0,0,274,696.137a4.527,4.527,0,0,0,4.91.02,7.791,7.791,0,0,0,1.861-1.634,13.328,13.328,0,0,0,1.136-1.6v4.007Zm-3.674-12.4c.693.28,1.4.53,2.105.756h-2.682a4.4,4.4,0,0,1-.786-.075,5.827,5.827,0,0,1-2.825-1.508,10.057,10.057,0,0,1-1.288-1.46h1.253A19.371,19.371,0,0,0,278.232,684.535Zm-3.314-2.774H284l-.589,3.428a33.586,33.586,0,0,1-4.829-1.514,19.391,19.391,0,0,1-3.662-1.914Zm12.269-5.105.049-.142a6.971,6.971,0,0,1,.246,1.148,9.093,9.093,0,0,1-.059,2.417,12.367,12.367,0,0,1-.607,2.378c-.07.193-.145.385-.223.575l-.121.285a.951.951,0,0,0-.08.24l-.034.162c-.088.426-.157.852-.221,1.279a20.689,20.689,0,0,0-.2,5.208,6.935,6.935,0,0,0,.756,2.613,3.332,3.332,0,0,0,.971,1.1,3.026,3.026,0,0,0,.327.2,1.7,1.7,0,0,0,.177.081l.1.042.016.006h0l-.156.073-.206.088a8.65,8.65,0,0,1-1.765.474,19.31,19.31,0,0,1-3.322.2v-3.855c.13-.275.26-.549.38-.827.155-.375.295-.725.435-1.137a1.39,1.39,0,0,0,.042-.2l.025-.145.049-.288.1-.576.4-2.3.683-3.98h.5Zm-20.81-2.736q.2-.228.417-.441.432-.435.9-.836a13.3,13.3,0,0,1,17.892,0q.466.4.9.836.215.219.419.441l.172.2-.765,2.239-1.531,4.479H269.109a6.651,6.651,0,0,1-.693-.257l-1.442-4.221-.765-2.239Zm2.767,19.819a5.717,5.717,0,0,1-1.357.858,5.52,5.52,0,0,1-2.324.475,6.818,6.818,0,0,0,.932-2.682,20.567,20.567,0,0,0-.279-6.39c-.094-.522-.2-1.042-.32-1.559l-.1-.389-.026-.1a.556.556,0,0,0-.032-.1l-.02-.05-.072-.177c-.093-.237-.181-.473-.265-.714a12.793,12.793,0,0,1-.64-2.95,8.286,8.286,0,0,1,.21-2.949,7.819,7.819,0,0,1,.741-1.8l.491,1.444,1.745,5.105h.161l.678,3.944.4,2.3.2,1.174a1.862,1.862,0,0,0,.06.193l.051.143.106.281.222.556q.265.618.564,1.215v1.154Zm.961,4.515c.163-.118.32-.243.475-.375l.088-.078,5.737,8.354,6.026-8.365c.11.1.22.2.335.287a8.576,8.576,0,0,0,1.922,1.133,11.475,11.475,0,0,1-1.96,6.247,6.779,6.779,0,0,1-2.69,2.19,8.553,8.553,0,0,1-3.456.7,9.2,9.2,0,0,1-3.494-.59,6.828,6.828,0,0,1-2.8-2.051,10.873,10.873,0,0,1-2.153-6.381A8.562,8.562,0,0,0,270.106,698.253Zm-7.546,20.505.632-4.218.1.372c.052.177.106.353.166.53a8.815,8.815,0,0,0,.97,2.018,5.524,5.524,0,0,0,1.177,1.3Zm25.3,0a5.5,5.5,0,0,0,1.176-1.3,8.777,8.777,0,0,0,.971-2.021c.059-.177.114-.353.166-.53l.1-.372.633,4.218Zm2.873-7.39-.462.027-.462.028a14.5,14.5,0,0,1-.15,1.464c-.062.405-.133.754-.213,1.1l-.1.411-.068.247-.154.486a7.851,7.851,0,0,1-.861,1.809,4.228,4.228,0,0,1-1.351,1.338,3.481,3.481,0,0,1-1.8.473H268.345a3.479,3.479,0,0,1-1.8-.473,4.238,4.238,0,0,1-1.351-1.338,7.818,7.818,0,0,1-.861-1.809l-.154-.486-.07-.247-.1-.411c-.08-.353-.152-.706-.212-1.1a14.706,14.706,0,0,1-.152-1.464l-.462-.028-.462-.027-1.108,7.389h-5.633l1.449-8.423.766-4.484a11.111,11.111,0,0,1,.483-2.131,5.567,5.567,0,0,1,1.059-1.8,6.2,6.2,0,0,1,3.684-1.912,8.33,8.33,0,0,1,1.07-.11c.186-.006.336-.007.546,0s.4-.008.605-.023a8.587,8.587,0,0,0,1.574-.265,13.652,13.652,0,0,0,.558,3.21,10.09,10.09,0,0,0,1.793,3.464,7.775,7.775,0,0,0,3.178,2.326,10.1,10.1,0,0,0,3.845.656,9.476,9.476,0,0,0,3.831-.781A7.72,7.72,0,0,0,283.478,706a10.636,10.636,0,0,0,1.652-3.526,14.632,14.632,0,0,0,.482-2.941,8.44,8.44,0,0,0,1.6.318c.2.021.4.032.6.038.109,0,.183.008.322,0h.265a8.018,8.018,0,0,1,1.079.082,6.34,6.34,0,0,1,3.779,1.828,5.527,5.527,0,0,1,1.114,1.787,9.9,9.9,0,0,1,.509,2.136l.774,4.525,1.463,8.507h-5.278Z" transform="translate(-254.879 -668.249)" fill="#449ae3" stroke="#449ae3" stroke-width="0.6"/>
    <path id="Path_52635" data-name="Path 52635" d="M288.993,681.61a4.475,4.475,0,1,0-3.167-1.315,4.475,4.475,0,0,0,3.167,1.315Zm-2.7-7.18a3.825,3.825,0,1,1-1.121,2.705,3.825,3.825,0,0,1,1.121-2.705Z" transform="translate(-267.233 -670.086)" fill="#449ae3" stroke="#449ae3" stroke-width="0.6"/>
    <path id="Path_52636" data-name="Path 52636" d="M288.614,681.3h2.29V679.04h2.259v-2.29H290.9V674.5h-2.29v2.257h-2.257v2.29h2.257Zm-1.606-2.908V677.4h2.257v-2.257h.989V677.4h2.259v.989h-2.259v2.257h-.989v-2.253Z" transform="translate(-267.999 -670.853)" fill="#449ae3" stroke="#449ae3" stroke-width="0.6"/>
  </g>
</svg>
