<svg xmlns="http://www.w3.org/2000/svg" width="43.941" height="52.759" viewBox="0 0 43.941 52.759">
  <g id="Group_63" data-name="Group 63" transform="translate(0.303 0.333)">
    <path id="Path_52632" data-name="Path 52632" d="M821.4,285.195a5.06,5.06,0,0,0-3.385-5,8.567,8.567,0,0,0-3.058-.582c-2.535-.126-5.393.507-7.123-1.17a3.243,3.243,0,0,1-.53-.654,1.256,1.256,0,0,1-.088-.169v-6.267h0c.211-.353.414-.706.608-1.076l.057-.109a1.944,1.944,0,0,0,.421-.049,1.236,1.236,0,0,0,.618-.365,2.851,2.851,0,0,0,.519-.961,17.359,17.359,0,0,0,.491-1.809c.27-1.2.5-2.389.732-3.583l.681-3.578a10.056,10.056,0,0,0,.123-3.787,7.366,7.366,0,0,0-1.636-3.473,9.9,9.9,0,0,0-2.994-2.336,16.454,16.454,0,0,0-3.5-1.324,20.588,20.588,0,0,0-3.531-.6v-.015l-.077.008-.076-.008v.015a20.6,20.6,0,0,0-3.531.6,16.475,16.475,0,0,0-3.5,1.324,9.9,9.9,0,0,0-2.993,2.336,7.35,7.35,0,0,0-1.636,3.473,10.031,10.031,0,0,0,.121,3.787l.681,3.578c.23,1.193.462,2.383.731,3.583a17.079,17.079,0,0,0,.492,1.809,2.808,2.808,0,0,0,.519.961,1.236,1.236,0,0,0,.613.365,1.711,1.711,0,0,0,.275.041l.048.094q.289.547.607,1.075c.06.1.124.194.185.291v6c-.022.046-.06.114-.094.169a3.221,3.221,0,0,1-.53.654c-1.731,1.677-4.59,1.045-7.126,1.17a8.562,8.562,0,0,0-3.056.582,5.061,5.061,0,0,0-3.386,5v15.219h43.334V285.195ZM791.005,260.91l.148,5.547.065,2.42.007.252-.015-.011a2.076,2.076,0,0,1-.323-.64,16.1,16.1,0,0,1-.46-1.7c-.265-1.172-.5-2.363-.726-3.552l-.681-3.576a9.127,9.127,0,0,1-.12-3.448,6.426,6.426,0,0,1,1.432-3.038,9,9,0,0,1,2.716-2.111,13.125,13.125,0,0,1,13.336,0,8.973,8.973,0,0,1,2.716,2.111,6.415,6.415,0,0,1,1.432,3.038,9.1,9.1,0,0,1-.12,3.448l-.681,3.576c-.23,1.189-.461,2.383-.725,3.552a16.4,16.4,0,0,1-.461,1.7,2.056,2.056,0,0,1-.324.64.284.284,0,0,1-.155.094h0l.008-.31.065-2.42.142-5.359-2.609.207h-.9l-4.027-2.508c-.147.157-.3.328-.441.466l-.258.25c-.15.141-.306.281-.464.416a11.462,11.462,0,0,1-.978.761,7.061,7.061,0,0,1-2.148,1.065,3.772,3.772,0,0,1-.559.1,4.564,4.564,0,0,1-.588.011,11.79,11.79,0,0,1-1.236-.094,11.463,11.463,0,0,1-1.215-.223c-.206-.051-.384-.1-.607-.168a11.435,11.435,0,0,1-1.245-.493Zm1.165,8.678v-.131l-.016-.6-.065-2.42-.111-4.133.023.006c.187.058.423.124.635.177a12.153,12.153,0,0,0,1.315.242,12.861,12.861,0,0,0,1.331.1,5.385,5.385,0,0,0,.7-.015,4.605,4.605,0,0,0,.706-.126,7.929,7.929,0,0,0,2.446-1.2q.547-.383,1.053-.818c.168-.145.334-.292.494-.441l.212-.2,3.612,2.249h1.183V261.8l.037.465,1.6-.127-.116,4.325-.07,2.416-.016.6v.1l-.132.252c-.184.348-.38.693-.583,1.032a18.724,18.724,0,0,1-2.869,3.735,4.835,4.835,0,0,1-7.8-.018,17.943,17.943,0,0,1-2.546-3.238v-.071h-.044c-.088-.144-.185-.286-.274-.432-.2-.339-.4-.684-.583-1.032Zm.1,9.533a4.2,4.2,0,0,0,.688-.847c.049-.083.088-.156.139-.256a.851.851,0,0,0,.088-.225l0-.206v-4.573a17.137,17.137,0,0,0,1.9,2.241,9.609,9.609,0,0,0,2.017,1.54,4.894,4.894,0,0,0,5.061.013,9.509,9.509,0,0,0,2.024-1.534,17.506,17.506,0,0,0,2.085-2.5v5.019a.968.968,0,0,0,.088.225,2.086,2.086,0,0,0,.14.256,4.153,4.153,0,0,0,.689.847,4.811,4.811,0,0,0,1.484.944l-7.919,9.591h-1.483l-8.076-9.78a4.715,4.715,0,0,0,1.073-.75Zm28.191,9.029v11.334h-5.271v-7.348h-.933v7.348H785.606v-7.348h-.933v7.348H779V285.2a4.492,4.492,0,0,1,.706-2.539c.989-1.47,2.984-2.081,4.8-2.11h3.9a6.927,6.927,0,0,0,1.892-.3l8.54,10.343h2.361l8.438-10.218a7.187,7.187,0,0,0,1.434.177h3.9c1.812.029,3.811.641,4.8,2.11a4.486,4.486,0,0,1,.706,2.539Z" transform="translate(-778.067 -248.29)" fill="#449ae3" stroke="#449ae3" stroke-width="0.6"/>
    <path id="Path_52633" data-name="Path 52633" d="M802.112,256.232a7.679,7.679,0,0,1,3.8-1.243l-.047-.93a10.151,10.151,0,0,0-2.229.418,6.962,6.962,0,0,0-2.071,1,4.06,4.06,0,0,0-1.456,1.9,4.533,4.533,0,0,0-.131,2.37l.915-.177a3.608,3.608,0,0,1,.093-1.885A3.13,3.13,0,0,1,802.112,256.232Z" transform="translate(-787.108 -250.682)" fill="#449ae3" stroke="#449ae3" stroke-width="0.6"/>
  </g>
</svg>
