<svg xmlns="http://www.w3.org/2000/svg" width="45.09" height="54.168" viewBox="0 0 45.09 54.168">
  <g id="icon" transform="translate(0.3 0.301)">
    <path id="Path_52644" data-name="Path 52644" d="M821.406,178.832a5.193,5.193,0,0,0-3.474-5.128,8.818,8.818,0,0,0-3.14-.6c-2.6-.129-5.535.52-7.311-1.2a3.329,3.329,0,0,1-.547-.671c-.034-.057-.072-.126-.1-.177v-6.444c.217-.362.425-.728.624-1.1l.154-.3a.482.482,0,0,0,.088-.291l0-.2.018-.618.066-2.483.121-4.5h.883l.692-2.437.131-.315.078-.217c.055-.144.1-.294.142-.441a7.138,7.138,0,0,0,.236-2.76,7.619,7.619,0,0,0-1.29-3.431,9.627,9.627,0,0,0-2.586-2.547,12.693,12.693,0,0,0-6.805-2.082,12.957,12.957,0,0,0-6.9,1.738A10.038,10.038,0,0,0,789.752,145a7.863,7.863,0,0,0-1.571,3.3,7.131,7.131,0,0,0,.212,3.669c.054.158.088.265.168.461l.106.255.692,2.434h.883l.119,4.5.065,2.483.017.618.005.2a.476.476,0,0,0,.088.29l.155.3c.2.375.407.741.624,1.1.057.1.121.189.176.284v6.159c-.022.048-.061.117-.1.177a3.328,3.328,0,0,1-.546.671c-1.777,1.722-4.708,1.072-7.313,1.2a8.8,8.8,0,0,0-3.136.6,5.507,5.507,0,0,0-2.586,1.99,5.569,5.569,0,0,0-.889,3.138v15.623h44.482V178.83Zm-15.74-35.062a7.535,7.535,0,0,1,3.461,5.29,6.207,6.207,0,0,1-.031,1.6,6.336,6.336,0,0,1-.177.787c-.041.129-.075.259-.125.385l-.075.209,0,.01H800a5.157,5.157,0,0,0,.388-10.136,11.513,11.513,0,0,1,5.278,1.85Zm-7.169,6.816h1.517L802.9,147.7l-.538-3.586a4.206,4.206,0,1,1-6.2,0l-.538,3.585Zm-1.863-3.216.353-2.344h4.542l.353,2.344-2.26,2.26H798.9Zm5.6-3.391c.029.029.054.061.082.088H796.2c.027-.029.053-.061.081-.088a4.208,4.208,0,0,1,5.948,0Zm-12.8,8.056-.125-.353a6.164,6.164,0,0,1-.184-3.178,7.9,7.9,0,0,1,3.866-5.043,11.8,11.8,0,0,1,5.339-1.58,5.158,5.158,0,0,0,.177,10.181h-9.063Zm.652,2.134-.328-1.155H808.4l-.327,1.155Zm15.931.958a5.4,5.4,0,0,1-2.212,3.632,8.175,8.175,0,0,1-9.445,0,5.408,5.408,0,0,1-2.212-3.632Zm-14.608,7.69V162.7l-.016-.618-.065-2.483-.113-4.247a5.816,5.816,0,0,0,.682,2.03,6.849,6.849,0,0,0,1.888,2.137,9.124,9.124,0,0,0,10.592,0,6.863,6.863,0,0,0,1.891-2.138,5.82,5.82,0,0,0,.682-2.03l-.114,4.246-.067,2.483-.017.618v.114l-.131.252c-.189.353-.39.706-.6,1.059a19.268,19.268,0,0,1-2.941,3.832,4.961,4.961,0,0,1-8,0,18.434,18.434,0,0,1-2.623-3.331v-.073h-.047c-.088-.142-.184-.282-.271-.426q-.314-.522-.6-1.059Zm14.476,3.266V171l-6.63,8.186-6.8-8.189v-4.658a17.449,17.449,0,0,0,1.956,2.312,9.817,9.817,0,0,0,2.073,1.576,5.018,5.018,0,0,0,5.191,0,9.8,9.8,0,0,0,2.073-1.576,18.024,18.024,0,0,0,2.133-2.564ZM791.516,172.6a4.515,4.515,0,0,0,.524-.613l7.222,8.7,7.042-8.7a4.336,4.336,0,0,0,.52.606,5.324,5.324,0,0,0,2.584,1.3l-2.063,5.589H804.1v2.03h-9.806v-2.03h-3.248l-2.068-5.6a5.312,5.312,0,0,0,2.539-1.285Zm11.814,9.874-4.237,3.825-4.07-3.825Zm17.124-.618v11.633h-5.41v-7.542h-.957v7.542H784.67v-7.542h-.957v7.542h-5.826V178.836a4.615,4.615,0,0,1,.724-2.6c1.017-1.508,3.065-2.136,4.928-2.166h4c.157,0,.315-.013.474-.026l2.366,6.408h2.957v2.025h.289l4.978,4.678V191.9h.958v-4.743l5.2-4.687h.3v-2.03h2.957l2.364-6.406c.142.011.283.02.425.024h4c1.86.03,3.91.657,4.925,2.165a4.613,4.613,0,0,1,.726,2.606Z" transform="translate(-776.924 -140.886)" fill="#449ae3" stroke="#449ae3" stroke-width="0.6"/>
    <path id="Path_52645" data-name="Path 52645" d="M827.952,214.037h-3.095l-.546,3.638,2.881,2.881h1.523l2.881-2.881-.546-3.638Zm.363,5.561h-.726l-2.259-2.259.353-2.344h4.541l.353,2.344Z" transform="translate(-795.837 -170.084)" fill="#449ae3" stroke="#449ae3" stroke-width="0.6"/>
    <path id="Path_52646" data-name="Path 52646" d="M791.93,219.086h8.562v-2.938H791.93Zm.957-1.98h6.643v1.022h-6.643Z" transform="translate(-782.911 -170.927)" fill="#449ae3" stroke="#449ae3" stroke-width="0.6"/>
  </g>
</svg>
