<svg xmlns="http://www.w3.org/2000/svg" width="47.042" height="54.167" viewBox="0 0 47.042 54.167">
  <path id="Path_52643" data-name="Path 52643" d="M718.282,181.627a5.423,5.423,0,0,0-3.628-5.354,9.193,9.193,0,0,0-3.277-.618c-2.716-.136-5.779.543-7.632-1.256a3.471,3.471,0,0,1-.571-.7c-.036-.06-.076-.132-.1-.181V166.8c.227-.377.441-.76.651-1.147l.16-.307c.136-.177.084-.458.1-.515l.017-.65.064-2.4a1.414,1.414,0,0,0,.328-.394,3.29,3.29,0,0,0,.192-.386,6.138,6.138,0,0,0,.248-.751,12.115,12.115,0,0,0,.276-1.482,27.463,27.463,0,0,0,.2-2.938l.008-2.9v-1.085a2.2,2.2,0,0,0-.006-.223l-.023-.2a7.2,7.2,0,0,0-.388-1.5,7.944,7.944,0,0,0-4.1-4.393,13.4,13.4,0,0,0-5.635-1.148h-.207a13.4,13.4,0,0,0-5.636,1.152,7.944,7.944,0,0,0-4.1,4.392,7.207,7.207,0,0,0-.389,1.5l-.023.2c-.01.111,0,.166-.005.224v1.084l.008,2.9a27.367,27.367,0,0,0,.194,2.938,11.917,11.917,0,0,0,.277,1.482,5.618,5.618,0,0,0,.247.751,3.1,3.1,0,0,0,.192.386,1.919,1.919,0,0,0,.136.2l.027.031.068,2.53.018.649,0,.184.005.162a.935.935,0,0,0,.065.147l.17.331c.208.392.425.775.651,1.153.064.105.133.208.2.313v6.433c-.023.049-.064.121-.1.181a3.463,3.463,0,0,1-.569.7c-1.854,1.8-4.916,1.119-7.635,1.255a9.2,9.2,0,0,0-3.275.618,5.751,5.751,0,0,0-2.7,2.078,5.812,5.812,0,0,0-.929,3.276v16.307h46.433V181.627Zm-14.253-5.794-2.726,4.149-3.266-3.5,4.336-2.2a4.416,4.416,0,0,0,.688.836,4.957,4.957,0,0,0,.968.717Zm-9.08,2.207,2.158-1.094,1.61,1.726-3.754,1.568-3.314-1.546,1.491-1.6Zm-6.89-4.727v-4.742a18.354,18.354,0,0,0,2.03,2.4,10.263,10.263,0,0,0,2.161,1.651,5.244,5.244,0,0,0,5.425.014,10.2,10.2,0,0,0,2.168-1.644,18.682,18.682,0,0,0,2.233-2.679v5l-7.12,3.607ZM685.8,155.64l-.006-2.722v-1.084q0-.069,0-.138l.017-.154a6.241,6.241,0,0,1,.335-1.29,6.932,6.932,0,0,1,3.6-3.841,13.869,13.869,0,0,1,10.612,0,6.932,6.932,0,0,1,3.6,3.841,6.187,6.187,0,0,1,.335,1.29l.018.154v1.223L704.3,155.8c-.016.789-.063,1.575-.142,2.351l.062-2.321-2.8.222h-.966l-4.315-2.687c-.158.168-.325.353-.476.5l-.275.265c-.161.152-.328.3-.5.441a13.26,13.26,0,0,1-1.049.816,7.522,7.522,0,0,1-2.3,1.142,3.817,3.817,0,0,1-.6.108,4.765,4.765,0,0,1-.63.012,12.808,12.808,0,0,1-1.324-.1,12.14,12.14,0,0,1-1.3-.24c-.22-.054-.411-.105-.65-.177a11.09,11.09,0,0,1-1.24-.485Zm1.163,9.26v-.139l-.017-.648-.07-2.594-.119-4.428.025.008c.2.062.454.132.68.186a13.181,13.181,0,0,0,1.412.26,13.765,13.765,0,0,0,1.426.109,5.886,5.886,0,0,0,.749-.016,4.829,4.829,0,0,0,.757-.135,8.494,8.494,0,0,0,2.621-1.289,14.252,14.252,0,0,0,1.128-.876q.272-.231.53-.476l.229-.218,3.869,2.41h1.268v-.5l.04.5,1.711-.136-.124,4.631-.068,2.593-.018.649v.112l-.139.265q-.3.559-.626,1.106a20.1,20.1,0,0,1-3.074,4,5.18,5.18,0,0,1-8.36-.019,19.243,19.243,0,0,1-2.728-3.468v-.075h-.048c-.1-.155-.2-.306-.294-.463-.216-.364-.427-.733-.623-1.106Zm.11,10.216a4.557,4.557,0,0,0,.684-.831l4.463,2.331-3.139,3.366-2.8-4.263a4.811,4.811,0,0,0,.793-.6Zm-7.144,21.815V189.06h-1v7.874h-6.083V181.629a4.817,4.817,0,0,1,.756-2.72c1.059-1.575,3.2-2.23,5.145-2.262h4.174a7.166,7.166,0,0,0,2.459-.474l3.563,5.427,1.986-2.131,1.534.716-3.434,16.752Zm15.226,0h-5.105l3.344-16.318,1.544.721,1.471-.618,3.324,16.212Zm22.125-12.145v12.147h-5.649V189.06h-1v7.874h-9.877l-3.4-16.606,2.093-.874,2,2.142,3.511-5.347a7.3,7.3,0,0,0,2.258.394h4.175c1.942.032,4.082.686,5.142,2.262a4.8,4.8,0,0,1,.757,2.72Z" transform="translate(-671.548 -144.076)" fill="#449ae3" stroke="#449ae3" stroke-width="0.6"/>
</svg>
