<svg xmlns="http://www.w3.org/2000/svg" width="109.743" height="81.754" viewBox="0 0 109.743 81.754">
  <g id="Group_545" data-name="Group 545" transform="translate(-2099 -6301.094)">
    <g id="Group_542" data-name="Group 542" transform="translate(2099 6321.82)">
      <rect id="Rectangle_273" data-name="Rectangle 273" width="84.66" height="57.62" rx="3" transform="translate(2.742 0.092)" fill="#449ae3"/>
      <rect id="Rectangle_274" data-name="Rectangle 274" width="49.796" height="81.464" rx="3" transform="translate(85.804 3.127) rotate(90)" fill="#eceff0"/>
      <rect id="Rectangle_275" data-name="Rectangle 275" width="90.017" height="3.316" rx="1.658" transform="translate(0 57.711)" fill="#449ae3"/>
      <circle id="Ellipse_81" data-name="Ellipse 81" cx="1.068" cy="1.068" r="1.068" transform="translate(43.574 1.511) rotate(-45)" fill="#fff"/>
    </g>
    <g id="Group_544" data-name="Group 544" transform="translate(2107.514 6329.997)">
      <rect id="Rectangle_276" data-name="Rectangle 276" width="46.363" height="2" rx="1" transform="translate(26.661 34.556)" fill="#fff"/>
      <rect id="Rectangle_277" data-name="Rectangle 277" width="25.309" height="2" rx="1" transform="translate(26.661 34.556)" fill="#e96189"/>
      <rect id="Rectangle_292" data-name="Rectangle 292" width="22.999" height="39.326" rx="1" transform="translate(0 0)" fill="#449ae3"/>
      <rect id="Rectangle_291" data-name="Rectangle 291" width="46.363" height="30.548" rx="1" transform="translate(26.661 0)" fill="#449ae3"/>
      <path id="Path_573" data-name="Path 573" d="M799.1,168.826a.8.8,0,0,1-.8.8h-4.662a.8.8,0,0,1-.8-.8h0a.8.8,0,0,1,.8-.8H798.3a.8.8,0,0,1,.8.8Z" transform="translate(-790.05 -165.133)" fill="#b3cdff"/>
      <path id="Path_574" data-name="Path 574" d="M806.845,181.8a.8.8,0,0,1-.8.8h-12.41a.8.8,0,0,1-.8-.8h0a.8.8,0,0,1,.8-.8h12.41a.8.8,0,0,1,.8.8Z" transform="translate(-790.05 -175.067)" fill="#fff"/>
      <path id="Path_575" data-name="Path 575" d="M803.979,194.779a.8.8,0,0,1-.8.8h-9.544a.8.8,0,0,1-.8-.8h0a.8.8,0,0,1,.8-.8h9.544a.8.8,0,0,1,.8.8Z" transform="translate(-790.05 -185)" fill="#fff"/>
      <path id="Path_1289" data-name="Path 1289" d="M809.664,214.284a.372.372,0,0,1-.372.372H792.066a.372.372,0,0,1-.372-.372h0a.372.372,0,0,1,.372-.372h17.225a.372.372,0,0,1,.372.372Z" transform="translate(-789.18 -200.259)" fill="#e96189"/>
      <path id="Path_1292" data-name="Path 1292" d="M809.664,274.437a.372.372,0,0,1-.372.372H792.066a.373.373,0,0,1-.372-.372h0a.372.372,0,0,1,.372-.372h17.225a.372.372,0,0,1,.372.372Z" transform="translate(-789.18 -246.305)" fill="#e96189"/>
      <path id="Path_578" data-name="Path 578" d="M806.845,230.385a.8.8,0,0,1-.8.8h-12.41a.8.8,0,0,1-.8-.8h0a.8.8,0,0,1,.8-.8h12.41a.8.8,0,0,1,.8.8Z" transform="translate(-790.05 -212.255)" fill="#b3cdff"/>
      <path id="Path_579" data-name="Path 579" d="M806.845,243.362a.8.8,0,0,1-.8.8h-12.41a.8.8,0,0,1-.8-.8h0a.8.8,0,0,1,.8-.8h12.41a.8.8,0,0,1,.8.8Z" transform="translate(-790.05 -222.189)" fill="#fff"/>
      <path id="Path_580" data-name="Path 580" d="M802.759,256.339a.8.8,0,0,1-.8.8h-8.324a.8.8,0,0,1-.8-.8h0a.8.8,0,0,1,.8-.8h8.324a.8.8,0,0,1,.8.8Z" transform="translate(-790.05 -232.122)" fill="#fff"/>
      <path id="Path_581" data-name="Path 581" d="M641.945,181.534a9.214,9.214,0,1,0,9.215,9.215A9.215,9.215,0,0,0,641.945,181.534Zm0,16.686a7.471,7.471,0,1,1,7.472-7.471A7.471,7.471,0,0,1,641.945,198.22Z" transform="translate(-592.534 -175.475)" fill="#fff"/>
      <path id="Path_582" data-name="Path 582" d="M663.561,201.21v9.2l6.419-4.6Z" transform="translate(-616.134 -190.536)" fill="#fff"/>
      <circle id="Ellipse_98" data-name="Ellipse 98" cx="2.5" cy="2.5" r="2.5" transform="translate(48.27 33.002)" fill="#e96189"/>
    </g>
    <g id="Group_543" data-name="Group 543" transform="matrix(0.995, 0.105, -0.105, 0.995, 2150.464, 6301.052)">
      <rect id="Rectangle_278" data-name="Rectangle 278" width="33.401" height="12.138" transform="translate(12.873 9.571) rotate(12.053)" fill="#a481d4"/>
      <ellipse id="Ellipse_85" data-name="Ellipse 85" cx="9.668" cy="16.7" rx="9.668" ry="16.7" transform="matrix(0.209, -0.978, 0.978, 0.209, 8.319, 30.896)" fill="#a481d4"/>
      <path id="Path_889" data-name="Path 889" d="M1429.323,894.988a6.85,6.85,0,0,1,1.163,5.174c-1.115,5.222-9.331,7.893-18.351,5.967a26.106,26.106,0,0,1-8.489-3.372c2.215,3.437,7.094,6.474,13.15,7.768,9.02,1.926,17.236-.746,18.352-5.967.343-1.609,2.066-7.221,1.125-8.808C1435.258,894.038,1431.486,896.362,1429.323,894.988Z" transform="translate(-1392.145 -876.143)" fill="#6c4f95"/>
      <g id="Group_454" data-name="Group 454" transform="translate(0 1.856)">
        <path id="Path_890" data-name="Path 890" d="M1656.412,665.526,1629.4,649.556l-4.787,22.421,31.408-4.6Z" transform="translate(-1597.812 -649.555)" fill="#5d4381"/>
        <path id="Path_891" data-name="Path 891" d="M1269.067,649.542l-31.182,3.543-.4,1.855,26.794,17.025h0l4.787-22.421Z" transform="translate(-1237.485 -649.542)" fill="#c4b5d8"/>
      </g>
      <path id="Path_892" data-name="Path 892" d="M1301.413,640.56l-31.411,4.6-26.794-17.025,31.582-5.4Z" transform="translate(-1242.813 -622.734)" fill="#a481d4"/>
      <ellipse id="Ellipse_86" data-name="Ellipse 86" cx="2.53" cy="4.37" rx="2.53" ry="4.37" transform="translate(24.799 12.764) rotate(-77.947)" fill="#6c4f95"/>
      <g id="Group_464" data-name="Group 464" transform="translate(29.829 11.186)">
        <g id="Group_455" data-name="Group 455" transform="translate(0 0)">
          <path id="Path_893" data-name="Path 893" d="M1684.587,806.412l.6-.194c-.364-1.331-.683-2.562-.991-3.753a73.51,73.51,0,0,0-2.076-7.1,15.8,15.8,0,0,0-3.013-5.217,21.8,21.8,0,0,0-4.057-3.56,14.765,14.765,0,0,0-3.4-1.7,9.32,9.32,0,0,0-2.929-.549.3.3,0,0,0-.3.316h0a.354.354,0,0,0,.347.331,8.995,8.995,0,0,1,2.709.53,17.572,17.572,0,0,1,7.163,5.085c2.554,2.827,3.558,6.7,4.948,12.053C1683.9,803.844,1684.222,805.077,1684.587,806.412Z" transform="translate(-1668.426 -784.336)" fill="#ffb115"/>
        </g>
        <g id="Group_457" data-name="Group 457" transform="translate(15.334 19.437)">
          <g id="Group_456" data-name="Group 456">
            <path id="Path_894" data-name="Path 894" d="M1899.513,1079.145h0a6.14,6.14,0,0,0,3.99-4.235l.008-.027-12.043-9.737-1.519,1.619Z" transform="translate(-1889.95 -1065.145)" fill="#ffb115"/>
          </g>
        </g>
        <g id="Group_459" data-name="Group 459" transform="translate(15.334 19.437)">
          <g id="Group_458" data-name="Group 458">
            <path id="Path_895" data-name="Path 895" d="M1889.95,1066.764l1.519-1.619.813.657-.884.942,9.208,11.92a5.826,5.826,0,0,1-1.092.48h0Z" transform="translate(-1889.95 -1065.145)" fill="#e89400"/>
          </g>
        </g>
        <g id="Group_461" data-name="Group 461" transform="translate(13.639 17.701)">
          <g id="Group_460" data-name="Group 460" transform="translate(0 0)">
            <ellipse id="Ellipse_87" data-name="Ellipse 87" cx="2.009" cy="1.91" rx="2.009" ry="1.91" transform="translate(0 3.792) rotate(-70.714)" fill="#ffb115"/>
          </g>
        </g>
        <g id="Group_463" data-name="Group 463" transform="translate(14.194 19.642)">
          <g id="Group_462" data-name="Group 462">
            <path id="Path_896" data-name="Path 896" d="M1873.593,1068.1a1.933,1.933,0,0,0,.505.921,1.872,1.872,0,0,0,2.717-.081,2.079,2.079,0,0,0,.465-.791,2.1,2.1,0,0,1-.512,1.9,1.872,1.872,0,0,1-2.717.08A2.016,2.016,0,0,1,1873.593,1068.1Z" transform="translate(-1873.492 -1068.104)" fill="#e89400"/>
          </g>
        </g>
        <path id="Path_897" data-name="Path 897" d="M1977.677,1152.019l.938-1-6.8-6.473Z" transform="translate(-1950.818 -1119.612)" fill="#e89400"/>
      </g>
    </g>
  </g>
</svg>
