<svg xmlns="http://www.w3.org/2000/svg" width="93.077" height="81.642" viewBox="0 0 93.077 81.642">
  <g id="Group_576" data-name="Group 576" transform="translate(-53.216 -423.206)">
    <g id="Group_570" data-name="Group 570" transform="translate(-2045.784 -5877.999)">
      <g id="Group_542" data-name="Group 542" transform="translate(2099 6321.82)">
        <rect id="Rectangle_273" data-name="Rectangle 273" width="84.66" height="57.62" rx="3" transform="translate(2.742 0.092)" fill="#449ae3"/>
        <rect id="Rectangle_274" data-name="Rectangle 274" width="49.796" height="81.464" rx="3" transform="translate(85.804 3.127) rotate(90)" fill="#eceff0"/>
        <rect id="Rectangle_275" data-name="Rectangle 275" width="90.017" height="3.316" rx="1.658" transform="translate(0 57.711)" fill="#449ae3"/>
        <circle id="Ellipse_81" data-name="Ellipse 81" cx="1.068" cy="1.068" r="1.068" transform="translate(43.574 1.511) rotate(-45)" fill="#fff"/>
      </g>
    </g>
    <g id="Group_575" data-name="Group 575">
      <rect id="Rectangle_295" data-name="Rectangle 295" width="73" height="39" rx="2" transform="translate(62 452)" fill="#449ae3"/>
      <g id="Group_569" data-name="Group 569" transform="translate(67.016 455.156)">
        <ellipse id="Ellipse_71" data-name="Ellipse 71" cx="6.216" cy="6.216" rx="6.216" ry="6.216" transform="translate(0 6.216) rotate(-30)" fill="#fff"/>
        <path id="Path_655" data-name="Path 655" d="M0,3.187,2.24,4.48,4.826,0" transform="matrix(0.966, 0.259, -0.259, 0.966, 6.551, 5.375)" fill="none" stroke="#e96189" stroke-linecap="round" stroke-miterlimit="10" stroke-width="2"/>
      </g>
      <g id="Group_574" data-name="Group 574" transform="translate(67.016 471.156)">
        <ellipse id="Ellipse_71-2" data-name="Ellipse 71" cx="6.216" cy="6.216" rx="6.216" ry="6.216" transform="translate(0 6.216) rotate(-30)" fill="#fff"/>
        <path id="Path_655-2" data-name="Path 655" d="M0,3.187,2.24,4.48,4.826,0" transform="matrix(0.966, 0.259, -0.259, 0.966, 6.551, 5.375)" fill="none" stroke="#e96189" stroke-linecap="round" stroke-miterlimit="10" stroke-width="2"/>
      </g>
      <g id="Group_329" data-name="Group 329" transform="matrix(0.966, 0.259, -0.259, 0.966, 87.046, 456.913)">
        <line id="Line_27" data-name="Line 27" y1="3.218" x2="12.009" transform="translate(0 1.609)" fill="none" stroke="#fff" stroke-linecap="round" stroke-miterlimit="10" stroke-width="2"/>
        <line id="Line_28" data-name="Line 28" y1="1.073" x2="4.003" transform="translate(15.942 -0.518)" fill="none" stroke="#b3cdff" stroke-linecap="round" stroke-miterlimit="10" stroke-width="2"/>
        <line id="Line_29" data-name="Line 29" x1="12.009" y2="3.218" transform="translate(9.009 3.485)" fill="none" stroke="#fff" stroke-linecap="round" stroke-miterlimit="10" stroke-width="2"/>
        <line id="Line_30" data-name="Line 30" x1="4.003" y2="1.073" transform="translate(1.073 7.757)" fill="none" stroke="#b3cdff" stroke-linecap="round" stroke-miterlimit="10" stroke-width="2"/>
      </g>
      <g id="Group_573" data-name="Group 573" transform="matrix(0.966, 0.259, -0.259, 0.966, 87.046, 472.913)">
        <line id="Line_27-2" data-name="Line 27" y1="3.218" x2="12.009" transform="translate(0 1.609)" fill="none" stroke="#fff" stroke-linecap="round" stroke-miterlimit="10" stroke-width="2"/>
        <line id="Line_39" data-name="Line 39" y1="3.218" x2="12.009" transform="translate(24.148 -4.862)" fill="none" stroke="#fff" stroke-linecap="round" stroke-miterlimit="10" stroke-width="2"/>
        <line id="Line_28-2" data-name="Line 28" y1="1.073" x2="4.003" transform="translate(15.942 -0.518)" fill="none" stroke="#b3cdff" stroke-linecap="round" stroke-miterlimit="10" stroke-width="2"/>
        <line id="Line_29-2" data-name="Line 29" x1="12.009" y2="3.218" transform="translate(9.009 3.485)" fill="none" stroke="#fff" stroke-linecap="round" stroke-miterlimit="10" stroke-width="2"/>
        <line id="Line_30-2" data-name="Line 30" x1="4.003" y2="1.073" transform="translate(1.073 7.757)" fill="none" stroke="#b3cdff" stroke-linecap="round" stroke-miterlimit="10" stroke-width="2"/>
        <line id="Line_40" data-name="Line 40" x1="4.003" y2="1.073" transform="translate(27.153 0.769)" fill="none" stroke="#b3cdff" stroke-linecap="round" stroke-miterlimit="10" stroke-width="2"/>
      </g>
    </g>
    <g id="Group_561" data-name="Group 561" transform="translate(109.481 423.206)">
      <g id="Group_337" data-name="Group 337" transform="translate(17.439 0)">
        <rect id="Rectangle_268" data-name="Rectangle 268" width="4.074" height="12.221" transform="matrix(0.259, -0.966, 0.966, 0.259, 0, 3.935)" fill="#5d4381"/>
      </g>
      <g id="Group_338" data-name="Group 338" transform="translate(20.583 3.022)">
        <rect id="Rectangle_269" data-name="Rectangle 269" width="5.092" height="4.074" transform="translate(0 4.918) rotate(-75)" fill="#5d4381"/>
      </g>
      <g id="Group_339" data-name="Group 339" transform="translate(31.847 12.362)">
        <rect id="Rectangle_270" data-name="Rectangle 270" width="3.383" height="4.071" transform="translate(0 1.69) rotate(-29.968)" fill="#5d4381"/>
      </g>
      <ellipse id="Ellipse_74" data-name="Ellipse 74" cx="14.257" cy="14.257" rx="14.257" ry="14.257" transform="translate(4.076 9.949)" fill="#fff"/>
      <g id="Group_340" data-name="Group 340" transform="translate(0 5.873)">
        <path id="Path_659" data-name="Path 659" d="M1156.342,995.176a18.331,18.331,0,1,1,22.451-12.962A18.352,18.352,0,0,1,1156.342,995.176Zm8.435-31.478a14.257,14.257,0,1,0,10.082,17.462A14.274,14.274,0,0,0,1164.776,963.7Z" transform="translate(-1142.753 -959.136)" fill="#6c4f95"/>
      </g>
      <g id="Group_341" data-name="Group 341" transform="translate(6.111 11.984)">
        <path id="Path_660" data-name="Path 660" d="M1237.155,1068.506a12.221,12.221,0,1,1,6.326-23.608,2.037,2.037,0,0,1-1.054,3.935,8.147,8.147,0,1,0-4.217,15.739,2.037,2.037,0,1,1-1.055,3.935Z" transform="translate(-1228.096 -1044.48)" fill="#ffb115"/>
      </g>
      <g id="Group_342" data-name="Group 342" transform="translate(21.262 24.819)">
        <path id="Path_661" data-name="Path 661" d="M1439.946,1233a2.056,2.056,0,0,1,.784-2.791h0a2.015,2.015,0,0,1,2.753.805h0a2.018,2.018,0,0,1-.776,2.76h0a1.991,1.991,0,0,1-1.5.2h0A2.071,2.071,0,0,1,1439.946,1233Zm4.685-7.785a2.031,2.031,0,0,1,2.475-1.429h0a2.038,2.038,0,0,1,1.46,2.483h0a2.046,2.046,0,0,1-2.514,1.452h0A2.039,2.039,0,0,1,1444.632,1225.213Z" transform="translate(-1439.688 -1223.716)" fill="#ffb115"/>
      </g>
      <g id="Group_343" data-name="Group 343" transform="translate(15.536 21.409)">
        <ellipse id="Ellipse_75" data-name="Ellipse 75" cx="2.037" cy="2.037" rx="2.037" ry="2.037" transform="translate(0 3.484) rotate(-58.792)" fill="#a481d4"/>
      </g>
      <g id="Group_344" data-name="Group 344" transform="translate(17.578 12.367)">
        <path id="Path_662" data-name="Path 662" d="M1388.992,1061.664a1.019,1.019,0,0,1-.72-1.248l2.636-9.837a1.018,1.018,0,1,1,1.967.527l-2.636,9.837A1.019,1.019,0,0,1,1388.992,1061.664Z" transform="translate(-1388.237 -1049.825)" fill="#a481d4"/>
      </g>
    </g>
  </g>
</svg>
