<svg xmlns="http://www.w3.org/2000/svg" width="59.899" height="92.194" viewBox="0 0 59.899 92.194">
  <path id="Path_52252" data-name="Path 52252" d="M311.763,235.441c9.986-3.149,18.195-16.031,18.195-30v-1.93l-8.567-.067q.069-1.7.071-3.441H278.814c0,.032,0,.064,0,.1h-.259q0,1.738.071,3.441l-8.567.067v1.931c0,13.972,8.209,26.853,18.195,30a18.24,18.24,0,0,0,7.333,5.968c.137,2.239.211,4.566.211,6.959,0,7.7-5.072,14.738-6.808,20.185h-4c-2.892,0-5.236,2.613-5.236,5.837v9.439a6.458,6.458,0,0,0,.172,1.459h-2.653v6.81H322.74v-6.81h-2.653a6.461,6.461,0,0,0,.172-1.459v-9.439c0-3.223-2.344-5.837-5.236-5.837h-3.991c-1.687-5.447-6.327-12.49-6.327-20.185,0-2.5.08-4.938.23-7.272A18.706,18.706,0,0,0,311.763,235.441Zm9.378-28.111,4.87.038c-.539,9.36-4.945,17.218-10.289,21.48A64.5,64.5,0,0,0,321.141,207.33Zm-47.135.134,4.87-.038a64.5,64.5,0,0,0,5.419,21.518C278.951,224.682,274.545,216.824,274.006,207.464Zm39.936,66.152v11.768H286.075V273.616Zm-13.934-46.925-9.2,4.836,1.757-10.242-7.441-7.253,10.284-1.494,4.6-9.318,4.6,9.318,10.283,1.494-7.441,7.253,1.757,10.242Z" transform="translate(-270.059 -200)" fill="#ffca3d"/>
</svg>
