<svg xmlns="http://www.w3.org/2000/svg" width="22.898" height="35.244" viewBox="0 0 22.898 35.244">
  <path id="Path_52252" data-name="Path 52252" d="M286,213.549c3.818-1.2,6.956-6.128,6.956-11.47v-.738l-3.275-.026q.027-.651.027-1.315h-16.3c0,.012,0,.024,0,.036h-.1q0,.664.027,1.315l-3.275.026v.738c0,5.341,3.138,10.266,6.956,11.47a6.973,6.973,0,0,0,2.8,2.281c.052.856.081,1.746.081,2.66,0,2.942-1.939,5.634-2.6,7.717h-1.527a2.126,2.126,0,0,0-2,2.231v3.608a2.469,2.469,0,0,0,.066.558h-1.014v2.6H290.2v-2.6h-1.014a2.469,2.469,0,0,0,.066-.558v-3.608a2.126,2.126,0,0,0-2-2.231h-1.526c-.645-2.082-2.419-4.775-2.419-7.717,0-.957.031-1.888.088-2.78A7.151,7.151,0,0,0,286,213.549Zm3.585-10.746,1.862.015a11.466,11.466,0,0,1-3.933,8.211A24.656,24.656,0,0,0,289.587,202.8Zm-18.019.051,1.862-.015a24.658,24.658,0,0,0,2.072,8.226A11.465,11.465,0,0,1,271.568,202.853Zm15.267,25.289v4.5H276.182v-4.5ZM281.508,210.2l-3.516,1.849.672-3.915-2.845-2.773,3.931-.571,1.758-3.562,1.758,3.562,3.931.571-2.845,2.773.672,3.915Z" transform="translate(-270.059 -200)" fill="#ffca3d"/>
</svg>
