<svg xmlns="http://www.w3.org/2000/svg" width="24.318" height="37.43" viewBox="0 0 24.318 37.43">
  <path id="Path_52252" data-name="Path 52252" d="M286.991,214.389c4.054-1.279,7.387-6.508,7.387-12.181v-.784L290.9,201.4q.028-.691.029-1.4H273.613c0,.013,0,.026,0,.039h-.105q0,.706.029,1.4l-3.478.027v.784c0,5.672,3.333,10.9,7.387,12.181a7.4,7.4,0,0,0,2.977,2.423c.056.909.086,1.854.086,2.825,0,3.124-2.059,5.984-2.764,8.2h-1.622a2.258,2.258,0,0,0-2.126,2.37v3.832a2.622,2.622,0,0,0,.07.592h-1.077v2.765h18.458v-2.765H290.37a2.617,2.617,0,0,0,.07-.592v-3.832a2.258,2.258,0,0,0-2.126-2.37h-1.62c-.685-2.211-2.569-5.071-2.569-8.2,0-1.017.033-2,.093-2.952A7.6,7.6,0,0,0,286.991,214.389Zm3.807-11.413,1.977.016a12.176,12.176,0,0,1-4.177,8.721A26.186,26.186,0,0,0,290.8,202.976Zm-19.136.054,1.977-.016a26.184,26.184,0,0,0,2.2,8.736A12.176,12.176,0,0,1,271.661,203.03Zm16.214,26.857v4.778H276.561v-4.778Zm-5.657-19.051-3.734,1.963.713-4.158-3.021-2.945,4.175-.607,1.867-3.783,1.867,3.783,4.175.607-3.021,2.945.713,4.158Z" transform="translate(-270.059 -200)" fill="#d0fd08"/>
</svg>
