<svg xmlns="http://www.w3.org/2000/svg" width="22.085" height="33.992" viewBox="0 0 22.085 33.992">
  <path id="Path_52250" data-name="Path 52250" d="M285.435,213.067c3.682-1.161,6.708-5.911,6.708-11.062v-.712l-3.159-.025q.025-.628.026-1.269H273.287c0,.012,0,.023,0,.035h-.1q0,.641.026,1.269l-3.159.025v.712c0,5.151,3.027,9.9,6.708,11.062a6.725,6.725,0,0,0,2.7,2.2c.051.825.078,1.684.078,2.566,0,2.837-1.87,5.434-2.51,7.442h-1.473a2.05,2.05,0,0,0-1.931,2.152v3.48a2.383,2.383,0,0,0,.063.538h-.978v2.511h16.763v-2.511H288.5a2.385,2.385,0,0,0,.063-.538v-3.48a2.05,2.05,0,0,0-1.931-2.152h-1.471c-.622-2.008-2.333-4.605-2.333-7.442,0-.923.03-1.821.085-2.681A6.9,6.9,0,0,0,285.435,213.067Zm3.458-10.365,1.8.014a11.058,11.058,0,0,1-3.793,7.92A23.779,23.779,0,0,0,288.893,202.7Zm-17.379.049,1.8-.014a23.781,23.781,0,0,0,2,7.934A11.058,11.058,0,0,1,271.514,202.752Zm14.725,24.39v4.339H275.964v-4.339Zm-5.137-17.3-3.391,1.783.648-3.776-2.744-2.674,3.791-.551,1.7-3.436,1.7,3.436,3.791.551-2.744,2.674.648,3.776Z" transform="translate(-270.059 -200)" fill="#ffb100"/>
</svg>
