<svg xmlns="http://www.w3.org/2000/svg" width="18.936" height="29.146" viewBox="0 0 18.936 29.146">
  <path id="Path_52252" data-name="Path 52252" d="M283.243,211.2c3.157-1,5.752-5.068,5.752-9.485v-.61l-2.708-.021q.022-.538.022-1.088H272.827c0,.01,0,.02,0,.03h-.082q0,.549.022,1.088l-2.708.021v.61c0,4.417,2.6,8.49,5.752,9.485a5.766,5.766,0,0,0,2.318,1.887c.043.708.067,1.444.067,2.2,0,2.433-1.6,4.659-2.152,6.381h-1.263a1.758,1.758,0,0,0-1.655,1.845v2.984a2.042,2.042,0,0,0,.054.461h-.839v2.153h14.373v-2.153h-.839a2.042,2.042,0,0,0,.054-.461v-2.984a1.758,1.758,0,0,0-1.655-1.845h-1.262c-.533-1.722-2-3.949-2-6.381,0-.792.025-1.561.073-2.3A5.914,5.914,0,0,0,283.243,211.2Zm2.965-8.887,1.54.012a9.482,9.482,0,0,1-3.253,6.791A20.39,20.39,0,0,0,286.208,202.317Zm-14.9.042,1.54-.012a20.392,20.392,0,0,0,1.713,6.8A9.482,9.482,0,0,1,271.307,202.36Zm12.625,20.913v3.72h-8.81v-3.72Zm-4.405-14.835-2.908,1.529.555-3.238-2.352-2.293,3.251-.472,1.454-2.946,1.454,2.946,3.251.472-2.352,2.293.555,3.238Z" transform="translate(-270.059 -200)" fill="#e96189"/>
</svg>
