<svg id="icon" xmlns="http://www.w3.org/2000/svg" width="20.794" height="17.683" viewBox="0 0 20.794 17.683">
  <path id="Path_52277" data-name="Path 52277" d="M-790.693,221.159c0-.849,0-1.7,0-2.547,0-.778,0-1.556.016-2.333a2.884,2.884,0,0,1,1.016-2.109,3.08,3.08,0,0,1,1.157-.663,3.378,3.378,0,0,1,.791-.12c.223-.017.448.005.673.006a.526.526,0,0,1,.434.257.374.374,0,0,1,.046.419.6.6,0,0,1-.474.363c-.241.011-.482.014-.722.025a1.911,1.911,0,0,0-1.346.667,1.97,1.97,0,0,0-.523,1.392c.007,1.364,0,2.729,0,4.093q0,2.481,0,4.961c0,.137,0,.274.006.411a1.982,1.982,0,0,0,1.116,1.694,2.091,2.091,0,0,0,1.045.222q2.844,0,5.687,0,4.265,0,8.529,0a4.257,4.257,0,0,0,.558-.026,1.908,1.908,0,0,0,1.156-.631,2.02,2.02,0,0,0,.544-1.451c-.008-1.54,0-3.079,0-4.619q0-2.16,0-4.32c0-.2,0-.395-.017-.591a1.938,1.938,0,0,0-.867-1.46,2.218,2.218,0,0,0-1.389-.366c-.375.01-.75,0-1.125,0-.624,0-1.249.014-1.873.013q-2.613,0-5.226-.013c-.11,0-.219.008-.329.007a.6.6,0,0,1-.56-.429.5.5,0,0,1,.324-.594.4.4,0,0,1,.142-.03q.328-.008.657-.009,4.06,0,8.12,0a5.494,5.494,0,0,1,.7.043,2.346,2.346,0,0,1,1.01.407,4.114,4.114,0,0,1,.723.609,2.686,2.686,0,0,1,.76,1.8q.025,1.38.028,2.76.006,3.266,0,6.533a8.96,8.96,0,0,1-.069.966,2.62,2.62,0,0,1-.406.994,2.929,2.929,0,0,1-1.121,1.082,2.786,2.786,0,0,1-1.409.383q-1.882,0-3.764,0c-.646,0-1.292.021-1.938.02q-4.392-.007-8.784-.024a4.3,4.3,0,0,1-.96-.082,2.8,2.8,0,0,1-.822-.353,3.563,3.563,0,0,1-.729-.6,2.749,2.749,0,0,1-.774-1.915q0-1.931,0-3.863v-.985Z" transform="translate(790.693 -211.3)"/>
  <path id="Path_52278" data-name="Path 52278" d="M-768.385,243.01a4.2,4.2,0,0,1-4.085-4.278,4.232,4.232,0,0,1,4.411-4.042,4.217,4.217,0,0,1,3.92,4.436A4.179,4.179,0,0,1-768.385,243.01Zm-3-4.18a3.107,3.107,0,0,0,3.363,3.111,3.147,3.147,0,0,0,2.822-3.3,3.131,3.131,0,0,0-3.073-2.887A3.115,3.115,0,0,0-771.385,238.83Z" transform="translate(775.572 -228.98)"/>
  <path id="Path_52279" data-name="Path 52279" d="M-766.685,201.165c.629,0,1.259,0,1.888,0a1.139,1.139,0,0,1,.446.078.457.457,0,0,1,.268.5.585.585,0,0,1-.406.453.774.774,0,0,1-.306.042c-1.259,0-2.518,0-3.777,0a.74.74,0,0,1-.5-.159.507.507,0,0,1-.173-.559.433.433,0,0,1,.413-.34,3.393,3.393,0,0,1,.376-.02C-767.868,201.163-767.276,201.164-766.685,201.165Z" transform="translate(772.916 -201.163)"/>
  <path id="Path_52280" data-name="Path 52280" d="M-700.712,226.719c-.312,0-.624-.006-.936,0a.635.635,0,0,1-.561-.313.476.476,0,0,1,.337-.728c.764-.018,1.529-.012,2.294,0a.451.451,0,0,1,.417.452.518.518,0,0,1-.358.547,1.112,1.112,0,0,1-.307.042c-.3.005-.591,0-.887,0Z" transform="translate(717.328 -221.498)"/>
</svg>
