<svg xmlns="http://www.w3.org/2000/svg" width="40.068" height="38.996" viewBox="0 0 40.068 38.996">
  <g id="icon" transform="translate(391.807 -1575.583)">
    <path id="Path_16384" data-name="Path 16384" d="M-358.762,1578.583H-384.7a7.107,7.107,0,0,0-7.107,7.091v26.52a2.4,2.4,0,0,0,1.452,2.185,2.408,2.408,0,0,0,.97.2,2.4,2.4,0,0,0,1.614-.622,17.627,17.627,0,0,1,11.85-4.562h17.163a7.034,7.034,0,0,0,7.019-7.034v-16.776A7.024,7.024,0,0,0-358.762,1578.583Zm4.675,23.783a4.684,4.684,0,0,1-4.671,4.686H-375.92a19.975,19.975,0,0,0-13.428,5.171.07.07,0,0,1-.061.008.106.106,0,0,1-.05-.044v-26.512a4.757,4.757,0,0,1,4.759-4.743h25.938a4.673,4.673,0,0,1,4.675,4.66v16.776Z" fill="#fff"/>
    <text id="Q" transform="translate(-378.362 1600.583)" fill="#fff" font-size="30" font-family="DBHeavent, DB Heavent"><tspan x="0" y="0">Q</tspan></text>
  </g>
</svg>
