<svg xmlns="http://www.w3.org/2000/svg" width="20" height="20" viewBox="0 0 20 20">
  <path id="Instagram" d="M14.042,20H5.958A5.965,5.965,0,0,1,0,14.042V5.958A5.965,5.965,0,0,1,5.958,0h8.084A5.965,5.965,0,0,1,20,5.958v8.084A5.965,5.965,0,0,1,14.042,20ZM5.958,2.012A3.951,3.951,0,0,0,2.012,5.958v8.084a3.95,3.95,0,0,0,3.946,3.946h8.084a3.95,3.95,0,0,0,3.946-3.946V5.958a3.95,3.95,0,0,0-3.946-3.946ZM10,15.172A5.173,5.173,0,1,1,15.173,10,5.178,5.178,0,0,1,10,15.172Zm0-8.333A3.161,3.161,0,1,0,13.161,10,3.164,3.164,0,0,0,10,6.839Zm5.182-.734a1.24,1.24,0,1,1,1.24-1.239A1.241,1.241,0,0,1,15.182,6.106Z" fill="#fff"/>
</svg>
