<svg xmlns="http://www.w3.org/2000/svg" width="22.474" height="21.51" viewBox="0 0 22.474 21.51">
  <path id="Path_6265" data-name="Path 6265" d="M-433.071,1031.841v-1.491c.056-.019.042-.069.049-.109.049-.273.083-.55.148-.819a8.821,8.821,0,0,1,3.577-5.138,12.145,12.145,0,0,1,5.914-2.233,13.128,13.128,0,0,1,6.594.893,10.124,10.124,0,0,1,5.015,4.144,7.422,7.422,0,0,1,.449,7.209,10.546,10.546,0,0,1-2.212,3.03,32.177,32.177,0,0,1-4.8,3.877,27.508,27.508,0,0,1-3.384,2.061,1.669,1.669,0,0,1-.688.2c-.285.009-.428-.116-.431-.4a3.337,3.337,0,0,1,.055-.5,7.639,7.639,0,0,0,.161-1.522.724.724,0,0,0-.428-.66,3.046,3.046,0,0,0-.9-.257,11.9,11.9,0,0,1-5.925-2.592,8.528,8.528,0,0,1-3.08-5.107A2.066,2.066,0,0,0-433.071,1031.841Zm11.193-1.01c.067.088.12.156.171.226q1.016,1.387,2.032,2.775a.6.6,0,0,0,.721.271.614.614,0,0,0,.4-.639q0-2.158,0-4.317a.609.609,0,0,0-.581-.683c-.361-.006-.6.263-.6.684q0,1.205,0,2.41v.222a.389.389,0,0,1-.166-.172q-1.008-1.366-2.012-2.735c-.267-.364-.478-.471-.754-.382-.307.1-.416.3-.416.776q0,1.939,0,3.878c0,.161,0,.322.011.482a.562.562,0,0,0,.5.5.572.572,0,0,0,.627-.4,1.263,1.263,0,0,0,.029-.325c0-.767,0-1.534,0-2.3A.492.492,0,0,1-421.878,1030.83Zm5.813,3.3h1.118a.584.584,0,0,0,.583-.588.6.6,0,0,0-.648-.594q-.7-.009-1.4,0c-.131,0-.182-.033-.176-.172.01-.233.013-.468,0-.7-.009-.162.057-.193.2-.191.446.008.892,0,1.337,0a.85.85,0,0,0,.281-.029.586.586,0,0,0,.4-.631.576.576,0,0,0-.579-.523c-.49-.009-.979-.008-1.469,0-.135,0-.179-.038-.173-.173a6.922,6.922,0,0,0,0-.7c-.01-.162.054-.192.2-.19.468.009.936.006,1.4,0a.591.591,0,0,0,.625-.593.59.59,0,0,0-.627-.589q-1.075,0-2.149,0a.583.583,0,0,0-.627.632q0,2.2,0,4.406a.579.579,0,0,0,.626.63C-416.781,1034.136-416.423,1034.132-416.064,1034.132Zm-13-2.817v.811c0,.453-.005.906,0,1.358a.577.577,0,0,0,.569.644q1.139.014,2.279,0a.564.564,0,0,0,.557-.562.594.594,0,0,0-.646-.616c-.46-.006-.92-.009-1.38,0-.168,0-.209-.05-.207-.211.008-.759,0-1.519,0-2.278,0-.482.006-.964-.007-1.446a.566.566,0,0,0-.545-.553.58.58,0,0,0-.611.508,1.835,1.835,0,0,0-.014.262Q-429.062,1030.274-429.061,1031.314Zm5.129-.006h0c0-.753.005-1.506,0-2.259a.575.575,0,0,0-.494-.582.593.593,0,0,0-.64.39,1.06,1.06,0,0,0-.034.347q0,2.094,0,4.188a1.818,1.818,0,0,0,.011.241.57.57,0,0,0,.553.5.579.579,0,0,0,.605-.629C-423.928,1032.77-423.932,1032.039-423.932,1031.308Z" transform="translate(433.071 -1021.96)" fill="#fff"/>
</svg>
