<svg xmlns="http://www.w3.org/2000/svg" width="21.242" height="24.005" viewBox="0 0 21.242 24.005">
  <g id="Group_170" data-name="Group 170" transform="translate(-654.004 -259.997)">
    <g id="Group_169" data-name="Group 169">
      <path id="Path_52211" data-name="Path 52211" d="M69.7,323.094c0,1.886-.04,3.772.013,5.656a4.988,4.988,0,0,1-1.433,3.774,29.216,29.216,0,0,1-7.457,5.623,3.414,3.414,0,0,1-3.015.134,18.256,18.256,0,0,1-3.768-2.192,23.179,23.179,0,0,1-4.655-4.207,3.99,3.99,0,0,1-.894-2.6c-.008-4.105.01-8.211-.013-12.316-.005-.938.272-1.471,1.43-1.692a29.773,29.773,0,0,1,3.775-.465c2.213-.133,4.433-.272,6.648-.241a45.605,45.605,0,0,1,7.9.689c1.3.247,1.5.829,1.485,1.735C69.679,319.028,69.7,321.061,69.7,323.094Z" transform="translate(605.526 -54.567)" fill="#00bd00"/>
    </g>
    <path id="Path_115" data-name="Path 115" d="M50,13l3,3,8-8" transform="translate(609 258)" fill="none" stroke="#fff" stroke-linecap="round" stroke-linejoin="round" stroke-miterlimit="10" stroke-width="2"/>
  </g>
</svg>
