<svg xmlns="http://www.w3.org/2000/svg" width="37.535" height="38.846" viewBox="0 0 37.535 38.846">
  <g id="icon" transform="translate(0.242 0.25)">
    <path id="Path_52259" data-name="Path 52259" d="M333.574,434.307q0-3.424,0-6.849a7.654,7.654,0,0,0-15.2-.442,70.4,70.4,0,0,0,.008,7.5,1.461,1.461,0,0,0,1.6,1.182,13.919,13.919,0,0,1,1.406.172c.029,3.02-.149,6.041.095,9.058a2.07,2.07,0,0,0,1.944,1.538l4.86,0a2.079,2.079,0,0,0,2.174-1.757q.025-4.425.05-8.85c.536-.061,1.07-.14,1.607-.178C332.988,435.626,333.542,435.248,333.574,434.307Zm-2.6-.024c-1.54.051-1.938.486-1.944,2.025-.009,2.472-.028,4.944.011,7.416.015.949-.323,1.344-1.292,1.3-1.178-.054-2.364-.061-3.541,0-1.044.056-1.367-.4-1.323-1.38.054-1.215.013-2.434.013-3.652,0-1.292.021-2.583-.006-3.874-.028-1.309-.505-1.827-1.8-1.831-.98,0-1.284-.421-1.257-1.351.048-1.659,0-3.321.015-4.98a6.142,6.142,0,0,1,5.751-6.031,6.057,6.057,0,0,1,6.459,5.494c.149,1.908.072,3.833.1,5.75C332.16,433.964,331.748,434.257,330.975,434.282Z" transform="translate(-307.444 -408.127)" fill="#a8a8a8" stroke="#a8a8a8" stroke-width="0.5"/>
    <path id="Path_52260" data-name="Path 52260" d="M304.74,434.914c0,.764-.019,1.537.005,2.308.025.8-.348,1.15-1.13,1.144-1.292-.01-2.584-.016-3.876,0-.833.013-1.2-.327-1.183-1.193.037-1.993.016-3.987.01-5.98,0-1.533-.4-1.975-1.935-2.028-.865-.031-1.174-.428-1.155-1.246.026-1.144-.027-2.29.013-3.433a5.97,5.97,0,0,1,3.383-5.44,5.645,5.645,0,0,1,6.263.438c.755.555,1.068.1,1.416-.3.537-.616-.248-.738-.506-.926a7.655,7.655,0,0,0-11.955,4.68,26.788,26.788,0,0,0-.174,5.078,2.282,2.282,0,0,0,2.339,2.634c.68.056.757.322.751.881q-.035,2.99,0,5.98a2.182,2.182,0,0,0,2.264,2.334c1.549.037,3.1.035,4.651,0a2.216,2.216,0,0,0,2.279-2.108c.048-.438-.036-.893.034-1.326C306.407,435.342,306,434.811,304.74,434.914Z" transform="translate(-293.884 -406.108)" fill="#a8a8a8" stroke="#a8a8a8" stroke-width="0.5"/>
    <path id="Path_52261" data-name="Path 52261" d="M361.276,424.332a7.516,7.516,0,0,0-4.392-6.781,7.4,7.4,0,0,0-7.842.7c-.684.467-.649.755-.051,1.3.552.5.784.018,1.095-.188a6.135,6.135,0,0,1,9.452,3.669c.378,1.529.081,3.088.2,4.627.08,1.046-.323,1.471-1.385,1.464-1.155-.007-1.673.556-1.7,1.7-.027,1.069-.006,2.139-.006,3.209,0,1.033-.035,2.067.01,3.1.038.877-.356,1.2-1.188,1.166-.774-.029-1.549,0-2.324-.007-2.646-.025-2.717.39-2.681-2.6,0-.309.28-.9-.488-.809-.516.06-1.059.013-.98.816.055.548-.007,1.107.015,1.659a2.259,2.259,0,0,0,2.5,2.45c1.328.016,2.656.01,3.984,0,1.9-.011,2.7-.809,2.71-2.678s.031-3.764-.015-5.644c-.016-.661.163-.858.838-.923a2.258,2.258,0,0,0,2.262-2.583C361.3,426.766,361.346,425.545,361.276,424.332Z" transform="translate(-324.268 -406.063)" fill="#a8a8a8" stroke="#a8a8a8" stroke-width="0.5"/>
    <path id="Path_52262" data-name="Path 52262" d="M329.842,405.262a4.594,4.594,0,0,0,.028-9.188,4.594,4.594,0,0,0-.028,9.188Zm.073-7.7a3.125,3.125,0,0,1,3.007,3.076,3.063,3.063,0,1,1-6.127-.01A3.11,3.11,0,0,1,329.915,397.559Z" transform="translate(-311.341 -394.575)" fill="#a8a8a8" stroke="#a8a8a8" stroke-width="0.5"/>
    <path id="Path_52263" data-name="Path 52263" d="M305.5,401.852a4.577,4.577,0,1,0-4.593-4.673A4.606,4.606,0,0,0,305.5,401.852Zm.091-7.712a3.207,3.207,0,0,1,3.033,3.079,3.1,3.1,0,0,1-3.107,3.071,3,3,0,0,1-3.051-3.089A3.123,3.123,0,0,1,305.6,394.139Z" transform="translate(-297.791 -392.699)" fill="#a8a8a8" stroke="#a8a8a8" stroke-width="0.5"/>
    <path id="Path_52264" data-name="Path 52264" d="M354.094,401.852a4.656,4.656,0,0,0,4.61-4.548,4.618,4.618,0,1,0-4.61,4.548Zm-.056-7.714a3.128,3.128,0,0,1,3.109,3.087,3.032,3.032,0,0,1-3.086,3.065,3.1,3.1,0,0,1-3.082-3.095A3.22,3.22,0,0,1,354.038,394.138Z" transform="translate(-324.786 -392.7)" fill="#a8a8a8" stroke="#a8a8a8" stroke-width="0.5"/>
  </g>
</svg>
