<svg xmlns="http://www.w3.org/2000/svg" width="31.475" height="31.614" viewBox="0 0 31.475 31.614">
  <g id="sport_running_exercise" data-name="sport running exercise" transform="translate(0.831 1.061)">
    <path id="Path_52215" data-name="Path 52215" d="M245.8,1165.243c0,2.413-1.923,2.413-1.923,2.413h-4.326a9.291,9.291,0,0,1-6.249-2.9c-1.7-1.706-6.73-8.687-9.614-12.066a22.193,22.193,0,0,0-4.225-3.674,1.435,1.435,0,0,0-1.873.247l-1.325,1.5a1.452,1.452,0,0,0,.154,1.865l13.786,13.847a10.555,10.555,0,0,0,7.478,3.11h6.2a1.935,1.935,0,0,0,1.923-1.931v-2.9" transform="translate(-216 -1139.782)" fill="none" stroke="#dbdbdb" stroke-linecap="round" stroke-linejoin="round" stroke-width="1.5"/>
    <path id="Path_52216" data-name="Path 52216" d="M240.716,1097.3l6.784-6.784a.476.476,0,0,1,.6-.06l.176.117a1.429,1.429,0,0,1,.553,1.67l-.936,2.622a.952.952,0,0,0,1.412,1.121c1.687-1.075,3.962-2.16,5.14-.983.953.953.953,3.335.953,3.335" transform="translate(-237.773 -1088.336)" fill="none" stroke="#dbdbdb" stroke-linecap="round" stroke-linejoin="round" stroke-width="1.5"/>
    <line id="Line_798" data-name="Line 798" x2="5.157" y2="0.469" transform="translate(17.041 12.302)" fill="none" stroke="#dbdbdb" stroke-linecap="round" stroke-linejoin="round" stroke-width="1.5"/>
    <line id="Line_799" data-name="Line 799" x2="4.688" transform="translate(17.512 15.139)" fill="none" stroke="#dbdbdb" stroke-linecap="round" stroke-linejoin="round" stroke-width="1.5"/>
    <line id="Line_800" data-name="Line 800" x2="2.813" transform="translate(19.393 18.45)" fill="none" stroke="#dbdbdb" stroke-linecap="round" stroke-linejoin="round" stroke-width="1.5"/>
    <line id="Line_801" data-name="Line 801" y1="0.469" x2="1.875" transform="translate(21.279 20.819)" fill="none" stroke="#dbdbdb" stroke-linecap="round" stroke-linejoin="round" stroke-width="1.5"/>
    <path id="Path_52217" data-name="Path 52217" d="M350.377,1084.208v-10.5a.476.476,0,0,0-.555-.47l-3.972.645a1.9,1.9,0,0,0-1.573,2.388l.384,1.248" transform="translate(-328.764 -1073.231)" fill="none" stroke="#dbdbdb" stroke-linecap="round" stroke-linejoin="round" stroke-width="1.5"/>
    <line id="Line_802" data-name="Line 802" y1="0.584" transform="translate(21.632 12.894)" fill="none" stroke="#dbdbdb" stroke-linecap="round" stroke-linejoin="round" stroke-width="1.5"/>
    <line id="Line_803" data-name="Line 803" y1="0.891" transform="translate(21.632 15.418)" fill="none" stroke="#dbdbdb" stroke-linecap="round" stroke-linejoin="round" stroke-width="1.5"/>
    <path id="Path_52218" data-name="Path 52218" d="M396.759,1225.706c-.033-.147-.061-.331-.085-.476" transform="translate(-374.96 -1206.96)" fill="none" stroke="#dbdbdb" stroke-linecap="round" stroke-linejoin="round" stroke-width="1.5"/>
    <path id="Path_52219" data-name="Path 52219" d="M411.015,1251.995s-.171-1.327-3.335-2.382a6.5,6.5,0,0,1-3.828-3.193" transform="translate(-381.211 -1225.525)" fill="none" stroke="#dbdbdb" stroke-linecap="round" stroke-linejoin="round" stroke-width="1.5"/>
    <line id="Line_804" data-name="Line 804" x2="0.975" y2="0.981" transform="translate(6.749)" fill="none" stroke="#dbdbdb" stroke-linecap="round" stroke-linejoin="round" stroke-width="1.5"/>
    <line id="Line_805" data-name="Line 805" x1="2.344" y1="2.344" transform="translate(3.728)" fill="none" stroke="#dbdbdb" stroke-linecap="round" stroke-linejoin="round" stroke-width="1.5"/>
    <line id="Line_806" data-name="Line 806" x1="0.469" y1="0.469" transform="translate(4.197 3.282)" fill="none" stroke="#dbdbdb" stroke-linecap="round" stroke-linejoin="round" stroke-width="1.5"/>
  </g>
</svg>
