<svg xmlns="http://www.w3.org/2000/svg" width="27.559" height="42.417" viewBox="0 0 27.559 42.417">
  <path id="Path_52913" data-name="Path 52913" d="M289.247,216.306c4.594-1.449,8.371-7.376,8.371-13.8v-.888l-3.942-.031q.032-.783.033-1.583H274.087c0,.015,0,.029,0,.044h-.119q0,.8.032,1.583l-3.942.031v.888c0,6.428,3.777,12.355,8.371,13.8A8.392,8.392,0,0,0,281.8,219.1c.063,1.03.1,2.1.1,3.2,0,3.541-2.334,6.781-3.133,9.287H276.93a2.559,2.559,0,0,0-2.409,2.685v4.343a2.973,2.973,0,0,0,.079.671H273.38v3.133H294.3v-3.133h-1.221a2.973,2.973,0,0,0,.079-.671V234.27a2.559,2.559,0,0,0-2.409-2.685H288.91c-.776-2.506-2.911-5.746-2.911-9.287,0-1.152.037-2.272.106-3.346A8.607,8.607,0,0,0,289.247,216.306Zm4.315-12.934,2.241.018a13.8,13.8,0,0,1-4.734,9.883A29.674,29.674,0,0,0,293.561,203.373Zm-21.686.062,2.241-.018a29.676,29.676,0,0,0,2.493,9.9A13.8,13.8,0,0,1,271.875,203.434Zm18.374,30.436v5.414H277.428V233.87Zm-6.411-21.589-4.232,2.225.808-4.712-3.424-3.337,4.731-.687,2.116-4.287,2.116,4.287,4.731.688-3.424,3.337.808,4.712Z" transform="translate(-270.059 -200)" fill="#a8a8a8"/>
</svg>
