<svg xmlns="http://www.w3.org/2000/svg" width="50.155" height="42.042" viewBox="0 0 50.155 42.042">
  <g id="icon" transform="translate(0.15 0.152)">
    <path id="Path_52303" data-name="Path 52303" d="M315.743,811.919c-.782-.822-3.692-3.825-4.125-4.358-.372-.979-2.9-7.652-4.3-11.581-.009-.024-.018-.048-.029-.071a4.13,4.13,0,0,0-2.789-2.042,5.212,5.212,0,0,0-1.188-.164l7.442-12.919a.821.821,0,1,0-1.421-.823l-8.415,14.609c-2.137,1.493-4.444,2.42-8.072-.046-1.936-1.316-1.863-2.61-1.779-4.108a5.012,5.012,0,0,0-.406-2.821l3.919-6.8a.821.821,0,1,0-1.421-.822l-3.695,6.415a5,5,0,0,0-2.876-.818.82.82,0,0,0-.615.346l-8.029,11.409-4.788,4.9a.824.824,0,0,0,.176,1.288l11.07,6.406a.82.82,0,0,0,.513.1,8.09,8.09,0,0,1,3.444.158,9.956,9.956,0,0,1,2.1,3.077.821.821,0,0,0,.328.353l9,5.205a17.088,17.088,0,0,0,8.448,2.394c3.6,0,6.716-1.393,8.287-4.067l0,0C317.686,815.4,317.434,813.7,315.743,811.919Zm-.241,3.619a2.742,2.742,0,0,1-.347.674,4.548,4.548,0,0,1-6.318,1.215l-8.074-5.488c1.2-.813,3.123-1.448,6,.8a14.051,14.051,0,0,0,8.544,2.8Zm-28.445-28.314a3.27,3.27,0,0,1,1.541.56l.032.022c.866.557.87,1.21.8,2.518a5.414,5.414,0,0,0,2.5,5.563c5.206,3.538,8.638,1,10.482-.363a2.32,2.32,0,0,1,1.688-.063,2.6,2.6,0,0,1,1.693,1.112c.09.253.185.518.283.79l-1.979.734a.823.823,0,0,0,.285,1.594.813.813,0,0,0,.285-.051l1.971-.731c.292.8.6,1.629.905,2.456l-1.964.728a.822.822,0,1,0,.57,1.543l1.968-.73c.328.878.642,1.715.921,2.456l-1.933.717a.823.823,0,0,0,.285,1.594.813.813,0,0,0,.285-.051l1.944-.721c.313.829.511,1.349.519,1.368a.825.825,0,0,0,.123.217c.48.609,3.524,3.752,4.3,4.569a5.234,5.234,0,0,1,.664.837,12.453,12.453,0,0,1-7.449-2.451c-4.162-3.251-7.086-1.557-8.445-.478l-12.865-8.745c3.542-5.254-.1-10.449-1.453-12.081Zm-3.029,4.3a12.093,12.093,0,0,1,1.657,2.814,7.03,7.03,0,0,1-.586,6.951l-5.373-3.652Zm16.567,25.86-8.78-5.081c-.4-.8-1.534-2.9-2.62-3.544s-3.328-.5-4.21-.409l-9.919-5.74,3.614-3.7,29.235,19.871a6.172,6.172,0,0,0,1.427.717l-.068.007A14.986,14.986,0,0,1,300.6,817.387Z" transform="translate(-267.377 -779.549)" fill="#a8a8a8" stroke="#a8a8a8" stroke-width="0.3"/>
    <path id="Path_52304" data-name="Path 52304" d="M323.627,923.957H314.96a.838.838,0,0,0,0,1.677h8.667a.838.838,0,1,0,0-1.677Z" transform="translate(-297.327 -883.894)" fill="#a8a8a8" stroke="#a8a8a8" stroke-width="0.3"/>
    <path id="Path_52305" data-name="Path 52305" d="M294.071,906.558a.838.838,0,0,0-.838-.838h-8.667a.838.838,0,0,0,0,1.677h8.667A.838.838,0,0,0,294.071,906.558Z" transform="translate(-275.33 -870.817)" fill="#a8a8a8" stroke="#a8a8a8" stroke-width="0.3"/>
    <path id="Path_52306" data-name="Path 52306" d="M263.676,888.322a.838.838,0,0,0-.838-.838h-8.667a.838.838,0,1,0,0,1.676h8.667A.838.838,0,0,0,263.676,888.322Z" transform="translate(-253.333 -857.54)" fill="#a8a8a8" stroke="#a8a8a8" stroke-width="0.3"/>
  </g>
</svg>
