<svg xmlns="http://www.w3.org/2000/svg" xmlns:xlink="http://www.w3.org/1999/xlink" width="87.706" height="57.646" viewBox="0 0 87.706 57.646">
  <defs>
    <linearGradient id="linear-gradient" x1="0.5" x2="0.5" y2="1" gradientUnits="objectBoundingBox">
      <stop offset="0" stop-color="#d0fd08"/>
      <stop offset="1" stop-color="#8ca51e"/>
    </linearGradient>
  </defs>
  <g id="icon" transform="translate(0 0)">
    <g id="Group_3935" data-name="Group 3935" transform="translate(0 0)">
      <path id="Path_52909" data-name="Path 52909" d="M4464.3,1101.354a36.459,36.459,0,1,0-63.692,34.745l.448.635h59.3l.449-.635a36.473,36.473,0,0,0,3.492-34.745Zm-.175,14.235-6.309.022v.049a27.474,27.474,0,0,1-.224,3.7l6.221.824a33,33,0,0,1-5.056,13.533h-56.1a33.072,33.072,0,0,1-5.065-13.5l6.208-.841a27.493,27.493,0,0,1-.254-3.7l-6.279.009c0-.049,0-.1,0-.146a33.229,33.229,0,0,1,2.714-13.194l5.8,2.514a27.13,27.13,0,0,1,1.7-3.291l-5.409-3.287a33.716,33.716,0,0,1,9.269-9.99l3.679,5.189a27.2,27.2,0,0,1,3.161-1.931l-2.944-5.652a33.2,33.2,0,0,1,13.135-3.717l.44,6.38a27.811,27.811,0,0,1,3.711-.006l.421-6.381a33.2,33.2,0,0,1,13.151,3.681l-2.928,5.66a27.186,27.186,0,0,1,3.169,1.924l3.665-5.2a33.712,33.712,0,0,1,9.295,9.963l-5.4,3.3a26.96,26.96,0,0,1,1.711,3.283l5.79-2.531a33.254,33.254,0,0,1,2.752,13.284C4464.148,1115.559,4464.124,1115.574,4464.124,1115.588Z" transform="translate(-4394.25 -1079.087)" fill="#fff"/>
    </g>
    <g id="Group_3936" data-name="Group 3936" transform="translate(30.239 29.272)">
      <path id="Path_52910" data-name="Path 52910" d="M4723.377,1372.853c-1.057.54-2.131,1.1-3.17,1.634-1.589.823-3.232,1.674-4.838,2.481-.527.265-1.066.521-1.588.769a27.691,27.691,0,0,0-5.941,3.5,22.092,22.092,0,0,0-2.47,2.309,6.218,6.218,0,1,0,4.571,6.934,21.708,21.708,0,0,0,3.485-2.312,27.711,27.711,0,0,0,4.686-5.063c.353-.457.717-.93,1.088-1.389,1.13-1.4,2.311-2.825,3.454-4.205.745-.9,1.516-1.831,2.267-2.747a1.256,1.256,0,0,0-1.543-1.915Zm-6.131,7.288c-.389.481-.762.965-1.123,1.434a25.3,25.3,0,0,1-4.272,4.641,18.447,18.447,0,0,1-3.634,2.32,1.256,1.256,0,0,0-.722,1.11,3.706,3.706,0,1,1-3.7-3.787,3.683,3.683,0,0,1,1.472.3,1.255,1.255,0,0,0,1.466-.35,19.247,19.247,0,0,1,2.687-2.617,25.331,25.331,0,0,1,5.443-3.19c.534-.253,1.086-.516,1.639-.793.855-.43,1.719-.87,2.58-1.313C4718.461,1378.646,4717.846,1379.4,4717.246,1380.141Z" transform="translate(-4697.571 -1372.715)" fill="#fff"/>
    </g>
    <text id="BMI" transform="translate(35.041 27.333)" fill="#fff" font-size="21" font-family="DBHeavent, DB Heavent"><tspan x="-13.022" y="0">BMI</tspan></text>
    <g id="Ellipse_611" data-name="Ellipse 611" transform="translate(57.629 2.814)" stroke="#fff" stroke-width="2" fill="url(#linear-gradient)">
      <circle cx="15.039" cy="15.039" r="15.039" stroke="none"/>
      <circle cx="15.039" cy="15.039" r="14.039" fill="none"/>
    </g>
    <text id="_2" data-name="2" transform="translate(72.66 23.318)" fill="#fff" font-size="25" font-family="DBHeavent, DB Heavent"><tspan x="-4.749" y="0">2</tspan></text>
  </g>
</svg>
