<svg xmlns="http://www.w3.org/2000/svg" width="52.803" height="49.759" viewBox="0 0 52.803 49.759">
  <g id="icon" transform="translate(0 0)">
    <g id="Group_3943" data-name="Group 3943" transform="translate(0 11.289)">
      <path id="Path_52937" data-name="Path 52937" d="M2278.029,1037.048a.85.85,0,0,1-.2-.023,11.385,11.385,0,0,1-4.008-2.027,10.437,10.437,0,0,1-4-8.582c0-4.634,2.856-7.5,5.376-10.03,1.8-1.807,3.5-3.514,4.123-5.691a13.561,13.561,0,0,0-1.385-9.889.854.854,0,0,1,.989-1.264,15.869,15.869,0,0,1,9.581,9.823,8.553,8.553,0,0,1-1.227,8.15c-.95,1.49-1.3,2.146-.481,3.419a1.843,1.843,0,0,0,2.349.425c1.454-.624,2.642-2.407,2.018-4.982a.854.854,0,0,1,1.475-.761c.205.236,5.012,5.863,4.31,12.32-.376,3.455-2.255,6.463-5.585,8.942a.854.854,0,1,1-1.02-1.37c2.934-2.184,4.585-4.793,4.907-7.756a14.626,14.626,0,0,0-2.322-8.752,5.367,5.367,0,0,1-3.109,3.928,3.474,3.474,0,0,1-4.458-1.068c-1.448-2.244-.426-3.848.476-5.263a6.841,6.841,0,0,0,1.038-6.72,13.81,13.81,0,0,0-6.432-7.743,14.463,14.463,0,0,1,.52,9.03c-.743,2.6-2.681,4.546-4.555,6.427-2.509,2.517-4.878,4.9-4.878,8.824a8.72,8.72,0,0,0,3.3,7.2,9.841,9.841,0,0,0,3.4,1.75.854.854,0,0,1-.2,1.685Z" transform="translate(-2269.822 -999.501)" fill="#a8a8a8"/>
      <path id="Path_52938" data-name="Path 52938" d="M2354.735,1233.041a.85.85,0,0,1-.5-.166c-.223-.163-2.177-1.656-2.222-3.7a3.685,3.685,0,0,1,1.588-2.981c1.5-1.2,1.668-2.39.613-4.236a.854.854,0,0,1,.894-1.264,8.893,8.893,0,0,1,6.511,5.471c.515,1.586.607,4.02-1.879,6.611a.854.854,0,0,1-1.233-1.182c1.526-1.591,2.026-3.24,1.487-4.9a6.883,6.883,0,0,0-3.536-3.755,4.255,4.255,0,0,1-1.787,4.588,2.059,2.059,0,0,0-.95,1.612,3.789,3.789,0,0,0,1.525,2.36.854.854,0,0,1-.506,1.543Z" transform="translate(-2342.648 -1195.495)" fill="#a8a8a8"/>
    </g>
    <g id="Group_3944" data-name="Group 3944" transform="translate(25.187 0)">
      <path id="Path_52939" data-name="Path 52939" d="M2592.062,1007.082a.855.855,0,0,1-.808-.577,12.955,12.955,0,0,1,1.285-10.315c3.174-5.174-.534-14.183-.572-14.274a.854.854,0,0,1,1.575-.661c.168.4,4.086,9.9.452,15.827a11.336,11.336,0,0,0-1.125,8.866.855.855,0,0,1-.808,1.132Z" transform="translate(-2579.361 -971.581)" fill="#a8a8a8"/>
      <path id="Path_52940" data-name="Path 52940" d="M2493.067,950.13q-.626,0-1.263-.038a.854.854,0,0,1,.1-1.705,23.246,23.246,0,0,0,11.839-2.657,9.782,9.782,0,0,1,2.6-1.1c2.966-.777,7.725-3.58,9.633-4.749a1.934,1.934,0,0,0,.921-1.789,131.376,131.376,0,0,0-3.775-20.557c-1.436-5.792-2.808-10.484-3.106-11.494l-3.383-3.453a1.7,1.7,0,0,0-1.548-.478l-7.576,1.515a.674.674,0,0,0-.518.479l-1.67,5.921a.633.633,0,0,0,.388.769l4.083,1.538a.127.127,0,0,0,.15-.047l.611-.922a.854.854,0,1,1,1.424.943l-.617.932a1.834,1.834,0,0,1-2.17.693l-4.083-1.538a2.331,2.331,0,0,1-1.431-2.831l1.67-5.921a2.374,2.374,0,0,1,1.827-1.691l7.575-1.515a3.4,3.4,0,0,1,3.1.957l3.531,3.6a.854.854,0,0,1,.208.352c.015.051,1.56,5.21,3.186,11.766a130.965,130.965,0,0,1,3.823,20.858,3.637,3.637,0,0,1-1.733,3.364c-2.451,1.5-7.021,4.141-10.093,4.945a8.078,8.078,0,0,0-2.15.905A24.828,24.828,0,0,1,2493.067,950.13Z" transform="translate(-2491 -900.371)" fill="#a8a8a8"/>
      <path id="Path_52941" data-name="Path 52941" d="M2571.373,947.408a2.319,2.319,0,0,1-1.073-.264l-.113-.059a2.316,2.316,0,0,1-1.18-2.631l1.051-4.161a.854.854,0,0,1,1.656.418l-1.052,4.161a.615.615,0,0,0,.313.7l.113.059a.616.616,0,0,0,.772-.17l2.664-3.45a.854.854,0,1,1,1.352,1.044l-2.664,3.45A2.321,2.321,0,0,1,2571.373,947.408Z" transform="translate(-2560.059 -935.176)" fill="#a8a8a8"/>
      <path id="Path_52942" data-name="Path 52942" d="M2557.933,954.142a.853.853,0,0,1-.637-.285l-1.44-1.612a.854.854,0,0,1,1.274-1.138l1.44,1.612a.854.854,0,0,1-.636,1.423Z" transform="translate(-2548.277 -945.076)" fill="#a8a8a8"/>
      <path id="Path_52943" data-name="Path 52943" d="M2508.875,1141.916a.852.852,0,0,1-.6-.244,20.075,20.075,0,0,0-10.047-4.845.854.854,0,1,1,.246-1.69,21.46,21.46,0,0,1,11,5.316.854.854,0,0,1-.6,1.464Z" transform="translate(-2496.759 -1108.394)" fill="#a8a8a8"/>
    </g>
  </g>
</svg>
