<svg xmlns="http://www.w3.org/2000/svg" width="46.145" height="46.527" viewBox="0 0 46.145 46.527">
  <g id="icon" transform="translate(0.501 0.5)">
    <path id="Subtraction_1" data-name="Subtraction 1" d="M20.982,37.635a.993.993,0,0,1-.477-.122C11.767,32.716,5.717,27.379,2.523,21.65A19.76,19.76,0,0,1,.2,15.155a14.906,14.906,0,0,1-.047-4.589A12.229,12.229,0,0,1,9.547.207,10.509,10.509,0,0,1,11.609,0a10.042,10.042,0,0,1,5.15,1.417A13.349,13.349,0,0,1,20.982,5.5a13.007,13.007,0,0,1,4.753-4.371A10.028,10.028,0,0,1,30.37,0a10.509,10.509,0,0,1,2.049.2,12.232,12.232,0,0,1,9.392,10.359,14.907,14.907,0,0,1-.047,4.589,19.77,19.77,0,0,1-2.321,6.495,26.573,26.573,0,0,1-2.031,3.093,9.383,9.383,0,0,0-1.727-1,24.836,24.836,0,0,0,2.027-3.057,20.017,20.017,0,0,0,.987-2.024l-5.2.026-4.511,3.668a.99.99,0,0,1-1.528-.362l-2.622-5.832-4.31,13.557a.985.985,0,0,1-.943.691h-.034a1,1,0,0,1-.928-.756L14.681,13.441,12.921,18a.983.983,0,0,1-.923.634H3.256a20.092,20.092,0,0,0,1,2.05c2.952,5.3,8.58,10.284,16.729,14.827.6-.333,1.2-.677,1.776-1.021a9.328,9.328,0,0,0,.676,1.9c-.649.38-1.313.757-1.976,1.12A.993.993,0,0,1,20.982,37.635ZM14.9,9.143l.065,0a.986.986,0,0,1,.9.754L19.71,25.752,23.733,13.1a1,1,0,0,1,.887-.689l.057,0a.992.992,0,0,1,.9.584l3.156,7.019,3.782-3.076a.991.991,0,0,1,.62-.221l6.257-.031a13.75,13.75,0,0,0,.458-5.815,10.249,10.249,0,0,0-7.821-8.716,8.49,8.49,0,0,0-1.653-.165c-3.209,0-6.121,1.889-8.2,5.32l-.349.576a.99.99,0,0,1-1.694,0l-.35-.576C17.705,3.871,14.8,1.98,11.609,1.98a8.635,8.635,0,0,0-1.675.169,10.249,10.249,0,0,0-7.821,8.715,13.757,13.757,0,0,0,.451,5.793h8.753l2.655-6.88A1,1,0,0,1,14.9,9.143Z" transform="translate(0 0)" fill="#a8a8a8" stroke="rgba(0,0,0,0)" stroke-miterlimit="10" stroke-width="1"/>
    <g id="Group_3954" data-name="Group 3954" transform="translate(23.864 24.505)">
      <path id="Path_52962" data-name="Path 52962" d="M2233.476,1524.083l-3.4-3.351a.418.418,0,0,1,0-.594l2.6-2.579a.418.418,0,0,0-.145-.687l-12.1-4.631a.418.418,0,0,0-.54.54l4.66,12.173a.418.418,0,0,0,.689.143l2.678-2.74a.418.418,0,0,1,.6,0l3.311,3.357a.418.418,0,0,0,.59,0l1.054-1.037A.417.417,0,0,0,2233.476,1524.083Z" transform="translate(-2211.819 -1504.313)" fill="#a8a8a8"/>
      <path id="Path_52963" data-name="Path 52963" d="M2038.195,1340.692a6.219,6.219,0,1,1,6.631-6.709.825.825,0,0,0,.819.755h0a.823.823,0,0,0,.821-.887,7.875,7.875,0,1,0-8.389,8.507.823.823,0,0,0,.88-.821v-.025A.824.824,0,0,0,2038.195,1340.692Z" transform="translate(-2030.737 -1326.611)" fill="#a8a8a8"/>
      <path id="Path_52964" data-name="Path 52964" d="M2102.945,1395.484a3.386,3.386,0,0,1,2.9,1.715.826.826,0,0,0,1.428-.831,5.224,5.224,0,0,0-1.89-1.893,5.017,5.017,0,0,0-6.656,7.12,5.432,5.432,0,0,0,2.426,1.95.828.828,0,0,0,1.136-.646l0-.03a.827.827,0,0,0-.532-.892,3.3,3.3,0,0,1-2.13-3.791A3.385,3.385,0,0,1,2102.945,1395.484Z" transform="translate(-2095.042 -1390.969)" fill="#a8a8a8"/>
    </g>
  </g>
</svg>
