<svg xmlns="http://www.w3.org/2000/svg" width="49.864" height="40.838" viewBox="0 0 49.864 40.838">
  <g id="icon" transform="translate(1.578 1.15)">
    <path id="Path_52953" data-name="Path 52953" d="M3516.608,3198.547c3.646,3.881,3.575,7.139,3.778,10.88,1.1,1.919,2.811,4.992,3.163,5.639s-.386,1.288-.987,1.658a7.439,7.439,0,0,1-2.228.966c-.086,1.551-.217,2.807-.406,4.651-.574,3.973-3.28,4.456-6.68,3.7,0,0-5.7-1.256-6.915-2.11" transform="translate(-3494.362 -3192.835)" fill="none" stroke="#a8a8a8" stroke-linecap="round" stroke-linejoin="round" stroke-width="2.3"/>
    <line id="Line_788" data-name="Line 788" x1="2.668" y2="5.306" transform="translate(13.964 32.668)" fill="none" stroke="#a8a8a8" stroke-linecap="round" stroke-linejoin="round" stroke-width="2.3"/>
    <path id="Path_52954" data-name="Path 52954" d="M3409.148,3152.01c1.861-1,4.067-1.3,5.319-2.487,1.407-1.334,1.407-1.334,1.407-5.522h-13.822c-4.188,0-7.539.838-10.052,5.026" transform="translate(-3392 -3144)" fill="none" stroke="#a8a8a8" stroke-linecap="round" stroke-linejoin="round" stroke-width="2.3"/>
    <path id="Path_52955" data-name="Path 52955" d="M3427.351,3328c-.47,2.037-3.351,4.037-3.351,6.7a3.351,3.351,0,1,0,6.7,0C3430.7,3332.037,3427.821,3330.037,3427.351,3328Z" transform="translate(-3420.649 -3308.734)" fill="none" stroke="#a8a8a8" stroke-linejoin="round" stroke-width="2.3"/>
    <path id="Path_52956" data-name="Path 52956" d="M3475.351,3208c-.471,2.037-3.351,4.037-3.351,6.7a3.351,3.351,0,0,0,6.7,0C3478.7,3212.037,3475.821,3210.037,3475.351,3208Z" transform="translate(-3463.624 -3201.299)" fill="none" stroke="#a8a8a8" stroke-linejoin="round" stroke-width="2.3"/>
    <line id="Line_789" data-name="Line 789" x2="3.389" transform="translate(43.747 4.3)" fill="none" stroke="#a8a8a8" stroke-linecap="round" stroke-linejoin="round" stroke-width="2.3"/>
    <line id="Line_790" data-name="Line 790" x2="3.389" transform="translate(43.747 9.383)" fill="none" stroke="#a8a8a8" stroke-linecap="round" stroke-linejoin="round" stroke-width="2.3"/>
    <line id="Line_791" data-name="Line 791" x2="3.389" transform="translate(43.747 14.466)" fill="none" stroke="#a8a8a8" stroke-linecap="round" stroke-linejoin="round" stroke-width="2.3"/>
    <line id="Line_792" data-name="Line 792" x2="3.389" transform="translate(43.747 19.55)" fill="none" stroke="#a8a8a8" stroke-linecap="round" stroke-linejoin="round" stroke-width="2.3"/>
    <line id="Line_793" data-name="Line 793" x2="3.389" transform="translate(43.747 23.786)" fill="none" stroke="#a8a8a8" stroke-linecap="round" stroke-linejoin="round" stroke-width="2.3"/>
    <path id="Path_52957" data-name="Path 52957" d="M3703.541,3173.159v-26.645a2.513,2.513,0,1,0-5.026,0v26.645a5.026,5.026,0,1,0,5.026,0Z" transform="translate(-3664.17 -3144)" fill="none" stroke="#a8a8a8" stroke-linecap="round" stroke-linejoin="round" stroke-width="2.3"/>
  </g>
</svg>
