<svg xmlns="http://www.w3.org/2000/svg" width="71" height="70" viewBox="0 0 71 70">
  <g id="icon" transform="translate(0.235 -0.351)">
    <ellipse id="Ellipse_610" data-name="Ellipse 610" cx="35.5" cy="35" rx="35.5" ry="35" transform="translate(-0.235 0.351)" fill="#fff"/>
    <g id="Group_3739" data-name="Group 3739" transform="translate(15.049 13.515)">
      <path id="Path_52259" data-name="Path 52259" d="M335.179,435.765V428.2a8.456,8.456,0,0,0-16.8-.489,77.78,77.78,0,0,0,.01,8.292,1.614,1.614,0,0,0,1.765,1.305,15.381,15.381,0,0,1,1.554.191c.033,3.337-.165,6.675.1,10.009a2.288,2.288,0,0,0,2.148,1.7h5.369a2.3,2.3,0,0,0,2.4-1.942l.055-9.778c.591-.067,1.183-.154,1.776-.2C334.532,437.219,335.144,436.8,335.179,435.765Zm-2.871-.027c-1.7.056-2.141.537-2.148,2.238-.01,2.731-.032,5.463.011,8.194.017,1.048-.353,1.486-1.427,1.436-1.3-.06-2.612-.068-3.912,0-1.154.062-1.51-.441-1.462-1.524.059-1.343.014-2.689.014-4.035,0-1.427.023-2.855-.007-4.281-.03-1.447-.559-2.019-1.994-2.023-1.082,0-1.419-.465-1.389-1.493.054-1.833,0-3.669.016-5.5a6.787,6.787,0,0,1,6.355-6.664,6.691,6.691,0,0,1,7.136,6.07c.165,2.108.079,4.237.106,6.355.009.874-.447,1.2-1.3,1.226Z" transform="translate(-306.293 -406.742)" fill="#1688c4" stroke="#1688c4" stroke-width="0.5"/>
      <path id="Path_52260" data-name="Path 52260" d="M305.878,436.815c0,.845-.021,1.7.006,2.55.028.883-.384,1.271-1.248,1.264-1.427-.011-2.855-.019-4.282,0-.92.014-1.324-.362-1.307-1.318.041-2.2.019-4.4.011-6.608-.005-1.694-.441-2.182-2.138-2.241-.956-.034-1.3-.473-1.276-1.376.028-1.264-.029-2.53.015-3.8a6.6,6.6,0,0,1,3.738-6.011,6.237,6.237,0,0,1,6.92.485c.834.618,1.18.114,1.564-.327.593-.681-.275-.816-.559-1.023a8.458,8.458,0,0,0-13.208,5.172,29.6,29.6,0,0,0-.192,5.61,2.525,2.525,0,0,0,2.584,2.913c.751.061.837.353.829.971q-.039,3.3,0,6.608a2.411,2.411,0,0,0,2.5,2.579c1.712.041,3.426.038,5.138,0a2.449,2.449,0,0,0,2.518-2.329c.053-.485-.039-.987.038-1.465C307.719,437.286,307.269,436.7,305.878,436.815Z" transform="translate(-293.867 -404.894)" fill="#1688c4" stroke="#1688c4" stroke-width="0.5"/>
      <path id="Path_52261" data-name="Path 52261" d="M362.613,425.129a8.305,8.305,0,0,0-4.855-7.493,8.174,8.174,0,0,0-8.665.772c-.756.516-.718.834-.056,1.433.61.553.866.019,1.209-.207a6.778,6.778,0,0,1,10.444,4.054c.417,1.689.088,3.412.221,5.112.088,1.155-.353,1.625-1.531,1.618-1.276-.007-1.848.618-1.881,1.882-.03,1.181-.006,2.364-.007,3.546,0,1.141-.038,2.284.011,3.424.042.971-.393,1.324-1.313,1.289-.854-.033-1.711,0-2.568-.007-2.923-.027-3,.431-2.962-2.869,0-.342.31-.991-.539-.894-.57.066-1.17.014-1.082.9.06.605-.007,1.223.017,1.833a2.5,2.5,0,0,0,2.761,2.707c1.468.018,2.935.011,4.4,0,2.095-.012,2.988-.894,2.995-2.96s.034-4.158-.016-6.236c-.018-.731.177-.948.926-1.02,1.723-.165,2.486-1.1,2.5-2.854C362.635,427.819,362.689,426.47,362.613,425.129Z" transform="translate(-321.707 -404.85)" fill="#1688c4" stroke="#1688c4" stroke-width="0.5"/>
      <path id="Path_52262" data-name="Path 52262" d="M330.316,406.226a5.076,5.076,0,1,0-5.061-5.091,5.075,5.075,0,0,0,5.061,5.091Zm.081-8.511a3.453,3.453,0,0,1,3.322,3.4,3.385,3.385,0,1,1-6.77-.011,3.436,3.436,0,0,1,3.447-3.388Z" transform="translate(-309.861 -394.325)" fill="#1688c4" stroke="#1688c4" stroke-width="0.5"/>
      <path id="Path_52263" data-name="Path 52263" d="M305.986,402.812a5.088,5.088,0,1,0-3.616-1.522A5.057,5.057,0,0,0,305.986,402.812Zm.1-8.521a3.543,3.543,0,0,1,3.354,3.4,3.426,3.426,0,0,1-3.433,3.393,3.317,3.317,0,0,1-3.372-3.412,3.451,3.451,0,0,1,3.45-3.384Z" transform="translate(-297.449 -392.606)" fill="#1688c4" stroke="#1688c4" stroke-width="0.5"/>
      <path id="Path_52264" data-name="Path 52264" d="M354.579,402.8a5.1,5.1,0,1,0-4.728-3.162,5.145,5.145,0,0,0,4.728,3.162Zm-.062-8.523a3.457,3.457,0,0,1,3.435,3.412,3.354,3.354,0,0,1-3.41,3.386,3.42,3.42,0,0,1-3.4-3.419A3.558,3.558,0,0,1,354.517,394.276Z" transform="translate(-322.182 -392.594)" fill="#1688c4" stroke="#1688c4" stroke-width="0.5"/>
    </g>
  </g>
</svg>
