<svg xmlns="http://www.w3.org/2000/svg" width="15.996" height="12.997" viewBox="0 0 15.996 12.997">
  <path id="Twitter" d="M16,1.538a6.583,6.583,0,0,1-1.885.517A3.291,3.291,0,0,0,15.554.24a6.558,6.558,0,0,1-2.084.8A3.283,3.283,0,0,0,7.792,3.281a3.318,3.318,0,0,0,.086.748A9.316,9.316,0,0,1,1.114.6,3.284,3.284,0,0,0,2.13,4.981,3.254,3.254,0,0,1,.644,4.57v.042A3.282,3.282,0,0,0,3.276,7.829a3.277,3.277,0,0,1-.865.115,3.228,3.228,0,0,1-.617-.059A3.287,3.287,0,0,0,4.86,10.164a6.593,6.593,0,0,1-4.077,1.4A6.614,6.614,0,0,1,0,11.522,9.287,9.287,0,0,0,5.031,13a9.273,9.273,0,0,0,9.337-9.335c0-.143,0-.283-.009-.424A6.67,6.67,0,0,0,16,1.539Z" fill="#fff"/>
</svg>
