<svg xmlns="http://www.w3.org/2000/svg" width="21.572" height="16" viewBox="0 0 21.572 16">
  <path id="Youtube" d="M10.786,16h0c-.056,0-5.636-.039-7.327-.218-.091-.02-.2-.036-.33-.053A3.091,3.091,0,0,1,1.079,14.8a5.3,5.3,0,0,1-.855-2.255A34.758,34.758,0,0,1,0,8.873V7.164A35.943,35.943,0,0,1,.223,3.454,4.822,4.822,0,0,1,1.079,1.2,3.006,3.006,0,0,1,3.171.26h0l.06-.005C6.213.039,10.74,0,10.786,0s4.573.039,7.55.255l.1.008a2.807,2.807,0,0,1,2.055.937,5.3,5.3,0,0,1,.855,2.255,35.915,35.915,0,0,1,.223,3.709V8.873a35.709,35.709,0,0,1-.223,3.673,5.305,5.305,0,0,1-.855,2.255,3.006,3.006,0,0,1-2.092.94h0l-.06.005C15.358,16,10.831,16,10.786,16ZM8.182,4.327v7.891l7.067-3.855Z" fill="#fff"/>
</svg>
