<svg id="Group_27264" data-name="Group 27264" xmlns="http://www.w3.org/2000/svg" xmlns:xlink="http://www.w3.org/1999/xlink" width="89.468" height="62.459" viewBox="0 0 89.468 62.459">
  <defs>
    <linearGradient id="linear-gradient" x1="0.5" x2="0.5" y2="1" gradientUnits="objectBoundingBox">
      <stop offset="0" stop-color="#fff"/>
      <stop offset="1"/>
    </linearGradient>
    <linearGradient id="linear-gradient-2" x1="0" y1="0.5" x2="1" y2="0.5" xlink:href="#linear-gradient"/>
    <radialGradient id="radial-gradient" cx="0.5" cy="0.5" r="0.52" gradientTransform="translate(0.037) scale(0.927 1)" xlink:href="#linear-gradient"/>
  </defs>
  <g id="Group_27180" data-name="Group 27180" transform="translate(0 41.73)">
    <path id="Path_56597" data-name="Path 56597" d="M27.1,0H0V14.455H27.1L23.388,7.444Z" transform="translate(62.368)" fill="#206fcb"/>
    <path id="Path_56596" data-name="Path 56596" d="M0,0H27.1V14.455H0L3.712,7.444Z" fill="#206fcb"/>
    <path id="Path_56595" data-name="Path 56595" d="M8.91,0H18.933l-8.91,6.45v9.884H0V6.315Z" transform="translate(11.88)" fill="#1e559a"/>
    <path id="Path_56598" data-name="Path 56598" d="M10.023,0H0L8.91,6.45v9.884H18.933V6.315Z" transform="translate(59.027)" fill="#1e559a"/>
  </g>
  <ellipse id="Ellipse_665" data-name="Ellipse 665" cx="29.154" cy="29.154" rx="29.154" ry="29.154" transform="translate(15.416 2.81)" fill="#b2e4fc"/>
  <rect id="Rectangle_19458" data-name="Rectangle 19458" width="66.351" height="14.745" transform="translate(11.393 47.715)" fill="#206fcb"/>
  <g id="Group_27181" data-name="Group 27181" transform="translate(20.776 51.336)">
    <g id="Group_27263" data-name="Group 27263" transform="translate(0 0)">
      <g id="Group_27261" data-name="Group 27261">
        <g id="Group_27254" data-name="Group 27254" transform="translate(0.217 1.001)" opacity="0.26">
          <path id="Path_56544" data-name="Path 56544" d="M72.545,73c-.168-1.173-3.049-1.056-3.049-1.056s-.771-2.463-1.692-2.413-1.843,2.513-1.843,2.513-2.58-.335-2.748.821a1.008,1.008,0,0,0-.009.144c-.046,1.059,1.541,2.021,1.7,2.117a5.912,5.912,0,0,0-.512,2.007c-.007.531.174.965.778.984a4.131,4.131,0,0,0,2.7-.972s1.773,1.424,2.744,1.005c.313-.135.42-.5.423-.924a6.8,6.8,0,0,0-.444-2.1c2-1.368,1.948-2.086,1.948-2.086l0-.008A.243.243,0,0,0,72.545,73Z" transform="translate(-63.203 -69.53)"/>
        </g>
        <g id="Group_27255" data-name="Group 27255">
          <path id="Path_56545" data-name="Path 56545" d="M67.3,66.3c.909,0,1.664,2.413,1.664,2.413s.08,0,.214,0c.671,0,2.7.082,2.835,1.059a.238.238,0,0,1,0,.033l0,.008s.05.717-1.948,2.086a6.8,6.8,0,0,1,.444,2.1c0,.428-.109.789-.423.924a1.024,1.024,0,0,1-.408.077,5.041,5.041,0,0,1-2.337-1.082,4.147,4.147,0,0,1-2.587.973l-.114,0c-.6-.019-.785-.453-.778-.984a5.914,5.914,0,0,1,.512-2.007c-.163-.1-1.749-1.058-1.7-2.117a1.006,1.006,0,0,1,.009-.144c.106-.732,1.179-.866,1.952-.866a6.891,6.891,0,0,1,.8.045s.921-2.463,1.843-2.513H67.3m0-.217h-.04c-.919.05-1.735,1.9-1.973,2.5-.149-.013-.383-.029-.654-.029-1.664,0-2.1.572-2.167,1.052a1.26,1.26,0,0,0-.012.175c-.044,1.01,1.149,1.884,1.649,2.2a5.738,5.738,0,0,0-.457,1.921c-.013,1.016.614,1.188.988,1.2l.121,0a4.342,4.342,0,0,0,2.592-.913,4.783,4.783,0,0,0,2.331,1.022,1.24,1.24,0,0,0,.494-.095c.364-.157.55-.534.554-1.121a6.629,6.629,0,0,0-.4-2.018c1.86-1.307,1.913-2.044,1.9-2.183a.248.248,0,0,0,0-.042v-.016c-.161-1.123-2.186-1.245-3.049-1.245H69.12c-.216-.642-.9-2.41-1.821-2.41Z" transform="translate(-62.454 -66.08)" fill="#fff"/>
        </g>
        <g id="Group_27256" data-name="Group 27256" transform="translate(0.217 0.258)" opacity="0.7">
          <path id="Path_56546" data-name="Path 56546" d="M64.921,72.532S63.044,71.46,63.212,70.3s2.748-.821,2.748-.821.921-2.463,1.843-2.513,1.692,2.413,1.692,2.413,2.882-.117,3.049,1.056c0,0,.05.72-1.96,2.094,0,0,1.005,2.6.033,3.016s-2.744-1.005-2.744-1.005a4.131,4.131,0,0,1-2.7.972C63.581,75.464,64.921,72.532,64.921,72.532Z" transform="translate(-63.201 -66.969)"/>
        </g>
        <g id="Group_27257" data-name="Group 27257" transform="translate(0.217 0.217)">
          <path id="Path_56547" data-name="Path 56547" d="M64.921,72.39s-1.877-1.072-1.709-2.228,2.748-.821,2.748-.821.921-2.463,1.843-2.513,1.692,2.413,1.692,2.413,2.882-.117,3.049,1.056c0,0,.05.72-1.96,2.094,0,0,1.005,2.6.033,3.016S67.873,74.4,67.873,74.4a4.131,4.131,0,0,1-2.7.972C63.581,75.321,64.921,72.39,64.921,72.39Z" transform="translate(-63.201 -66.826)" fill="#ffdb2d"/>
        </g>
        <g id="Group_27258" data-name="Group 27258" transform="translate(0.217 0.217)" style="mix-blend-mode: soft-light;isolation: isolate">
          <path id="Path_56548" data-name="Path 56548" d="M64.921,72.39s-1.877-1.072-1.709-2.228,2.748-.821,2.748-.821.921-2.463,1.843-2.513,1.692,2.413,1.692,2.413,2.882-.117,3.049,1.056c0,0,.05.72-1.96,2.094,0,0,1.005,2.6.033,3.016S67.873,74.4,67.873,74.4a4.131,4.131,0,0,1-2.7.972C63.581,75.321,64.921,72.39,64.921,72.39Z" transform="translate(-63.201 -66.826)" fill="url(#linear-gradient)"/>
          <path id="Path_56549" data-name="Path 56549" d="M67.83,66.945c.674,0,1.349,1.682,1.552,2.33l.027.086.091,0s.079,0,.209,0c1.248,0,2.617.251,2.717.945,0,.007-.014.7-1.909,1.992l-.077.053.034.087c.268.693.808,2.558.1,2.864a.91.91,0,0,1-.361.067,4.961,4.961,0,0,1-2.263-1.056l-.079-.064-.075.069a4.061,4.061,0,0,1-2.507.942l-.11,0a.6.6,0,0,1-.537-.268c-.366-.589.157-2.038.389-2.547l.045-.1-.093-.053c-.018-.01-1.8-1.046-1.651-2.109.1-.665,1.191-.765,1.835-.765a6.794,6.794,0,0,1,.78.044l.093.012.033-.088c.249-.665,1.046-2.4,1.739-2.436h.021m0-.118H67.8c-.921.051-1.843,2.513-1.843,2.513a6.889,6.889,0,0,0-.8-.045c-.773,0-1.846.134-1.952.866-.168,1.156,1.709,2.228,1.709,2.228s-1.34,2.932.251,2.982l.114,0a4.147,4.147,0,0,0,2.587-.973,5.041,5.041,0,0,0,2.337,1.082,1.024,1.024,0,0,0,.408-.077c.972-.419-.033-3.016-.033-3.016,2.01-1.374,1.96-2.094,1.96-2.094-.14-.977-2.164-1.059-2.835-1.059-.134,0-.214,0-.214,0s-.755-2.413-1.664-2.413Z" transform="translate(-63.201 -66.827)" fill="url(#linear-gradient-2)"/>
        </g>
        <g id="Group_27259" data-name="Group 27259" transform="translate(0.814 0.77)" opacity="0.33" style="mix-blend-mode: soft-light;isolation: isolate">
          <path id="Path_56550" data-name="Path 56550" d="M66.76,73.586s-1.636-.935-1.49-1.943,2.4-.716,2.4-.716.8-2.148,1.607-2.191,1.475,2.1,1.475,2.1,2.513-.1,2.659.921c0,0,.044.628-1.709,1.826,0,0,.876,2.265.029,2.63s-2.393-.877-2.393-.877a3.6,3.6,0,0,1-2.355.847C65.591,76.143,66.76,73.586,66.76,73.586Z" transform="translate(-65.26 -68.735)" fill="#ffdb2d"/>
          <path id="Path_56551" data-name="Path 56551" d="M69.3,68.853c.579,0,1.162,1.46,1.339,2.022l.027.086.091,0s.069,0,.182,0c1.082,0,2.269.216,2.354.809,0,.006-.018.6-1.658,1.724l-.077.053.034.087c.232.6.7,2.216.093,2.479a.776.776,0,0,1-.309.058,4.31,4.31,0,0,1-1.964-.918l-.079-.063-.075.068a3.526,3.526,0,0,1-2.176.818h-.1a.511.511,0,0,1-.456-.227c-.315-.508.139-1.765.341-2.207l.045-.1-.094-.053c-.016-.009-1.565-.906-1.432-1.824.082-.569,1.029-.654,1.585-.654a5.842,5.842,0,0,1,.679.039l.093.012.033-.088c.216-.577.908-2.083,1.5-2.115H69.3m0-.118h-.024c-.8.044-1.607,2.191-1.607,2.191a6.013,6.013,0,0,0-.694-.039c-.674,0-1.61.117-1.7.755-.146,1.008,1.49,1.943,1.49,1.943s-1.169,2.557.219,2.6h.1a3.617,3.617,0,0,0,2.256-.849,4.4,4.4,0,0,0,2.038.944.894.894,0,0,0,.356-.067c.847-.365-.029-2.63-.029-2.63,1.753-1.2,1.709-1.826,1.709-1.826-.122-.852-1.887-.923-2.472-.923-.117,0-.187,0-.187,0s-.659-2.1-1.451-2.1Z" transform="translate(-65.26 -68.735)" fill="url(#linear-gradient)"/>
        </g>
        <path id="Path_56552" data-name="Path 56552" d="M75.336,67.2s-.624,0-1.462,1.934c0,0,1.206-2.258,1.851-1.713C75.951,67.585,75.774,67.165,75.336,67.2Z" transform="translate(-70.56 -66.871)" fill="#fff" opacity="0.7"/>
        <path id="Path_56553" data-name="Path 56553" d="M66.239,75.67a7.692,7.692,0,0,0-1.864.244c-.347.111-.567.585-.641.565C63.6,76.438,63.894,75.378,66.239,75.67Z" transform="translate(-63.344 -72.851)" fill="#fff" opacity="0.5"/>
        <g id="Group_27260" data-name="Group 27260" transform="translate(0.217 0.217)" style="mix-blend-mode: soft-light;isolation: isolate">
          <path id="Path_56554" data-name="Path 56554" d="M64.921,72.39s-1.877-1.072-1.709-2.228,2.748-.821,2.748-.821.921-2.463,1.843-2.513,1.692,2.413,1.692,2.413,2.882-.117,3.049,1.056c0,0,.05.72-1.96,2.094,0,0,1.005,2.6.033,3.016S67.873,74.4,67.873,74.4a4.131,4.131,0,0,1-2.7.972C63.581,75.321,64.921,72.39,64.921,72.39Z" transform="translate(-63.201 -66.826)" fill="url(#radial-gradient)"/>
        </g>
      </g>
    </g>
    <path id="Path_56554-2" data-name="Path 56554" d="M64.921,72.39s-1.877-1.072-1.709-2.228,2.748-.821,2.748-.821.921-2.463,1.843-2.513,1.692,2.413,1.692,2.413,2.882-.117,3.049,1.056c0,0,.05.72-1.96,2.094,0,0,1.005,2.6.033,3.016S67.873,74.4,67.873,74.4a4.131,4.131,0,0,1-2.7.972C63.581,75.321,64.921,72.39,64.921,72.39Z" transform="translate(-50.208 -66.826)" fill="#1254a2" opacity="0.53"/>
    <path id="Path_56555" data-name="Path 56555" d="M64.921,72.39s-1.877-1.072-1.709-2.228,2.748-.821,2.748-.821.921-2.463,1.843-2.513,1.692,2.413,1.692,2.413,2.882-.117,3.049,1.056c0,0,.05.72-1.96,2.094,0,0,1.005,2.6.033,3.016S67.873,74.4,67.873,74.4a4.131,4.131,0,0,1-2.7.972C63.581,75.321,64.921,72.39,64.921,72.39Z" transform="translate(-37.586 -66.826)" fill="#1254a2" opacity="0.53"/>
    <path id="Path_56556" data-name="Path 56556" d="M64.921,72.39s-1.877-1.072-1.709-2.228,2.748-.821,2.748-.821.921-2.463,1.843-2.513,1.692,2.413,1.692,2.413,2.882-.117,3.049,1.056c0,0,.05.72-1.96,2.094,0,0,1.005,2.6.033,3.016S67.873,74.4,67.873,74.4a4.131,4.131,0,0,1-2.7.972C63.581,75.321,64.921,72.39,64.921,72.39Z" transform="translate(-24.964 -66.826)" fill="#1254a2" opacity="0.53"/>
  </g>
  <g id="Group_27182" data-name="Group 27182" transform="translate(21.446)">
    <path id="Path_56487" data-name="Path 56487" d="M268.757,213.361c0,11.1-10.385,17.178-23.2,17.178s-23.2-6.083-23.2-17.178,10.385-23,23.2-23S268.757,202.266,268.757,213.361Z" transform="translate(-222.366 -190.359)" fill="#8cc63e"/>
    <g id="Group_27202" data-name="Group 27202" transform="translate(1.612 12.162)">
      <g id="Group_27169" data-name="Group 27169" transform="translate(6.004 3.628)">
        <g id="Group_27168" data-name="Group 27168">
          <path id="Path_56488" data-name="Path 56488" d="M242.258,228.058a1.09,1.09,0,0,1-1.536,1.536.362.362,0,0,1-.086-.086,1.09,1.09,0,0,1,1.536-1.536A.363.363,0,0,1,242.258,228.058Z" transform="translate(-240.389 -227.725)" fill="#7fb239"/>
        </g>
      </g>
      <g id="Group_27171" data-name="Group 27171" transform="translate(6.711 9.132)">
        <g id="Group_27170" data-name="Group 27170">
          <path id="Path_56489" data-name="Path 56489" d="M244.254,241.135a1.283,1.283,0,0,1-1.808,1.808.4.4,0,0,1-.09-.09,1.283,1.283,0,0,1,1.808-1.809A.4.4,0,0,1,244.254,241.135Z" transform="translate(-242.061 -240.751)" fill="#7fb239"/>
        </g>
      </g>
      <g id="Group_27173" data-name="Group 27173" transform="translate(8.126 6.45)">
        <g id="Group_27172" data-name="Group 27172">
          <path id="Path_56490" data-name="Path 56490" d="M246.635,234.624a.712.712,0,0,1-1,1,.27.27,0,0,1-.065-.065.712.712,0,0,1,1-1A.261.261,0,0,1,246.635,234.624Z" transform="translate(-245.411 -234.403)" fill="#7fb239"/>
        </g>
      </g>
      <g id="Group_27175" data-name="Group 27175" transform="translate(2.663 0)">
        <g id="Group_27174" data-name="Group 27174">
          <path id="Path_56491" data-name="Path 56491" d="M235.221,219.62a1.6,1.6,0,0,1-2.257,2.256.5.5,0,0,1-.112-.113,1.6,1.6,0,0,1,2.257-2.256A.492.492,0,0,1,235.221,219.62Z" transform="translate(-232.483 -219.139)" fill="#7fb239"/>
        </g>
      </g>
      <g id="Group_27177" data-name="Group 27177" transform="translate(3.939 11.755)">
        <g id="Group_27176" data-name="Group 27176">
          <path id="Path_56492" data-name="Path 56492" d="M236.915,247.214a.821.821,0,0,1-1.156,1.155.3.3,0,0,1-.075-.075.821.821,0,0,1,1.156-1.155A.305.305,0,0,1,236.915,247.214Z" transform="translate(-235.503 -246.957)" fill="#7fb239"/>
        </g>
      </g>
      <g id="Group_27179" data-name="Group 27179" transform="translate(0 3.143)">
        <g id="Group_27178" data-name="Group 27178">
          <path id="Path_56493" data-name="Path 56493" d="M226.933,226.577a1.11,1.11,0,0,0-.524.145,8.552,8.552,0,0,0-.227,1.705v.12a1.121,1.121,0,0,0,.752.3,1.134,1.134,0,1,0,0-2.268Z" transform="translate(-226.181 -226.577)" fill="#7fb239"/>
        </g>
      </g>
      <g id="Group_27181-2" data-name="Group 27181" transform="translate(7.283 14.13)">
        <g id="Group_27180-2" data-name="Group 27180">
          <path id="Path_56494" data-name="Path 56494" d="M244.906,252.845a.869.869,0,0,1-1.224,1.224.308.308,0,0,1-.073-.073.869.869,0,0,1,1.224-1.224A.315.315,0,0,1,244.906,252.845Z" transform="translate(-243.415 -252.577)" fill="#7fb239"/>
        </g>
      </g>
      <g id="Group_27201" data-name="Group 27201" transform="translate(1.058 0)">
        <g id="Group_27183" data-name="Group 27183" transform="translate(0 6.269)">
          <g id="Group_27182-2" data-name="Group 27182">
            <path id="Path_56495" data-name="Path 56495" d="M232.3,234.605a2.119,2.119,0,0,1-2.987,2.987.617.617,0,0,1-.141-.14,2.119,2.119,0,0,1,2.987-2.987A.616.616,0,0,1,232.3,234.605Z" transform="translate(-228.686 -233.975)" fill="#7fb239"/>
          </g>
        </g>
        <g id="Group_27200" data-name="Group 27200" transform="translate(32.743)">
          <g id="Group_27185" data-name="Group 27185" transform="translate(1.389 3.628)">
            <g id="Group_27184" data-name="Group 27184">
              <path id="Path_56496" data-name="Path 56496" d="M309.7,228.057a1.09,1.09,0,0,0,1.536,1.536.381.381,0,0,0,.086-.086,1.09,1.09,0,0,0-1.536-1.536A.365.365,0,0,0,309.7,228.057Z" transform="translate(-309.458 -227.724)" fill="#7fb239"/>
            </g>
          </g>
          <g id="Group_27187" data-name="Group 27187" transform="translate(0.31 9.132)">
            <g id="Group_27186" data-name="Group 27186">
              <path id="Path_56497" data-name="Path 56497" d="M307.2,241.135a1.283,1.283,0,0,0,1.808,1.809.39.39,0,0,0,.09-.09,1.283,1.283,0,0,0-1.808-1.808A.4.4,0,0,0,307.2,241.135Z" transform="translate(-306.904 -240.75)" fill="#7fb239"/>
            </g>
          </g>
          <g id="Group_27189" data-name="Group 27189" transform="translate(0 6.45)">
            <g id="Group_27188" data-name="Group 27188">
              <path id="Path_56498" data-name="Path 56498" d="M306.329,234.624a.712.712,0,0,0,1,1,.26.26,0,0,0,.065-.065.712.712,0,0,0-1-1A.259.259,0,0,0,306.329,234.624Z" transform="translate(-306.17 -234.403)" fill="#7fb239"/>
            </g>
          </g>
          <g id="Group_27191" data-name="Group 27191" transform="translate(3.741)">
            <g id="Group_27190" data-name="Group 27190">
              <path id="Path_56499" data-name="Path 56499" d="M315.39,219.62a1.6,1.6,0,0,0,2.257,2.256.494.494,0,0,0,.113-.113,1.6,1.6,0,0,0-2.257-2.256A.5.5,0,0,0,315.39,219.62Z" transform="translate(-315.023 -219.139)" fill="#7fb239"/>
            </g>
          </g>
          <g id="Group_27193" data-name="Group 27193" transform="translate(4.343 6.269)">
            <g id="Group_27192" data-name="Group 27192">
              <path id="Path_56500" data-name="Path 56500" d="M316.937,234.605a2.119,2.119,0,0,0,2.987,2.987.616.616,0,0,0,.141-.14,2.119,2.119,0,0,0-2.988-2.987A.624.624,0,0,0,316.937,234.605Z" transform="translate(-316.447 -233.975)" fill="#7fb239"/>
            </g>
          </g>
          <g id="Group_27195" data-name="Group 27195" transform="translate(3.975 11.755)">
            <g id="Group_27194" data-name="Group 27194">
              <path id="Path_56501" data-name="Path 56501" d="M315.759,247.214a.821.821,0,0,0,1.156,1.155.308.308,0,0,0,.075-.075.821.821,0,0,0-1.156-1.155A.313.313,0,0,0,315.759,247.214Z" transform="translate(-315.577 -246.957)" fill="#7fb239"/>
            </g>
          </g>
          <g id="Group_27197" data-name="Group 27197" transform="translate(7.622 3.143)">
            <g id="Group_27196" data-name="Group 27196">
              <path id="Path_56502" data-name="Path 56502" d="M324.208,227.711a1.134,1.134,0,0,0,1.134,1.134,1.122,1.122,0,0,0,.752-.3v-.12a8.536,8.536,0,0,0-.224-1.7,1.108,1.108,0,0,0-.528-.148A1.134,1.134,0,0,0,324.208,227.711Z" transform="translate(-324.208 -226.577)" fill="#7fb239"/>
            </g>
          </g>
          <g id="Group_27199" data-name="Group 27199" transform="translate(0.539 14.13)">
            <g id="Group_27198" data-name="Group 27198">
              <path id="Path_56503" data-name="Path 56503" d="M307.64,252.845a.869.869,0,0,0,1.224,1.224.3.3,0,0,0,.073-.073.869.869,0,0,0-1.224-1.224A.317.317,0,0,0,307.64,252.845Z" transform="translate(-307.445 -252.577)" fill="#7fb239"/>
            </g>
          </g>
        </g>
      </g>
    </g>
    <g id="Group_27221" data-name="Group 27221" transform="translate(13.503 3.651)">
      <g id="Group_27205" data-name="Group 27205" transform="translate(1.248 0.052)">
        <g id="Group_27204" data-name="Group 27204">
          <g id="Group_27203" data-name="Group 27203">
            <path id="Path_56504" data-name="Path 56504" d="M259.972,200.482a1.348,1.348,0,0,1-1.338,1.36,1.36,1.36,0,0,1,0-2.72A1.348,1.348,0,0,1,259.972,200.482Z" transform="translate(-257.274 -199.122)" fill="#7fb239"/>
          </g>
        </g>
      </g>
      <g id="Group_27207" data-name="Group 27207" transform="translate(2.903 5.366)">
        <g id="Group_27206" data-name="Group 27206">
          <path id="Path_56505" data-name="Path 56505" d="M266.587,214.394a2.7,2.7,0,1,1-2.7-2.7A2.7,2.7,0,0,1,266.587,214.394Z" transform="translate(-261.191 -211.696)" fill="#7fb239"/>
        </g>
      </g>
      <g id="Group_27209" data-name="Group 27209" transform="translate(10.172 2.142)">
        <g id="Group_27208" data-name="Group 27208">
          <path id="Path_56506" data-name="Path 56506" d="M281.616,205.69a1.612,1.612,0,1,1-1.623-1.623A1.615,1.615,0,0,1,281.616,205.69Z" transform="translate(-278.392 -204.067)" fill="#7fb239"/>
        </g>
      </g>
      <g id="Group_27212" data-name="Group 27212" transform="translate(6.054 0)">
        <g id="Group_27211" data-name="Group 27211">
          <g id="Group_27210" data-name="Group 27210">
            <path id="Path_56507" data-name="Path 56507" d="M271.059,201.423a1.415,1.415,0,0,1-1.971,0,1.384,1.384,0,0,1,0-2.025,1.415,1.415,0,0,1,1.971,0A1.385,1.385,0,0,1,271.059,201.423Z" transform="translate(-268.647 -198.998)" fill="#7fb239"/>
          </g>
        </g>
      </g>
      <g id="Group_27215" data-name="Group 27215" transform="translate(9.832 7.718)">
        <g id="Group_27214" data-name="Group 27214">
          <g id="Group_27213" data-name="Group 27213">
            <path id="Path_56508" data-name="Path 56508" d="M281.492,219.193a1.952,1.952,0,1,1-1.952-1.93A1.957,1.957,0,0,1,281.492,219.193Z" transform="translate(-277.587 -217.263)" fill="#7fb239"/>
          </g>
        </g>
      </g>
      <g id="Group_27218" data-name="Group 27218" transform="translate(14.842 0.497)">
        <g id="Group_27217" data-name="Group 27217">
          <g id="Group_27216" data-name="Group 27216">
            <path id="Path_56509" data-name="Path 56509" d="M294.293,202.619a2.425,2.425,0,1,1-2.425-2.444A2.433,2.433,0,0,1,294.293,202.619Z" transform="translate(-289.443 -200.175)" fill="#7fb239"/>
          </g>
        </g>
      </g>
      <g id="Group_27220" data-name="Group 27220" transform="translate(0 4.176)">
        <g id="Group_27219" data-name="Group 27219">
          <path id="Path_56510" data-name="Path 56510" d="M255.538,209.107a.706.706,0,0,1-.993.993.3.3,0,0,1-.073-.073.706.706,0,0,1,.993-.993A.3.3,0,0,1,255.538,209.107Z" transform="translate(-254.32 -208.881)" fill="#7fb239"/>
        </g>
      </g>
    </g>
    <g id="Group_27222" data-name="Group 27222" transform="translate(6.938 23.25)">
      <path id="Path_56511" data-name="Path 56511" d="M242.274,247.807c0,1.34-.781,2.426-1.745,2.426s-1.744-1.086-1.744-2.426.781-2.427,1.744-2.427S242.274,246.466,242.274,247.807Z" transform="translate(-238.785 -245.38)" fill="#441f04"/>
      <path id="Path_56512" data-name="Path 56512" d="M241.171,247.106c0,.556-.324,1.007-.723,1.007s-.725-.452-.725-1.007.325-1.007.725-1.007S241.171,246.549,241.171,247.106Z" transform="translate(-239.326 -245.795)" fill="#fff"/>
    </g>
    <g id="Group_27223" data-name="Group 27223" transform="translate(35.472 23.25)">
      <path id="Path_56513" data-name="Path 56513" d="M309.8,247.807c0,1.34-.781,2.426-1.745,2.426s-1.745-1.086-1.745-2.426.781-2.427,1.745-2.427S309.8,246.466,309.8,247.807Z" transform="translate(-306.308 -245.38)" fill="#441f04"/>
      <path id="Path_56514" data-name="Path 56514" d="M308.694,247.106c0,.556-.324,1.007-.723,1.007s-.725-.452-.725-1.007.325-1.007.725-1.007S308.694,246.549,308.694,247.106Z" transform="translate(-306.85 -245.795)" fill="#fff"/>
    </g>
    <path id="Path_56515" data-name="Path 56515" d="M243.828,260.923a2.754,2.754,0,1,1-2.754-2.753A2.754,2.754,0,0,1,243.828,260.923Z" transform="translate(-231.579 -229.515)" fill="#ffbdbd"/>
    <path id="Path_56516" data-name="Path 56516" d="M309.871,260.923a2.754,2.754,0,1,1-2.753-2.753A2.754,2.754,0,0,1,309.871,260.923Z" transform="translate(-269.714 -229.515)" fill="#ffbdbd"/>
    <g id="Group_27242" data-name="Group 27242" transform="translate(12.012 21.787)">
      <g id="Group_27226" data-name="Group 27226" transform="translate(2.037 4.54)">
        <g id="Group_27225" data-name="Group 27225">
          <g id="Group_27224" data-name="Group 27224">
            <path id="Path_56517" data-name="Path 56517" d="M272.876,262.362c0,5.361-3.875,9.723-8.617,9.723-4.771,0-8.646-4.362-8.646-9.723,0-5.339,3.875-9.7,8.646-9.7C269,252.661,272.876,257.023,272.876,262.362Z" transform="translate(-255.614 -252.661)" fill="#719d34"/>
          </g>
        </g>
      </g>
      <g id="Group_27229" data-name="Group 27229" transform="translate(3.712 6.425)">
        <g id="Group_27228" data-name="Group 27228">
          <g id="Group_27227" data-name="Group 27227">
            <path id="Path_56518" data-name="Path 56518" d="M273.49,264.94c0,4.321-3.123,7.836-6.945,7.836-3.845,0-6.968-3.515-6.968-7.836,0-4.3,3.123-7.818,6.968-7.818C270.367,257.122,273.49,260.637,273.49,264.94Z" transform="translate(-259.578 -257.122)" fill="#5c4533"/>
          </g>
        </g>
      </g>
      <g id="Group_27231" data-name="Group 27231" transform="translate(6.078 17.723)">
        <g id="Group_27230" data-name="Group 27230">
          <path id="Path_56519" data-name="Path 56519" d="M269.778,288.214a6.482,6.482,0,0,0,4.58-1.965,5.6,5.6,0,0,0-9.183,0A6.515,6.515,0,0,0,269.778,288.214Z" transform="translate(-265.176 -283.858)" fill="#e24b4b"/>
        </g>
      </g>
      <g id="Group_27241" data-name="Group 27241" transform="translate(0 0)">
        <g id="Group_27234" data-name="Group 27234">
          <g id="Group_27233" data-name="Group 27233">
            <g id="Group_27232" data-name="Group 27232">
              <path id="Path_56520" data-name="Path 56520" d="M272.123,253.968a3.156,3.156,0,0,1-1.057,2.7q-9.514,8.443-19.053.185a3.55,3.55,0,0,1-1.189-3.145c.872-6.712,5.285-11.786,10.623-11.786C266.865,241.918,271.3,247.15,272.123,253.968Z" transform="translate(-250.793 -241.918)" fill="#7fb239"/>
            </g>
          </g>
        </g>
        <g id="Group_27237" data-name="Group 27237" transform="translate(0.164 2.893)" opacity="0.35">
          <g id="Group_27236" data-name="Group 27236">
            <g id="Group_27235" data-name="Group 27235">
              <path id="Path_56521" data-name="Path 56521" d="M271.291,260.616a3.156,3.156,0,0,0,1.057-2.7,15.5,15.5,0,0,0-4.216-9.158,19.47,19.47,0,0,1-.584,8.568c-1.9,5.285-12.107,6.118-16.366,1.781a3.568,3.568,0,0,0,1.057,1.689Q261.751,269.045,271.291,260.616Z" transform="translate(-251.182 -248.763)" fill="#719d34"/>
            </g>
          </g>
        </g>
        <g id="Group_27240" data-name="Group 27240" transform="translate(4.597 1.727)" opacity="0.1">
          <g id="Group_27239" data-name="Group 27239">
            <g id="Group_27238" data-name="Group 27238">
              <path id="Path_56522" data-name="Path 56522" d="M265.4,251.968c-2.372,2.221-4.218.753-3.621-1.559C263.246,244.2,273.34,244.409,265.4,251.968Z" transform="translate(-261.671 -246.005)" fill="#fff"/>
            </g>
          </g>
        </g>
      </g>
    </g>
  </g>
</svg>
