<svg xmlns="http://www.w3.org/2000/svg" width="23.705" height="22.117" viewBox="0 0 23.705 22.117">
  <g id="icon" transform="translate(-0.024)">
    <ellipse id="Ellipse_576" data-name="Ellipse 576" cx="2.527" cy="2.533" rx="2.527" ry="2.533" transform="translate(18.196 0)" fill="#ffb100"/>
    <g id="Group_3698" data-name="Group 3698" transform="translate(0 1.039)">
      <path id="Path_52199" data-name="Path 52199" d="M162.934,137.163a.918.918,0,0,0-.987-.924l-3.819.287c-.1.007-.2-.124-.2-.228,0,0,.061-2.472.061-2.476s.019-.336.026-.648a1.771,1.771,0,0,0-.506-1.246c-.9-.945-4.134-4.2-4.4-4.456a1.4,1.4,0,0,0-1.6-.079L148.24,130.4a.909.909,0,0,0-.043,1.307,1.01,1.01,0,0,0,1.327.152c.162-.127,2.339-2.031,2.339-2.031a.358.358,0,0,1,.462.026l1.431,1.558a.335.335,0,0,1,0,.506c-.138.123-11.018,11.123-11.018,11.123l-3.161,3.186a1.2,1.2,0,0,0,1.65,1.739l8.962-8.622a.7.7,0,0,1,.431-.19c.3-.013.452.106.736.4.049.05,1.278,1.331,1.4,1.461l1.48,1.546c.073.078.113.2-.065.226l-5.051.267a1.188,1.188,0,0,0-.971,1.117,1.106,1.106,0,0,0,1.068,1.113l2.464-.152h.048a.509.509,0,0,0,.1,0s4.328-.245,4.508-.261a1.512,1.512,0,0,0,1.029-2.391s-3.291-3.728-3.721-4.227a.281.281,0,0,1,.04-.31l1.781-1.756c.112-.111.254-.128.243.145l-.011.953a3.367,3.367,0,0,0,.046.493,1.206,1.206,0,0,0,1.031.934s1.853-.149,1.865-.148c.029,0,3.411-.28,3.411-.28a.954.954,0,0,0,.883-1.121Z" transform="translate(-139.22 -127.179)" fill="#ffb100"/>
    </g>
  </g>
</svg>
