<svg xmlns="http://www.w3.org/2000/svg" width="39.513" height="87.98" viewBox="0 0 39.513 87.98">
  <g id="icon" transform="translate(-185.551 -317.425)">
    <circle id="Ellipse_599" data-name="Ellipse 599" cx="7.576" cy="7.576" r="7.576" transform="translate(194.594 328.138) rotate(-45)" fill="#AAAAAA"/>
    <path id="Path_52570" data-name="Path 52570" d="M224.97,416.293,218.89,393.6a5.431,5.431,0,0,0-5.162-4.026v0h-3.336a8.886,8.886,0,0,1-10.17,0h-3.336v0a5.431,5.431,0,0,0-5.162,4.026l-6.08,22.689a2.715,2.715,0,0,0,4.3,2.836,2.689,2.689,0,0,0,.945-1.43l4.707-15.081,1-2.442h.742v20.513l-.151,35.463a3.155,3.155,0,0,0,3.1,3.4,2.924,2.924,0,0,0,2.253-1,3.626,3.626,0,0,0,.844-2.4l.758-35.463h2.333l.758,35.463a3.626,3.626,0,0,0,.844,2.4,2.924,2.924,0,0,0,2.253,1,3.155,3.155,0,0,0,3.1-3.4l-.151-35.463V400.175h.742l1,2.442,4.707,15.081a2.722,2.722,0,0,0,3.327,1.921A2.717,2.717,0,0,0,224.97,416.293Z" transform="translate(0 -54.146)" fill="#AAAAAA"/>
  </g>
</svg>
