<svg id="icon" xmlns="http://www.w3.org/2000/svg" width="34.876" height="77.656" viewBox="0 0 34.876 77.656">
  <circle id="Ellipse_599" data-name="Ellipse 599" cx="6.687" cy="6.687" r="6.687" transform="translate(7.981 9.457) rotate(-45)" fill="#fff"/>
  <path id="Path_52570" data-name="Path 52570" d="M220.345,413.158l-5.367-20.03a4.794,4.794,0,0,0-4.556-3.554h-2.945a7.843,7.843,0,0,1-8.977,0h-2.945A4.794,4.794,0,0,0,191,393.128l-5.367,20.027a2.4,2.4,0,0,0,4.63,1.241l4.155-13.312.883-2.155h.655v18.106l-.133,31.3a2.785,2.785,0,0,0,2.736,3,2.581,2.581,0,0,0,1.989-.883,3.2,3.2,0,0,0,.745-2.118l.669-31.3h2.059l.669,31.3a3.2,3.2,0,0,0,.745,2.118,2.581,2.581,0,0,0,1.989.883,2.785,2.785,0,0,0,2.736-3l-.133-31.3v-18.1h.655l.883,2.156,4.155,13.312a2.4,2.4,0,1,0,4.627-1.24Z" transform="translate(-185.552 -373.682)" fill="#fff"/>
</svg>
