<svg xmlns="http://www.w3.org/2000/svg" xmlns:xlink="http://www.w3.org/1999/xlink" width="34.965" height="92.244" viewBox="0 0 34.965 92.244">
  <defs>
    <linearGradient id="linear-gradient" x1="0.5" y1="0.414" x2="0.5" y2="0.897" gradientUnits="objectBoundingBox">
      <stop offset="0" stop-color="#00003c"/>
      <stop offset="1" stop-color="#000317"/>
    </linearGradient>
  </defs>
  <path id="Path_52623" data-name="Path 52623" d="M741.142,149.327a.9.9,0,0,0,.177-.339.911.911,0,0,0,.192-.291,6.727,6.727,0,0,0,.391-1.645,6.483,6.483,0,0,1,.265-1.253c.235-.658.422-1.333.606-1.993l.008-.028c.088-.315.176-.642.272-.956a7.048,7.048,0,0,0,.208-3.655.958.958,0,0,0,.047-.132,8.326,8.326,0,0,0-.111-3.354c-.247-1.332-.618-2.648-.984-3.935a3.442,3.442,0,0,0,1.154.483,1.771,1.771,0,0,0,.275.022,1.661,1.661,0,0,0,1.2-.576c.054-.051.111-.105.177-.159.025-.02.106-.074.154-.106a1.738,1.738,0,0,0,.6-.542c.008-.014.016-.027.023-.042a1.111,1.111,0,0,0,.077-.756c.03-.036.07-.078.1-.11a1.877,1.877,0,0,0,.41-.6,1.7,1.7,0,0,0,.058-.971,1.432,1.432,0,0,1-.026-.2c.018-.062.068-.192.093-.258a3.419,3.419,0,0,0,.123-.353.9.9,0,0,0-.078-.653,1.911,1.911,0,0,0-.883-.72,2.606,2.606,0,0,1-.228-.129,1.707,1.707,0,0,0-1.147-.485,2.186,2.186,0,0,0-.72.147,1.047,1.047,0,0,1-.585.08,4.257,4.257,0,0,1-1.052-.521c-.17-.1-.345-.206-.518-.3a15.982,15.982,0,0,1,.295-3.111,4.458,4.458,0,0,1,.509-1.2,5.04,5.04,0,0,0,.682-1.8,5.749,5.749,0,0,0,.042-1.227.912.912,0,0,0,.177-.214,6.223,6.223,0,0,1,.41-.6,5.121,5.121,0,0,0,.751-1.262,3.658,3.658,0,0,0-.46-2.722l-.067-.146a3.126,3.126,0,0,0-2.141-2l-.2-.082c-.252-.108-.5-.218-.758-.33l-.134-.058a.9.9,0,0,1-.55-.239c-.486-.209-.893-.373-1.279-.515a.861.861,0,0,1-.518-.177c-.013-.141-.026-.287-.04-.435-.042-.474-.088-1.012-.143-1.472a4.255,4.255,0,0,1-.014-.7,1.813,1.813,0,0,0,.519-.3.916.916,0,0,0,.246-.059.9.9,0,0,0,.308-.206l.025.009a2.913,2.913,0,0,0,.971.167,4.877,4.877,0,0,0,1.365-.245,5.357,5.357,0,0,1,.865-.2,3.589,3.589,0,0,1,.391-.021,4.753,4.753,0,0,1,3.619,1.779c.062.084.128.167.2.257a2.831,2.831,0,0,1,.353.511.9.9,0,0,0,1.462.258,1.553,1.553,0,0,1,.1.194,5.9,5.9,0,0,1,.353,1.7c.006.074.017.157.028.245l.015.114a.9.9,0,0,0,.741.764.951.951,0,0,0,.153.012.9.9,0,0,0,.8-.486,3.8,3.8,0,0,0,.378-1.078.861.861,0,0,0,.162.011.9.9,0,0,0,.853-.681c.132-.53.238-1.059.317-1.584a2.717,2.717,0,0,0,.026-.48.9.9,0,0,0,.546-1.242c-.125-.265-.254-.544-.353-.819a6.526,6.526,0,0,0-5.845-4.451,5.637,5.637,0,0,0-1.27.147,9.054,9.054,0,0,0-2.64,1.222,7.222,7.222,0,0,1-2.269,1.05,6.429,6.429,0,0,0,.287-2.03,22,22,0,0,0-.426-3.525,5.421,5.421,0,0,0-1.642-3.089,6.163,6.163,0,0,0-4.06-1.463,6.735,6.735,0,0,0-1.335.134,5.352,5.352,0,0,0-3.2,1.973l-.108.138a6.206,6.206,0,0,0-.93,1.437,7.832,7.832,0,0,0-.486,2.355,6.562,6.562,0,0,0,.073,1.4c.023.177.049.382.064.57l.018.243a8.041,8.041,0,0,0,.254,1.709c.186.628.406,1.193.6,1.663a6.76,6.76,0,0,0,1.068,1.7.9.9,0,0,0,.612.335,11.528,11.528,0,0,1-.105,1.617c-.042.008-.088.014-.132.021a2.207,2.207,0,0,0-.771.223.91.91,0,0,0-.391,0,12.849,12.849,0,0,0-1.892.53.9.9,0,0,0-.34.234.924.924,0,0,0-.1.046c-.265.14-.549.278-.794.394a6.046,6.046,0,0,0-3.261,2.654,8.4,8.4,0,0,0-.53,1.966,9.754,9.754,0,0,1-.321,1.388,19.452,19.452,0,0,1-2.578,5.088,7.322,7.322,0,0,0-.892,1.873c-.078.215-.158.441-.245.651a6.844,6.844,0,0,1-.324.642,3.041,3.041,0,0,0-.516,2.59.868.868,0,0,0,.053.111,2.509,2.509,0,0,0,2.515,1.45h0a5.313,5.313,0,0,0,.921-.088,5.184,5.184,0,0,0,.954-.305l.015-.006c.1-.041.2-.079.3-.113a12.118,12.118,0,0,0,2.222-1.17l.459-.215a.871.871,0,0,0,.088-.049c.14-.088.284-.17.43-.253a6.3,6.3,0,0,1,0,2.374c-.064.418-.144.831-.222,1.23a19.788,19.788,0,0,0-.335,2.163,11.39,11.39,0,0,1-.39,1.9c-.1.384-.216.819-.3,1.245-.088.457-.14.927-.187,1.38a9.715,9.715,0,0,1-.288,1.747.9.9,0,0,0,.283.951h0a15.034,15.034,0,0,0-.265,4.855,9.851,9.851,0,0,0,.995,3.791.9.9,0,0,0,.391.353c.063.426.147.888.234,1.374.123.677.25,1.377.31,1.956l.024.228a28.032,28.032,0,0,0,.4,2.853c.07.338.134.7.2,1.053l.006.035a14,14,0,0,0,.958,3.551,3.3,3.3,0,0,0,1.8,1.844,9.136,9.136,0,0,1,.1,1.106c.064,1.221.139,2.6,1.22,3.035a1.744,1.744,0,0,0,.645.127h0a1.682,1.682,0,0,0,.9-.265l.038-.026a35.654,35.654,0,0,1-.675,8.149c-.039.016-.079.034-.117.053a.9.9,0,0,0-.369.345c-.917.265-1.4,1.324-1.74,2.056l-.03.064c-.748,1.622-.076,3.037.516,4.283l.027.057a3.336,3.336,0,0,1,.143,1.645,5.855,5.855,0,0,0,.054,1.662,2.648,2.648,0,0,0,2.632,2.132,3.051,3.051,0,0,0,.936-.149,2.962,2.962,0,0,0,1.754-1.328.9.9,0,0,0,.618-.426,3.937,3.937,0,0,0,.353-2.648c-.021-.143-.047-.288-.072-.434-.03-.17-.061-.346-.082-.514a2.946,2.946,0,0,1-.027-.653,4.02,4.02,0,0,1,.138-.654,3.066,3.066,0,0,0,.065-1.861,3.484,3.484,0,0,0-.139-.337.9.9,0,0,0,.105-.419v-.982a17.068,17.068,0,0,1,.463-5.142,9.589,9.589,0,0,1,.53-1.208,9.915,9.915,0,0,0,.647-1.54,10.851,10.851,0,0,0,.5-3.151v-.315c0-1.924,0-3.743-.1-5.644-.02-.407-.077-.817-.125-1.179a4.748,4.748,0,0,1,.026-2.22l.227-.624c.482-1.329,1.014-2.8,1.6-4.149a.9.9,0,0,0,.33-.115,1.934,1.934,0,0,0,.481-.419Zm.334-23.251a4.735,4.735,0,0,0,1.317.624,1.854,1.854,0,0,0,1.065-.106.794.794,0,0,1,.984.161,2.242,2.242,0,0,0,.4.246,1.8,1.8,0,0,1,.518.353c-.015.056-.06.177-.088.257a1.971,1.971,0,0,0-.151.506,1.862,1.862,0,0,0,.038.43.837.837,0,0,1-.011.49,1.112,1.112,0,0,1-.233.316,1.444,1.444,0,0,0-.32.455.7.7,0,0,0,0,.419.321.321,0,0,1,.011.191,1.621,1.621,0,0,1-.317.244,2.526,2.526,0,0,0-.247.177c-.073.064-.138.125-.2.184-.265.246-.393.37-.717.319a2.737,2.737,0,0,1-1.13-.6,3.788,3.788,0,0,1-.625-1.466.21.21,0,0,0-.062-.226c-.053-.045-.168-.125-.349-.251-.088-.063-.214-.149-.286-.2a.207.207,0,0,0-.056-.063c-.037-.512-.046-1.027-.053-1.535q0-.21-.006-.419c-.005-.279-.009-.55-.012-.816.169.088.354.2.54.311Zm-1.184-14.941q.384.169.765.333l.214.088a3.459,3.459,0,0,1,1.074.589,3.357,3.357,0,0,1,.585.951l.068.147a2.992,2.992,0,0,1,.441,2.022,4.369,4.369,0,0,1-.634,1.049,6.855,6.855,0,0,0-.469.693.164.164,0,0,0-.012-.044c-.563-1.785-1.268-3.593-1.952-5.342l-.213-.545Zm2.84-8.121a8.226,8.226,0,0,1,2.375-1.114c2.825-.655,5.191,1.386,6.067,3.74.114.306.252.6.385.883a6.556,6.556,0,0,1-.624-.77.21.21,0,0,0-.371.189l.016.046a3.858,3.858,0,0,1,.332,1.744c-.073.5-.177,1-.3,1.5a3.332,3.332,0,0,0-.312-.7c-.009-.016-.02-.038-.034-.064-.1-.2-.236-.464-.466-.486a.316.316,0,0,0-.286.136.6.6,0,0,0,0,.575.892.892,0,0,1,.044.153c0,.148.014.292.027.432s.022.257.025.381a2.473,2.473,0,0,1-.315,1.129.585.585,0,0,0-.011-.08c-.011-.082-.021-.159-.026-.227a6.932,6.932,0,0,0-.423-1.978,4.508,4.508,0,0,0-.611-.943c-.088-.115-.177-.227-.251-.335a1.915,1.915,0,0,0-.228-.254l-.048-.048a.21.21,0,0,0-.359.139c-.014.339-.036.656-.078.965a3.47,3.47,0,0,0-.468-.7c-.062-.079-.123-.154-.177-.232a5.6,5.6,0,0,0-4.834-2.118,6.106,6.106,0,0,0-1.013.224,2.736,2.736,0,0,1-1.794.094,2.3,2.3,0,0,1-.4-.192,7.75,7.75,0,0,1,.456-.861,3.29,3.29,0,0,0,.658.006,6.973,6.973,0,0,0,3.046-1.226Zm-12.794,1.457c-.183-.45-.393-.99-.568-1.581a7.276,7.276,0,0,1-.22-1.521l-.018-.24c-.016-.209-.042-.417-.068-.618a5.775,5.775,0,0,1-.07-1.212,7.037,7.037,0,0,1,.421-2.088,5.577,5.577,0,0,1,.8-1.218l.109-.139a4.461,4.461,0,0,1,2.663-1.645,5.43,5.43,0,0,1,4.621,1.119,4.531,4.531,0,0,1,1.354,2.577,21.241,21.241,0,0,1,.411,3.384,5.353,5.353,0,0,1-.416,2.187c-.07.154-.181.343-.3.545a4.757,4.757,0,0,0-.658,1.484.209.209,0,0,0-.3.049.211.211,0,0,0-.16.118.8.8,0,0,1-.371.218c.075-.474.185-.949.295-1.412q.047-.2.088-.4a7.57,7.57,0,0,0,.519-1.634c.5,0,.654-.222.764-.628.021-.078.05-.167.081-.265a2.455,2.455,0,0,0,.182-.934c-.026-.245-.187-.648-.514-.682a.47.47,0,0,0-.441.237,5.952,5.952,0,0,0-.28-1.168h0a.21.21,0,0,0-.036-.088c-.123-.164-.233-.335-.338-.5-.353-.554-.717-1.125-1.51-1.087a3.9,3.9,0,0,0-1.134.378c-.213.088-.412.177-.557.224a2.246,2.246,0,0,1-1.972-.16c-.246-.109-.53-.233-.883-.353a.21.21,0,0,0-.22.053,5.346,5.346,0,0,1-.715.59l-.088.067h0a.21.21,0,0,0-.265.13c-.02.059-.039.12-.056.182a.128.128,0,0,0-.006.025,7.03,7.03,0,0,0-.063,2.365.4.4,0,0,0-.6.088,1.337,1.337,0,0,0-.126.913c.049.562.353,1.178.911,1.2h.01a.208.208,0,0,0,.036-.007,5.721,5.721,0,0,0,.468,1.681,3.554,3.554,0,0,0,.371.565c.042.177.074.353.1.53a.207.207,0,0,0-.1-.031.218.218,0,0,0-.209.15.1.1,0,0,1-.01.032,5.944,5.944,0,0,1-.938-1.478Zm7.23-.55a.033.033,0,0,1,0,.02,7.1,7.1,0,0,1-.515.943c-.938,1.44-1.832,2.182-2.519,2.092a5.524,5.524,0,0,1-2.665-1.913.2.2,0,0,0-.043-.056,3.05,3.05,0,0,1-.324-.491,6.831,6.831,0,0,1-.509-2.295c-.019-.265-.051-.555-.088-.861a8.5,8.5,0,0,1-.012-2.761l.265-.2a6.378,6.378,0,0,0,.674-.541c.282.1.516.207.726.3a2.633,2.633,0,0,0,2.266.177c.167-.052.377-.144.6-.241a3.9,3.9,0,0,1,.988-.342c.524-.029.761.3,1.134.893.1.162.211.33.335.5v.01a6.493,6.493,0,0,1-.265,4.688.2.2,0,0,0-.041.086Zm.876-1.9.055-1.019a.208.208,0,0,0,.207-.131c.01-.026.022-.06.034-.1.11-.323.177-.406.208-.419a.51.51,0,0,1,.144.31,2.3,2.3,0,0,1-.163.761c-.033.1-.064.2-.088.28-.078.3-.117.329-.395.319Zm-7.842.583c-.305-.039-.461-.516-.487-.817-.044-.507.035-.618.036-.618l.019-.021a1.487,1.487,0,0,1,.22.337c.025.046.047.088.065.12a.206.206,0,0,0,.061.064c.021.2.041.395.054.575.009.118.02.239.034.365Zm-.073,6.941a1.129,1.129,0,0,1,.549-.177,2.658,2.658,0,0,0,.353-.069c-.027.054-.06.088-.106.093a.21.21,0,0,0,.014.42h.015c.51-.035.557-.618.585-.971.005-.068.01-.131.018-.183a11.623,11.623,0,0,0,.088-2.553c-.008-.081-.016-.163-.026-.244.082.083.167.165.255.246a4.725,4.725,0,0,0,2.2,1.279,1.3,1.3,0,0,0,.177.011,2.865,2.865,0,0,0,1.995-1.26,9.828,9.828,0,0,0,.606-.8c-.054.265-.1.538-.133.808a5.8,5.8,0,0,0-.024,1.358c.049.441.1.954.14,1.453.024.265.047.523.07.757a.231.231,0,0,0,.007.023.174.174,0,0,0-.017.032.209.209,0,0,0,.145.259c.14.04.28.083.418.129.742,1.832,1.29,4.3.407,5.279a4.855,4.855,0,0,1-3.8,1.087c-1.582-.236-2.178-1.486-2.744-2.975-.155-.408-.335-.8-.509-1.185a12.221,12.221,0,0,1-.712-1.8c-.019-.071-.04-.139-.059-.2-.133-.455-.161-.6.094-.8Zm-5.48,16.07-.508.237a11.718,11.718,0,0,1-2.093,1.115c-.106.038-.221.083-.339.129a4.59,4.59,0,0,1-.78.258c-.9.158-2.056.132-2.471-.883a.219.219,0,0,0-.024-.043c-.222-.564.129-1.206.469-1.826a7.339,7.339,0,0,0,.367-.733c.1-.234.177-.469.265-.7a6.5,6.5,0,0,1,.774-1.645,20.314,20.314,0,0,0,2.7-5.319,10.375,10.375,0,0,0,.353-1.519,7.617,7.617,0,0,1,.463-1.757,5.309,5.309,0,0,1,2.825-2.211c.288-.138.561-.27.823-.41.694.877.727,2.442.749,3.5v.088a6.09,6.09,0,0,1-.534,3.138,5.043,5.043,0,0,1-1.1,1.081c-.083.064-.2.14-.314.219.334-.625.648-1.242.95-1.836a.21.21,0,1,0-.375-.191,32.415,32.415,0,0,1-4.088,6.628c-.625.2-1.236.383-1.824.561a.21.21,0,1,0,.121.4c1.758-.53,3.611-1.12,5.833-1.854.2-.068.432-.125.672-.186a3.089,3.089,0,0,0,2.081-1.133,2.834,2.834,0,0,0,.186-.434,1.383,1.383,0,0,1,.279-.53,1.726,1.726,0,0,1,.685-.282,3.141,3.141,0,0,0,.508-.167,2.5,2.5,0,0,0,.374-.254,2.138,2.138,0,0,1,.606-.372c.114.019.128.061.133.077a.635.635,0,0,1-.181.479.21.21,0,0,0,0,.273.875.875,0,0,0,.914.236c.063-.009.124-.019.182-.024.031.076.064.154.1.23a5.135,5.135,0,0,1,.2.5.612.612,0,0,1,.03.395,1.293,1.293,0,0,0-.035.258c0,.138,0,.258,0,.367a1.411,1.411,0,0,1-.176.869c-.56,1.042-1.077,1.059-2.295,1a5.555,5.555,0,0,0-3.219.569l-.305.145a31.534,31.534,0,0,0-2.969,1.542Zm.373-3.9-.244.079c.079-.116.155-.233.233-.353a2.452,2.452,0,0,1,.011.274Zm-.011,14.8c.045-.434.093-.883.177-1.3.079-.395.184-.794.288-1.19a12.012,12.012,0,0,0,.417-2.059,18.8,18.8,0,0,1,.321-2.065c.079-.41.161-.833.228-1.265a6.58,6.58,0,0,0-.216-3.42c.522-.265,1.059-.519,1.581-.768l.305-.145a5.2,5.2,0,0,1,3.02-.53c1.261.059,2.008.031,2.683-1.223a1.832,1.832,0,0,0,.226-1.08c0-.1-.006-.214,0-.342a.893.893,0,0,1,.026-.177,1.015,1.015,0,0,0-.039-.61,5.6,5.6,0,0,0-.215-.546c-.051-.117-.1-.234-.145-.353a.209.209,0,0,0-.186-.136,1.883,1.883,0,0,0-.4.032.861.861,0,0,1-.4.006.883.883,0,0,0,.133-.718.546.546,0,0,0-.459-.353c-.253-.043-.545.16-.93.452a2.62,2.62,0,0,1-.3.209,2.971,2.971,0,0,1-.441.141,1.993,1.993,0,0,0-.865.382,1.705,1.705,0,0,0-.385.695,2.477,2.477,0,0,1-.156.37c-.314.553-1.079.747-1.818.935-.248.063-.481.122-.7.194l-.852.281a4.79,4.79,0,0,0-.088-1.241,1.361,1.361,0,0,1,.688-2c.126-.088.245-.164.341-.238a5.422,5.422,0,0,0,1.189-1.181,6.424,6.424,0,0,0,.6-3.379v-.088a6.644,6.644,0,0,0-.818-3.729,12.157,12.157,0,0,1,1.755-.492,1.31,1.31,0,0,0,.061.891c.018.062.038.127.057.2a12.755,12.755,0,0,0,.734,1.865c.171.376.353.765.5,1.16.591,1.555,1.27,2.973,3.074,3.241a4.576,4.576,0,0,0,.669.047,5.031,5.031,0,0,0,3.5-1.268c1.148-1.272.285-4.1-.2-5.379.415.153.827.322,1.236.5q.181.466.365.935c.68,1.742,1.383,3.545,1.942,5.316a3.818,3.818,0,0,1,.088,1.689,4.286,4.286,0,0,1-.581,1.486,5.228,5.228,0,0,0-.6,1.441,21.334,21.334,0,0,0-.3,4.881c0,.139.005.278.006.418a12.889,12.889,0,0,0,.331,3.284c.122.441.249.883.377,1.324.4,1.385.811,2.817,1.075,4.237a7.568,7.568,0,0,1,.125,2.96,4.022,4.022,0,0,0-2.83-.169q-.516.119-1.042.244a28.3,28.3,0,0,1-6.253,1,8.7,8.7,0,0,1-3.581-.764c-.1-.043-.2-.094-.307-.147a3.168,3.168,0,0,0-.776-.305,3.651,3.651,0,0,0-1.178.023,2.894,2.894,0,0,1-1.072.012l-.311-.265A10.379,10.379,0,0,0,725.412,136.524Zm3.168,22.268a13.338,13.338,0,0,1-.883-3.322c-.066-.369-.134-.751-.208-1.112a27.4,27.4,0,0,1-.383-2.764l-.024-.229c-.064-.618-.2-1.335-.32-2.03-.115-.637-.224-1.236-.284-1.752a.2.2,0,0,0-.017-.051,4.12,4.12,0,0,1,1.978-.094,6.442,6.442,0,0,0,1.12.05,6.014,6.014,0,0,0,1.094-.32,4.5,4.5,0,0,1,1.595-.388.019.019,0,0,1,.016.005v.06a2.754,2.754,0,0,0,.12.671,4.038,4.038,0,0,1,.094.406.213.213,0,0,0,.2.2h.015c-.078.465-.165.929-.251,1.382a25.172,25.172,0,0,0-.5,3.584c-.006.144.005.344.018.576.02.342.074,1.248-.08,1.349a.21.21,0,0,0,.1.4.213.213,0,0,0,.1-.024.479.479,0,0,0,.056-.036c.094.861.192,1.791.286,2.7a.7.7,0,0,0,.008.075v.01a5.055,5.055,0,0,1-.5,1.359,1.6,1.6,0,0,1-1.042.718C729.87,160.426,729.14,159.975,728.58,158.792Zm3.377,5.467a.769.769,0,0,1-.735.066c-.545-.216-.6-1.294-.653-2.245a7.77,7.77,0,0,0-.153-1.4,2.638,2.638,0,0,0,.548-.062,2.018,2.018,0,0,0,1.283-.868,2.713,2.713,0,0,0,.282-.569c.06.569.117,1.114.177,1.611.062.555.115,1.157.156,1.789a2.472,2.472,0,0,1-.908,1.671Zm2.93,16.251c.025.185.057.371.088.55.024.139.048.276.069.412.243,1.641-.213,2.554-1.478,2.96a2.158,2.158,0,0,1-.658.106,1.741,1.741,0,0,1-1.745-1.419,5.092,5.092,0,0,1-.034-1.412,4.085,4.085,0,0,0-.229-2.088l-.026-.054c-.558-1.173-1.085-2.282-.514-3.52l.03-.067c.327-.706.733-1.6,1.375-1.6a1.105,1.105,0,0,1,.538.167,6.73,6.73,0,0,1,2.8,2.967,2.242,2.242,0,0,1-.083,1.339,4.783,4.783,0,0,0-.164.8,3.824,3.824,0,0,0,.029.85Zm.638-.454c.025.186.057.372.088.553.024.138.048.274.068.41a3.1,3.1,0,0,1-.238,2.058,4.456,4.456,0,0,0,.015-1.665c-.02-.139-.045-.282-.07-.423-.03-.177-.062-.353-.088-.53a3.438,3.438,0,0,1-.029-.76,4.484,4.484,0,0,1,.152-.734,2.6,2.6,0,0,0,.074-1.582,7.188,7.188,0,0,0-2.987-3.2,1.754,1.754,0,0,0-.429-.177.706.706,0,0,1,.321-.079,1.1,1.1,0,0,1,.537.167,6.823,6.823,0,0,1,2.8,2.967,2.24,2.24,0,0,1-.082,1.338,4.834,4.834,0,0,0-.164.8,3.848,3.848,0,0,0,.031.847Zm2.354-26.353-.226.623a5.474,5.474,0,0,0-.071,2.648c.049.365.1.741.119,1.1.088,1.883.093,3.694.094,5.612v.3a9.986,9.986,0,0,1-.466,2.893,9.149,9.149,0,0,1-.592,1.4,10.253,10.253,0,0,0-.574,1.324,17.72,17.72,0,0,0-.508,5.432c0,.334.005.657,0,.971a8.313,8.313,0,0,0-2.508-2.282,1.694,1.694,0,0,0-.518-.2,39.858,39.858,0,0,0,.648-10.939v-.03a.2.2,0,0,0-.011-.084c-.042-.611-.088-1.192-.153-1.731-.088-.82-.191-1.771-.292-2.744-.141-1.353-.286-2.752-.423-3.9a.188.188,0,0,0-.012-.038q-.007-.2-.021-.426c-.012-.21-.025-.41-.019-.53a24.861,24.861,0,0,1,.493-3.525c.121-.638.245-1.3.342-1.96a.209.209,0,0,0,0-.08,2.548,2.548,0,0,1,2.275-1.129,8.663,8.663,0,0,1,2.662.84l.165.079a9.32,9.32,0,0,1,1.751,1,56.8,56.8,0,0,0-2.158,5.373Zm.588-6.751-.164-.078a9.067,9.067,0,0,0-2.8-.883,2.962,2.962,0,0,0-2.721,1.385,2.31,2.31,0,0,1-.1-.544,8.533,8.533,0,0,1,.065-1.006c.027-.255.054-.518.064-.78,0-.082.005-.163.008-.245a3.4,3.4,0,0,1,.321-1.643c.1-.17.207-.353.316-.523a5.609,5.609,0,0,0,.535-.985.21.21,0,1,0-.4-.14,5.473,5.473,0,0,1-.5.9c-.111.177-.225.361-.326.539a3.768,3.768,0,0,0-.375,1.836c0,.08,0,.162-.008.242-.01.248-.035.5-.062.753-.019.187-.039.378-.051.569a4.5,4.5,0,0,0-1.765.413,3.089,3.089,0,0,1-2.03.248,3.484,3.484,0,0,0-2.455.3,9.047,9.047,0,0,1-.872-3.422,14.422,14.422,0,0,1,.28-4.759,3.684,3.684,0,0,0,1.1-.03,3.315,3.315,0,0,1,1.043-.028,2.871,2.871,0,0,1,.67.27c.111.055.221.109.327.156a9.168,9.168,0,0,0,3.714.794h.035a28.635,28.635,0,0,0,6.348-1.008c.353-.082.7-.165,1.039-.243a3.556,3.556,0,0,1,2.662.2,6.258,6.258,0,0,1-.177,3.315c-.1.331-.192.666-.284,1-.177.64-.361,1.3-.586,1.931a7.254,7.254,0,0,0-.312,1.426,5.976,5.976,0,0,1-.334,1.433,7.106,7.106,0,0,0-2.214-1.394Z" transform="translate(-717.899 -93.196)" fill="url(#linear-gradient)"/>
</svg>
