<svg xmlns="http://www.w3.org/2000/svg" width="35.198" height="97.306" viewBox="0 0 35.198 97.306">
  <path id="Path_52626" data-name="Path 52626" d="M1067.03,137.654c.072-.618.121-1.244.17-1.854.033-.415.067-.84.109-1.263l.018-.008a.936.936,0,0,0,.5-.94c-.019-.154-.041-.322-.06-.473-.027-.208-.057-.424-.062-.517a2.5,2.5,0,0,0-.064-.461.39.39,0,0,1,0-.193c.025-.192.059-.4.093-.6a7.062,7.062,0,0,0,.14-1.833,8.672,8.672,0,0,1-.041-1.677l.088-.058c.058-.038.113-.072.17-.108a1.843,1.843,0,0,0,.977-1.223,7.2,7.2,0,0,0,.146-.821c.031-.224.06-.436.107-.629a4.3,4.3,0,0,0,.129-1.1c.2-.16.441-.346.7-.552l.064-.05c.989-.778,2.22-1.744,2.81-2.287a6.64,6.64,0,0,0,1.808-2.341,6.758,6.758,0,0,0,.295-2.108c0-.109.007-.214.011-.319a.939.939,0,0,0-.088-.428,1.435,1.435,0,0,1-.1-.425,4.211,4.211,0,0,0-.1-.535c-.141-.53-.311-1.021-.493-1.546l-.029-.084a29.328,29.328,0,0,0-1.7-3.442l-.041-.073c-.139-.257-.265-.49-.37-.684a10.829,10.829,0,0,1-.635-1.444,13.877,13.877,0,0,0-.639-1.492c-.082-.163-.15-.321-.224-.49a3.125,3.125,0,0,0-1.412-1.751c-.447-.237-.912-.429-1.366-.618-.353-.147-.722-.3-1.059-.464a6.8,6.8,0,0,1-.841-.53l-.013-.009-.025-.018a.936.936,0,0,0-.224-.115.948.948,0,0,0-.193-.167,5.313,5.313,0,0,0-.674-.38l-.411-.192c-.538-.252-1.026-.478-1.537-.678a1.075,1.075,0,0,1-.433-.159,8.228,8.228,0,0,0-.956-.265.914.914,0,0,0-.142-.019c-.018-.123-.025-.27-.033-.408s-.017-.31-.037-.466c-.044-.329-.062-.594-.075-.915a.928.928,0,0,0-.17-.493,4.412,4.412,0,0,0,.13-.586c.029-.194.059-.387.088-.58a.53.53,0,0,1,.012-.082.9.9,0,0,0,.188-.114,3.3,3.3,0,0,0,.943-1.734,2.428,2.428,0,0,0-.395-1.977,9.585,9.585,0,0,0,.225-2.8,6.826,6.826,0,0,0-.353-1.71c-.023-.071-.047-.132-.069-.185a.936.936,0,0,0-.372-1.355l-.008-.026a4.841,4.841,0,0,0-1.773-1.078,2.436,2.436,0,0,0-.318.068.934.934,0,0,0-.716-.253,3.884,3.884,0,0,0-1.138.29,15.084,15.084,0,0,1-1.723-.361,4.385,4.385,0,0,0-.992.577l-.031-.02a.938.938,0,0,0-1,.005,5.628,5.628,0,0,0-2.492,3.74,12.124,12.124,0,0,0-.037,2.343,6.965,6.965,0,0,0,.136.931l-.018.019a2.689,2.689,0,0,0-.066,2.505A2.862,2.862,0,0,0,1052.415,97a.949.949,0,0,0,.157.07q.177.627.395,1.268a.934.934,0,0,0-.139.632c.055.4.1.794.15,1.172.021.177.042.346.064.52l-.02.018a1.928,1.928,0,0,1-.2.155.93.93,0,0,0-.126.108.944.944,0,0,0-.161.067,9.023,9.023,0,0,1-1.177.494l-.014.005c-.134.049-.265.1-.392.146s-.282.113-.441.177a.927.927,0,0,0-.21.126.915.915,0,0,0-.235.072c-.265.124-.53.252-.786.376l-.07.034c-.258.126-.525.256-.786.377a7.876,7.876,0,0,1-.925.325,5.67,5.67,0,0,0-1.854.825,6.05,6.05,0,0,0-1.98,2.9,4.516,4.516,0,0,0-.041,2.106,4.5,4.5,0,0,1,.076,1.157,15.192,15.192,0,0,1-1.471,4.583c-.122.25-.258.478-.389.7a4.25,4.25,0,0,0-.782,2.346c0,.643-.032,1.307-.066,1.96a19.309,19.309,0,0,0,.107,4.3,8.451,8.451,0,0,0,.207.847c.235.846.389,1.519.062,1.854-.088.088-.177.177-.265.271a6.808,6.808,0,0,0-.946,1.091.937.937,0,0,0-.151.568,3.975,3.975,0,0,1-.028.573,3.82,3.82,0,0,0,.006,1.112,2.251,2.251,0,0,0,.561,1.014,2.989,2.989,0,0,1,.207.265,19.618,19.618,0,0,1,1.185,2.157.936.936,0,0,0,.706.52.952.952,0,0,0,.138.01.935.935,0,0,0,.688-.3,1.287,1.287,0,0,0,.306-.557,2.206,2.206,0,0,0,.353-1.606c-.005-.088-.012-.191-.01-.258.029-.031.088-.08.132-.122a3.43,3.43,0,0,0,.311-.3,1.676,1.676,0,0,0,.486-1.252,2.555,2.555,0,0,1,.341-1.043,7.27,7.27,0,0,0,.329-.756,2.7,2.7,0,0,0-.227-2.173.389.389,0,0,0-.01-.065,3.826,3.826,0,0,1,.109-.9,6.644,6.644,0,0,0,.1-.666,14.358,14.358,0,0,1,.513-2.764,19.9,19.9,0,0,0,.7-4.6,9.429,9.429,0,0,0,1.025-1.7,9.521,9.521,0,0,1,.337,1.147,1.864,1.864,0,0,1-.077,1.1,2.465,2.465,0,0,1-.195.326,2.2,2.2,0,0,0-.457,1.159,5.477,5.477,0,0,0,.081,1.05,2.655,2.655,0,0,1,.013,1.1c-.079.285-.165.579-.251.869-.147.5-.3,1.008-.42,1.531a3.743,3.743,0,0,0,.148,1.848c.051.2.1.383.13.559a5.11,5.11,0,0,1,0,1.876c-.016.088-.032.177-.047.265a2.715,2.715,0,0,1-.218.816,1.82,1.82,0,0,1-.177.226,2.391,2.391,0,0,0-.417.64,2.448,2.448,0,0,0-.132.85,2.635,2.635,0,0,1-.024.335.975.975,0,0,0-.016.111l-.023.034c-.054.088-.109.177-.163.265a2.136,2.136,0,0,0-.433,1.954l.03.088a1.853,1.853,0,0,1,.186,1.27,8.366,8.366,0,0,0-.045,3.069c.041.366.088.746.1,1.124a36.044,36.044,0,0,0,.448,3.991l.011.066a3.016,3.016,0,0,0,.571,1.524,3.889,3.889,0,0,0,.395.41l.037.035a.93.93,0,0,0,.11.088c.024.286.076.57.125.839a5.35,5.35,0,0,1,.1.676l.008.252a15.79,15.79,0,0,0,.141,1.928c.04.26.072.523.1.779a11.329,11.329,0,0,0,.371,2,7.657,7.657,0,0,1,.335,1.859c.009.154.013.313.018.481a8.927,8.927,0,0,0,.1,1.26.934.934,0,0,0-.212.548,35.862,35.862,0,0,0-.011,4.8c.011.145.024.291.034.441l.01.124a23.574,23.574,0,0,0,.671,4.578c.229.812.379,1.624.522,2.411.14.758.283,1.543.5,2.354.049.177.1.38.159.6a.907.907,0,0,0,.1.239.92.92,0,0,0,.026.26,16.458,16.458,0,0,1,.448,2.369,7.2,7.2,0,0,0-.331.73c-.065.164-.126.312-.2.459a3.609,3.609,0,0,1-.265.441,2.889,2.889,0,0,0-.571,1.332,5.238,5.238,0,0,0,.156,1.619,5.785,5.785,0,0,1,.136.859,1.229,1.229,0,0,1-.027.245.707.707,0,0,1-.077.369s0,.016,0,.019a2.5,2.5,0,0,0,.309,2.419,2.206,2.206,0,0,0,1.648.5c.387,0,.778-.037,1.124-.07l-.088-.932c-.326.031-.693.065-1.035.065a1.463,1.463,0,0,1-.983-.229c-.336-.337-.189-.982-.06-1.552a.077.077,0,0,1,0-.011,2.111,2.111,0,0,0,2.192-.367c.088-.052.176-.107.276-.162a2.507,2.507,0,0,1,1.552-.441c.223.056.468.353.706.642.316.383.692.839,1.158.839a.764.764,0,0,0,.281-.057,3.21,3.21,0,0,1-.3,1.289c-.184.011-.376.016-.586.016-.411,0-.834-.021-1.243-.041s-.85-.041-1.287-.042c-.177,0-.4.022-.668.047h0l.1.93c.225-.021.441-.041.566-.041.421,0,.857.022,1.245.041.419.021.853.042,1.287.042.229,0,.441-.006.64-.018a.936.936,0,0,0,.812-.579,4.031,4.031,0,0,0,.372-1.688.923.923,0,0,0-.1-.371.938.938,0,0,0-.067-.346c-.028-.071-.058-.142-.088-.213a2.809,2.809,0,0,1-.111-.28,7.609,7.609,0,0,1-.189-.971c-.027-.177-.049-.353-.069-.518a6.418,6.418,0,0,0-.406-1.782c-.093-.229-.183-.43-.265-.607a4.029,4.029,0,0,1-.466-1.651.956.956,0,0,0-.323-.666,11.646,11.646,0,0,1-.236-2.328.914.914,0,0,0-.06-.311.942.942,0,0,0,.057-.314v-.425c0-.481-.021-.971-.043-1.448v-.014a14.674,14.674,0,0,1,.014-2.411c.044-.353.1-.731.155-1.059.088-.553.177-1.12.221-1.7a1.82,1.82,0,0,0,1.432.7,2.3,2.3,0,0,0,.99-.244,2.328,2.328,0,0,0,1.169-1.236,12.393,12.393,0,0,0,.843-2.692c.075-.04.141-.076.192-.106.177-.106.353-.214.521-.32l.063-.039a3.585,3.585,0,0,0,1.631-1.9c.472-1.507.795-3.063,1.111-4.569.177-.854.342-1.628.53-2.4a1.236,1.236,0,0,0,1.107-.971,7.4,7.4,0,0,0,.1-1.493c0-.168,0-.328.006-.472a14.5,14.5,0,0,1,.666-3.739,14.4,14.4,0,0,0,.447-3.34,11.949,11.949,0,0,1,.2-1.443C1066.915,138.413,1066.985,138.038,1067.03,137.654Zm-1.56-34.679.041.027a7.642,7.642,0,0,0,.961.6c.364.177.746.338,1.116.49.431.177.876.362,1.284.578a2.234,2.234,0,0,1,.992,1.3c.075.177.152.353.245.538a12.739,12.739,0,0,1,.6,1.4,11.681,11.681,0,0,0,.685,1.554c.115.215.258.478.415.768a29.106,29.106,0,0,1,1.639,3.306l.03.088c.176.5.34.976.472,1.476a3.4,3.4,0,0,1,.078.423,2.305,2.305,0,0,0,.177.688c0,.107-.008.215-.011.326a4.083,4.083,0,0,1-1.8,3.789c-.566.521-1.788,1.481-2.77,2.253-.416.327-.788.618-1.047.828-.005,0-.008.01-.012.015a.209.209,0,0,0-.027.033.172.172,0,0,0-.018.034.2.2,0,0,0-.011.037.215.215,0,0,0,0,.042v.019a3.431,3.431,0,0,1-.088,1.194q-.08.357-.123.721a6.507,6.507,0,0,1-.125.717c-.094.366-.251.464-.564.658-.06.038-.125.078-.192.122-.084.055-.147.094-.2.125-.005,0-.009,0-.014-.005a.208.208,0,0,0-.2.088,2.948,2.948,0,0,1-.342.034,1.86,1.86,0,0,0-.556.165,1.01,1.01,0,0,1-.332.108c-.342-.013-.449-.189-.61-.5a1.059,1.059,0,0,0-.6-.618c-.018-.053-.039-.106-.059-.16a3.368,3.368,0,0,1-.184-.595,1.148,1.148,0,0,1,.118-.645,2.3,2.3,0,0,0,.152-.5.77.77,0,0,0-.126-.571.552.552,0,0,1-.1-.265,3.538,3.538,0,0,1,.295-1.176c.1-.133.412-.2.667-.249a3.385,3.385,0,0,0,.4-.1,2.228,2.228,0,0,0,.989-.639.328.328,0,0,0,.124-.109.2.2,0,0,0,.03-.051l.042-.056c.051-.059.1-.122.16-.188a.01.01,0,0,1,.005-.009c.072-.073.144-.147.217-.216a5.508,5.508,0,0,0,.441-.46l.234-.282a17.718,17.718,0,0,0,1.748-2.351c.042-.071.079-.139.116-.207a1.6,1.6,0,0,1,.492-.637,5.341,5.341,0,0,1,1.077-.481q.409-.141.8-.323a.209.209,0,0,0-.183-.376,8.028,8.028,0,0,1-.763.306c-.258.094-.52.192-.766.308l-.144-.209a23.281,23.281,0,0,0-1.392-1.878,7.948,7.948,0,0,1-.929-1.479,11.345,11.345,0,0,0-.674-1.156.209.209,0,0,0-.344.237c.108.156.207.317.3.479-.045.148-.08.286-.108.418a1.468,1.468,0,0,0-.334.162c-.061.036-.154.088-.171.1h-.007c-.123,0-.214-.154-.339-.386a2.392,2.392,0,0,0-.142-.244,5.637,5.637,0,0,1-1.108-2.344,7.263,7.263,0,0,1-.053-1.742c.012-.258.027-.524.027-.794a34.147,34.147,0,0,1,.353-4.2c.017-.116.032-.23.046-.345Zm2.146,14.42c.133-.68.211-1.369.288-2.043.028-.248.056-.494.088-.74a.164.164,0,0,1,.005-.05q.114.156.244.31c.436.515.808,1.042,1.19,1.594a3.334,3.334,0,0,0-.422.643c-.034.062-.067.124-.1.188a13.97,13.97,0,0,1-1.308,1.8,6.46,6.46,0,0,1,.019-1.7Zm-5.384-15.991c-.02.08-.042.177-.066.3a.212.212,0,0,0-.033-.022,2.352,2.352,0,0,1-.749-.515,7.405,7.405,0,0,1,.853.239Zm-.265.659a.2.2,0,0,0,.081.017h.031a11.938,11.938,0,0,1-1.263,3.149c-.4.7-1.256.84-2.084.978l-.214.035a5.781,5.781,0,0,1-3.354-.4,1.626,1.626,0,0,1-.883-.841,16.22,16.22,0,0,1-.721-2.526c-.065-.285-.132-.575-.2-.871a2.864,2.864,0,0,0,.29-.229,1.269,1.269,0,0,1-.023.5.209.209,0,0,0,.378.177,2.648,2.648,0,0,0,0-1.254c-.008-.059-.015-.113-.021-.161q-.038-.3-.074-.6c-.048-.394-.1-.794-.152-1.188a5.33,5.33,0,0,0,1.581,1.483,2.888,2.888,0,0,0,1.643.523h0a4.073,4.073,0,0,0,3.375-2.36c.013.307.031.618.083,1,.016.118.023.251.031.391a2.7,2.7,0,0,0,.151.914,2.579,2.579,0,0,0,1.354,1.276Zm-.394-7.434a2.407,2.407,0,0,1-.618,1.224c.088-.606.166-1.221.208-1.84q.1-.223.185-.463a.239.239,0,0,1,.052-.044,1.55,1.55,0,0,1,.176,1.125Zm-9.356.6a1.9,1.9,0,0,1-.078-1.58,2.781,2.781,0,0,1,.215.182l.123.154.05.063a15.667,15.667,0,0,0,.353,2.133,1.942,1.942,0,0,1-.657-.952Zm.681-4c-.027.1-.15.4-.218.57a3.178,3.178,0,0,0-.127.331,1.81,1.81,0,0,0,.031.69,2.79,2.79,0,0,1,.042.295c.005.088.019.185.034.287.008.056.016.114.023.177a1.567,1.567,0,0,1-.276-.478,5.334,5.334,0,0,1-.182-1.064,11.211,11.211,0,0,1,.035-2.162,4.7,4.7,0,0,1,2.071-3.054v.032a1.6,1.6,0,0,1-.071.419.209.209,0,0,0,.335.228l.1-.088a5.392,5.392,0,0,1,1.508-1.075,2.2,2.2,0,0,1-.361.4.208.208,0,0,0,.2.353,5.187,5.187,0,0,0,.625-.265c.14-.068.279-.134.417-.191l-.016.009a.209.209,0,0,0,.185.374c.055-.026.11-.054.155-.079a3.872,3.872,0,0,1,1.372-.461,2.645,2.645,0,0,1-.326.214.209.209,0,0,0,.154.384,4.2,4.2,0,0,0,.53-.186,3.544,3.544,0,0,1,.732-.232,1.555,1.555,0,0,1-.308.265.209.209,0,0,0,.17.378l.108-.032a3.667,3.667,0,0,1,.782-.177c-.1.062-.2.117-.317.177a.209.209,0,0,0,.083.4c.125.007.24,0,.353,0a2.37,2.37,0,0,1,.372.01.449.449,0,0,0-.176.214.639.639,0,0,0,.049.567,1.573,1.573,0,0,1,.088.206,5.967,5.967,0,0,1,.309,1.483,8.561,8.561,0,0,1-.3,2.9,6.61,6.61,0,0,0-.057-1.1c-.005-.026-.009-.056-.014-.088-.022-.159-.069-.489-.372-.515a.41.41,0,0,0-.068,0,.715.715,0,0,0-.044-.485.376.376,0,0,0-.177-.15,1.834,1.834,0,0,0,.108-.448.209.209,0,0,0-.285-.21,1.618,1.618,0,0,0-.286.151,1.338,1.338,0,0,0,.056-.348.209.209,0,0,0-.3-.19,1.875,1.875,0,0,0-.293.176.209.209,0,0,0-.245-.22.794.794,0,0,0-.227.079c0-.011,0-.021,0-.031a.209.209,0,0,0-.281-.226,1.691,1.691,0,0,0-.626.457.249.249,0,0,0-.006-.034c-.015-.07-.028-.139-.046-.207a.209.209,0,0,0-.364-.079c-.34.413-.463.434-.475.441s-.066-.052-.1-.326a.209.209,0,0,0-.341-.132,1.245,1.245,0,0,0-.226.32,1.708,1.708,0,0,1-.206.308,1.306,1.306,0,0,1-.2-.246,1.115,1.115,0,0,0-.217-.265.209.209,0,0,0-.326.105,2.575,2.575,0,0,0-.068.284,1.668,1.668,0,0,0-.265-.3.209.209,0,0,0-.292.017,1.027,1.027,0,0,0-.188.316l-.013-.012a.688.688,0,0,0-.441-.258.31.31,0,0,0-.14.033c-.183.088-.269.361-.308.643a1.475,1.475,0,0,1-.1-.111.208.208,0,0,0-.368.088,1.221,1.221,0,0,0-.011.33,1.291,1.291,0,0,1,0,.177.361.361,0,0,1-.009.067c-.018-.012-.035-.024-.054-.034h0a.209.209,0,0,0-.285.076.205.205,0,0,0-.02.131Zm.077,3.069a.215.215,0,0,0,.064-.075,1.559,1.559,0,0,0,.036-.883c-.013-.094-.026-.182-.03-.252a3.171,3.171,0,0,0-.047-.341,1.523,1.523,0,0,1-.036-.521c.009-.03.064-.164.108-.272.061-.148.11-.271.15-.373.022.021.043.041.066.061a.208.208,0,0,0,.137.051h0a.209.209,0,0,0,.209-.209.194.194,0,0,0-.005-.047,1.182,1.182,0,0,1,.029-.2c.011-.058.023-.118.03-.177.026.03.05.06.072.088a.208.208,0,0,0,.169.088h0a.209.209,0,0,0,.209-.209.2.2,0,0,0,0-.04,2.343,2.343,0,0,1,.088-.706,1.4,1.4,0,0,1,.117.107.89.89,0,0,0,.392.265.208.208,0,0,0,.253-.191.751.751,0,0,1,.036-.181l.063.088a1.872,1.872,0,0,0,.265.33.209.209,0,0,0,.193.048.212.212,0,0,0,.146-.137,2.253,2.253,0,0,0,.069-.277.585.585,0,0,0,.441.282h.026c.206-.013.344-.2.469-.408a.413.413,0,0,0,.371.226.814.814,0,0,0,.53-.279,1.138,1.138,0,0,0,.094.252.209.209,0,0,0,.333.049c.055-.056.108-.113.16-.17a3.143,3.143,0,0,1,.265-.265,1,1,0,0,1-.006.146.209.209,0,0,0,.385.14.7.7,0,0,1,.131-.155c.005.026.011.054.012.062a.209.209,0,0,0,.328.183c.04-.027.078-.056.117-.088a1.115,1.115,0,0,0-.035.38.209.209,0,0,0,.327.152c.055-.037.11-.079.167-.122l.034-.025a1.577,1.577,0,0,0-.063.265.209.209,0,0,0,.321.2,1.135,1.135,0,0,1-.022.168,1,1,0,0,0-.009.421.209.209,0,0,0,.283.138.778.778,0,0,0,.127-.075l.024-.016c.009.041.016.088.021.125s.011.079.019.113a7.325,7.325,0,0,1,.049,1.11v.371a.748.748,0,0,0,.083.339l.01.019v.041a.444.444,0,0,1-.023.055h0a.209.209,0,0,0,0,.177c-.065.834-.187,1.643-.319,2.492-.03.194-.06.388-.088.584a3.779,3.779,0,0,1-3.345,3.2,2.476,2.476,0,0,1-1.412-.45,4.051,4.051,0,0,1-1.651-1.748,17.633,17.633,0,0,1-.925-3.92Zm-5.208,17.321a.209.209,0,0,0-.414.055,8.077,8.077,0,0,0,.339,1.423v.024a.366.366,0,0,0,.05.13h0a11.826,11.826,0,0,1-1.621,3.163.21.21,0,0,0-.147.187,19.544,19.544,0,0,1-.677,4.678,15.279,15.279,0,0,0-.547,2.944c-.014.16-.053.365-.094.581a3.726,3.726,0,0,0-.106,1.236.209.209,0,0,0,.016.16,1.9,1.9,0,0,1,.26,1.589,6.471,6.471,0,0,1-.29.66,3.407,3.407,0,0,0-.433,1.4.793.793,0,0,1-.251.681,2.663,2.663,0,0,1-.237.228,1.018,1.018,0,0,0-.441.752,3.75,3.75,0,0,0,.01.38c.023.388.052.872-.21,1a.208.208,0,0,0-.112.244.276.276,0,0,1-.088.234,20.645,20.645,0,0,0-1.236-2.257,3.788,3.788,0,0,0-.277-.365,1.454,1.454,0,0,1-.36-.591,3.078,3.078,0,0,1,.006-.847,4.676,4.676,0,0,0,.031-.716,5.98,5.98,0,0,1,.824-.941c.094-.094.189-.188.282-.283.724-.749.414-1.862.165-2.757-.076-.272-.147-.53-.185-.753a18.575,18.575,0,0,1-.094-4.094c.034-.658.069-1.338.067-2.01a3.4,3.4,0,0,1,.651-1.866c.142-.238.289-.485.426-.766a16.167,16.167,0,0,0,1.56-4.891,5.279,5.279,0,0,0-.081-1.4,3.653,3.653,0,0,1,.011-1.689,5.079,5.079,0,0,1,1.66-2.432,4.907,4.907,0,0,1,1.553-.669,8.41,8.41,0,0,0,1.043-.37c.274-.126.546-.26.816-.391s.547-.265.824-.395a21.842,21.842,0,0,1-1.127,6.651c-.093.284-.19.568-.287.85-.184.537-.373,1.092-.537,1.645-.021.072-.04.148-.06.227a1.64,1.64,0,0,1-.182.513.752.752,0,0,1-.187.17,7.593,7.593,0,0,1-.307-1.315Zm7.9,64.132c.079.177.163.369.252.583a5.578,5.578,0,0,1,.343,1.543c.022.177.044.353.072.541a8.3,8.3,0,0,0,.216,1.092,3.355,3.355,0,0,0,.151.39c.027.063.054.125.079.187-.325.164-.6-.131-1.019-.635a2.079,2.079,0,0,0-.925-.78,2.731,2.731,0,0,0-1.863.48l-.282.164c-.706.418-1.148.676-1.891.306a2.086,2.086,0,0,0,.04-.45,6.527,6.527,0,0,0-.155-1.007,4.488,4.488,0,0,1-.141-1.333,2.058,2.058,0,0,1,.418-.908,4.335,4.335,0,0,0,.334-.56c.083-.176.151-.344.216-.508a5.8,5.8,0,0,1,.316-.692c.115.015.226.034.335.053a4.291,4.291,0,0,0,.719.079,2.233,2.233,0,0,0,.48-.051,5.705,5.705,0,0,0,.677-.22,3.717,3.717,0,0,1,1.012-.277.5.5,0,0,1,.059,0l.01.007a4.885,4.885,0,0,0,.551,1.995Zm-4.23-4.569a3.624,3.624,0,0,0,1.175.187,2.984,2.984,0,0,0,1.95-.63,12.507,12.507,0,0,0,.278,2.614,5.474,5.474,0,0,0-.942.281,5.535,5.535,0,0,1-.623.2,2.717,2.717,0,0,1-1.04-.032c-.1-.018-.209-.034-.32-.049a17.346,17.346,0,0,0-.474-2.574Zm4.014-24.374c-.042,2.043-.231,4.225-.391,5.9-.046.479-.125.971-.209,1.486a12.044,12.044,0,0,0-.237,3.051,46.89,46.89,0,0,1,.323,5.085,15.694,15.694,0,0,1-.243,2.268c-.056.353-.114.726-.158,1.091a15.316,15.316,0,0,0-.019,2.57c.022.468.045.951.042,1.412v.428c-.567.963-2.383,1.035-3.252.574-.057-.221-.112-.425-.162-.606-.207-.772-.348-1.538-.484-2.279-.148-.809-.3-1.644-.543-2.5a22.971,22.971,0,0,1-.637-4.4q-.022-.282-.046-.563a35.32,35.32,0,0,1,.013-4.673.209.209,0,0,0,.144.061.213.213,0,0,0,.074-.014.21.21,0,0,0,.121-.27,5.179,5.179,0,0,1-.224-1.663c0-.171-.009-.34-.019-.5a8.538,8.538,0,0,0-.374-2.08,10.5,10.5,0,0,1-.336-1.843c-.032-.265-.065-.535-.107-.807a15.055,15.055,0,0,1-.13-1.816l-.009-.254a5.872,5.872,0,0,0-.113-.815,3.552,3.552,0,0,1-.088-1.3,2.266,2.266,0,0,1,1.406-.816,19.573,19.573,0,0,1,3.788-.246h.335c.109,0,.216,0,.321-.008.618-.022.943-.012,1.113.427a1.252,1.252,0,0,1,.014.78.144.144,0,0,0-.01.03.207.207,0,0,0,.061.2,3.055,3.055,0,0,0,0,.423,2.3,2.3,0,0,1,0,.414,2.359,2.359,0,0,1-.052.259,1.228,1.228,0,0,0-.026.677,1.049,1.049,0,0,0,.128.284.174.174,0,0,0-.013.039Zm3.122,15.075a1.4,1.4,0,0,1-.714.761,1,1,0,0,1-1.446-.41,4.413,4.413,0,0,1-.52-2.567,10.658,10.658,0,0,0-.016-1.7c-.024-.366-.048-.746-.045-1.119,0-.2.012-.381.024-.561.009-.154.019-.311.021-.473a7.6,7.6,0,0,0,.133.794,5.5,5.5,0,0,0,.869,1.75c.1.154.2.307.3.463a1.477,1.477,0,0,0,1.335.725,2.781,2.781,0,0,0,.847-.146,11.51,11.51,0,0,1-.779,2.486Zm4.3-9.445c-.31,1.483-.63,3.017-1.089,4.48a2.7,2.7,0,0,1-1.236,1.383l-.063.039c-.164.1-.329.207-.5.305a4.093,4.093,0,0,1-.427.216.268.268,0,0,0-.037.015c-.589.251-1.531.485-2-.279-.1-.159-.2-.316-.3-.474a5.21,5.21,0,0,1-.811-1.614,12.093,12.093,0,0,1-.219-2.224l-.014-.372c-.027-.649-.064-1.31-.1-1.95-.088-1.578-.177-3.2-.132-4.8a3.292,3.292,0,0,0,.756.2c.064.011.129.022.19.034.45.088.909.185,1.361.306a9.218,9.218,0,0,1,1.306.451,6.183,6.183,0,0,1,.642.322,10.573,10.573,0,0,1,.943.648,8.786,8.786,0,0,0,1.231.809,1.1,1.1,0,0,0,.5.141,1.312,1.312,0,0,0,.56-.17c-.2.847-.379,1.705-.553,2.538Zm3.381-16.716c-.047.6-.1,1.215-.167,1.821-.042.353-.106.718-.169,1.069a12.754,12.754,0,0,0-.212,1.554,13.7,13.7,0,0,1-.41,3.126,15.4,15.4,0,0,0-.706,3.972c-.005.156-.006.331-.006.513a6.763,6.763,0,0,1-.079,1.282c-.046.2-.164.235-.52.275a2.071,2.071,0,0,0-.618.138l-.023.009-.088.041c-.327.154-.4.19-.7.04a8.3,8.3,0,0,1-1.171-.771h0a8.505,8.505,0,0,0-4.418-1.8l-.2-.035c-.559-.1-.932-.19-1.042-.58a.852.852,0,0,1,.029-.465,2.732,2.732,0,0,0,.061-.3,2.7,2.7,0,0,0,.006-.489,1.558,1.558,0,0,1,.033-.538v-.007c.207-.184.441-.381.722-.612.353-.288.391-.333.427-.724l.006-.066a9.894,9.894,0,0,0,.041-1,.618.618,0,0,0,.348-.392q.023-.061.051-.119c.047-.1.088-.19.124-.283a2.195,2.195,0,0,1,.26-.5,21.348,21.348,0,0,1,2.907-3.275.209.209,0,1,0-.279-.311,21.772,21.772,0,0,0-2.967,3.34,2.574,2.574,0,0,0-.309.59,2.754,2.754,0,0,1-.113.257c-.016.033-.029.063-.041.088-.009-.138-.032-.284-.054-.425a2.046,2.046,0,0,1-.04-.664.959.959,0,0,1,.177-.343,1.9,1.9,0,0,0,.191-.313,2.037,2.037,0,0,0,0-1.354l-.017-.071a31.066,31.066,0,0,0-1.083-3.531.21.21,0,0,0-.039-.155s0,.005,0,0a.22.22,0,0,0-.245-.15.232.232,0,0,0-.176.2.213.213,0,0,0,.011.088,31.65,31.65,0,0,1,1.125,3.636l.017.072a1.708,1.708,0,0,1,.031,1.086,1.553,1.553,0,0,1-.152.245,1.328,1.328,0,0,0-.248.5,2.3,2.3,0,0,0,.035.817c.022.141.043.275.051.4a10.257,10.257,0,0,1-.024,1.526l-.006.068c-.022.23-.022.23-.277.441-.177.145-.335.277-.482.4a1.391,1.391,0,0,0-.1-.486c-.286-.738-.941-.715-1.517-.694-.1,0-.2.006-.308.007h-.335a19.9,19.9,0,0,0-3.871.255,2.715,2.715,0,0,0-1.576.869.208.208,0,0,0-.113.118c-.006.015-.009.033-.014.049s-.028.036-.041.056l-.042-.04a3.073,3.073,0,0,1-.3-.312,2.18,2.18,0,0,1-.38-1.094l-.011-.068a35.3,35.3,0,0,1-.437-3.884c-.022-.4-.065-.794-.109-1.179a7.528,7.528,0,0,1,.022-2.736,2.751,2.751,0,0,0-.213-1.816l-.03-.088c-.131-.366.043-.669.341-1.132.06-.094.121-.193.177-.294.339-.032.685-.082,1.021-.132a7.053,7.053,0,0,1,2.479-.082c.767.166,1.544.41,2.3.648a20.215,20.215,0,0,0,3.082.794,6.4,6.4,0,0,0,2.081-.132,9.729,9.729,0,0,1,1.235-.163,4.032,4.032,0,0,1,1.45.293,9.39,9.39,0,0,0,2.328.534,6.3,6.3,0,0,0,1.128-.05,2.64,2.64,0,0,1,2.092.336c.077.063.167.139.265.221-.068.644-.118,1.279-.167,1.889Zm.177-2.42a2.992,2.992,0,0,0-2.4-.429,5.882,5.882,0,0,1-1.051.049,9.016,9.016,0,0,1-2.227-.513,4.336,4.336,0,0,0-1.6-.315,10.051,10.051,0,0,0-1.284.169,6.01,6.01,0,0,1-1.948.131,20.126,20.126,0,0,1-3.019-.783c-.76-.24-1.546-.489-2.331-.658a7.34,7.34,0,0,0-2.63.078c-.279.041-.547.081-.81.11a3.061,3.061,0,0,0,.042-.491,1.779,1.779,0,0,1,.063-.53,1.572,1.572,0,0,1,.269-.394,2.472,2.472,0,0,0,.265-.361,3.413,3.413,0,0,0,.328-1.126c.014-.088.028-.167.043-.248a6.032,6.032,0,0,0,.005-2.207c-.037-.215-.094-.43-.148-.638a2.93,2.93,0,0,1-.142-1.395c.116-.494.265-1,.407-1.48.088-.3.177-.591.255-.883a3.457,3.457,0,0,0,.011-1.487,4.666,4.666,0,0,1-.072-.877,1.373,1.373,0,0,1,.3-.679,3.143,3.143,0,0,0,.271-.462,2.8,2.8,0,0,0,.137-1.677,14.675,14.675,0,0,0-.669-2.075c-.1-.26-.2-.523-.29-.787a1.177,1.177,0,0,0,.4-.337,1.982,1.982,0,0,0,.244-.649c.017-.072.035-.143.055-.209.161-.545.353-1.1.53-1.629.1-.284.194-.569.289-.855a22.2,22.2,0,0,0,1.147-6.973q.205-.087.411-.169c.138-.054.257-.1.391-.146a9.705,9.705,0,0,0,1.3-.551q.088.374.17.734a16.58,16.58,0,0,0,.74,2.589,2.075,2.075,0,0,0,1.081,1.059,5.714,5.714,0,0,0,2.506.53,6.531,6.531,0,0,0,1.107-.094l.211-.035a3.024,3.024,0,0,0,2.378-1.182,12.265,12.265,0,0,0,1.347-3.427l.022-.1c.016-.077.048-.23.078-.353.5.2.995.425,1.48.654l.415.194a4.424,4.424,0,0,1,.558.315q-.034.277-.069.551a34.46,34.46,0,0,0-.358,4.252c0,.26-.014.522-.027.775a7.688,7.688,0,0,0,.06,1.84,6.036,6.036,0,0,0,1.172,2.5c.04.058.078.132.12.208.138.257.325.606.706.606h.029a.884.884,0,0,0,.365-.155l.048-.028c-.01.1-.018.207-.024.319s-.009.237-.011.353a5.323,5.323,0,0,1-.029.56c-.031.251-.06.5-.088.757-.074.65-.151,1.324-.275,1.963a8.925,8.925,0,0,0,.016,2.489c.038.379.073.736.081,1.059-.028.028-.058.056-.088.088a1.745,1.745,0,0,0-.192.235,1.942,1.942,0,0,1-.927.649,3.141,3.141,0,0,1-.353.084,1.469,1.469,0,0,0-.921.412,3.64,3.64,0,0,0-.374,1.452.938.938,0,0,0,.154.449.368.368,0,0,1,.073.3,1.968,1.968,0,0,1-.129.416,1.534,1.534,0,0,0-.141.869,3.607,3.607,0,0,0,.2.671c.033.088.065.176.094.258a.208.208,0,0,0,.169.139c.2.029.284.177.414.424a1.073,1.073,0,0,0,.965.726h.02a1.359,1.359,0,0,0,.489-.139,1.5,1.5,0,0,1,.437-.135c.088-.006.154-.011.217-.018a9.259,9.259,0,0,0,.031,1.967,6.29,6.29,0,0,1-.13,1.589c-.035.207-.071.422-.1.633a1.243,1.243,0,0,0,.018.52,1.582,1.582,0,0,1,.042.3c.007.132.035.345.069.593.019.146.041.308.058.457-.145-.143-.31-.285-.439-.39Z" transform="translate(-1039.941 -85.477)" fill="#030504"/>
</svg>
