<svg xmlns="http://www.w3.org/2000/svg" width="19.499" height="30.011" viewBox="0 0 19.499 30.011">
  <path id="Path_52281" data-name="Path 52281" d="M283.635,211.537c3.251-1.025,5.923-5.218,5.923-9.766v-.628l-2.789-.022q.023-.554.023-1.12H272.909v.031h-.084q0,.566.023,1.12l-2.789.022v.628c0,4.548,2.672,8.741,5.923,9.766a5.937,5.937,0,0,0,2.387,1.943c.045.729.069,1.486.069,2.265,0,2.505-1.651,4.8-2.216,6.571h-1.3a1.81,1.81,0,0,0-1.7,1.9v3.073a2.1,2.1,0,0,0,.056.475h-.864v2.217h14.8v-2.217h-.864a2.1,2.1,0,0,0,.056-.475v-3.073a1.81,1.81,0,0,0-1.7-1.9h-1.3c-.549-1.773-2.06-4.066-2.06-6.571,0-.815.026-1.608.075-2.367a6.089,6.089,0,0,0,2.214-1.872Zm3.053-9.151,1.585.012a9.763,9.763,0,0,1-3.349,6.992,21,21,0,0,0,1.763-7Zm-15.343.044,1.585-.012a21,21,0,0,0,1.764,7,9.763,9.763,0,0,1-3.35-6.988Zm13,21.534v3.831h-9.071v-3.831Zm-4.536-15.275-2.994,1.574.572-3.334-2.422-2.361,3.347-.486,1.5-3.033,1.5,3.033,3.347.486-2.422,2.361.572,3.334Z" transform="translate(-270.059 -200.001)" fill="#ffca3d"/>
</svg>
