<svg xmlns="http://www.w3.org/2000/svg" width="34.983" height="33.469" viewBox="0 0 34.983 33.469">
  <g id="Group_169" data-name="Group 169" transform="translate(-37 -1082.48)">
    <text id="แคลอรี่" transform="translate(46 1104)" fill="#dbdbdb" font-size="14" font-family="DBHeaventRounded-Bold, DB HeaventRounded" font-weight="700"><tspan x="0" y="0">EXP</tspan></text>
    <path id="Path_1" data-name="Path 1" d="M37.4,18.536a2.8,2.8,0,0,0-1.427-4.389L28.01,11.8a.941.941,0,0,1-.517-.368L22.8,4.571a2.9,2.9,0,0,0-4.614,0h0l-4.689,6.853a.946.946,0,0,1-.517.368l-7.97,2.355A2.8,2.8,0,0,0,3.58,18.536l5.063,6.58a.957.957,0,0,1,.2.609l-.228,8.3a2.8,2.8,0,0,0,3.734,2.714l7.823-2.78a.957.957,0,0,1,.641,0l7.823,2.78a2.8,2.8,0,0,0,3.734-2.712l-.228-8.3a.959.959,0,0,1,.2-.611Zm-6.523,5.459a2.815,2.815,0,0,0-.58,1.78l.228,8.3A.956.956,0,0,1,29.253,35L21.43,32.221a2.81,2.81,0,0,0-1.878,0L11.729,35a.954.954,0,0,1-1.274-.921l.228-8.3A2.813,2.813,0,0,0,10.1,24L5.04,17.418a.954.954,0,0,1,.488-1.5l7.967-2.353a2.78,2.78,0,0,0,1.517-1.1l4.695-6.847a.994.994,0,0,1,1.58,0l4.693,6.847a2.787,2.787,0,0,0,1.517,1.1l7.963,2.347a.954.954,0,0,1,.488,1.5Z" transform="translate(34 1079.049)" fill="#dbdbdb"/>
  </g>
</svg>
