<svg xmlns="http://www.w3.org/2000/svg" width="23.627" height="29.868" viewBox="0 0 23.627 29.868">
  <g id="Group_3696" data-name="Group 3696" transform="translate(-0.001 0.011)">
    <path id="Path_52198" data-name="Path 52198" d="M3623.619,3116.615a11.708,11.708,0,0,1-7.007-2.3,10.169,10.169,0,0,1-3.845-5.82.777.777,0,0,1-.016-.1,12.346,12.346,0,0,1,.408-3.925,10.912,10.912,0,0,0,.379-3.408c-.285-2.787-1.7-3.167-1.844-3.2a.763.763,0,0,1-.644-.518.793.793,0,0,1,.209-.825,4.752,4.752,0,0,1,3.932-1.253,5.476,5.476,0,0,1,3.416,2.663,16.547,16.547,0,0,0-1.917-6.468,13.775,13.775,0,0,0-2.431-3.344.789.789,0,0,1,.653-1.362l.071.012a12.806,12.806,0,0,1,5.8,2.957,15.787,15.787,0,0,1,3.809,4.929,20.142,20.142,0,0,1,1.413,3.71c.181.656.3,1.316.415,1.954a15.731,15.731,0,0,0,.536,2.315c.174.508.5.849.809.849.348,0,.71-.432.861-1.027v-.012c.01-.043.02-.084.028-.126v-.023c.557-2.5-.876-5.4-1.787-6.919l-.758-1.15a.789.789,0,0,1,1.07-1.108l.013.009.009.006.123.077h0l.008,0,.228.152.018.012c.1.069.208.144.319.224l.012.009c.131.1.267.2.405.3l.01.008h0c.156.121.315.247.472.376h0c.176.145.354.3.527.452l.007.006a17.075,17.075,0,0,1,4.025,5.214v.006c.161.335.309.678.44,1.02V3101h0c.137.357.259.722.363,1.087v.016a12.547,12.547,0,0,1,.474,3.77v.04c0,.166-.013.336-.024.5v.025a13.432,13.432,0,0,1-.216,1.628.388.388,0,0,1-.016.077l-.007.032a10.36,10.36,0,0,1-3.906,6.2,11.59,11.59,0,0,1-6.846,2.239Zm-9.3-8.417c.932,3.966,4.835,6.839,9.3,6.839a10,10,0,0,0,5.939-1.9,8.766,8.766,0,0,0,3.3-5.249l.008-.039.011-.055a12.009,12.009,0,0,0,.191-1.437v-.022c.01-.149.018-.3.021-.446v-.033a11,11,0,0,0-.414-3.295l-.006-.022c-.091-.317-.2-.636-.317-.947l-.006-.016c-.116-.3-.247-.606-.39-.9v-.006a14.615,14.615,0,0,0-2.452-3.542,9.629,9.629,0,0,1,.7,5.508c-.013.069-.029.141-.047.212v.018a2.645,2.645,0,0,1-2.388,2.2,2.568,2.568,0,0,1-2.3-1.917,17.142,17.142,0,0,1-.6-2.546c-.114-.631-.221-1.227-.383-1.814a18.527,18.527,0,0,0-1.3-3.419,14.211,14.211,0,0,0-3.426-4.441,13.045,13.045,0,0,0-2.608-1.752c.292.432.6.926.9,1.48a18.162,18.162,0,0,1,1.688,4.41,19.084,19.084,0,0,1,.454,5.927,1.4,1.4,0,0,1,.031.274.789.789,0,0,1-1.5.347l-.462-.951-.016-.034c-.96-2.241-2.116-3.558-3.345-3.807a2.58,2.58,0,0,0-1.538.2,5.543,5.543,0,0,1,1.749,3.889,12.245,12.245,0,0,1-.406,3.9,11.159,11.159,0,0,0-.39,3.388ZM3634.2,3102.129Zm-.372-1.113Zm0,0Zm0,0Zm-22.117-3.136ZM3626.371,3094.48Zm2.457-.154Z" transform="translate(-3611.01 -3086.758)" fill="#dbdbdb"/>
  </g>
</svg>
