<svg xmlns="http://www.w3.org/2000/svg" width="31.713" height="29.594" viewBox="0 0 31.713 29.594">
  <g id="icon" transform="translate(0.013)">
    <ellipse id="Ellipse_576" data-name="Ellipse 576" cx="3.376" cy="3.384" rx="3.376" ry="3.384" transform="translate(24.306 0)" fill="#ffca3d"/>
    <g id="Group_3698" data-name="Group 3698" transform="translate(0 1.387)">
      <path id="Path_52199" data-name="Path 52199" d="M170.9,140.515a1.226,1.226,0,0,0-1.318-1.234l-5.1.383c-.137.01-.264-.166-.263-.3,0,0,.082-3.3.082-3.307s.025-.449.035-.866a2.365,2.365,0,0,0-.675-1.664c-1.2-1.262-5.521-5.615-5.873-5.952a1.864,1.864,0,0,0-2.131-.1l-4.383,4.016a1.215,1.215,0,0,0-.058,1.746,1.349,1.349,0,0,0,1.772.2c.217-.17,3.125-2.713,3.125-2.713a.478.478,0,0,1,.617.035l1.911,2.082a.447.447,0,0,1,.006.675c-.185.165-14.718,14.857-14.718,14.857l-4.222,4.256a1.6,1.6,0,1,0,2.2,2.323l11.971-11.518a.934.934,0,0,1,.575-.254c.406-.018.6.141.984.529.066.067,1.707,1.778,1.87,1.951.073.078,1.977,2.065,1.977,2.065.1.1.151.268-.087.3-.019,0-6.746.356-6.746.356a1.587,1.587,0,0,0-1.3,1.492,1.477,1.477,0,0,0,1.427,1.487l3.291-.2h.065a.68.68,0,0,0,.135.005s5.782-.328,6.022-.348a2.019,2.019,0,0,0,1.374-3.193s-4.4-4.98-4.97-5.647a.376.376,0,0,1,.054-.414l2.379-2.345c.15-.148.34-.172.325.194l-.015,1.272a4.5,4.5,0,0,0,.062.658,1.611,1.611,0,0,0,1.377,1.248s2.476-.2,2.491-.2c.039,0,4.557-.373,4.557-.373a1.274,1.274,0,0,0,1.175-1.5Z" transform="translate(-139.22 -127.179)" fill="#ffca3d"/>
    </g>
  </g>
</svg>
