<svg xmlns="http://www.w3.org/2000/svg" width="18.305" height="18.307" viewBox="0 0 18.305 18.307">
  <g id="Group_3746" data-name="Group 3746" transform="translate(-2254.818 -674.024)">
    <path id="Path_52283" data-name="Path 52283" d="M2277.3,693.154a3.345,3.345,0,1,0,3.345,3.345A3.345,3.345,0,0,0,2277.3,693.154Zm0,5.218a1.873,1.873,0,1,1,1.873-1.873,1.873,1.873,0,0,1-1.873,1.873Z" transform="translate(-13.327 -13.327)" fill="#1688c4"/>
    <path id="Path_52284" data-name="Path 52284" d="M2272.691,681.6l-1.763-.8a7.2,7.2,0,0,0-.359-.866l.684-1.809a.736.736,0,0,0-.168-.781l-1.282-1.281a.735.735,0,0,0-.781-.168l-1.808.684a7.334,7.334,0,0,0-.866-.359l-.8-1.763a.736.736,0,0,0-.671-.433h-1.812a.737.737,0,0,0-.671.433l-.8,1.763a7.389,7.389,0,0,0-.866.359l-1.808-.684a.736.736,0,0,0-.781.168l-1.282,1.281a.738.738,0,0,0-.168.781l.684,1.809a7.35,7.35,0,0,0-.359.866l-1.763.8a.736.736,0,0,0-.433.671v1.813a.737.737,0,0,0,.433.671l1.763.8a7.442,7.442,0,0,0,.359.866l-.684,1.808a.737.737,0,0,0,.168.781l1.282,1.282a.735.735,0,0,0,.781.168l1.808-.684a7.318,7.318,0,0,0,.866.358l.8,1.763a.737.737,0,0,0,.671.434h1.812a.736.736,0,0,0,.671-.434l.8-1.763a7.3,7.3,0,0,0,.866-.358l1.808.684a.736.736,0,0,0,.781-.168l1.281-1.282a.737.737,0,0,0,.168-.781l-.684-1.808a7.247,7.247,0,0,0,.359-.866l1.763-.8a.736.736,0,0,0,.433-.671v-1.813a.735.735,0,0,0-.432-.671Zm-1.039,2.008-1.63.735a.735.735,0,0,0-.4.467,5.87,5.87,0,0,1-.5,1.2.736.736,0,0,0-.044.616l.632,1.672-.609.609-1.672-.632a.735.735,0,0,0-.616.044,5.833,5.833,0,0,1-1.2.5.737.737,0,0,0-.467.4l-.735,1.63h-.862l-.735-1.63a.735.735,0,0,0-.467-.4,5.833,5.833,0,0,1-1.2-.5.736.736,0,0,0-.616-.044l-1.672.632-.609-.609.632-1.672a.735.735,0,0,0-.044-.616,5.854,5.854,0,0,1-.5-1.2.737.737,0,0,0-.4-.467l-1.63-.735v-.862l1.63-.735a.734.734,0,0,0,.4-.467,5.853,5.853,0,0,1,.5-1.2.737.737,0,0,0,.044-.616l-.632-1.672.609-.609,1.672.633a.736.736,0,0,0,.616-.044,5.839,5.839,0,0,1,1.2-.5.735.735,0,0,0,.467-.4l.735-1.63h.862l.735,1.63a.737.737,0,0,0,.467.4,5.843,5.843,0,0,1,1.2.5.735.735,0,0,0,.616.044l1.672-.633.609.609-.632,1.672a.738.738,0,0,0,.044.616,5.835,5.835,0,0,1,.5,1.2.736.736,0,0,0,.4.467l1.63.735Z" fill="#1688c4"/>
  </g>
</svg>
