<svg xmlns="http://www.w3.org/2000/svg" width="142.847" height="56.324" viewBox="0 0 142.847 56.324">
  <g id="Logo_3" data-name="Logo 3" transform="translate(-535.364 -238.17)">
    <g id="Group_4463" data-name="Group 4463">
      <g id="Group_4462" data-name="Group 4462">
        <path id="Path_55358" data-name="Path 55358" d="M596.852,279.777V269.608a3.842,3.842,0,0,0-1.036-2.821,3.8,3.8,0,0,0-2.835-1.05,3.971,3.971,0,0,0-3.375,1.576,6.949,6.949,0,0,0-1.184,4.275,8.489,8.489,0,0,0,.314,2.5,4.915,4.915,0,0,0,.826,1.636,2.97,2.97,0,0,0,2.339,1.17,6.641,6.641,0,0,0,1.125-.091,4.614,4.614,0,0,0,1.125-.36l.691,2.821a4.714,4.714,0,0,1-1.4.57,8.473,8.473,0,0,1-1.9.18,7.073,7.073,0,0,1-2.61-.495,6.262,6.262,0,0,1-2.25-1.531,7.447,7.447,0,0,1-1.576-2.625,11.981,11.981,0,0,1-.03-7.3,8.454,8.454,0,0,1,1.606-2.85,7.286,7.286,0,0,1,2.61-1.906,8.834,8.834,0,0,1,3.6-.69,9.8,9.8,0,0,1,3.389.54,7.009,7.009,0,0,1,2.46,1.486,6.206,6.206,0,0,1,1.5,2.235,7.434,7.434,0,0,1,.511,2.759v10.14Z" fill="#313490"/>
        <path id="Path_55359" data-name="Path 55359" d="M587.611,260.878v-2.94h10.17v-2.85h3.48v5.79Z" fill="#313490"/>
        <path id="Path_55360" data-name="Path 55360" d="M616.712,263.818l2.069,7.41q.12.54.255,1.094t.24,1.215c.071.441.135.926.2,1.455s.12,1.125.179,1.785h.09q.03-2.009.165-3.345t.285-2.2l1.321-8.25h3.809l-2.849,16.8h-4.29l-2.22-7.68q-.36-1.26-.615-2.625t-.406-2.715h-.089q-.152,1.35-.406,2.715t-.615,2.625l-2.22,7.68h-4.29l-2.849-16.8h3.809l1.321,8.25q.148.87.285,2.2t.165,3.345h.09c.059-.66.12-1.254.179-1.785s.125-1.014.2-1.455.144-.844.224-1.215.17-.734.271-1.094l2.069-7.41Z" fill="#313490"/>
        <path id="Path_55361" data-name="Path 55361" d="M633.571,277.018a5.285,5.285,0,0,0,2.415-.45,1.466,1.466,0,0,0,.855-1.38,1.437,1.437,0,0,0-.315-.931,2.762,2.762,0,0,0-.839-.674,8.011,8.011,0,0,0-1.17-.511q-.647-.225-1.276-.435-1.11-.358-2.115-.795a7.05,7.05,0,0,1-1.755-1.065,4.921,4.921,0,0,1-1.2-1.484,4.364,4.364,0,0,1-.449-2.056,3.705,3.705,0,0,1,.465-1.83,4.643,4.643,0,0,1,1.3-1.469,6.292,6.292,0,0,1,1.995-.975,8.833,8.833,0,0,1,2.535-.346,12.211,12.211,0,0,1,3.375.42,14.638,14.638,0,0,1,2.715,1.08l-1.02,2.761a8.947,8.947,0,0,0-2.355-.886,12.1,12.1,0,0,0-2.535-.255,4.742,4.742,0,0,0-1.92.346,1.164,1.164,0,0,0-.78,1.125,1.51,1.51,0,0,0,.99,1.364,21.051,21.051,0,0,0,2.58,1.036,21.162,21.162,0,0,1,2.281.9,7.528,7.528,0,0,1,1.754,1.125,4.363,4.363,0,0,1,1.125,1.53,5.146,5.146,0,0,1,.39,2.086,4.528,4.528,0,0,1-.42,1.965,4.294,4.294,0,0,1-1.26,1.544,6.043,6.043,0,0,1-2.1,1.02,10.833,10.833,0,0,1-2.97.36,14.161,14.161,0,0,1-3.345-.375,10.329,10.329,0,0,1-2.745-1.065l.93-2.969a11.28,11.28,0,0,0,2.341.944A9.275,9.275,0,0,0,633.571,277.018Z" fill="#313490"/>
        <path id="Path_55362" data-name="Path 55362" d="M637.081,257.427c0,.3.141.451.42.451h3.511v3h-5.341a1.621,1.621,0,0,1-1.125-.391,1.377,1.377,0,0,1-.435-1.08v-.75c0-.3-.139-.449-.42-.449h-1.77v-3.091h3.21a2.28,2.28,0,0,1,1.426.406,1.509,1.509,0,0,1,.524,1.274Z" fill="#313490"/>
        <path id="Path_55363" data-name="Path 55363" d="M648.3,273.148q-.54,0-.54.569v.09q0,3.211,3.57,3.211a4.228,4.228,0,0,0,3.36-1.41,6.6,6.6,0,0,0,1.23-4.411,5.667,5.667,0,0,0-1.335-4.049,4.593,4.593,0,0,0-3.495-1.411,8.147,8.147,0,0,0-3.3.645,12.693,12.693,0,0,0-2.61,1.516l-1.26-2.911a14.812,14.812,0,0,1,3.09-1.634,11.625,11.625,0,0,1,4.35-.736,9.9,9.9,0,0,1,3.42.571,7.389,7.389,0,0,1,2.685,1.679,7.542,7.542,0,0,1,1.74,2.73,10.442,10.442,0,0,1,.615,3.721q0,4.439-2.2,6.629a8.115,8.115,0,0,1-5.985,2.19,11.329,11.329,0,0,1-3.36-.449,6.436,6.436,0,0,1-2.385-1.29,5.379,5.379,0,0,1-1.425-2.011,6.728,6.728,0,0,1-.48-2.58v-.51a3.613,3.613,0,0,1,.72-2.459,2.985,2.985,0,0,1,2.34-.811h3.84v3.121Z" fill="#313490"/>
        <path id="Path_55364" data-name="Path 55364" d="M674.311,262.978h3.9v10.77a6.693,6.693,0,0,1-1.53,4.784,6.263,6.263,0,0,1-5.851,1.38,7.51,7.51,0,0,1-1.394-.57,6.4,6.4,0,0,1-1.156-.779,6.084,6.084,0,0,1-.84-.855l-.419,2.069H663.54v-16.8h3.9v11.309a4.839,4.839,0,0,0,.691,1.066,4.908,4.908,0,0,0,.96.869,4.562,4.562,0,0,0,1.154.585,3.831,3.831,0,0,0,1.245.211q2.82,0,2.821-3.45Z" fill="#313490"/>
      </g>
    </g>
    <g id="Group_4465" data-name="Group 4465">
      <g id="Group_4464" data-name="Group 4464">
        <path id="Path_55365" data-name="Path 55365" d="M636.038,289.7a3.921,3.921,0,0,1-4.394,4.407h-2.639v-8.762h2.639a4.472,4.472,0,0,1,3.283,1.1A4.391,4.391,0,0,1,636.038,289.7Zm-1.4,0a4.474,4.474,0,0,0-.2-1.423,2.443,2.443,0,0,0-.585-.969,2.258,2.258,0,0,0-.937-.546,4.358,4.358,0,0,0-1.267-.169h-1.235v6.266h1.235a4.028,4.028,0,0,0,1.267-.182,2.36,2.36,0,0,0,.937-.559,2.425,2.425,0,0,0,.585-.975A4.584,4.584,0,0,0,634.634,289.7Z" fill="#a4a3a8"/>
        <path id="Path_55366" data-name="Path 55366" d="M639.47,294.1h-1.4v-8.762h1.4Z" fill="#a4a3a8"/>
        <path id="Path_55367" data-name="Path 55367" d="M647.92,288.124a2.832,2.832,0,0,1-.215,1.111,2.665,2.665,0,0,1-.61.9,2.86,2.86,0,0,1-.962.605,3.467,3.467,0,0,1-1.268.221h-1.534V294.1h-1.4v-8.762h3.016a3.442,3.442,0,0,1,1.254.215,2.734,2.734,0,0,1,.937.591,2.566,2.566,0,0,1,.585.884A2.935,2.935,0,0,1,647.92,288.124Zm-1.4,0a1.538,1.538,0,0,0-.4-1.118,1.557,1.557,0,0,0-1.17-.416h-1.612v3.12h1.534a1.674,1.674,0,0,0,1.215-.422A1.545,1.545,0,0,0,646.516,288.124Z" fill="#a4a3a8"/>
        <path id="Path_55368" data-name="Path 55368" d="M656.1,288.02a2.506,2.506,0,0,1-.52,1.58,2.754,2.754,0,0,1-1.391.942l2.067,3.562h-1.508l-1.95-3.354h-1.522V294.1h-1.4v-8.762h3.211a3.7,3.7,0,0,1,1.28.208,2.746,2.746,0,0,1,.95.572,2.49,2.49,0,0,1,.585.852A2.733,2.733,0,0,1,656.1,288.02Zm-1.4,0a1.379,1.379,0,0,0-.4-1.04,1.677,1.677,0,0,0-1.209-.39h-1.808V289.5h1.769a1.719,1.719,0,0,0,1.215-.4A1.4,1.4,0,0,0,654.692,288.02Z" fill="#a4a3a8"/>
        <path id="Path_55369" data-name="Path 55369" d="M661.557,285.2a4.214,4.214,0,0,1,1.767.345,3.472,3.472,0,0,1,1.255.949,3.958,3.958,0,0,1,.741,1.436,6.8,6.8,0,0,1,0,3.588,3.963,3.963,0,0,1-.741,1.437,3.47,3.47,0,0,1-1.255.948,4.7,4.7,0,0,1-3.536,0,3.467,3.467,0,0,1-1.254-.948,3.932,3.932,0,0,1-.741-1.437,6.824,6.824,0,0,1,0-3.588,3.927,3.927,0,0,1,.741-1.436,3.469,3.469,0,0,1,1.254-.949A4.22,4.22,0,0,1,661.557,285.2Zm0,7.917a2.261,2.261,0,0,0,1.95-.89,5.149,5.149,0,0,0,0-5.005,2.58,2.58,0,0,0-3.9,0,5.142,5.142,0,0,0,0,5.005A2.26,2.26,0,0,0,661.557,293.116Z" fill="#a4a3a8"/>
        <path id="Path_55370" data-name="Path 55370" d="M671.073,292.726l-1.625-3.705a9.213,9.213,0,0,1-.378-.995q-.155-.5-.3-1.046h-.039q.04.3.079.624t.058.637q.02.312.032.585c.009.182.014.338.014.468v4.81h-1.378v-8.762h1.625l1.911,4.355a11.068,11.068,0,0,1,.429,1.086,8.7,8.7,0,0,1,.247.89h.025q.092-.377.254-.89a9.828,9.828,0,0,1,.423-1.086l1.924-4.355H676V294.1h-1.378v-4.81c0-.13,0-.286.013-.468s.019-.377.032-.585.03-.42.053-.637.045-.424.071-.624h-.026q-.144.546-.3,1.046a9.192,9.192,0,0,1-.377.995l-1.625,3.705Z" fill="#a4a3a8"/>
      </g>
    </g>
    <path id="Path_55371" data-name="Path 55371" d="M576.8,250.017l-10.945-10.944a3.1,3.1,0,0,0-4.373,0l-10.944,10.944a2,2,0,0,0,0,2.835l2.641,2.641a2,2,0,0,0,2.835,0l4.808-4.807v28.231h-.034a9.289,9.289,0,0,1-13.317,7.664,8.241,8.241,0,0,1-4.213-4.233,9.292,9.292,0,0,1,8.34-13.315h4.379v-7.015h-5.171a14.988,14.988,0,0,0-13.534,8.263c-5.928,12.194,2.795,24.213,14.326,24.213a16.23,16.23,0,0,0,16.088-14.141h.013v-.085a15.545,15.545,0,0,0,0-4.119v-24.28l3.624,3.624a2,2,0,0,0,2.835,0l2.642-2.641A2.006,2.006,0,0,0,576.8,250.017Z" fill="#a6c0e1"/>
  </g>
</svg>
