<svg xmlns="http://www.w3.org/2000/svg">
<defs>
<font id="DBHeavent-BlackCond" horiz-adv-x="0" >
  <font-face 
    font-family="DB Heavent Black Cond"
    font-weight="900"
    font-stretch="condensed"
    units-per-em="4096"
    panose-1="2 0 5 6 9 0 0 2 0 4"
    ascent="3276"
    descent="-820"
    x-height="1548"
    cap-height="2043"
    bbox="-1872 -1450 3633 3334"
    underline-thickness="82"
    underline-position="-627"
    unicode-range="U+000D-F880"
  />
<missing-glyph horiz-adv-x="1212" 
d="M1237 1171v-41h16q25 0 25 29l-4 6t-21 6h-16zM1245 1126h-8v-41h-12v103h28q37 0 37 -29q0 -24 -8 -28.5t-25 -4.5l33 -41h-12zM1253 1073q37 0 51.5 20.5t14.5 36.5q0 33 -16.5 51.5t-49.5 18.5q-28 0 -46.5 -18.5t-18.5 -51.5q0 -20 14.5 -38.5t50.5 -18.5zM1253 1208
q37 0 55.5 -22.5t18.5 -55.5q0 -20 -18.5 -42.5t-55.5 -22.5q-36 0 -56.5 22.5t-20.5 42.5q0 33 20.5 55.5t56.5 22.5zM590 926q45 -4 108.5 -12.5t125 -20.5t116.5 -26.5t80 -35.5q-57 115 -182 178.5t-252 63.5q-99 0 -191 -39t-149 -116q53 4 106.5 6t106.5 2h67.5h63.5z
M1102 1159v-418q-144 45 -326 74t-379 29q-143 0 -278 -13q16 66 55 125.5t98.5 104.5t137 71.5t172.5 26.5q90 0 163.5 -20.5t127 -49t92.5 -65.5t55 -61q0 -5 0 18v55.5v65.5v57h82zM451 373q0 24 -16.5 34.5t-33.5 10.5q-24 0 -38.5 -10.5t-14.5 -34.5q0 -25 14.5 -35
t38.5 -10q17 0 33.5 10t16.5 35zM94 410q0 61 26.5 116.5t72 90t98.5 53t115 18.5q57 0 112 -16.5t96 -49t66 -81.5t25 -123v-340h315v594h82v-668h-557v74h86v348q0 94 -65.5 137t-155.5 43q-91 0 -162.5 -49t-71.5 -139v-312l172 173q-12 4 -36.5 26.5t-24.5 67.5
q0 53 30.5 83.5t88.5 30.5q49 0 81.5 -34.5t32.5 -79.5q0 -41 -18.5 -63.5t-30.5 -30.5q-4 -13 -49 -52t-94 -92q-66 -57 -140 -131h-94v406z" />
    <glyph glyph-name="plusminus" unicode="&#x2b;&#x2d;" horiz-adv-x="1548" 
d="M606 1561h336v-418h483v-324h-483v-426h-336v426h-483v324h483v418zM123 303h1302v-303h-1302v303z" />
    <glyph glyph-name="ellipsis" unicode="&#x2e;&#x2e;&#x2e;" horiz-adv-x="2933" 
d="M291 0v406h397v-406h-397zM1266 0v406h401v-406h-401zM2638 0h-393v406h393v-406z" />
    <glyph glyph-name="lessequal" unicode="&#x3c;&#x3d;" horiz-adv-x="1642" 
d="M1479 303v-303h-1315v303h1315zM1479 684v-328l-1315 648v274l1315 643v-324l-938 -454z" />
    <glyph glyph-name="greaterequal" unicode="&#x3e;&#x3d;" horiz-adv-x="1642" 
d="M1479 303v-303h-1315v303h1315zM1102 1143l-938 454v324l1315 -643v-274l-1315 -648v328z" />
    <glyph glyph-name="fongmanfunnuthai" unicode="&#xe4f;&#x22;" horiz-adv-x="2089" 
d="M1110 2515h283l-29 -463h-225zM647 2515h283l-29 -463h-225zM389 909q0 -90 23.5 -173.5t66.5 -156.5t102.5 -132.5t132.5 -102.5t156.5 -66.5t173.5 -23.5t174 23.5t156.5 66.5t132.5 102.5t103 132.5t66.5 156.5t23.5 173.5t-23.5 174t-66.5 156.5t-103 132.5
t-132.5 103t-156.5 66.5t-174 23.5t-173.5 -23.5t-156.5 -66.5t-132.5 -103t-102.5 -132.5t-66.5 -156.5t-23.5 -174zM582 909q0 95 36.5 179.5t99.5 147.5t147 99.5t179 36.5t179.5 -36.5t147.5 -99.5t99.5 -147.5t36.5 -179.5t-36.5 -179.5t-99.5 -147.5t-147.5 -99.5
t-179.5 -36.5t-179 36.5t-147 99.5t-99.5 147.5t-36.5 179.5zM123 905q0 128 32.5 246t92.5 220.5t143.5 186.5t186 144t220.5 92.5t246 32.5t246 -32.5t220.5 -92.5t186.5 -144t144 -186.5t92.5 -220.5t32.5 -246t-32.5 -246t-92.5 -220.5t-144 -186t-186.5 -143.5
t-220.5 -92.5t-246 -32.5t-246 32.5t-220.5 92.5t-186 143.5t-143.5 186t-92.5 220.5t-32.5 246zM803 909q0 -51 18.5 -95t51 -76.5t76.5 -51t95 -18.5t95 18.5t77 51t51.5 76.5t18.5 95t-18.5 95t-51.5 76.5t-77 51.5t-95 19t-95 -19t-76.5 -51.5t-51 -76.5t-18.5 -95z" />
    <glyph glyph-name="dochadaphinthuthai" unicode="&#xe0e;&#xe3a;" horiz-adv-x="1667" 
d="M864 -127q56 0 109 -10.5t96 -26.5v1405q0 42 -11.5 78t-38.5 62.5t-71 41.5t-108 15q-49 0 -87.5 -8t-69.5 -22.5t-56.5 -34t-48.5 -42.5q30 -31 47.5 -73.5t17.5 -98.5v-1159h-577v336h131v848q0 46 -30.5 83.5t-92.5 59.5q58 118 141.5 204.5t184 143t212.5 84
t228 27.5q85 0 168 -14t158 -42t139.5 -71.5t111 -102t73 -133.5t26.5 -166v-1830h-357q-17 27 -41.5 54t-60 48.5t-83 35t-110.5 13.5t-119.5 -16t-107.5 -45t-97 -68.5t-89 -87.5v336q29 28 73 59t98 57t115.5 43t126.5 17zM1039 -949q0 51 19.5 96.5t53.5 79.5t79.5 53.5
t96.5 19.5t96.5 -19.5t79.5 -53.5t53.5 -79.5t19.5 -96.5t-19.5 -96.5t-53.5 -79.5t-79.5 -53.5t-96.5 -19.5t-96.5 19.5t-79.5 53.5t-53.5 79.5t-19.5 96.5z" />
    <glyph glyph-name="topatakphintuthai" unicode="&#xe0f;&#xe3a;" horiz-adv-x="1667" 
d="M1069 1241q0 42 -11.5 78t-38.5 62.5t-71 41.5t-108 15q-49 0 -87.5 -8t-69.5 -22.5t-56.5 -34t-48.5 -42.5q30 -31 47.5 -73.5t17.5 -98.5v-1159h-577v336h131v848q0 46 -30.5 83.5t-92.5 59.5q58 118 141.5 204.5t184 143t212.5 84t228 27.5q85 0 168 -14t158 -42
t139.5 -71.5t111 -102t73 -133.5t26.5 -166v-1830h-410q-3 29 -12 57.5t-23.5 51t-34.5 36.5t-45 14q-23 0 -41.5 -13.5t-32 -35.5t-21 -51t-7.5 -59h-266q0 32 -5 62t-16.5 53.5t-29.5 37.5t-44 14q-23 0 -40.5 -16.5t-29.5 -41t-18 -54t-6 -55.5h-315q0 117 31.5 202.5
t84 141.5t121.5 83t144 27q74 0 140 -31.5t110 -87.5q46 56 93.5 81.5t106.5 25.5q37 0 65.5 -8.5t53.5 -24.5v1405zM1039 -949q0 -51 19.5 -96.5t53.5 -79.5t79.5 -53.5t96.5 -19.5t96.5 19.5t79.5 53.5t53.5 79.5t19.5 96.5t-19.5 96.5t-53.5 79.5t-79.5 53.5t-96.5 19.5
t-96.5 -19.5t-79.5 -53.5t-53.5 -79.5t-19.5 -96.5z" />
    <glyph glyph-name="dochadasarauthai" unicode="&#xe0e;&#xe38;" horiz-adv-x="1667" 
d="M864 -127q56 0 109 -10.5t96 -26.5v1405q0 42 -11.5 78t-38.5 62.5t-71 41.5t-108 15q-49 0 -87.5 -8t-69.5 -22.5t-56.5 -34t-48.5 -42.5q30 -31 47.5 -73.5t17.5 -98.5v-1159h-577v336h131v848q0 46 -30.5 83.5t-92.5 59.5q58 118 141.5 204.5t184 143t212.5 84
t228 27.5q85 0 168 -14t158 -42t139.5 -71.5t111 -102t73 -133.5t26.5 -166v-1830h-357q-17 27 -41.5 54t-60 48.5t-83 35t-110.5 13.5t-119.5 -16t-107.5 -45t-97 -68.5t-89 -87.5v336q29 28 73 59t98 57t115.5 43t126.5 17zM1155 -1384v344h-180v307h541v-651h-361z" />
    <glyph glyph-name="topataksarauthai" unicode="&#xe0f;&#xe38;" horiz-adv-x="1667" 
d="M1069 1241q0 42 -11.5 78t-38.5 62.5t-71 41.5t-108 15q-49 0 -87.5 -8t-69.5 -22.5t-56.5 -34t-48.5 -42.5q30 -31 47.5 -73.5t17.5 -98.5v-1159h-577v336h131v848q0 46 -30.5 83.5t-92.5 59.5q58 118 141.5 204.5t184 143t212.5 84t228 27.5q85 0 168 -14t158 -42
t139.5 -71.5t111 -102t73 -133.5t26.5 -166v-1830h-410q-3 29 -12 57.5t-23.5 51t-34.5 36.5t-45 14q-23 0 -41.5 -13.5t-32 -35.5t-21 -51t-7.5 -59h-266q0 32 -5 62t-16.5 53.5t-29.5 37.5t-44 14q-23 0 -40.5 -16.5t-29.5 -41t-18 -54t-6 -55.5h-315q0 117 31.5 202.5
t84 141.5t121.5 83t144 27q74 0 140 -31.5t110 -87.5q46 56 93.5 81.5t106.5 25.5q37 0 65.5 -8.5t53.5 -24.5v1405zM1516 -1384v651h-541v-307h180v-344h361z" />
    <glyph glyph-name="dochadasarauuthai" unicode="&#xe0e;&#xe39;" horiz-adv-x="1667" 
d="M475 -733h483v-320q0 -127 103 -127q102 0 102 127v320h353v-320q-2 -80 -30.5 -152t-85 -126.5t-141 -86.5t-198.5 -32t-198.5 32t-141 86.5t-85.5 126.5t-30 152v54h-131v266zM864 -127q56 0 109 -10.5t96 -26.5v1405q0 42 -11.5 78t-38.5 62.5t-71 41.5t-108 15
q-49 0 -87.5 -8t-69.5 -22.5t-56.5 -34t-48.5 -42.5q30 -31 47.5 -73.5t17.5 -98.5v-1159h-577v336h131v848q0 46 -30.5 83.5t-92.5 59.5q58 118 141.5 204.5t184 143t212.5 84t228 27.5q85 0 168 -14t158 -42t139.5 -71.5t111 -102t73 -133.5t26.5 -166v-1830h-357
q-17 27 -41.5 54t-60 48.5t-83 35t-110.5 13.5t-119.5 -16t-107.5 -45t-97 -68.5t-89 -87.5v336q29 28 73 59t98 57t115.5 43t126.5 17z" />
    <glyph glyph-name="topataksarauuthai" unicode="&#xe0f;&#xe39;" horiz-adv-x="1667" 
d="M475 -999h131v-54q1 -80 30 -152t85.5 -126.5t141 -86.5t198.5 -32t198.5 32t141 86.5t85 126.5t30.5 152v320h-353v-320q0 -127 -102 -127q-103 0 -103 127v320h-483v-266zM1069 1241q0 42 -11.5 78t-38.5 62.5t-71 41.5t-108 15q-49 0 -87.5 -8t-69.5 -22.5t-56.5 -34
t-48.5 -42.5q30 -31 47.5 -73.5t17.5 -98.5v-1159h-577v336h131v848q0 46 -30.5 83.5t-92.5 59.5q58 118 141.5 204.5t184 143t212.5 84t228 27.5q85 0 168 -14t158 -42t139.5 -71.5t111 -102t73 -133.5t26.5 -166v-1830h-410q-3 29 -12 57.5t-23.5 51t-34.5 36.5t-45 14
q-23 0 -41.5 -13.5t-32 -35.5t-21 -51t-7.5 -59h-266q0 32 -5 62t-16.5 53.5t-29.5 37.5t-44 14q-23 0 -40.5 -16.5t-29.5 -41t-18 -54t-6 -55.5h-315q0 117 31.5 202.5t84 141.5t121.5 83t144 27q74 0 140 -31.5t110 -87.5q46 56 93.5 81.5t106.5 25.5q37 0 65.5 -8.5
t53.5 -24.5v1405z" />
    <glyph glyph-name=".notdef" horiz-adv-x="1212" 
d="M1237 1171v-41h16q25 0 25 29l-4 6t-21 6h-16zM1245 1126h-8v-41h-12v103h28q37 0 37 -29q0 -24 -8 -28.5t-25 -4.5l33 -41h-12zM1253 1073q37 0 51.5 20.5t14.5 36.5q0 33 -16.5 51.5t-49.5 18.5q-28 0 -46.5 -18.5t-18.5 -51.5q0 -20 14.5 -38.5t50.5 -18.5zM1253 1208
q37 0 55.5 -22.5t18.5 -55.5q0 -20 -18.5 -42.5t-55.5 -22.5q-36 0 -56.5 22.5t-20.5 42.5q0 33 20.5 55.5t56.5 22.5zM590 926q45 -4 108.5 -12.5t125 -20.5t116.5 -26.5t80 -35.5q-57 115 -182 178.5t-252 63.5q-99 0 -191 -39t-149 -116q53 4 106.5 6t106.5 2h67.5h63.5z
M1102 1159v-418q-144 45 -326 74t-379 29q-143 0 -278 -13q16 66 55 125.5t98.5 104.5t137 71.5t172.5 26.5q90 0 163.5 -20.5t127 -49t92.5 -65.5t55 -61q0 -5 0 18v55.5v65.5v57h82zM451 373q0 24 -16.5 34.5t-33.5 10.5q-24 0 -38.5 -10.5t-14.5 -34.5q0 -25 14.5 -35
t38.5 -10q17 0 33.5 10t16.5 35zM94 410q0 61 26.5 116.5t72 90t98.5 53t115 18.5q57 0 112 -16.5t96 -49t66 -81.5t25 -123v-340h315v594h82v-668h-557v74h86v348q0 94 -65.5 137t-155.5 43q-91 0 -162.5 -49t-71.5 -139v-312l172 173q-12 4 -36.5 26.5t-24.5 67.5
q0 53 30.5 83.5t88.5 30.5q49 0 81.5 -34.5t32.5 -79.5q0 -41 -18.5 -63.5t-30.5 -30.5q-4 -13 -49 -52t-94 -92q-66 -57 -140 -131h-94v406z" />
    <glyph glyph-name=".null" 
 />
    <glyph glyph-name=".null" 
 />
    <glyph glyph-name="nonmarkingreturn" unicode="&#xd;" horiz-adv-x="831" 
 />
    <glyph glyph-name="space" unicode=" " horiz-adv-x="733" 
 />
    <glyph glyph-name="exclam" unicode="!" horiz-adv-x="979" 
d="M250 1386v657h479v-657l-74 -857h-336zM270 0v377h439v-377h-439z" />
    <glyph glyph-name="quotedbl" unicode="&#x22;" horiz-adv-x="901" 
d="M106 2043h271v-657h-271v657zM524 2043h271v-657h-271v657z" />
    <glyph glyph-name="numbersign" unicode="#" horiz-adv-x="1806" 
d="M365 657h-295l77 249h299l70 224h-299l82 248h307l217 657h299l-217 -657h221l213 657h308l-217 -657h307l-78 -248h-316l-69 -224h307l-74 -249h-315l-213 -657h-307l213 657h-221l-218 -657h-299zM968 906l72 224h-214l-75 -224h217z" />
    <glyph glyph-name="dollar" unicode="$" horiz-adv-x="1565" 
d="M1110 553q0 64 -15.5 108t-43 75t-66 51t-84.5 37v-528q46 10 84.5 32t66 54.5t43 75t15.5 95.5zM479 1462q0 -78 50.5 -131t134.5 -86v480q-53 -12 -88 -38t-57 -62t-31 -78t-9 -85zM901 2042q124 -17 227 -65.5t175 -130t108 -196t27 -261.5h-389q4 55 -1 105
t-22.5 91.5t-48 72t-76.5 48.5v-540q163 -62 277.5 -125t186.5 -132t105 -145.5t33 -166.5q0 -139 -43.5 -249.5t-122.5 -190.5t-190 -128t-246 -61v-290h-237v290q-151 13 -266 63t-191.5 140t-112.5 222.5t-28 311.5h401q-3 -87 4 -156.5t28.5 -120.5t61.5 -84t103 -48
v614q-67 22 -136 48t-132.5 60t-119.5 77t-97 98t-65 123.5t-24 153.5q0 121 44.5 221.5t122.5 174.5t182.5 120t224.5 60v318h237v-322z" />
    <glyph glyph-name="percent" unicode="%" horiz-adv-x="2359" 
d="M891 0h-323l919 2043h311zM594 2049q86 0 151 -22t113 -60t80 -90t51 -113t27 -127t8 -133q0 -147 -30.5 -251t-88.5 -170t-140.5 -96.5t-186.5 -30.5q-101 0 -182 31t-137 98.5t-86 174t-30 257.5q0 104 21 200.5t72.5 170t138.5 117.5t219 44zM586 1251q35 0 55.5 22
t31 55t13 71.5t2.5 72.5q0 35 -1.5 83t-12 91.5t-33 73.5t-63.5 30q-37 0 -57 -30t-29.5 -73.5t-11 -91.5t-1.5 -83q0 -34 3 -72.5t13.5 -71.5t32 -55t58.5 -22zM1786 1061q86 0 151 -22t113 -60.5t80 -90.5t51 -112.5t27 -127t8 -132.5q0 -147 -30.5 -251.5t-88.5 -170.5
t-140.5 -96.5t-186.5 -30.5q-101 0 -182 31t-137 98.5t-86 174t-30 257.5q0 105 21 201t72.5 170t138.5 118t219 44zM1778 262q35 0 55.5 22t31 55t13 72t2.5 72q0 35 -1.5 83t-12 91.5t-33 74t-63.5 30.5q-25 0 -42 -14t-28 -37.5t-17 -53t-8.5 -60.5t-3 -61t-0.5 -53
q0 -33 3 -72t13.5 -72t32 -55t58.5 -22z" />
    <glyph glyph-name="ampersand" unicode="&#x26;" horiz-adv-x="1954" 
d="M766 925q-48 -33 -86 -66t-64.5 -70.5t-40.5 -82.5t-14 -102q0 -66 25.5 -119t70.5 -90.5t106.5 -57.5t133.5 -20q34 0 68 9t66.5 24.5t63 35.5t56.5 42zM1352 785q19 59 28 131t9 137h372q0 -174 -39 -325t-104 -275l377 -453h-488l-127 149q-102 -91 -232.5 -136
t-279.5 -45q-161 0 -292.5 45t-224.5 128t-144 202t-51 266q0 113 30 199t83.5 155t128 124.5t163.5 106.5q-37 45 -66.5 89t-50.5 92t-32 102.5t-11 120.5q0 94 34 180t100 151t162.5 103.5t221.5 38.5q106 0 196.5 -32t156.5 -91.5t103.5 -143.5t37.5 -189
q0 -80 -29 -150.5t-76 -132t-107.5 -114.5t-123.5 -96zM778 1623q0 -30 8.5 -61t22.5 -60.5t31.5 -58t36.5 -53.5q30 22 56.5 46.5t45.5 52t30 59t11 67.5q0 25 -7.5 49.5t-23 43.5t-38.5 31t-54 12q-28 0 -50 -11t-37.5 -29t-23.5 -41t-8 -47z" />
    <glyph glyph-name="quotesingle" unicode="'" horiz-adv-x="733" 
d="M229 2043h271v-657h-271v657z" />
    <glyph glyph-name="parenleft" unicode="(" horiz-adv-x="979" 
d="M983 2159q-55 -109 -106.5 -212t-96.5 -207.5t-82.5 -213t-64 -228.5t-41 -254.5t-14.5 -289.5q0 -185 24 -357.5t76 -344.5t134.5 -349.5t199.5 -370.5h-414q-106 163 -195.5 330t-154 340.5t-101 353.5t-36.5 369q0 141 14 268t41.5 245t68.5 230t95 224.5t121 227.5
t147 239h385z" />
    <glyph glyph-name="parenright" unicode=")" horiz-adv-x="979" 
d="M381 2159q80 -124 147 -239t121 -227.5t95 -224.5t68.5 -230t41.5 -245t14 -268q0 -189 -36.5 -369t-101 -353.5t-154 -340.5t-195.5 -330h-414q117 193 199.5 370.5t134.5 349.5t76 344.5t24 357.5q0 155 -14.5 289.5t-41 254.5t-64 228.5t-82.5 213t-96.5 207.5
t-106.5 212h385z" />
    <glyph glyph-name="asterisk" unicode="*" horiz-adv-x="1462" 
d="M590 1747v316h299v-316l303 119l90 -278l-299 -103l201 -242l-242 -176l-213 258l-192 -241l-263 159l205 238q-71 31 -149 61t-146 58l107 266z" />
    <glyph glyph-name="plus" unicode="+" horiz-adv-x="1671" 
d="M668 1372h336v-504h503v-323h-503v-516h-336v516h-504v323h504v504z" />
    <glyph glyph-name="comma" unicode="," horiz-adv-x="774" 
d="M193 0v406h393v-369q0 -94 -24 -180.5t-73 -157t-123 -120t-173 -70.5v278q41 4 67.5 27t42 54.5t21.5 67t8 64.5h-139z" />
    <glyph glyph-name="hyphen" unicode="-" horiz-adv-x="1212" 
d="M164 868h885v-323h-885v323z" />
    <glyph glyph-name="period" unicode="." horiz-adv-x="778" 
d="M193 0v406h393v-406h-393z" />
    <glyph glyph-name="slash" unicode="/" horiz-adv-x="1012" 
d="M-57 -119l741 2253h385l-750 -2253h-376z" />
    <glyph glyph-name="zero" unicode="0" horiz-adv-x="1475" 
d="M737 347q53 0 90 29t61 79.5t37.5 118t19.5 145t7.5 161t1.5 164.5q0 74 -2.5 151.5t-10 149.5t-22 136t-38.5 112t-59.5 75.5t-84.5 27.5q-53 0 -90 -31.5t-62 -83.5t-38.5 -120t-20.5 -140t-8.5 -144t-1.5 -133q0 -81 1.5 -164.5t8.5 -161t20.5 -145t38.5 -118
t62 -79.5t90 -29zM737 2073q119 0 211 -29.5t161 -81.5t117.5 -122.5t81 -152t51 -170t28 -177t12 -172.5t2.5 -157q0 -87 -4 -178t-16 -180.5t-33.5 -175.5t-56 -162t-83.5 -140t-116.5 -110.5t-155.5 -72.5t-199 -26q-148 0 -255.5 45.5t-181.5 123t-119 180.5t-70 219
t-33 238.5t-8 238.5q0 73 2.5 157t12.5 172.5t29 177t51.5 170t81.5 152t118 122.5t161 81.5t211 29.5z" />
    <glyph glyph-name="one" unicode="1" horiz-adv-x="1475" 
d="M573 1445q-99 -47 -206.5 -63t-231.5 -16v334q111 1 195 16.5t144.5 53.5t98 104t54.5 169h405v-2043h-459v1445z" />
    <glyph glyph-name="two" unicode="2" horiz-adv-x="1475" 
d="M680 489q-17 -14 -30.5 -27t-24 -27.5t-17.5 -30.5t-10 -37h766v-367h-1278q0 107 8 204t35.5 187t79.5 174.5t139 165.5l402 347q43 42 75.5 84.5t55 90t34 102t11.5 120.5q0 110 -42.5 163.5t-138.5 53.5q-60 0 -97 -30.5t-57.5 -82t-26.5 -120t-3 -143.5h-459v151
q0 126 43 237.5t125 194t202 130.5t273 48q149 0 267.5 -44.5t201 -124.5t126.5 -192.5t44 -248.5q0 -113 -24 -206t-69 -173t-109.5 -152t-145.5 -142z" />
    <glyph glyph-name="three" unicode="3" horiz-adv-x="1475" 
d="M557 1224q75 3 135 12.5t102 37t64.5 80t22.5 141.5q0 101 -41 153t-127 52q-54 0 -88.5 -21t-54 -60t-26.5 -93.5t-7 -121.5h-439q-8 148 29 272t116 213t198 138.5t276 49.5q143 0 258 -39.5t196 -111.5t124.5 -174t43.5 -227q0 -64 -9.5 -124.5t-29.5 -114.5
t-50.5 -100.5t-73.5 -82.5q57 -36 98 -84.5t67.5 -106.5t39 -124t12.5 -136q0 -150 -42.5 -275.5t-128 -216t-213.5 -140.5t-300 -50q-174 0 -298.5 50.5t-204 144t-116 225.5t-33.5 295h455q-5 -74 3 -135t33 -105.5t68 -69t109 -24.5q102 0 157.5 60t55.5 169
q0 97 -16 163.5t-58 107t-116 57t-191 15.5v301z" />
    <glyph glyph-name="four" unicode="4" horiz-adv-x="1475" 
d="M807 2043h430v-1228h188v-347h-188v-468h-451v468h-737v339zM786 811v383l13 176l-62 -121l-274 -438h323z" />
    <glyph glyph-name="five" unicode="5" horiz-adv-x="1475" 
d="M532 618q-2 -75 9 -127.5t34.5 -85t60 -47.5t85.5 -15q63 0 105 28.5t66.5 77.5t35 114t10.5 139q0 67 -8 131.5t-33 115t-70 81.5t-118 31q-26 0 -55 -4.5t-57.5 -20.5t-56.5 -45.5t-53 -79.5h-389l131 1132h1069v-368h-667l-21 -216q-3 -16 -7 -32t-8 -30
q-4 -16 -9 -31q43 29 88.5 42t107.5 13q105 0 191.5 -26.5t154.5 -73.5t118 -111.5t82.5 -140.5t48.5 -161t16 -173q0 -92 -17.5 -184.5t-53 -177.5t-90.5 -158.5t-129.5 -128t-169.5 -85.5t-212 -31q-151 0 -273 42t-207 124t-128 203t-35 279h454z" />
    <glyph glyph-name="six" unicode="6" horiz-adv-x="1475" 
d="M954 694q0 64 -10 121.5t-35 101t-66 69t-102 25.5q-58 0 -97 -27t-63 -70t-34 -96.5t-10 -107.5q-5 -110 9 -181.5t43.5 -113.5t71.5 -59t93 -17q63 0 102 33.5t61 85.5t29.5 115t7.5 121zM926 1504q-5 58 -21 96.5t-40 61.5t-55 32.5t-65 9.5q-42 0 -74.5 -21
t-57 -56.5t-42 -83t-28.5 -100.5t-16.5 -109.5t-6.5 -109.5q65 72 135.5 101t151.5 29q152 0 263.5 -53t185 -142.5t109.5 -206.5t36 -246q0 -105 -21.5 -200.5t-61.5 -177.5t-97 -148t-128 -112.5t-154.5 -72t-176.5 -25.5q-151 0 -261.5 42t-187.5 113.5t-124.5 167
t-74 202.5t-35.5 219t-9 217q0 124 6 257t29 259.5t67.5 239.5t122 198t192.5 134.5t279 49.5q118 0 221 -35.5t182 -106t130 -176.5t65 -247h-438z" />
    <glyph glyph-name="seven" unicode="7" horiz-adv-x="1389" 
d="M66 2043h1261v-321q-141 -185 -249.5 -386t-186 -417t-125.5 -446t-70 -473h-487q31 233 86 461t134.5 444t183 416t231.5 379h-778v343z" />
    <glyph glyph-name="eight" unicode="8" horiz-adv-x="1475" 
d="M537 630q0 -64 11 -119.5t35 -97t62 -65t92 -23.5q89 0 143 74.5t54 230.5q0 58 -10.5 111t-34 93.5t-61 64.5t-91.5 24q-51 0 -88.5 -24.5t-62 -65.5t-37 -93.5t-12.5 -109.5zM598 1504q0 -55 6 -101.5t22 -80.5t44.5 -53.5t74.5 -19.5q45 0 71.5 21t41 55.5t19 80
t4.5 93.5q0 46 -8.5 85.5t-25.5 69t-42.5 46.5t-59.5 17q-77 0 -112 -56t-35 -157zM78 622q0 93 20 166.5t54.5 131t79.5 100.5t96 74q-101 66 -145 171t-44 244q0 106 32.5 207.5t104.5 180.5t187.5 127.5t281.5 48.5q134 0 243.5 -38t187.5 -111t120.5 -180t42.5 -245
q0 -56 -13 -111t-37 -105t-57 -95t-73 -81q61 -36 106 -85.5t74.5 -108t43.5 -125t14 -136.5q0 -140 -39.5 -265t-120.5 -219.5t-204.5 -150t-291.5 -55.5q-156 0 -279.5 44.5t-208.5 129t-130 207.5t-45 279z" />
    <glyph glyph-name="nine" unicode="9" horiz-adv-x="1475" 
d="M520 1345q0 -64 10 -121.5t35 -101t65.5 -69t102.5 -25.5q58 0 97.5 27t63.5 70t34 96.5t10 107.5q4 109 -10 181t-43.5 114t-71 59t-92.5 17q-63 0 -102.5 -34t-61 -86t-29.5 -114.5t-8 -120.5zM549 534q4 -58 20.5 -96t40.5 -61t54.5 -32.5t64.5 -9.5q63 0 105.5 45
t68.5 115t37.5 155t13.5 165q-65 -72 -135.5 -101t-150.5 -29q-152 0 -264 53t-185.5 142.5t-109 206.5t-35.5 246q0 105 21.5 200.5t61.5 177.5t97 148t128 112.5t154.5 72t176.5 25.5q151 0 261.5 -42t187.5 -113.5t124.5 -167t74 -202.5t35.5 -219.5t9 -217.5
q0 -124 -6 -256.5t-29 -259t-67.5 -239.5t-122 -198t-192.5 -134.5t-279 -49.5q-119 0 -222 35.5t-182 106t-130 176t-64 246.5h438z" />
    <glyph glyph-name="colon" unicode=":" horiz-adv-x="778" 
d="M193 0v406h393v-406h-393zM193 1143v405h393v-405h-393z" />
    <glyph glyph-name="semicolon" unicode=";" horiz-adv-x="786" 
d="M193 1143v405h393v-405h-393zM201 0v406h393v-369q0 -94 -24 -180.5t-73 -157t-123 -120t-173 -70.5v278q41 4 67.5 27t42 54.5t21.5 67t8 64.5h-139z" />
    <glyph glyph-name="less" unicode="&#x3c;" horiz-adv-x="1647" 
d="M1479 299v-332l-1315 692v275l1315 692v-328l-942 -503z" />
    <glyph glyph-name="equal" unicode="=" horiz-adv-x="1544" 
d="M1384 811h-1220v324h1220v-324zM1384 283h-1220v323h1220v-323z" />
    <glyph glyph-name="greater" unicode="&#x3e;" horiz-adv-x="1647" 
d="M1110 795l-942 503v328l1315 -692v-275l-1315 -692v332z" />
    <glyph glyph-name="question" unicode="?" horiz-adv-x="1544" 
d="M541 497q0 87 3.5 149.5t13 110t26.5 84.5t44 74t66 78t92 96q45 42 88 89.5t77.5 100t55.5 109t21 118.5q0 46 -10.5 88.5t-36.5 74.5t-70.5 51t-111.5 19q-77 0 -126 -29t-77 -78.5t-38.5 -116t-8.5 -141.5h-418q-8 138 34 262.5t129.5 218.5t219.5 149t306 55
q146 0 265 -38.5t204 -109.5t131 -172t46 -225q0 -102 -24.5 -180t-65.5 -144t-96.5 -126.5t-116.5 -126.5q-38 -40 -67.5 -70t-52 -57t-38.5 -55t-25 -63.5t-12 -82.5t-1 -112h-426zM541 0v357h430v-357h-430z" />
    <glyph glyph-name="at" unicode="@" horiz-adv-x="2388" 
d="M1524 660q59 0 109.5 22t91.5 59.5t72 87t52 105t32 114t11 112.5q0 147 -53 261t-145.5 191.5t-216.5 117.5t-265 40q-104 0 -199 -29t-176.5 -81t-147.5 -124t-112.5 -158.5t-72 -184.5t-25.5 -201t24.5 -199t70.5 -178.5t111.5 -150.5t147 -116.5t177 -75t202.5 -26.5
q85 0 182 13.5t191 45.5t175.5 85t135.5 131h353q-80 -141 -199.5 -246.5t-259 -175.5t-289 -104.5t-289.5 -34.5q-145 0 -279 32.5t-250.5 94.5t-212 152t-163.5 205t-105.5 252.5t-37.5 295.5q0 159 35.5 301.5t101.5 263.5t160 218t210 165t252.5 104.5t288.5 36.5
q206 0 384 -58.5t309.5 -171t206.5 -276.5t75 -374q0 -101 -25 -194.5t-71 -176.5t-110 -153t-142.5 -123t-168.5 -86t-187 -42q-40 -3 -76 -0.5t-66 12.5t-53.5 29t-38.5 50q-32 -29 -64 -47t-64.5 -28t-66.5 -13t-71 -3q-84 0 -151 33t-113.5 90t-71 133t-24.5 162
q0 87 17 173.5t51 165t84 146.5t115 117.5t146 78t176 28.5q36 0 71.5 -6.5t68.5 -20t62 -34.5t52 -50l21 70h250l-238 -741q-6 -19 -14 -38.5t-9 -35.5t9 -26.5t39 -10.5zM1221 1311q-57 4 -104 -16t-83.5 -57t-62.5 -86t-41 -103q-6 -23 -14 -59.5t-13 -77.5t-4 -82.5
t12.5 -74.5t36.5 -54t68 -21q51 0 91.5 26.5t73 68.5t56.5 93.5t41 102.5v-4q7 24 17 56.5t17.5 69t9 73t-7 66.5t-30.5 51.5t-63 27.5z" />
    <glyph glyph-name="A" unicode="A" horiz-adv-x="1765" 
d="M1126 545h-491l-156 -545h-487l643 2043h504l635 -2043h-492zM729 877h299l-147 525z" />
    <glyph glyph-name="B" unicode="B" horiz-adv-x="1639" 
d="M819 357q75 0 129 14t88 44.5t50 79.5t16 118q0 95 -28 146.5t-76.5 75t-113.5 27.5t-139 4h-155v-509h229zM590 1258h119q90 0 154.5 9t106 34t60.5 69t19 113q0 51 -16.5 88t-56 62t-105.5 37t-166 12h-115v-424zM131 0v2043h705q161 0 286 -38t210.5 -108t130 -168.5
t44.5 -218.5q0 -69 -8 -130t-29 -113t-57.5 -96t-93.5 -78q61 -33 106.5 -81.5t75.5 -108t45 -128.5t15 -142q1 -162 -49 -281.5t-147.5 -197.5t-239 -116t-322.5 -38h-672z" />
    <glyph glyph-name="C" unicode="C" horiz-adv-x="1630" 
d="M1116 1338q-2 86 -17 155.5t-48 118.5t-86 75.5t-129 26.5q-78 0 -131.5 -33t-89 -87.5t-54.5 -124.5t-28.5 -144t-11 -146t-1.5 -130q0 -68 1 -146.5t9.5 -157.5t27.5 -152t54 -129.5t89.5 -90t134.5 -33.5q86 0 141.5 39t87.5 106.5t43 159t8 196.5h449
q4 -115 -12 -224.5t-52.5 -206.5t-95 -178.5t-138.5 -140t-182.5 -91t-228.5 -32.5q-137 0 -243.5 26.5t-188 73.5t-140.5 112.5t-99 144t-64.5 166.5t-37.5 181t-17.5 187.5t-4.5 185.5q0 115 12 237t44.5 237t89 217.5t145 179.5t212.5 122t292 45t301 -58.5t225.5 -159.5
t139.5 -236.5t43 -290.5h-449z" />
    <glyph glyph-name="D" unicode="D" horiz-adv-x="1786" 
d="M131 0v2043h705q182 0 315.5 -39.5t228 -109.5t153.5 -166t92.5 -209t45.5 -238.5t12 -254.5q0 -125 -15.5 -250t-52.5 -239t-98 -212t-151 -170.5t-212 -113.5t-282 -41h-741zM590 357h229q104 0 180.5 36.5t126.5 119t74.5 217t24.5 331.5q0 70 -4 143.5t-17.5 142.5
t-39.5 130t-71 106.5t-112 72t-162 26.5h-229v-1325z" />
    <glyph glyph-name="E" unicode="E" horiz-adv-x="1475" 
d="M131 0v2043h1258v-361h-799v-444h749v-361h-749v-520h803v-357h-1262z" />
    <glyph glyph-name="F" unicode="F" horiz-adv-x="1364" 
d="M131 0v2043h1188v-361h-729v-440h676v-365h-676v-877h-459z" />
    <glyph glyph-name="G" unicode="G" horiz-adv-x="1798" 
d="M1659 0h-330l-48 210q-36 -48 -82.5 -91.5t-107.5 -77t-139.5 -53.5t-178.5 -20q-119 0 -212 26.5t-164.5 73.5t-123.5 112.5t-88.5 143t-59 165t-34.5 179t-16.5 184.5t-4.5 182q0 119 12 242.5t44.5 239t89.5 217.5t147.5 178t219 120t302.5 44t313 -48t237 -140
t150.5 -226.5t52.5 -306.5h-458q0 175 -77 264t-222 89q-82 0 -140.5 -29.5t-97.5 -79.5t-62 -117.5t-34.5 -143t-15 -155.5t-3.5 -156q0 -66 2 -143.5t11.5 -155t29.5 -149t55 -127t88.5 -88.5t130.5 -33q99 0 166 36.5t108 98.5t59.5 145.5t21.5 178.5h-434v321h893v-1110
z" />
    <glyph glyph-name="H" unicode="H" horiz-adv-x="1802" 
d="M131 0v2043h459v-777h622v777h459v-2043h-459v902h-622v-902h-459z" />
    <glyph glyph-name="I" unicode="I" horiz-adv-x="774" 
d="M156 0v2043h462v-2043h-462z" />
    <glyph glyph-name="J" unicode="J" horiz-adv-x="1348" 
d="M475 697v-144q0 -51 3 -93t16.5 -72t40.5 -46.5t75 -16.5q54 0 84 16.5t44 46.5t17 72t3 93v1490h459v-1510q0 -113 -21.5 -199.5t-61 -150.5t-95.5 -106.5t-123.5 -68.5t-146 -37t-163.5 -11q-301 0 -445.5 152t-144.5 441v144h459z" />
    <glyph glyph-name="K" unicode="K" horiz-adv-x="1679" 
d="M131 0v2043h459v-721l581 721h529l-729 -877l725 -1166h-516l-508 833l-74 -84v-749h-467z" />
    <glyph glyph-name="L" unicode="L" horiz-adv-x="1454" 
d="M131 0v2043h459v-1682h831v-361h-1290z" />
    <glyph glyph-name="M" unicode="M" horiz-adv-x="2314" 
d="M131 2043h705l319 -1298l324 1298h704v-2043h-459v1542l-405 -1542h-328l-401 1558v-1558h-459v2043z" />
    <glyph glyph-name="N" unicode="N" horiz-adv-x="1810" 
d="M676 2043l470 -1131l82 -273l-7 280v1124h458v-2043h-549l-456 1087l-91 293l7 -301v-1079h-459v2043h545z" />
    <glyph glyph-name="O" unicode="O" horiz-adv-x="1798" 
d="M90 1061q0 125 9.5 249.5t39 238t84 211.5t145 169.5t222.5 112.5t315 41q178 0 306.5 -40.5t217.5 -111.5t143 -168t83.5 -210.5t39 -239t9.5 -252.5q0 -150 -10 -290.5t-40 -263.5t-84.5 -225.5t-144.5 -175.5t-219.5 -113.5t-308.5 -40.5q-180 0 -310 40t-219.5 112.5
t-144 174t-84.5 224.5t-39.5 264.5t-9.5 293.5zM1245 1057q1 147 -11.5 269t-51 209t-108 135t-181.5 48q-108 0 -175.5 -48t-105.5 -135t-51.5 -209t-11.5 -269q0 -192 12.5 -331.5t49.5 -230.5t105.5 -134.5t180.5 -43.5q115 0 184 43.5t105.5 134.5t47.5 230.5t11 331.5z
" />
    <glyph glyph-name="P" unicode="P" horiz-adv-x="1622" 
d="M590 1150h127q71 1 130 3t107 10t83.5 25t59.5 47.5t35.5 78t10.5 116.5q0 91 -29.5 142t-83.5 75.5t-130.5 29.5t-170.5 5h-139v-532zM131 0v2043h737q95 0 186 -12t172.5 -39.5t149.5 -72.5t117.5 -111.5t77 -156t27.5 -205.5q0 -142 -27 -245.5t-77.5 -175
t-123.5 -116t-165 -70t-201.5 -35t-233.5 -11.5h-180v-793h-459z" />
    <glyph glyph-name="Q" unicode="Q" horiz-adv-x="1790" 
d="M1203 -8q-65 -20 -141 -30t-165 -10q-180 0 -310 40t-219.5 112.5t-144 174t-84.5 224.5t-39.5 264.5t-9.5 293.5q0 125 9.5 249.5t39 238t84 211.5t145 169.5t222.5 112.5t315 41q178 0 306.5 -40.5t217.5 -111.5t143 -168t83.5 -210.5t39 -239t9.5 -252.5
q0 -138 -8.5 -268.5t-33 -247t-69 -215.5t-116.5 -175l267 -295h-422zM1245 1057q1 147 -11.5 269t-51 209t-108 135t-181.5 48q-108 0 -175.5 -48t-105.5 -135t-51.5 -209t-11.5 -269q0 -192 12.5 -331.5t49.5 -230.5t105.5 -134.5t180.5 -43.5h15l-258 289h416l111 -123
q40 91 52 232.5t12 341.5z" />
    <glyph glyph-name="R" unicode="R" horiz-adv-x="1778" 
d="M591 821v-821h-459v2043h708q180 0 327.5 -26.5t252.5 -94t162.5 -182.5t57.5 -292q0 -151 -70.5 -262.5t-219.5 -189.5q30 -22 61 -52t57 -66.5t46 -78.5t28 -88q11 -62 20 -113.5t17.5 -97t17 -86t17.5 -79.5q12 -51 45 -138t102 -197h-488q-39 60 -62 124.5t-41 149.5
q-20 89 -36.5 183t-34.5 179q-9 46 -24.5 80.5t-38.5 58t-56 35t-77 11.5h-312zM921 1182q44 0 90 12.5t83.5 41.5t61 78t23.5 123q0 71 -26 118t-69.5 75t-100.5 39.5t-120 11.5h-272v-499h330z" />
    <glyph glyph-name="S" unicode="S" horiz-adv-x="1630" 
d="M1053 1410q15 152 -45 228t-201 76q-78 0 -129 -17.5t-80.5 -48.5t-41 -73.5t-11.5 -91.5q0 -38 12.5 -70t34 -58.5t51.5 -46.5t66 -34l295 -112q147 -56 253.5 -117t175.5 -130t102.5 -148t33.5 -170q0 -162 -53 -281.5t-150.5 -197.5t-234 -116t-304.5 -38
q-191 0 -336.5 43.5t-242.5 135t-143.5 234t-38.5 340.5h454q-3 -107 12 -180t51.5 -117.5t96.5 -64t147 -19.5q54 0 105 12.5t90.5 40.5t63.5 71t24 105q0 67 -17.5 112.5t-49 77.5t-76 54.5t-99.5 43.5l-446 173q-173 67 -252.5 186.5t-79.5 281.5q0 146 56 256t151.5 184
t223 111.5t270.5 37.5q161 0 296 -41.5t230.5 -125t145 -210t40.5 -296.5h-450z" />
    <glyph glyph-name="T" unicode="T" horiz-adv-x="1462" 
d="M27 2043h1409v-361h-471v-1682h-463v1682h-475v361z" />
    <glyph glyph-name="U" unicode="U" horiz-adv-x="1794" 
d="M139 2043h459v-1458q0 -47 9.5 -92.5t40.5 -82t90 -59t159 -22.5t159.5 22.5t91.5 59t42 82t10 92.5v1458h455v-1459q0 -159 -58 -275t-160 -192t-240.5 -112.5t-299.5 -36.5t-299.5 36t-240.5 111t-160 191t-58 275v1462z" />
    <glyph glyph-name="V" unicode="V" horiz-adv-x="1642" 
d="M483 2043l332 -1354l336 1354h491l-585 -2043h-475l-582 2043h483z" />
    <glyph glyph-name="W" unicode="W" horiz-adv-x="2470" 
d="M1229 1298l-320 -1298h-450l-459 2043h496l237 -1242l299 1242h410l274 -1258l262 1258h492l-500 -2043h-450z" />
    <glyph glyph-name="X" unicode="X" horiz-adv-x="1823" 
d="M647 1049l-627 994h545l357 -605l356 605h528l-626 -986l647 -1057h-557l-377 649l-369 -649h-528z" />
    <glyph glyph-name="Y" unicode="Y" horiz-adv-x="1729" 
d="M1233 2043h496l-635 -1254v-789h-459v789l-635 1254h496l368 -809z" />
    <glyph glyph-name="Z" unicode="Z" horiz-adv-x="1589" 
d="M37 0v277l926 1401h-857v365h1426v-281l-930 -1401h905v-361h-1470z" />
    <glyph glyph-name="bracketleft" unicode="[" horiz-adv-x="979" 
d="M184 -651v2805h725v-339h-278v-2118h278v-348h-725z" />
    <glyph glyph-name="backslash" unicode="\" horiz-adv-x="1012" 
d="M692 -119l-749 2253h385l741 -2253h-377z" />
    <glyph glyph-name="bracketright" unicode="]" horiz-adv-x="979" 
d="M70 -651v348h278v2118h-278v339h725v-2805h-725z" />
    <glyph glyph-name="asciicircum" unicode="^" horiz-adv-x="1548" 
d="M918 2142l503 -1265h-315l-336 847l-336 -847h-311l495 1265h300z" />
    <glyph glyph-name="underscore" unicode="_" horiz-adv-x="1462" 
d="M0 -446v278h1462v-278h-1462z" />
    <glyph glyph-name="grave" unicode="`" horiz-adv-x="979" 
d="M549 2175l328 -504h-340l-476 504h488z" />
    <glyph glyph-name="a" unicode="a" horiz-adv-x="1347" 
d="M745 661q-60 -4 -104.5 -23.5t-74.5 -51t-44.5 -73t-14.5 -87.5q0 -31 6 -57t18.5 -45t32 -29.5t46.5 -10.5q21 0 45 8t44 31.5t33 66.5t13 114v157zM482 -29q-95 0 -171.5 30t-130 87t-82.5 140t-29 189q0 131 51.5 228t143 164t218.5 106.5t278 56.5v156
q1 79 -29 113.5t-99 34.5q-44 0 -72.5 -15.5t-45 -47t-23 -78t-4.5 -107.5l-356 16q-5 143 31 243.5t105.5 164t170 92.5t225.5 29q128 0 216.5 -27.5t146 -70t89.5 -94t47 -99t18 -84.5t3 -51v-791q0 -36 3.5 -80.5t11.5 -91.5t22 -95t34 -92h-436q-8 22 -14 56.5t-10 62.5
q-28 -34 -59 -61t-68.5 -45.5t-82.5 -28.5t-102 -10z" />
    <glyph glyph-name="b" unicode="b" horiz-adv-x="1434" 
d="M565 745q0 -49 1.5 -102.5t7.5 -104.5t17.5 -97.5t31 -81.5t48.5 -55.5t70 -20.5q54 0 87 33.5t51 99.5t24 164t6 227q0 42 -0.5 94t-5 105t-14.5 103.5t-29 89.5t-49 63t-74 24t-74 -26t-49 -69.5t-29 -99.5t-14.5 -116.5t-5 -120t-0.5 -109.5zM557 0h-422v2089h443
v-623q52 59 121 89t141 30q93 0 167 -27.5t131 -77.5t97.5 -119.5t66.5 -154t38 -182t12 -201.5q0 -105 -8.5 -209t-29 -198.5t-56 -175t-90.5 -139.5t-131 -92.5t-177 -33.5q-46 0 -90.5 12.5t-84 34t-72.5 50.5t-56 63v-135z" />
    <glyph glyph-name="c" unicode="c" horiz-adv-x="1331" 
d="M692 1282q-41 0 -69 -26.5t-46.5 -70.5t-28 -100t-14 -115t-5.5 -116.5t-1 -103.5q0 -41 1 -92.5t6.5 -105t15.5 -104t27.5 -90.5t44.5 -64t65 -24q54 0 83 31.5t43.5 83.5t19.5 117t10 133h418q-9 -143 -44 -265t-100.5 -210.5t-165.5 -138.5t-239 -50q-127 0 -223 30
t-166 83.5t-117 127t-74.5 160.5t-39 184t-11.5 198q0 95 11 193t38.5 189t73 170.5t115 139t164.5 93.5t221 34q127 0 227.5 -42.5t170 -121.5t106 -191t36.5 -251h-414q-2 57 -6 113t-17.5 101t-40.5 73t-75 28z" />
    <glyph glyph-name="d" unicode="d" horiz-adv-x="1434" 
d="M868 745q0 50 -0.5 109.5t-5 120t-14.5 116.5t-29 99.5t-49 69.5t-74 26q-41 0 -69.5 -24t-48 -63t-30 -89.5t-16 -103.5t-7 -105t-1.5 -94q0 -129 7.5 -227t26.5 -164t51.5 -99.5t82.5 -33.5q61 0 96.5 44.5t53 113t22 149.5t4.5 155zM877 135q-23 -34 -54 -63
t-68.5 -50.5t-80 -34t-88.5 -12.5q-102 0 -178.5 33.5t-132.5 92.5t-93 139.5t-59.5 175t-31.5 198.5t-9 209q0 157 31 295.5t95.5 242t165 164t240.5 60.5q72 0 132.5 -28.5t109.5 -90.5v623h442v-2089h-421v135z" />
    <glyph glyph-name="e" unicode="e" horiz-adv-x="1331" 
d="M799 958q0 55 -3 112t-16.5 103.5t-40.5 75.5t-75 29q-45 0 -71.5 -31.5t-41 -79t-19 -104t-4.5 -105.5h271zM1229 569q6 -128 -31.5 -237t-110.5 -189.5t-179 -126t-236 -45.5q-80 0 -155 17t-140.5 55.5t-119.5 100.5t-93 152.5t-60.5 211.5t-21.5 278
q0 100 10.5 197.5t36 184.5t68.5 160.5t108 127t154.5 83.5t208.5 30q133 0 227 -38.5t158 -104t101 -152t56.5 -183t25 -197.5t5.5 -194h-717q1 -40 2 -87t4.5 -95t12.5 -92.5t25.5 -79t42.5 -55.5t65 -21q43 0 69 26t39.5 68.5t18 96t4.5 108.5h422z" />
    <glyph glyph-name="f" unicode="f" horiz-adv-x="848" 
d="M188 1249h-147v299h139v115q0 103 33.5 183t94.5 135t147 83.5t192 28.5h42.5t38.5 -1t40 -2.5t47 -4.5v-303q-68 4 -106 0t-57.5 -17t-24 -35.5t-4.5 -54.5v-127h180v-299h-180v-1249h-435v1249z" />
    <glyph glyph-name="g" unicode="g" horiz-adv-x="1442" 
d="M700 1278q-40 0 -68.5 -25.5t-48.5 -67t-32.5 -95.5t-19 -110.5t-9 -111t-2.5 -98.5q0 -115 8 -208t27 -159t50.5 -101.5t78.5 -35.5q51 0 85.5 25.5t56.5 68.5t33.5 98.5t16 115.5t5 120.5t0.5 112.5q0 94 -7.5 179t-27.5 150t-55.5 103.5t-90.5 38.5zM881 1548h426
v-1454q0 -146 -35 -270t-108.5 -214t-187 -141t-271.5 -51q-100 0 -197.5 27.5t-177.5 85t-134.5 145.5t-68.5 209h389q12 -93 61 -136.5t123 -43.5q48 0 80 17.5t52 47t29.5 68t13.5 80t4.5 83t1.5 77.5q-59 -59 -128.5 -85t-138.5 -26q-118 0 -216 40t-168 134.5t-109 251
t-39 389.5q0 82 9 172t32 177.5t61.5 167t96.5 139.5t138 95.5t187 35.5q75 0 148.5 -40.5t126.5 -111.5v131z" />
    <glyph glyph-name="h" unicode="h" horiz-adv-x="1425" 
d="M569 1368q58 95 145.5 150t219.5 55q173 0 266.5 -107.5t93.5 -314.5v-1151h-438v1081q0 46 -6.5 83t-21 63.5t-38 40.5t-57.5 14q-31 0 -59.5 -18t-51 -49.5t-36 -73.5t-13.5 -90v-1051h-438v2089h434v-721z" />
    <glyph glyph-name="i" unicode="i" horiz-adv-x="750" 
d="M156 0v1548h438v-1548h-438zM156 1712v377h438v-377h-438z" />
    <glyph glyph-name="j" unicode="j" horiz-adv-x="746" 
d="M0 -258q18 -3 38 -3.5t38 1.5t32.5 7.5t22.5 14.5q15 19 19.5 50t4.5 90v1646h435v-1650q0 -151 -32.5 -246.5t-103 -150t-182.5 -75t-272 -20.5v336zM155 1712v377h435v-377h-435z" />
    <glyph glyph-name="k" unicode="k" horiz-adv-x="1397" 
d="M135 0v2089h443v-1004l393 463h463l-541 -618l524 -930h-434l-360 639l-45 -49v-590h-443z" />
    <glyph glyph-name="l" unicode="l" horiz-adv-x="750" 
d="M156 0v2089h438v-2089h-438z" />
    <glyph glyph-name="m" unicode="m" horiz-adv-x="2318" 
d="M573 0h-438v1548h430v-188q23 41 56 79t74 67t91 46t107 17q66 0 118.5 -14.5t95 -41t77 -64.5t65.5 -85q39 46 84 84t98 65t115.5 41.5t136.5 14.5q106 0 197.5 -28t158.5 -86t105.5 -145.5t38.5 -207.5v-1102h-438v1104q0 86 -38.5 130t-114.5 44q-111 0 -161.5 -75
t-50.5 -214v-989h-434v1104q0 41 -7 73.5t-24 55t-45 34t-70 11.5q-45 0 -86 -20t-72.5 -58.5t-50 -96t-18.5 -132.5v-971z" />
    <glyph glyph-name="n" unicode="n" horiz-adv-x="1429" 
d="M569 1368q58 95 145.5 150t219.5 55q173 0 266.5 -107.5t93.5 -314.5v-1151h-438v1081q0 46 -6.5 83t-21 63.5t-38 40.5t-57.5 14q-31 0 -59.5 -18t-51 -49.5t-36 -73.5t-13.5 -90v-1051h-438v1548h434v-180z" />
    <glyph glyph-name="o" unicode="o" horiz-adv-x="1438" 
d="M721 1573q169 0 291.5 -53t202.5 -151.5t118.5 -239.5t38.5 -318q0 -168 -22 -295.5t-63 -221t-99 -155.5t-130.5 -99.5t-157.5 -53t-179 -15.5q-92 0 -176 15.5t-156.5 53t-131.5 99.5t-100.5 155.5t-64 221t-22.5 295.5q0 177 39.5 318t120 239.5t203 151.5t288.5 53z
M721 270q67 0 109.5 34t66.5 97t32.5 152.5t8.5 200.5q0 147 -12.5 248t-39 163.5t-67.5 89.5t-98 27q-56 0 -96.5 -27t-67.5 -89.5t-40 -163.5t-13 -248q0 -111 9.5 -200.5t34.5 -152.5t66.5 -97t106.5 -34z" />
    <glyph glyph-name="p" unicode="p" horiz-adv-x="1434" 
d="M565 803q0 -50 0.5 -109.5t5 -120t14.5 -116.5t29 -99.5t49 -69.5t74 -26q40 0 68.5 24t47.5 63t30 89.5t17 103.5t7.5 105t1.5 94q0 129 -6.5 227t-24.5 164.5t-51 100t-86 33.5q-41 0 -70 -20.5t-48.5 -56t-31 -81.5t-17.5 -97.5t-7.5 -105t-1.5 -102.5zM557 1413
q29 37 61 66.5t69.5 50.5t82 32t97.5 11q99 0 173 -33.5t128 -92t89.5 -139t56.5 -173.5t29.5 -195t8.5 -205q0 -161 -31 -301.5t-96 -245t-165.5 -165t-240.5 -60.5q-71 0 -131.5 28.5t-109.5 90.5v-623h-443v2089h422v-135z" />
    <glyph glyph-name="q" unicode="q" horiz-adv-x="1434" 
d="M868 803q0 49 -1.5 102.5t-7.5 105t-17.5 97.5t-31 81.5t-48.5 56t-70 20.5q-54 0 -87 -33.5t-51 -100t-24 -164.5t-6 -227q0 -42 1.5 -94t7.5 -105t17 -103.5t30 -89.5t47.5 -63t68.5 -24q44 0 74 26t49 69.5t29 99.5t14.5 116.5t5 120t0.5 109.5zM877 1548h421v-2089
h-442v623q-49 -62 -109.5 -90.5t-132.5 -28.5q-140 0 -240.5 60.5t-165 164t-95.5 242t-31 295.5q0 105 9 209t30.5 198.5t57.5 175t91 139.5t131 92.5t176 33.5q54 0 97 -12t79 -33t66 -50.5t58 -64.5v135z" />
    <glyph glyph-name="r" unicode="r" horiz-adv-x="1036" 
d="M561 1365q37 48 79.5 87t97.5 65t124 36t158 -1v-385q-109 18 -194 -3t-143 -70t-88 -120.5t-30 -154.5v-819h-430v1548h426v-183z" />
    <glyph glyph-name="s" unicode="s" horiz-adv-x="1278" 
d="M770 1036q0 126 -32 186t-111 60q-36 0 -62 -11.5t-43.5 -31t-26 -45.5t-8.5 -55q0 -39 12 -67.5t34 -50t53 -37.5t69 -30q56 -19 120 -41t127 -50t120.5 -63.5t102 -82.5t70.5 -106.5t26 -135.5q0 -117 -43.5 -210t-122 -158.5t-189 -100.5t-243.5 -35q-135 0 -244.5 31
t-186.5 100t-119.5 179t-43.5 268h426q0 -63 9.5 -114.5t30 -88t52 -56.5t76.5 -20q80 0 128 45t48 131q0 43 -14 73.5t-40.5 53t-64.5 40t-86 34.5q-55 20 -115 43t-118 51.5t-110 64t-91.5 82.5t-62.5 106.5t-23 135.5q0 105 41.5 187t114 139t172 87t216.5 30
q118 0 219.5 -31.5t175 -97t114.5 -167t40 -241.5h-397z" />
    <glyph glyph-name="t" unicode="t" horiz-adv-x="836" 
d="M610 1548h201v-315h-201v-807q0 -57 19.5 -82t66.5 -25h127v-319h-311q-62 0 -122 9.5t-107.5 40.5t-77 90t-29.5 159v934h-151v315h151v422h434v-422z" />
    <glyph glyph-name="u" unicode="u" horiz-adv-x="1407" 
d="M865 152q-31 -40 -71.5 -73.5t-86.5 -57.5t-93.5 -37t-92.5 -13q-97 0 -169 21.5t-120 68.5t-72 123t-24 185v1179h434v-1114q0 -29 4 -58.5t17 -53t36.5 -38t61.5 -14.5q29 0 55.5 9.5t47 33t32.5 63t12 99.5v1073h435v-1548h-406v152z" />
    <glyph glyph-name="v" unicode="v" horiz-adv-x="1286" 
d="M0 1548h451l192 -893l193 893h450l-434 -1548h-422z" />
    <glyph glyph-name="w" unicode="w" horiz-adv-x="1954" 
d="M1327 664l176 884h451l-385 -1548h-369l-225 926l-209 -926h-369l-397 1548h451l180 -884l196 884h299z" />
    <glyph glyph-name="x" unicode="x" horiz-adv-x="1409" 
d="M4 1548h463l233 -426l238 426h467l-471 -766l483 -782h-463l-245 426l-242 -426h-475l483 786z" />
    <glyph glyph-name="y" unicode="y" horiz-adv-x="1331" 
d="M0 1548h451l208 -839l222 839h450l-434 -1442q-32 -98 -63 -183q-13 -36 -27 -74t-28 -72t-27 -62.5t-23 -46.5q-35 -61 -85 -106.5t-110.5 -75.5t-128.5 -44.5t-139 -14.5q-49 0 -109 8.5t-116 23.5v357q35 -12 62 -20t49 -12.5t40.5 -6.5t36.5 -2q40 0 68.5 10t49 29
t34.5 45.5t25 58.5l49 131z" />
    <glyph glyph-name="z" unicode="z" horiz-adv-x="1352" 
d="M98 0v287l639 950h-581v311h1097v-282l-639 -951h623v-315h-1139z" />
    <glyph glyph-name="braceleft" unicode="{" horiz-adv-x="877" 
d="M659 -4q0 -46 10.5 -85t37.5 -71.5t73 -59.5t117 -50l-20 -62q-175 -3 -300.5 21.5t-206.5 81.5t-119 149.5t-38 226.5v480q0 58 -13.5 101.5t-42 75t-72.5 52.5t-105 33v65q47 5 89 18.5t73.5 40t50 68t20.5 103.5v545q0 89 25.5 155.5t71 114t108 77.5t136.5 46.5
t156 21.5t167 2l12 -69q-69 -17 -113.5 -41t-70.5 -55t-36 -69.5t-10 -84.5v-570q0 -111 -38.5 -199.5t-124.5 -144.5q46 -31 77 -72t50 -89.5t27.5 -104t8.5 -115.5v-536z" />
    <glyph glyph-name="bar" unicode="|" horiz-adv-x="733" 
d="M193 2089h348v-2089h-348v2089z" />
    <glyph glyph-name="braceright" unicode="}" horiz-adv-x="877" 
d="M217 532q0 60 8.5 115.5t27.5 104t50.5 89.5t77.5 72q-87 56 -125.5 144.5t-38.5 199.5v570q0 46 -10 84.5t-35.5 69.5t-70 55t-113.5 41l12 69q85 3 167 -2t156 -21.5t136.5 -46.5t108 -77.5t71 -114t25.5 -155.5v-545q1 -62 20 -103.5t50.5 -68t73 -40t89.5 -18.5v-65
q-62 -12 -106 -33t-72 -52.5t-41.5 -75t-13.5 -101.5v-480q0 -134 -38 -226.5t-119 -149.5t-206.5 -81.5t-300.5 -21.5l-20 62q70 23 116 50t73 59.5t37.5 71.5t10.5 85v536z" />
    <glyph glyph-name="asciitilde" unicode="~" horiz-adv-x="1462" 
d="M510 701q-42 0 -66 -39t-22 -135h-303q-4 126 19.5 222t70.5 161t115.5 98.5t153.5 33.5q51 0 91.5 -9.5t75 -25t64 -35.5t58.5 -42q22 -17 43.5 -33.5t43.5 -30.5t45 -22.5t48 -8.5t42.5 9t29 29t16 53.5t3.5 83.5h304q4 -122 -19.5 -217.5t-70 -161t-115.5 -100
t-156 -34.5q-50 0 -91 9.5t-75.5 24.5t-64.5 34.5t-57 40.5q-21 16 -43 33t-44.5 30.5t-46 22.5t-49.5 9z" />
    <glyph glyph-name="saraileftthai" 
d="M-1585 2314h897v-327h-1041z" />
    <glyph glyph-name="saraileftthai" unicode="&#xf701;" 
d="M-1585 2314h897v-327h-1041z" />
    <glyph glyph-name="saraiileftthai" 
d="M-1585 2314h536v213h361v-540h-1041z" />
    <glyph glyph-name="saraiileftthai" unicode="&#xf702;" 
d="M-1585 2314h536v213h361v-540h-1041z" />
    <glyph glyph-name="saraueleftthai" 
d="M-1585 2314h373q7 51 32.5 95.5t63.5 78t86 53t100 19.5q58 0 110.5 -23t91.5 -62t62 -91.5t23 -110.5t-23 -110t-62 -91t-91.5 -62t-110.5 -23h-799zM-1020 2269q0 -37 26.5 -63.5t63.5 -26.5t63.5 26.5t26.5 63.5t-26.5 63.5t-63.5 26.5t-63.5 -26.5t-26.5 -63.5z" />
    <glyph glyph-name="saraueleftthai" unicode="&#xf703;" 
d="M-1585 2314h373q7 51 32.5 95.5t63.5 78t86 53t100 19.5q58 0 110.5 -23t91.5 -62t62 -91.5t23 -110.5t-23 -110t-62 -91t-91.5 -62t-110.5 -23h-799zM-1020 2269q0 -37 26.5 -63.5t63.5 -26.5t63.5 26.5t26.5 63.5t-26.5 63.5t-63.5 26.5t-63.5 -26.5t-26.5 -63.5z" />
    <glyph glyph-name="saraueeleftthai" 
d="M-1585 2314h221v213h287v-213h110v213h287v-540h-1049z" />
    <glyph glyph-name="saraueeleftthai" unicode="&#xf704;" 
d="M-1585 2314h221v213h287v-213h110v213h287v-540h-1049z" />
    <glyph glyph-name="maieklowleftthai" 
d="M-1110 2548h385v-553h-385v553z" />
    <glyph glyph-name="maieklowleftthai" unicode="&#xf705;" 
d="M-1110 2548h385v-553h-385v553z" />
    <glyph glyph-name="maitholowleftthai" 
d="M-1311 1982v250h-127v238h357v-246q96 13 146 78.5t50 167.5h267q0 -94 -34.5 -181t-99.5 -154.5t-158.5 -109t-211.5 -43.5h-189z" />
    <glyph glyph-name="maitholowleftthai" unicode="&#xf706;" 
d="M-1311 1982v250h-127v238h357v-246q96 13 146 78.5t50 167.5h267q0 -94 -34.5 -181t-99.5 -154.5t-158.5 -109t-211.5 -43.5h-189z" />
    <glyph glyph-name="maitrilowleftthai" 
d="M-1053 1983q0 21 -2 54.5t-7.5 65t-15.5 54t-27 22.5q-12 0 -21 -9t-14.5 -24.5t-9 -35.5t-5.5 -42h-159q-2 22 -5 42t-8.5 35.5t-13.5 24.5t-20 9q-18 0 -29 -22.5t-16 -54t-6.5 -65t-1.5 -54.5h-213q0 123 20.5 206t54.5 133.5t77.5 72.5t89.5 22q26 0 49.5 -9.5
t43 -24.5t34.5 -34t24 -39q25 47 63.5 77t100.5 30q34 0 65.5 -12.5t57 -36t44 -57t26.5 -74.5q21 30 37 85t16 123h209q0 -74 -18 -150t-51 -141t-81 -111.5t-108 -59.5h-180z" />
    <glyph glyph-name="maitrilowleftthai" unicode="&#xf707;" 
d="M-1053 1983q0 21 -2 54.5t-7.5 65t-15.5 54t-27 22.5q-12 0 -21 -9t-14.5 -24.5t-9 -35.5t-5.5 -42h-159q-2 22 -5 42t-8.5 35.5t-13.5 24.5t-20 9q-18 0 -29 -22.5t-16 -54t-6.5 -65t-1.5 -54.5h-213q0 123 20.5 206t54.5 133.5t77.5 72.5t89.5 22q26 0 49.5 -9.5
t43 -24.5t34.5 -34t24 -39q25 47 63.5 77t100.5 30q34 0 65.5 -12.5t57 -36t44 -57t26.5 -74.5q21 30 37 85t16 123h209q0 -74 -18 -150t-51 -141t-81 -111.5t-108 -59.5h-180z" />
    <glyph glyph-name="maichattawalowleftthai" 
d="M-913 2208v-226h-263v226h-229v241h229v209h263v-209h237v-241h-237z" />
    <glyph glyph-name="maichattawalowleftthai" unicode="&#xf708;" 
d="M-913 2208v-226h-263v226h-229v241h229v209h263v-209h237v-241h-237z" />
    <glyph glyph-name="thanthakhatlowleftthai" 
d="M-672 2241q-80 0 -140.5 -18t-101 -51t-61 -80t-20.5 -105h-303q0 100 42 191.5t122 162t196.5 113.5t265.5 45v-258z" />
    <glyph glyph-name="thanthakhatlowleftthai" unicode="&#xf709;" 
d="M-672 2241q-80 0 -140.5 -18t-101 -51t-61 -80t-20.5 -105h-303q0 100 42 191.5t122 162t196.5 113.5t265.5 45v-258z" />
    <glyph glyph-name="maieklowrightthai" 
d="M-565 2552h413v-557h-413v557z" />
    <glyph glyph-name="maieklowrightthai" unicode="&#xf70a;" 
d="M-565 2552h413v-557h-413v557z" />
    <glyph glyph-name="maitholowrightthai" 
d="M-889 1995v258h-143v254h442v-254q55 6 93 26.5t61 53.5t33 77t10 97h340q0 -98 -35.5 -190.5t-108.5 -164t-183 -114.5t-259 -43h-250z" />
    <glyph glyph-name="maitholowrightthai" unicode="&#xf70b;" 
d="M-889 1995v258h-143v254h442v-254q55 6 93 26.5t61 53.5t33 77t10 97h340q0 -98 -35.5 -190.5t-108.5 -164t-183 -114.5t-259 -43h-250z" />
    <glyph glyph-name="maitrilowrightthai" 
d="M-624 1999q0 16 -0.5 39.5t-3 49.5t-7 52t-12 46.5t-18.5 33t-26 12.5q-17 0 -27.5 -11.5t-17.5 -31t-11 -44.5t-6 -52h-207q-2 27 -5.5 52t-10.5 44.5t-18 31t-29 11.5q-16 0 -27 -12.5t-18.5 -33t-12 -46.5t-7 -52t-3 -49.5t-0.5 -39.5h-292q0 144 28.5 241.5t74.5 157
t105 84.5t121 25q34 0 63.5 -10.5t54.5 -28t45 -39.5t34 -45q15 26 35.5 48.5t46.5 39t58.5 26t72.5 9.5q46 0 88 -15t75.5 -42.5t57.5 -67t33 -88.5q27 37 48 101t21 145h275q0 -86 -23 -175t-67 -165t-107 -130t-143 -71h-238z" />
    <glyph glyph-name="maitrilowrightthai" unicode="&#xf70c;" 
d="M-624 1999q0 16 -0.5 39.5t-3 49.5t-7 52t-12 46.5t-18.5 33t-26 12.5q-17 0 -27.5 -11.5t-17.5 -31t-11 -44.5t-6 -52h-207q-2 27 -5.5 52t-10.5 44.5t-18 31t-29 11.5q-16 0 -27 -12.5t-18.5 -33t-12 -46.5t-7 -52t-3 -49.5t-0.5 -39.5h-292q0 144 28.5 241.5t74.5 157
t105 84.5t121 25q34 0 63.5 -10.5t54.5 -28t45 -39.5t34 -45q15 26 35.5 48.5t46.5 39t58.5 26t72.5 9.5q46 0 88 -15t75.5 -42.5t57.5 -67t33 -88.5q27 37 48 101t21 145h275q0 -86 -23 -175t-67 -165t-107 -130t-143 -71h-238z" />
    <glyph glyph-name="maichattawalowrightthai" 
d="M-205 2224v-229h-299v229h-250v250h250v213h299v-213h254v-250h-254z" />
    <glyph glyph-name="maichattawalowrightthai" unicode="&#xf70d;" 
d="M-205 2224v-229h-299v229h-250v250h250v213h299v-213h254v-250h-254z" />
    <glyph glyph-name="thanthakhatlowrightthai" 
d="M-20 2277q-89 0 -156.5 -20t-113 -56.5t-68.5 -89t-23 -116.5h-328q0 109 43 208t129.5 174t215.5 120t301 47v-267z" />
    <glyph glyph-name="thanthakhatlowrightthai" unicode="&#xf70e;" 
d="M-20 2277q-89 0 -156.5 -20t-113 -56.5t-68.5 -89t-23 -116.5h-328q0 109 43 208t129.5 174t215.5 120t301 47v-267z" />
    <glyph glyph-name="maihanakatleftthai" 
d="M156 2003h-1368v487h364v-159h1004v-328z" />
    <glyph glyph-name="maihanakatleftthai" unicode="&#xf710;" 
d="M156 2003h-1368v487h364v-159h1004v-328z" />
    <glyph glyph-name="nikhahitleftthai" 
d="M-1106 2245q0 -22 8.5 -41.5t23 -34t34 -23t41.5 -8.5q23 0 43 8.5t35 23t23.5 34t8.5 41.5q0 23 -8.5 43t-23.5 35t-35 23.5t-43 8.5q-22 0 -41.5 -8.5t-34 -23.5t-23 -35t-8.5 -43zM-1327 2245q0 69 26 129.5t70.5 105t104 70.5t127.5 26q69 0 129.5 -26t105 -70.5
t70.5 -105t26 -129.5q0 -68 -26 -127.5t-70.5 -104t-105 -70.5t-129.5 -26q-68 0 -127.5 26t-104 70.5t-70.5 104t-26 127.5z" />
    <glyph glyph-name="nikhahitleftthai" unicode="&#xf711;" 
d="M-1106 2245q0 -22 8.5 -41.5t23 -34t34 -23t41.5 -8.5q23 0 43 8.5t35 23t23.5 34t8.5 41.5q0 23 -8.5 43t-23.5 35t-35 23.5t-43 8.5q-22 0 -41.5 -8.5t-34 -23.5t-23 -35t-8.5 -43zM-1327 2245q0 69 26 129.5t70.5 105t104 70.5t127.5 26q69 0 129.5 -26t105 -70.5
t70.5 -105t26 -129.5q0 -68 -26 -127.5t-70.5 -104t-105 -70.5t-129.5 -26q-68 0 -127.5 26t-104 70.5t-70.5 104t-26 127.5z" />
    <glyph glyph-name="maitaikhuleftthai" 
d="M-1456 2388q0 -25 2 -51t9.5 -47.5t23 -35t43.5 -13.5q46 0 65 37t19 129h193q0 -46 4.5 -78t14.5 -51.5t27 -28t41 -8.5q44 0 60 42.5t10 123.5h293q4 -122 -20 -205.5t-69 -134.5t-106.5 -71t-130.5 -14q-41 3 -73 14t-57 27.5t-44.5 36.5t-34.5 41
q-17 -23 -38.5 -44.5t-48.5 -38t-60.5 -26.5t-73.5 -10q-87 0 -153.5 31.5t-111 86t-67 127t-22.5 153.5q0 121 38 198t97 120.5t129 60t135 16.5h769v-254h-756q-31 0 -51.5 -11.5t-33 -30.5t-17.5 -42.5t-5 -48.5z" />
    <glyph glyph-name="maitaikhuleftthai" unicode="&#xf712;" 
d="M-1456 2388q0 -25 2 -51t9.5 -47.5t23 -35t43.5 -13.5q46 0 65 37t19 129h193q0 -46 4.5 -78t14.5 -51.5t27 -28t41 -8.5q44 0 60 42.5t10 123.5h293q4 -122 -20 -205.5t-69 -134.5t-106.5 -71t-130.5 -14q-41 3 -73 14t-57 27.5t-44.5 36.5t-34.5 41
q-17 -23 -38.5 -44.5t-48.5 -38t-60.5 -26.5t-73.5 -10q-87 0 -153.5 31.5t-111 86t-67 127t-22.5 153.5q0 121 38 198t97 120.5t129 60t135 16.5h769v-254h-756q-31 0 -51.5 -11.5t-33 -30.5t-17.5 -42.5t-5 -48.5z" />
    <glyph glyph-name="maiekupperleftthai" 
d="M-1016 3109h328v-467h-328v467z" />
    <glyph glyph-name="maiekupperleftthai" unicode="&#xf713;" 
d="M-1016 3109h328v-467h-328v467z" />
    <glyph glyph-name="maithoupperleftthai" 
d="M-1208 2646v274h-148v234h414v-254q57 6 101.5 27t76 54t48 77t16.5 96h294q0 -100 -39.5 -190.5t-114.5 -160t-183 -112t-244 -45.5h-221z" />
    <glyph glyph-name="maithoupperleftthai" unicode="&#xf714;" 
d="M-1208 2646v274h-148v234h414v-254q57 6 101.5 27t76 54t48 77t16.5 96h294q0 -100 -39.5 -190.5t-114.5 -160t-183 -112t-244 -45.5h-221z" />
    <glyph glyph-name="maitriupperleftthai" 
d="M-1137 2727q-3 20 -6.5 38.5t-9.5 33t-15.5 23t-24.5 8.5q-20 0 -33 -22t-21 -52t-11.5 -62t-3.5 -52h-247q0 123 23 205.5t62 132.5t89.5 71t105.5 21q65 0 109 -29.5t71 -72.5q28 43 76.5 72.5t116.5 29.5q43 0 79.5 -9t65.5 -30t49 -54.5t31 -82.5q25 34 39.5 87.5
t14.5 121.5h258q0 -77 -22 -153.5t-63 -141t-98.5 -109.5t-128.5 -59h-209q0 20 -2 52t-9 62t-19 52t-33 22q-15 0 -25.5 -8.5t-17 -23t-11 -33t-7.5 -38.5h-173z" />
    <glyph glyph-name="maitriupperleftthai" unicode="&#xf715;" 
d="M-1137 2727q-3 20 -6.5 38.5t-9.5 33t-15.5 23t-24.5 8.5q-20 0 -33 -22t-21 -52t-11.5 -62t-3.5 -52h-247q0 123 23 205.5t62 132.5t89.5 71t105.5 21q65 0 109 -29.5t71 -72.5q28 43 76.5 72.5t116.5 29.5q43 0 79.5 -9t65.5 -30t49 -54.5t31 -82.5q25 34 39.5 87.5
t14.5 121.5h258q0 -77 -22 -153.5t-63 -141t-98.5 -109.5t-128.5 -59h-209q0 20 -2 52t-9 62t-19 52t-33 22q-15 0 -25.5 -8.5t-17 -23t-11 -33t-7.5 -38.5h-173z" />
    <glyph glyph-name="maichattawaupperleftthai" 
d="M-700 2871v-229h-271v229h-250v246h250v217h271v-217h254v-246h-254z" />
    <glyph glyph-name="maichattawaupperleftthai" unicode="&#xf716;" 
d="M-700 2871v-229h-271v229h-250v246h250v217h271v-217h254v-246h-254z" />
    <glyph glyph-name="thanthakhatupperleftthai" 
d="M-360 2757q-80 0 -140 -18.5t-100 -52t-60 -80t-20 -103.5h-299q0 97 41.5 187t120.5 159.5t194 112t263 44.5v-249z" />
    <glyph glyph-name="thanthakhatupperleftthai" unicode="&#xf717;" 
d="M-360 2757q-80 0 -140 -18.5t-100 -52t-60 -80t-20 -103.5h-299q0 97 41.5 187t120.5 159.5t194 112t263 44.5v-249z" />
    <glyph glyph-name="uni00A0" unicode="&#xa0;" horiz-adv-x="733" 
 />
    <glyph glyph-name="cent" unicode="&#xa2;" horiz-adv-x="1462" 
d="M614 237q-98 16 -172.5 54t-128.5 93.5t-90 126t-57 150t-30 166t-9 174.5q0 84 7.5 170.5t27.5 169t55 156.5t89 134.5t130 103t178 60.5v248h234v-237q109 -14 190.5 -65t135.5 -127.5t81 -173.5t27 -202h-307q-2 45 -7.5 93.5t-19.5 91.5t-38 75t-62 44v-1037
q45 18 70.5 55.5t39 86.5t19 105t10.5 110h307q-3 -74 -14.5 -147t-33.5 -139.5t-56.5 -125t-83 -104t-112.5 -76.5t-146 -42v-228h-234v237zM451 961q0 -54 7 -118.5t25.5 -126t50 -113t80.5 -78.5v981q-54 -38 -86 -106.5t-49 -147.5t-22.5 -157t-5.5 -134z" />
    <glyph glyph-name="sterling" unicode="&#xa3;" horiz-adv-x="1648" 
d="M253 1127q-16 34 -33.5 73t-32.5 82t-24.5 89.5t-9.5 94.5q0 142 55 255t148 192t216.5 120.5t260.5 41.5q163 0 294 -39t223 -127.5t141.5 -232t49.5 -351.5h-443q-5 118 -24.5 197.5t-52.5 127.5t-77 68.5t-97 20.5q-60 0 -105 -21t-74.5 -58.5t-44.5 -89.5t-15 -115
q0 -46 10.5 -89.5t27 -84.5t36.5 -79.5t38 -74.5h372v-262h-277q6 -26 11 -60t5 -59q0 -57 -13.5 -110.5t-34 -101t-45.5 -88t-49 -71.5q16 2 36 5t40 5t38 3t29 0q62 -6 107 -18.5t85.5 -26t84 -23.5t102.5 -10q69 0 151.5 20t186.5 73v-350q-57 -28 -114.5 -44.5
t-110 -25.5t-98.5 -11.5t-82 -2.5q-65 0 -128 14t-130 30.5t-141.5 30.5t-163.5 14q-19 0 -57 -3.5t-86 -10t-101.5 -15.5t-103 -21t-91 -26.5t-65.5 -31.5v283q70 40 127.5 91t99 108.5t64.5 120.5t23 127q0 17 -2 41t-6 50t-10.5 50.5t-14.5 43.5h-280v262h175z" />
    <glyph glyph-name="yen" unicode="&#xa5;" horiz-adv-x="1765" 
d="M881 1160l450 883h434l-487 -901h221v-252h-356l-53 -100v-72h409v-261h-409v-457h-418v457h-410v261h410v72l-54 100h-356v252h217l-483 901h434z" />
    <glyph glyph-name="copyright" unicode="&#xa9;" horiz-adv-x="2343" 
d="M410 1012q0 -105 27 -202.5t76.5 -182.5t119 -154.5t154 -119t182 -76.5t202.5 -27t202.5 27t182.5 76.5t154.5 119t119 154.5t76.5 182t27 203q0 105 -27 202.5t-76.5 182.5t-119 154.5t-154.5 119t-182.5 76.5t-202.5 27t-202.5 -27t-182 -76.5t-154 -119t-119 -154.5
t-76.5 -182.5t-27 -202.5zM1585 897q-11 -105 -48.5 -189t-93 -143t-125 -91t-142.5 -32q-112 0 -201.5 44t-152.5 121t-96.5 181t-33.5 224q0 118 32 220.5t93 178t149.5 119t200.5 43.5q77 0 147 -30.5t126 -89t96 -143t57 -192.5h-229q-19 109 -72 169.5t-125 60.5
q-60 0 -105.5 -27t-76.5 -73.5t-47 -107.5t-16 -128q0 -66 16 -128t48 -110t79.5 -77t110.5 -29q32 0 62.5 16t55 46t41 72.5t21.5 94.5h229zM143 1012q0 141 37 272t104 245.5t161 208.5t208.5 161t245.5 104t272 37t272.5 -37t246 -104t208.5 -161t161 -208.5t104 -245.5
t37 -272t-37 -272.5t-104 -245.5t-161 -208t-208.5 -161t-246 -104t-272.5 -37t-272 37t-245.5 104t-208.5 161t-161 208t-104 245t-37 273z" />
    <glyph glyph-name="guillemotleft" unicode="&#xab;" horiz-adv-x="1462" 
d="M737 1503v-377l-270 -262l270 -262v-381l-532 520v254zM1262 1503v-377l-271 -262l271 -262v-381l-533 520v254z" />
    <glyph glyph-name="registered" unicode="&#xae;" horiz-adv-x="2343" 
d="M410 1012q0 -105 27 -202.5t76.5 -182.5t119 -154.5t154 -119t182 -76.5t202.5 -27t202.5 27t182.5 76.5t154.5 119t119 154.5t76.5 182t27 203q0 105 -27 202.5t-76.5 182.5t-119 154.5t-154.5 119t-182.5 76.5t-202.5 27t-202.5 -27t-182 -76.5t-154 -119t-119 -154.5
t-76.5 -182.5t-27 -202.5zM1647 467h-267l-245 446h-95v-446h-229v1085h442q66 0 130.5 -21t115.5 -61.5t83 -99t32 -133.5q0 -68 -18 -120.5t-49 -90.5t-71.5 -63t-86.5 -37zM1163 1122q39 0 79 1.5t72.5 12t53.5 35t21 70.5q0 35 -14 56t-37 32.5t-52.5 15t-60.5 3.5h-185
v-226h123zM143 1012q0 141 37 272t104 245.5t161 208.5t208.5 161t245.5 104t272 37t272.5 -37t246 -104t208.5 -161t161 -208.5t104 -245.5t37 -272t-37 -272.5t-104 -245.5t-161 -208t-208.5 -161t-246 -104t-272.5 -37t-272 37t-245.5 104t-208.5 161t-161 208t-104 245
t-37 273z" />
    <glyph glyph-name="guillemotright" unicode="&#xbb;" horiz-adv-x="1462" 
d="M729 221v381l270 262l-270 262v377l533 -516v-254zM205 221v381l270 262l-270 262v377l532 -516v-254z" />
    <glyph glyph-name="onequarter" unicode="&#xbc;" horiz-adv-x="2294" 
d="M1626 506h229v347zM1884 1266h242v-760h106v-227h-106v-279h-271v279h-479v205zM1733 2043h299l-1270 -2043h-299zM467 1654q-59 -34 -126.5 -46t-147.5 -12v226q70 1 123.5 12t92 36t63 67t36.5 106h233v-1266h-274v877z" />
    <glyph glyph-name="onehalf" unicode="&#xbd;" horiz-adv-x="2294" 
d="M1782 309q-19 -12 -31 -33t-18 -47h462v-229h-778q3 75 8.5 139t24.5 122.5t55 115.5t101 120l209 184q49 38 75.5 86.5t26.5 105.5q0 28 -5.5 52.5t-19 42.5t-36.5 28.5t-58 10.5q-34 0 -55 -16.5t-33 -45t-16 -67.5t-2 -84h-271v79q0 80 29 146t80.5 113.5t122 73.5
t153.5 26q94 0 168 -26.5t125 -74.5t78 -114t27 -144q0 -67 -15.5 -121.5t-44.5 -100.5t-70 -86.5t-92 -80.5zM467 1654q-59 -34 -126.5 -46t-147.5 -12v226q70 1 123.5 12t92 36t63 67t36.5 106h233v-1266h-274v877zM1656 2043h299l-1270 -2043h-299z" />
    <glyph glyph-name="threequarters" unicode="&#xbe;" horiz-adv-x="2294" 
d="M1622 506h229v347zM1880 1270h246v-764h106v-227h-106v-279h-275v279h-475v201zM434 1533q49 0 86 4t61.5 19.5t37 45.5t12.5 82q0 63 -21 96.5t-82 33.5q-38 0 -61.5 -13.5t-36 -36t-16.5 -53.5t-4 -65h-267q-2 83 21 155.5t71 126t122 84.5t175 31q82 0 153 -23.5
t123.5 -67.5t83 -106.5t30.5 -141.5q0 -81 -24 -144t-83 -111q65 -44 104 -117.5t39 -161.5q0 -94 -27.5 -170.5t-81.5 -130.5t-134.5 -83.5t-186.5 -29.5q-112 0 -192 30t-129.5 85.5t-69.5 133t-14 173.5h274q-8 -38 -2.5 -73t22.5 -62.5t46 -44t69 -16.5q72 0 106 43
t34 115q0 53 -8 90t-33 59.5t-72 31.5t-125 8v204zM1770 2043h299l-1270 -2043h-299z" />
    <glyph glyph-name="multiply" unicode="&#xd7;" horiz-adv-x="1614" 
d="M594 705q-121 139 -237.5 269.5t-237.5 266.5l233 213l455 -512l455 512l233 -213l-475 -536l475 -529l-238 -217l-450 504l-451 -508l-237 217z" />
    <glyph glyph-name="divide" unicode="&#xf7;" horiz-adv-x="1589" 
d="M164 868h1261v-323h-1261v323zM606 1249q0 39 14.5 72.5t39.5 58.5t58.5 39.5t72.5 14.5q38 0 71.5 -14.5t58.5 -39.5t39.5 -58.5t14.5 -72.5q0 -38 -14.5 -71.5t-39.5 -58.5t-58.5 -39.5t-71.5 -14.5q-39 0 -72.5 14.5t-58.5 39.5t-39.5 58.5t-14.5 71.5zM606 164
q0 38 14.5 71.5t39.5 58.5t58.5 39.5t72.5 14.5q38 0 71.5 -14.5t58.5 -39.5t39.5 -58.5t14.5 -71.5q0 -39 -14.5 -72.5t-39.5 -58t-58.5 -39t-71.5 -14.5q-39 0 -72.5 14.5t-58.5 39t-39.5 58t-14.5 72.5z" />
    <glyph glyph-name="uni0E00" unicode="&#xe00;" 
 />
    <glyph glyph-name="kokaithai" unicode="&#xe01;" horiz-adv-x="1593" 
d="M782 1790q132 0 252 -31.5t210.5 -95t144 -159t53.5 -222.5v-1282h-447v1221q0 54 -11 95t-35.5 69t-65.5 42.5t-101 14.5q-48 0 -84.5 -8.5t-66.5 -23t-55 -34t-48 -41.5q28 -28 49 -68.5t21 -99.5v-1167h-451v1155q0 25 -5 51.5t-17.5 50.5t-34 43.5t-53.5 30.5
q58 117 137.5 203t175 143t205 85t227.5 28z" />
    <glyph glyph-name="khokhaithai" unicode="&#xe02;" horiz-adv-x="1421" 
d="M991 0h-504l-290 1462h-152v307h545l147 -946l152 946h450z" />
    <glyph glyph-name="khokhuatthai" unicode="&#xe03;" horiz-adv-x="1528" 
d="M188 815q0 80 13 140.5t34.5 107t48.5 83.5t54.5 69.5t53.5 64t46 68.5q-40 -13 -90 -13q-25 0 -59.5 6.5t-71 23.5t-72 47.5t-63.5 78.5t-45 116.5t-17 161.5h328q0 -27 6.5 -53.5t19 -47.5t30 -33.5t38.5 -12.5q19 0 36 12t30.5 32.5t22 47t10.5 55.5h327v-323
q0 -66 -14.5 -117t-37.5 -94t-50.5 -81t-53.5 -78.5t-47 -87.5t-30 -107v-365q0 -49 7.5 -85t25.5 -60t48 -35.5t75 -11.5q44 0 72.5 11t45 34.5t23 59.5t6.5 87v1253h442v-1298q0 -83 -23 -152t-64 -124t-97.5 -96.5t-124 -69t-143 -41t-154.5 -13.5q-117 0 -223 31.5
t-186.5 93.5t-128.5 155t-48 216v344v0z" />
    <glyph glyph-name="khokhwaithai" unicode="&#xe04;" horiz-adv-x="1597" 
d="M922 754q-89 7 -151.5 -11t-101.5 -57.5t-57 -98.5t-18 -132v-455h-447v1282q0 121 52 216t141.5 159.5t208 98.5t250.5 34t250 -34t207.5 -98.5t141.5 -159.5t52 -216v-1282h-442v1229q0 45 -8.5 83.5t-31.5 67.5t-64 45.5t-105 16.5q-63 0 -103 -16t-62.5 -44.5
t-31 -67.5t-8.5 -85v-221q32 23 65.5 39t72.5 26t85 14t105 3v-336z" />
    <glyph glyph-name="khokhonthai" unicode="&#xe05;" horiz-adv-x="1626" 
d="M1479 1286v-1286h-447v1225q0 49 -4.5 84t-19.5 63l-131 -155q-31 -31 -69.5 -29.5t-66.5 29.5l-127 151q-12 -28 -16 -62.5t-4 -80.5v-217q32 23 66 39t73 26t85.5 14t103.5 3v-336q-89 7 -151.5 -11t-101.5 -57.5t-57 -98.5t-18 -132v-455h-447v1286q0 98 40 181.5
t109 148t162.5 107t200.5 59.5l152 -164l152 164q109 -18 203 -61t163.5 -107t109.5 -147t40 -181z" />
    <glyph glyph-name="khorakhangthai" unicode="&#xe06;" horiz-adv-x="1597" 
d="M209 815q0 81 9 135.5t26 94.5t41 70t53.5 61.5t64 70.5t72.5 96q-9 -3 -18.5 -5.5t-22.5 -2.5q-24 0 -60.5 5t-76.5 20.5t-79 44.5t-69.5 77t-47 118.5t-11.5 168.5h311q0 -27 5.5 -53.5t16 -47.5t25.5 -33.5t35 -12.5t35.5 11.5t26 31.5t16.5 47t8 57h320v-323
q0 -66 -18.5 -117t-46 -94.5t-60.5 -82t-62 -79.5t-50 -87.5t-25 -104.5v-213q0 -31 6.5 -67.5t19.5 -74t32.5 -72.5t45.5 -62t58 -43.5t71 -16.5q49 0 81.5 12t51.5 35.5t27 57.5t8 79v1253h418v-1286q0 -131 -36.5 -225t-101 -155t-153 -90t-192.5 -29q-59 0 -109 14.5
t-92 38.5t-77 56t-62 67v-160h-414v815z" />
    <glyph glyph-name="ngonguthai" unicode="&#xe07;" horiz-adv-x="1290" 
d="M676 352h20v1069h-180v348h627v-1376q0 -201 -100 -307t-289 -106q-86 0 -158 13t-129 43t-98 78t-66 119l-307 861h442z" />
    <glyph glyph-name="chochanthai" unicode="&#xe08;" horiz-adv-x="1413" 
d="M111 1225q9 121 54 224.5t122.5 179t186 118.5t243.5 43q69 0 143 -13.5t142.5 -44.5t128.5 -81t102 -122.5t61.5 -170t8.5 -223.5q-5 -53 -16.5 -111t-29.5 -127.5t-44 -155t-60 -194t-77.5 -243.5t-96.5 -304h-434l-238 758h-135v307h459l65 -234l49 -200l37 192
l66 283q17 72 17.5 133.5t-17 106.5t-53 70.5t-90.5 25.5q-92 0 -137.5 -53.5t-63.5 -163.5h-393z" />
    <glyph glyph-name="chochingthai" unicode="&#xe09;" horiz-adv-x="1548" 
d="M963 1212q0 55 -10 97.5t-33.5 71t-61 43t-92.5 14.5q-52 0 -87.5 -12t-58.5 -37t-36 -63.5t-19 -92.5h-442q0 93 26 170.5t71.5 139t107.5 107t135 76t153 45.5t162 15q123 0 235.5 -35t199 -102.5t137.5 -167t51 -228.5v-1253h-414v164q-80 -90 -165.5 -135t-190.5 -45
t-193.5 27.5t-153 84.5t-101 145t-36.5 210v585h443v-499q0 -51 4 -89.5t18 -64t41.5 -38.5t75.5 -13q111 0 170.5 81t63.5 226v573z" />
    <glyph glyph-name="chochangthai" unicode="&#xe0a;" horiz-adv-x="1462" 
d="M762 1417q52 11 88 35t58 66t32 103.5t10 147.5h398q0 -87 -5.5 -158t-24.5 -129t-54 -105t-93 -87q57 -32 87 -73t43.5 -85t15.5 -89t2 -85v-466q0 -132 -49 -228t-129.5 -158.5t-184.5 -92t-215 -29.5q-115 0 -219.5 30.5t-184 93t-126.5 158t-47 226.5v368
q0 88 4 147.5t17.5 106.5t40.5 88t73 92q18 22 38 42t36 37.5t26.5 33t10.5 27.5q0 27 -18.5 38t-43.5 11q-32 0 -65 -6t-64.5 -16t-61 -21.5t-55.5 -22.5v324q121 28 201.5 32.5t114.5 4.5q166 0 255 -87.5t89 -244.5v-29zM872 954q0 57 -10 97.5t-32 67.5t-58 41.5
t-88 19.5q-14 -29 -27.5 -59.5t-24 -63.5t-18 -69.5t-8.5 -78.5v-372q0 -46 6.5 -83t22.5 -63.5t42 -40.5t64 -14q39 0 64 14t40 40.5t21 63.5t6 83v417z" />
    <glyph glyph-name="sosothai" unicode="&#xe0b;" horiz-adv-x="1544" 
d="M242 815q0 59 2 102t7 76t14.5 59.5t25 52.5t37.5 55.5t53 68.5q21 24 35 40.5t24 30t16.5 26.5t14.5 30q-15 -13 -35.5 -17t-29.5 -4q-22 0 -54 7.5t-67.5 26.5t-71 51t-64 80t-46 114.5t-17.5 154.5h320q0 -27 4.5 -53.5t13 -47.5t21.5 -33.5t30 -12.5q20 0 36 12.5
t27 33.5t17 47.5t6 53.5h324v-278q0 -56 -13 -102q89 34 124.5 127t35.5 253h398q0 -87 -6.5 -163.5t-26 -141.5t-56 -118t-96.5 -93q58 -31 89.5 -72t45 -86.5t15.5 -91t2 -85.5v-426q0 -132 -49 -228t-129.5 -158.5t-184.5 -92t-215 -29.5q-115 0 -219.5 30.5t-184 93
t-126.5 158t-47 226.5v323zM954 913q0 55 -9 96.5t-30 70t-55.5 45t-85.5 22.5q-37 -68 -63.5 -133.5t-26.5 -136.5v-340q0 -46 7.5 -84t23.5 -65t41.5 -41.5t62.5 -14.5q39 0 64.5 14.5t41.5 41.5t22.5 65t6.5 84v376z" />
    <glyph glyph-name="chochoethai" unicode="&#xe0c;" horiz-adv-x="2396" 
d="M1016 1245q0 95 -53.5 144t-176.5 49q-86 0 -152.5 -30t-113.5 -77q34 -34 48 -73.5t14 -98.5v-823h172v-336h-619v1176q0 24 -6.5 48t-21 44.5t-37 35.5t-54.5 23q60 118 144.5 204.5t185 143t213 84t227.5 27.5q89 0 174 -15t160 -44t138 -72.5t108 -100.5t70.5 -127
t25.5 -153v-565q0 -59 8.5 -123t32.5 -118t66 -89t110 -35q62 0 90.5 36.5t28.5 123.5v1265h447v-1286q0 -121 -33 -212.5t-92.5 -152.5t-142.5 -91.5t-183 -30.5q-105 0 -187 40t-153 124v-160h-438v1245z" />
    <glyph glyph-name="yoyingthai" unicode="&#xe0d;" horiz-adv-x="2413" 
d="M2261 61q0 -138 -34.5 -260t-110.5 -213.5t-195.5 -144.5t-290.5 -53q-70 0 -139 13t-133.5 40t-121 67.5t-100.5 96t-73.5 126t-38.5 156.5h385q8 -51 29.5 -87t51.5 -59.5t65.5 -34.5t70.5 -11q77 0 119 25t62 64t24 87t4 94v135q-32 -26 -65 -45.5t-68.5 -33
t-75.5 -20.5t-86 -7q-59 0 -120.5 12t-118.5 37t-107.5 63t-88 90t-59.5 118t-22 147v782q0 92 -53.5 142.5t-175.5 50.5q-95 0 -160 -30.5t-111 -76.5q28 -31 43 -71.5t15 -96.5v-827h176v-336h-619v1184q0 49 -25 87.5t-89 59.5q60 117 142 203t181 143t212 85t235 28
q132 0 254 -32.5t215.5 -98.5t149.5 -166.5t56 -235.5v-708q0 -49 6 -87t22.5 -64.5t46 -40t77.5 -13.5q61 0 99 24.5t59 65.5t28 93t7 108v1134h446v-1708z" />
    <glyph glyph-name="dochadathai" unicode="&#xe0e;" horiz-adv-x="1667" 
d="M864 -127q56 0 109 -10.5t96 -26.5v1405q0 42 -11.5 78t-38.5 62.5t-71 41.5t-108 15q-49 0 -87.5 -8t-69.5 -22.5t-56.5 -34t-48.5 -42.5q30 -31 47.5 -73.5t17.5 -98.5v-1159h-577v336h131v848q0 46 -30.5 83.5t-92.5 59.5q58 118 141.5 204.5t184 143t212.5 84
t228 27.5q85 0 168 -14t158 -42t139.5 -71.5t111 -102t73 -133.5t26.5 -166v-1830h-357q-17 27 -41.5 54t-60 48.5t-83 35t-110.5 13.5t-119.5 -16t-107.5 -45t-97 -68.5t-89 -87.5v336q29 28 73 59t98 57t115.5 43t126.5 17z" />
    <glyph glyph-name="topatakthai" unicode="&#xe0f;" horiz-adv-x="1667" 
d="M1069 1241q0 42 -11.5 78t-38.5 62.5t-71 41.5t-108 15q-49 0 -87.5 -8t-69.5 -22.5t-56.5 -34t-48.5 -42.5q30 -31 47.5 -73.5t17.5 -98.5v-1159h-577v336h131v848q0 46 -30.5 83.5t-92.5 59.5q58 118 141.5 204.5t184 143t212.5 84t228 27.5q85 0 168 -14t158 -42
t139.5 -71.5t111 -102t73 -133.5t26.5 -166v-1830h-410q-3 29 -12 57.5t-23.5 51t-34.5 36.5t-45 14q-23 0 -41.5 -13.5t-32 -35.5t-21 -51t-7.5 -59h-266q0 32 -5 62t-16.5 53.5t-29.5 37.5t-44 14q-23 0 -40.5 -16.5t-29.5 -41t-18 -54t-6 -55.5h-315q0 117 31.5 202.5
t84 141.5t121.5 83t144 27q74 0 140 -31.5t110 -87.5q46 56 93.5 81.5t106.5 25.5q37 0 65.5 -8.5t53.5 -24.5v1405z" />
    <glyph glyph-name="thothanthai" unicode="&#xe10;" horiz-adv-x="1446" 
d="M496 -635q0 25 -3.5 49t-11 43t-20.5 31t-31 12q-17 0 -30 -10.5t-22 -29t-13.5 -43t-4.5 -52.5h-315q-4 86 10.5 150t41.5 110t62.5 76t72.5 47t73 24t64 7q62 0 115 -25t81 -65q66 90 148 90q34 0 68.5 -13.5t62.5 -44.5v152h360v-508h-356q0 68 -21.5 101.5
t-52.5 33.5q-18 0 -30 -11.5t-19 -30t-9.5 -43t-2.5 -50.5h-217zM74 1225q9 121 56.5 224.5t129.5 179t197.5 118.5t259.5 43q43 0 90.5 -5.5t93.5 -15.5q31 25 50.5 58.5t19.5 64.5h434q-3 -43 -16 -87.5t-35 -87t-52.5 -79.5t-68.5 -65q62 -78 90.5 -185.5t15.5 -252.5
q-5 -53 -15.5 -111t-28.5 -127.5t-43.5 -155t-60.5 -194t-80.5 -243.5t-102.5 -304h-488l-237 758h-144v307h488l135 -455q34 133 64.5 254t58.5 242q17 72 12.5 133.5t-27.5 106.5t-65 70.5t-100 25.5q-99 0 -147 -53.5t-66 -163.5h-418z" />
    <glyph glyph-name="thonangmonthothai" unicode="&#xe11;" horiz-adv-x="1663" 
d="M885 1663q68 65 151 98t172 33q63 0 118 -19.5t96.5 -62t65 -110t23.5 -164.5v-1438h-442v1335q0 24 -7 30t-18.5 0t-25.5 -20t-27.5 -31t-25.5 -34t-19 -27q-32 -43 -62.5 -91.5t-59 -98t-54.5 -97.5t-49 -89q-31 -53 -38 -100.5t-7 -96.5v-680h-438v639q0 108 32.5 206
t82 188t107.5 173.5t109 161.5q-28 -15 -65 -24t-62 -9t-61 5t-76 21t-79 45t-69.5 77.5t-47 118.5t-11.5 167h303q0 -27 6 -53.5t17 -47.5t27 -33.5t36 -12.5q19 0 34 11.5t26 31.5t17.5 47t8.5 57h312v-106z" />
    <glyph glyph-name="thophuthaothai" unicode="&#xe12;" horiz-adv-x="2544" 
d="M152 1282q0 98 48 181t127 147t180.5 107t209.5 61l176 -164l176 164q114 -17 215.5 -59t178.5 -106t122 -147.5t45 -183.5v-573q0 -38 3.5 -80t12.5 -83t23.5 -78.5t37.5 -65.5t54.5 -45t73.5 -17q34 0 55.5 9.5t34 30t17 52t4.5 76.5v1261h446v-1273
q0 -122 -32.5 -215.5t-92 -158t-143.5 -97.5t-187 -33q-96 0 -179 40t-148 124v-156h-422v811l-656 -811h-380v1282zM1188 1245q0 29 -1.5 52.5t-6.5 43t-16 36.5t-29 32l-172 -168q-31 -31 -69.5 -30.5t-70.5 30.5l-176 164q-18 -17 -28 -33.5t-14.5 -35.5t-5.5 -41t-1 -50
v-685l201 247h-111v270h500v168z" />
    <glyph glyph-name="nonenthai" unicode="&#xe13;" horiz-adv-x="2396" 
d="M1020 1257q0 93 -55 137t-166 44q-78 0 -145 -30t-113 -77q14 -15 25 -31t19 -35t12.5 -42t4.5 -52v-835h160v-336h-606v1171q0 23 -6 47t-19 45t-34 38t-52 26q58 118 142.5 204.5t184 143t209 84t218.5 27.5q82 0 163 -15t154.5 -43.5t136.5 -70.5t109.5 -96.5
t73 -121.5t26.5 -145v-786q0 -90 29 -129t94 -39q72 0 114 34t63.5 87.5t27.5 119t8 128.5v1060h447v-1769h-443v160q-68 -78 -148.5 -123t-170.5 -45q-108 0 -193.5 27.5t-145.5 86.5t-92 150t-32 219v782z" />
    <glyph glyph-name="dodekthai" unicode="&#xe14;" horiz-adv-x="1753" 
d="M1155 0v840l-631 -840h-372v1241q0 130 59 232.5t158.5 172.5t229.5 107t273 37q94 0 185 -16t172 -48t149.5 -78.5t118 -107.5t77.5 -136t28 -163v-1241h-447zM1155 1200q0 48 -15.5 91.5t-49 77t-87.5 53.5t-131 20q-75 0 -127 -20t-85 -53.5t-47.5 -77t-14.5 -91.5
v-611l172 226h-98v258h483v127z" />
    <glyph glyph-name="totaothai" unicode="&#xe15;" horiz-adv-x="1753" 
d="M1155 0v840l-631 -840h-372v1278q0 101 46.5 187.5t124 153t177 110.5t205.5 61l172 -160l172 160q110 -15 210.5 -59t176.5 -111t121 -154t45 -188v-1278h-447zM598 586l172 229h-98v258h483v197q0 29 -1.5 50.5t-6.5 39t-14.5 33t-26.5 32.5l-164 -168q-67 -69 -135 0
l-160 164q-18 -17 -28 -32.5t-14.5 -32.5t-5.5 -38t-1 -48v-684z" />
    <glyph glyph-name="thothungthai" unicode="&#xe16;" horiz-adv-x="1593" 
d="M147 0v1167q0 25 -5.5 49.5t-18.5 46.5t-34 39.5t-52 28.5q58 117 140.5 203t180 143t205.5 85t219 28q78 0 157 -13.5t152.5 -41t137.5 -68.5t111.5 -95.5t74.5 -123t27 -150.5v-1298h-447v1245q0 46 -11.5 82.5t-36.5 62t-66 39t-99 13.5q-48 0 -84 -8.5t-65.5 -23
t-53.5 -34t-47 -41.5q62 -68 62 -151v-852h147v-332h-594z" />
    <glyph glyph-name="thothahanthai" unicode="&#xe17;" horiz-adv-x="1585" 
d="M573 1585q34 51 83 89t104 64t113 39t110 13q103 0 186 -28t142 -86t91 -147t32 -210v-1319h-447v1262q0 40 -10 73t-31.5 57t-56.5 37t-86 13q-102 0 -153.5 -68.5t-51.5 -214.5v-1159h-446v1769h421v-184z" />
    <glyph glyph-name="thothongthai" unicode="&#xe18;" horiz-adv-x="1516" 
d="M967 1262q-10 108 -69 156t-161 48q-45 0 -78 -11.5t-54.5 -30.5t-32.5 -42t-11 -46q0 -31 14.5 -54t46 -41.5t81 -35.5t118.5 -36q88 -24 163 -46t136 -49t107.5 -61.5t77.5 -82.5t47 -113t16 -153v-181q0 -81 -25 -149t-68.5 -123t-102.5 -96.5t-126.5 -70t-141 -42.5
t-146.5 -14q-74 0 -148 14t-142.5 42.5t-127.5 70t-103 96.5t-69 123t-25 149v418h388q-81 25 -152.5 57t-124.5 80.5t-84 119.5t-31 174q0 64 20 122.5t57 109.5t89.5 92.5t117 71t140 46t158.5 16.5q132 0 245.5 -32t198 -97t135 -164.5t56.5 -234.5h-389zM590 883v-363
q0 -101 42.5 -142.5t125.5 -41.5q86 0 129 42.5t43 141.5v131q0 57 -27 93t-69 59.5t-93.5 37.5t-99.5 28z" />
    <glyph glyph-name="nonuthai" unicode="&#xe19;" horiz-adv-x="1585" 
d="M1012 184q-34 -51 -82.5 -89t-104 -63.5t-113.5 -38.5t-110 -13q-103 0 -186 28t-141.5 86t-90.5 146.5t-32 210.5v1318h446v-1261q0 -40 10 -73t31.5 -57t56.5 -37t86 -13q103 0 154 68.5t51 213.5v1159h447v-1769h-422v184z" />
    <glyph glyph-name="bobaimaithai" unicode="&#xe1a;" horiz-adv-x="1585" 
d="M795 -16q-83 0 -163 14t-151.5 42.5t-131.5 71t-104 100t-68.5 129.5t-24.5 159v1269h446v-1257q0 -90 50.5 -129t146.5 -39q93 0 142.5 39t49.5 129v1257h447v-1269q0 -132 -51 -229.5t-138 -161t-203.5 -94.5t-246.5 -31z" />
    <glyph glyph-name="poplathai" unicode="&#xe1b;" horiz-adv-x="1585" 
d="M795 -16q-83 0 -163 14t-151.5 42.5t-131.5 71t-104 100t-68.5 129.5t-24.5 159v1269h446v-1257q0 -90 50.5 -129t146.5 -39q93 0 142.5 39t49.5 129v1913h447v-1925q0 -132 -51 -229.5t-138 -161t-203.5 -94.5t-246.5 -31z" />
    <glyph glyph-name="phophungthai" unicode="&#xe1c;" horiz-adv-x="1753" 
d="M152 1769h589v-348h-143v-913q0 -98 14.5 -137t42.5 -39q15 0 27 8t19.5 27t11.5 51.5t4 81.5v540h319v-540q0 -51 5 -83.5t13.5 -51t20 -26t23.5 -7.5q15 0 26 9t18 30t10 54.5t3 82.5v1261h447v-1323q0 -120 -34.5 -207t-93 -143.5t-135.5 -84t-163 -27.5
q-100 0 -175 35t-124 100q-47 -65 -117.5 -100t-169.5 -35q-89 0 -168.5 27.5t-139.5 84t-95 143.5t-35 207v1323z" />
    <glyph glyph-name="fofathai" unicode="&#xe1d;" horiz-adv-x="1753" 
d="M152 1769h589v-348h-143v-913q0 -98 14.5 -137t42.5 -39q15 0 27 8.5t19.5 28t11.5 51.5t4 80v540h319v-544q0 -51 5 -83t13.5 -50t20 -24.5t23.5 -6.5q15 0 26 9t18 30t10 54.5t3 82.5v1917h447v-1979q0 -120 -34.5 -207t-93 -143.5t-135.5 -84t-163 -27.5
q-100 0 -175 35t-124 100q-47 -65 -117.5 -100t-169.5 -35q-89 0 -168.5 27.5t-139.5 84t-95 143.5t-35 207v1323z" />
    <glyph glyph-name="phophanthai" unicode="&#xe1e;" horiz-adv-x="2036" 
d="M532 1769l140 -864l184 864h332l176 -860l143 860h467l-323 -1769h-365l-266 1044l-266 -1044h-365l-323 1769h466z" />
    <glyph glyph-name="fofanthai" unicode="&#xe1f;" horiz-adv-x="2036" 
d="M532 1769l140 -864l184 864h332l176 -860l258 1520h467l-438 -2429h-365l-266 1044l-266 -1044h-365l-323 1769h466z" />
    <glyph glyph-name="phosamphaothai" unicode="&#xe20;" horiz-adv-x="1622" 
d="M1024 1245q0 46 -9.5 82.5t-33 62t-63 39t-99.5 13.5q-46 0 -82.5 -8t-65.5 -22.5t-52 -34t-41 -42.5q15 -15 26 -29.5t17.5 -31.5t10 -37.5t3.5 -48.5v-1188h-569v332h131v839q0 25 -7 49.5t-21.5 46t-36 38.5t-50.5 26q57 117 135.5 203t173 143t203 85t225.5 28
q83 0 163.5 -14.5t153 -43t133.5 -71.5t106 -100.5t70 -129t25 -157.5v-1274h-446v1245z" />
    <glyph glyph-name="momathai" unicode="&#xe21;" horiz-adv-x="1585" 
d="M573 0h-421v1769h446v-1159q0 -145 51.5 -213.5t153.5 -68.5q51 0 86 13t56.5 37t31.5 57t10 73v1261h447v-1318q0 -122 -32 -210.5t-91 -146.5t-142 -86t-186 -28q-52 0 -110 13t-113 38.5t-104 63.5t-83 89v-184z" />
    <glyph glyph-name="yoyakthai" unicode="&#xe22;" horiz-adv-x="1548" 
d="M111 1327q0 90 22 158t59.5 117t87 81.5t105.5 51.5t115 26.5t114 7.5h213v-327h-110q-29 0 -58 -10.5t-51.5 -30t-36.5 -46.5t-14 -61q0 -52 11.5 -87.5t34.5 -57.5t57.5 -33t80.5 -14h90v-279h-90q-49 -3 -84 -17t-57 -45.5t-32.5 -85t-10.5 -134.5q0 -106 53.5 -161.5
t155.5 -55.5q55 0 91.5 15.5t58 44.5t30 69.5t8.5 91.5v1224h443v-1261q0 -126 -44.5 -225t-126.5 -167.5t-199 -104.5t-261 -36q-137 0 -257 35t-209.5 105t-141.5 173t-52 240q0 54 7 113t26 117t53.5 110.5t90.5 94.5q-51 34 -84.5 77.5t-53 92t-27 98.5t-7.5 96z" />
    <glyph glyph-name="roruathai" unicode="&#xe23;" horiz-adv-x="1294" 
d="M780 1188q0 143 -30 210.5t-108 67.5q-34 0 -59.5 -13t-42 -34.5t-25 -51t-8.5 -62.5q0 -44 15.5 -75t41 -53.5t59.5 -39.5t70 -33q55 -22 115.5 -46.5t119 -56t111 -72.5t92.5 -95t63.5 -123.5t23.5 -158.5q0 -132 -42 -238t-118.5 -180t-183 -113.5t-235.5 -39.5
q-131 0 -237.5 35t-182 113t-117 203t-42.5 304h415q-5 -41 -3 -78q2 -53 14.5 -96.5t34 -75t51.5 -49t67 -17.5q39 0 70 9t53.5 29.5t34.5 54t12 82.5q0 43 -22.5 80t-58.5 67t-81.5 54.5t-90.5 43.5q-60 24 -117.5 50.5t-108.5 59.5t-94 74t-73.5 95t-48 121.5
t-17.5 153.5q0 119 41.5 212t114 157.5t170.5 98.5t211 34q115 0 213 -35.5t169.5 -110t111 -189t38.5 -273.5h-386z" />
    <glyph glyph-name="ruthai" unicode="&#xe24;" horiz-adv-x="1585" 
d="M147 0v1167q0 25 -5.5 49.5t-18.5 46.5t-34 39.5t-52 28.5q58 117 140.5 203t180 143t205.5 85t219 28q78 0 157 -13.5t152.5 -41t137.5 -68.5t111.5 -95.5t74.5 -123t27 -150.5v-1871h-447v1818q0 46 -11.5 82.5t-36.5 62t-66 39t-99 13.5q-48 0 -84 -8.5t-65.5 -23
t-53.5 -34t-47 -41.5q62 -68 62 -151v-852h147v-332h-594z" />
    <glyph glyph-name="lolingthai" unicode="&#xe25;" horiz-adv-x="1548" 
d="M958 747q-39 0 -86 -4.5t-95 -16t-92.5 -31.5t-79.5 -50.5t-56 -72.5t-21 -98q0 -33 8.5 -63.5t29 -53.5t54.5 -36.5t85 -13.5q24 0 55.5 9.5t75.5 31.5v-307q-50 -28 -100 -40.5t-93 -12.5q-135 0 -239.5 32.5t-176 96.5t-108.5 157.5t-37 216.5q0 108 32 194t90 151.5
t139 111.5t178 75.5t208 42.5t229 13v193q0 46 -15 79.5t-40.5 55t-59 31.5t-69.5 10q-115 0 -170 -62t-55 -190h-426q3 103 30 187t73.5 150t109 113.5t137 78.5t158.5 46t172 15q119 0 210 -23.5t157 -62.5t110.5 -90.5t71.5 -108.5t38 -115t11 -110v-1276h-443v747z" />
    <glyph glyph-name="luthai" unicode="&#xe26;" horiz-adv-x="1622" 
d="M1024 1245q0 46 -9.5 82.5t-33 62t-63 39t-99.5 13.5q-46 0 -82.5 -8t-65.5 -22.5t-52 -34t-41 -42.5q15 -15 26 -29.5t17.5 -31.5t10 -37.5t3.5 -48.5v-1188h-569v332h131v839q0 25 -7 49.5t-21.5 46t-36 38.5t-50.5 26q57 117 135.5 203t173 143t203 85t225.5 28
q83 0 163.5 -14.5t153 -43t133.5 -71.5t106 -100.5t70 -129t25 -157.5v-1847h-446v1818z" />
    <glyph glyph-name="wowaenthai" unicode="&#xe27;" horiz-adv-x="1417" 
d="M647 328q52 0 86.5 45t55.5 120.5t29.5 175t8.5 208.5q0 57 -3 121t-10.5 126.5t-21 119t-35 100t-51.5 69t-71 25.5q-52 0 -88.5 -31.5t-59.5 -82.5t-33 -115t-8 -128h-405q0 140 40.5 267.5t118 225t190.5 155t257 57.5q90 0 173 -19t154.5 -62t129.5 -112.5
t99.5 -170.5t64 -236t22.5 -309q0 -91 -12 -193t-40.5 -201.5t-76 -190.5t-118 -160.5t-166.5 -110.5t-222 -41q-131 0 -233.5 41.5t-178 114t-123 172t-67.5 216.5h426q16 -99 56.5 -147.5t111.5 -48.5z" />
    <glyph glyph-name="sosalathai" unicode="&#xe28;" horiz-adv-x="1602" 
d="M922 754q-89 7 -151.5 -11t-101.5 -57.5t-57 -98.5t-18 -132v-455h-447v1282q0 121 52 216t141.5 159.5t208 98.5t250.5 34q68 0 131.5 -9t122.5 -28q17 12 28 29.5t17.5 37t9 38.5t2.5 34h430q-2 -43 -12.5 -89.5t-32 -91.5t-54 -87t-77.5 -76q40 -55 63 -122t23 -144
v-1282h-442v1229q0 45 -8.5 83.5t-31.5 67.5t-64 45.5t-105 16.5q-63 0 -103 -16t-62.5 -44.5t-31 -67.5t-8.5 -85v-221q32 23 65.5 39t72.5 26t85 14t105 3v-336z" />
    <glyph glyph-name="sorusithai" unicode="&#xe29;" horiz-adv-x="1626" 
d="M819 -16q-83 0 -164.5 15.5t-156 46t-137.5 76t-109.5 105t-73 133t-26.5 160.5v1249h446v-1237q0 -44 15.5 -81t44.5 -63.5t69.5 -41t91.5 -14.5q105 0 161 50.5t56 149.5v304h-364v430h291v-140h73v643h447v-643h110v-290h-110v-316q0 -132 -55.5 -232.5t-147.5 -168
t-212 -101.5t-249 -34z" />
    <glyph glyph-name="sosuathai" unicode="&#xe2a;" horiz-adv-x="1556" 
d="M958 747q-39 0 -86 -4.5t-95 -16t-92.5 -31.5t-79.5 -50.5t-56 -72.5t-21 -98q0 -33 8.5 -63.5t29 -53.5t54.5 -36.5t85 -13.5q24 0 55.5 9.5t75.5 31.5v-307q-50 -28 -100 -40.5t-93 -12.5q-135 0 -239.5 32.5t-176 96.5t-108.5 157.5t-37 216.5q0 108 32 194t90 151.5
t139 111.5t178 75.5t208 42.5t229 13v189q0 46 -15 80t-40.5 56t-58.5 33t-70 11q-107 1 -165 -58.5t-60 -193.5h-426q3 103 30 187t73.5 150t109 113.5t137 78.5t158.5 46t172 15q65 0 122.5 -8t106.5 -21q14 12 23.5 29.5t15 36t8 36t2.5 29.5h410q-2 -41 -13 -85.5
t-33 -87.5t-54 -81.5t-75 -67.5q46 -71 65.5 -143.5t19.5 -140.5v-1282h-443v747z" />
    <glyph glyph-name="hohipthai" unicode="&#xe2b;" horiz-adv-x="1602" 
d="M598 1769v-454l459 454h483l-360 -352q66 -41 116.5 -98t84.5 -126.5t51.5 -150.5t17.5 -170v-872h-451v905q0 78 -21 135.5t-77 98.5l-303 -299v-840h-446v1769h446z" />
    <glyph glyph-name="lochulathai" unicode="&#xe2c;" horiz-adv-x="1937" 
d="M1561 0h-385l-238 791l-233 -791h-381l-258 1769h462l107 -987l156 656h303l159 -693l62 443q9 61 18.5 116t3 96t-38.5 66.5t-106 28.5l-45 266q77 1 143.5 17.5t117.5 47.5t83.5 77t40.5 108h459q-12 -87 -39 -157.5t-64 -123.5t-82 -90.5t-94 -58.5q28 -35 45 -71
t24.5 -75.5t6.5 -84.5t-10 -97z" />
    <glyph glyph-name="oangthai" unicode="&#xe2d;" horiz-adv-x="1606" 
d="M152 1245q30 135 90 236t144 168t188.5 100t224.5 33q164 0 289.5 -57.5t210 -165.5t128 -263t43.5 -350q0 -187 -23 -332t-65.5 -253t-102.5 -181.5t-134.5 -119t-162 -65.5t-183.5 -20q-94 0 -180.5 19.5t-160.5 64.5t-134.5 118t-103 180t-66 251t-23.5 330v135h643
v-299h-201q3 -109 15.5 -193t38 -141t67.5 -86.5t105 -29.5q70 0 114 37t69 107.5t33.5 171t8.5 228.5q0 166 -14.5 275.5t-43 174t-70.5 90.5t-97 26q-37 0 -70.5 -7t-62.5 -27.5t-52.5 -57.5t-40.5 -97h-421z" />
    <glyph glyph-name="honokhukthai" unicode="&#xe2e;" horiz-adv-x="1606" 
d="M152 1245q30 135 90 236t144 168t188.5 100t224.5 33q68 0 128.5 -10t112.5 -31q14 14 24 32t17 37.5t10 37.5t3 32h409q-2 -45 -14 -93t-36 -93.5t-60.5 -84.5t-85.5 -65q80 -108 121.5 -258.5t41.5 -339.5q0 -187 -23 -332t-65.5 -253t-102.5 -181.5t-134.5 -119
t-162 -65.5t-183.5 -20q-94 0 -180.5 19.5t-160.5 64.5t-134.5 118t-103 180t-66 251t-23.5 330v135h643v-299h-201q3 -109 15.5 -193t38 -141t67.5 -86.5t105 -29.5q70 0 114 37t69 107.5t33.5 171t8.5 228.5q0 166 -14.5 275.5t-43 174t-70.5 90.5t-97 26q-37 0 -70.5 -7
t-62.5 -27.5t-52.5 -57.5t-40.5 -97h-421z" />
    <glyph glyph-name="paiyannoithai" unicode="&#xe2f;" horiz-adv-x="1643" 
d="M1049 0v926q-27 -23 -64 -40t-76.5 -28t-78.5 -16.5t-71 -5.5q-151 0 -269.5 33t-200.5 96.5t-125.5 155.5t-43.5 210q0 87 26 153.5t69 115t99.5 81t117.5 52t122 28t114 8.5h201v-299h-131q-23 0 -52.5 -6.5t-56 -23t-45 -44t-18.5 -69.5q0 -32 9.5 -64.5t32.5 -58
t61.5 -41.5t97.5 -16q75 0 128.5 15.5t87.5 45t50 72t16 96.5v393h443v-1769h-443z" />
    <glyph glyph-name="saraathai" unicode="&#xe30;" horiz-adv-x="1032" 
d="M913 1118h-782v504h361v-180h421v-324zM913 205h-782v504h361v-181h421v-323z" />
    <glyph glyph-name="maihanakatthai" unicode="&#xe31;" 
d="M131 2003h-1143v487h365v-159h778v-328z" />
    <glyph glyph-name="saraaathai" unicode="&#xe32;" horiz-adv-x="1343" 
d="M29 1188q0 150 49.5 263t132.5 188.5t191 113t225 37.5q109 0 211.5 -29.5t182 -91t127.5 -156.5t48 -227v-1286h-446v1257q0 102 -34 143.5t-102 41.5q-74 0 -111 -66.5t-40 -187.5h-434z" />
    <glyph glyph-name="saraamthai" unicode="&#xe33;" horiz-adv-x="1343" 
d="M-492 2245q0 -22 8.5 -41.5t23.5 -34t34.5 -23t40.5 -8.5q23 0 43 8.5t35 23t24 34t9 41.5q0 23 -9 43t-24 35t-35 23.5t-43 8.5q-21 0 -40.5 -8.5t-34.5 -23.5t-23.5 -35t-8.5 -43zM-713 2245q0 69 26 129.5t70.5 105t104 70.5t127.5 26q69 0 129.5 -26t105.5 -70.5
t71 -105t26 -129.5q0 -68 -26 -127.5t-71 -104t-105.5 -70.5t-129.5 -26q-68 0 -127.5 26t-104 70.5t-70.5 104t-26 127.5zM29 1188q0 150 49.5 263t132.5 188.5t191 113t225 37.5q109 0 211.5 -29.5t182 -91t127.5 -156.5t48 -227v-1286h-446v1257q0 102 -34 143.5
t-102 41.5q-74 0 -111 -66.5t-40 -187.5h-434z" />
    <glyph glyph-name="saraithai" unicode="&#xe34;" 
d="M-1356 2314h1204v-327h-1347z" />
    <glyph glyph-name="saraiithai" unicode="&#xe35;" 
d="M-1356 2314h844v213h360v-540h-1347z" />
    <glyph glyph-name="sarauethai" unicode="&#xe36;" 
d="M-496 2269q0 -37 26.5 -63.5t63.5 -26.5q38 0 64.5 26.5t26.5 63.5t-26.5 63.5t-64.5 26.5q-37 0 -63.5 -26.5t-26.5 -63.5zM-1356 2314h668q7 51 32.5 95.5t63.5 78t86 53t100 19.5q58 0 110.5 -23t91.5 -62t62 -91.5t23 -110.5t-23 -110t-62 -91t-91.5 -62t-110.5 -23
h-1093z" />
    <glyph glyph-name="saraueethai" unicode="&#xe37;" 
d="M-1356 2314h520v213h287v-213h111v213h286v-540h-1347z" />
    <glyph glyph-name="sarauthai" unicode="&#xe38;" 
d="M-512 -913v385h-180v307h540v-692h-360z" />
    <glyph glyph-name="sarauuthai" unicode="&#xe39;" 
d="M-1188 -221h483v-361q0 -127 103 -127q53 0 77.5 31t24.5 96v361h353v-361q-2 -80 -30.5 -152t-85 -126.5t-141 -86.5t-198.5 -32t-198.5 32t-141 86.5t-85.5 126.5t-30 152v95h-131v266z" />
    <glyph glyph-name="phinthuthai" unicode="&#xe3a;" 
d="M-632 -474q0 51 19.5 96.5t53.5 79.5t79.5 53.5t96.5 19.5t96.5 -19.5t79.5 -53.5t53.5 -79.5t19.5 -96.5t-19.5 -96.5t-53.5 -79.5t-79.5 -53.5t-96.5 -19.5t-96.5 19.5t-79.5 53.5t-53.5 79.5t-19.5 96.5z" />
    <glyph glyph-name="PUCR2005" unicode="&#xe3e;" 
 />
    <glyph glyph-name="bahtthai" unicode="&#xe3f;" horiz-adv-x="1737" 
d="M1245 613q0 77 -19 128t-52 83t-77 49t-93 25v-577q126 11 183.5 81.5t57.5 210.5zM747 321v585h-198v-585h198zM549 1218h198v501h-198v-501zM1180 1482q0 50 -9.5 87t-30.5 64t-54.5 45t-81.5 29v-474q41 9 74 27t55.5 48t34.5 72.5t12 101.5zM1004 2043
q149 -3 263.5 -44t192.5 -111.5t118 -167t40 -210.5q0 -69 -8 -130t-29 -113.5t-57.5 -96.5t-93.5 -78q61 -33 106.5 -81t75.5 -108t44.5 -129t14.5 -142q1 -152 -44 -268t-131.5 -195.5t-211 -122t-280.5 -46.5v-322h-257v322h-616v2043h616v322h257v-322z" />
    <glyph glyph-name="saraethai" unicode="&#xe40;" horiz-adv-x="700" 
d="M127 0v1769h446v-1769h-446z" />
    <glyph glyph-name="saraaethai" unicode="&#xe41;" horiz-adv-x="1335" 
d="M127 0v1769h446v-1769h-446zM762 0v1769h446v-1769h-446z" />
    <glyph glyph-name="saraothai" unicode="&#xe42;" horiz-adv-x="868" 
d="M209 1974q0 61 -14.5 115.5t-43.5 95.5t-71.5 64.5t-99.5 23.5l77 287h873l164 -319h-521q41 -47 61.5 -110t20.5 -140v-1659h152v-332h-598v1974z" />
    <glyph glyph-name="saraaimaimuanthai" unicode="&#xe43;" horiz-adv-x="868" 
d="M655 332h152v-332h-598v1671q0 78 15.5 139.5t43 112t66 92.5t84.5 82q18 17 37 34t34.5 33.5t25 33.5t9.5 34q0 31 -24.5 54.5t-77.5 23.5q-31 0 -63 -8t-58 -33t-42.5 -70t-16.5 -118h-348q0 146 42.5 248t114 166t164.5 93t195 29q92 0 176.5 -23t149 -69.5
t103 -116.5t38.5 -163q0 -105 -37 -186t-119 -154q-23 -25 -36.5 -48.5t-20 -48t-8 -51t-1.5 -57.5v-1368z" />
    <glyph glyph-name="saraaimaimalaithai" unicode="&#xe44;" horiz-adv-x="868" 
d="M209 1991q0 77 21 140t61 110h-508l164 319h852l78 -287q-57 0 -99 -23.5t-69 -64.5t-40.5 -95.5t-13.5 -115.5v-1642h152v-332h-598v1991z" />
    <glyph glyph-name="lakkhangyaothai" unicode="&#xe45;" horiz-adv-x="1339" 
d="M29 1188q0 150 49.5 263t132.5 188.5t191 113t225 37.5q109 0 211.5 -29.5t182 -91t127.5 -156.5t48 -227v-1859h-446v1830q0 102 -34 143.5t-102 41.5q-74 0 -111 -66.5t-40 -187.5h-434z" />
    <glyph glyph-name="maiyamokthai" unicode="&#xe46;" horiz-adv-x="1548" 
d="M508 1225q1 -25 8.5 -48.5t20.5 -42t30.5 -29.5t38.5 -11h58v-361h-82q-91 0 -178.5 30t-156.5 91.5t-111 156.5t-42 226q0 111 28 205.5t89.5 168t159 122.5t235.5 69l127 -143l111 143q164 -14 271.5 -69t171 -138.5t89 -188t25.5 -218.5v-1757h-455v1761
q0 31 -0.5 67.5t-4 70.5t-11 62t-21.5 42l-98 -131q-37 -37 -74.5 -40.5t-81.5 40.5l-98 131q-28 -31 -40 -87.5t-9 -121.5z" />
    <glyph glyph-name="maitaikhuthai" unicode="&#xe47;" 
d="M-1121 2374q0 -47 16.5 -76t59.5 -29q42 0 59.5 31t19.5 98h258q1 -38 6 -63t15 -39.5t24.5 -20.5t34.5 -6q24 0 38.5 11t22 29.5t10 41.5t1.5 47h329q5 -79 -8 -154t-50 -133.5t-100 -94.5t-158 -36q-81 0 -153 29t-129 94q-20 -23 -45.5 -45t-56 -39t-67.5 -27t-79 -10
q-99 0 -173 30t-122.5 82t-72.5 123t-24 153q0 81 20 143t53.5 107t78 74.5t94 47t101 25t98.5 7.5h858v-285h-847q-59 0 -85.5 -31.5t-26.5 -83.5z" />
    <glyph glyph-name="maiekthai" unicode="&#xe48;" 
d="M-479 3109h327v-467h-327v467z" />
    <glyph glyph-name="maithothai" unicode="&#xe49;" 
d="M-860 2646v274h-148v234h414v-254q57 6 102 27t76 54t47.5 77t16.5 96h295q0 -100 -39.5 -190.5t-114.5 -160t-183 -112t-245 -45.5h-221z" />
    <glyph glyph-name="maitrithai" unicode="&#xe4a;" 
d="M-822 2727q-3 20 -6.5 38.5t-9.5 33t-15.5 23t-24.5 8.5q-20 0 -33 -22t-21 -52t-11.5 -62t-3.5 -52h-247q0 123 23 205.5t62 132.5t89.5 71t105.5 21q65 0 109 -29.5t71 -72.5q28 43 76.5 72.5t116.5 29.5q43 0 79.5 -9t65.5 -30t49 -54.5t31 -82.5q25 34 39.5 87.5
t14.5 121.5h258q0 -77 -22 -153.5t-63 -141t-98.5 -109.5t-128.5 -59h-209q0 20 -2 52t-9 62t-19 52t-33 22q-15 0 -25.5 -8.5t-17 -23t-11 -33t-7.5 -38.5h-173z" />
    <glyph glyph-name="maichattawathai" unicode="&#xe4b;" 
d="M-180 2871v-229h-271v229h-249v246h249v217h271v-217h254v-246h-254z" />
    <glyph glyph-name="thanthakhatthai" unicode="&#xe4c;" 
d="M119 2765q-80 0 -140 -18.5t-100 -52t-60 -80t-20 -103.5h-299q0 97 41.5 187t120.5 160t194.5 112.5t262.5 44.5v-250z" />
    <glyph glyph-name="nikhahitthai" unicode="&#xe4d;" 
d="M-492 2245q0 -22 8.5 -41.5t23.5 -34t34.5 -23t40.5 -8.5q23 0 43 8.5t35 23t24 34t9 41.5q0 23 -9 43t-24 35t-35 23.5t-43 8.5q-21 0 -40.5 -8.5t-34.5 -23.5t-23.5 -35t-8.5 -43zM-713 2245q0 69 26 129.5t70.5 105t104 70.5t127.5 26q69 0 129.5 -26t105.5 -70.5
t71 -105t26 -129.5q0 -68 -26 -127.5t-71 -104t-105.5 -70.5t-129.5 -26q-68 0 -127.5 26t-104 70.5t-70.5 104t-26 127.5z" />
    <glyph glyph-name="yamakkanthai" unicode="&#xe4e;" 
d="M29 2576q-72 0 -121 -11t-78.5 -34.5t-42 -59.5t-12.5 -87v-62h-70q-63 0 -101.5 -19t-60 -52.5t-28.5 -80.5t-7 -102h-307q0 75 16 150.5t52.5 140t96 111.5t147.5 65q24 134 152.5 210t363.5 85v-254z" />
    <glyph glyph-name="fongmanthai" unicode="&#xe4f;" horiz-adv-x="2089" 
d="M389 909q0 -90 23.5 -173.5t66.5 -156.5t102.5 -132.5t132.5 -102.5t156.5 -66.5t173.5 -23.5t174 23.5t156.5 66.5t132.5 102.5t103 132.5t66.5 156.5t23.5 173.5t-23.5 174t-66.5 156.5t-103 132.5t-132.5 103t-156.5 66.5t-174 23.5t-173.5 -23.5t-156.5 -66.5
t-132.5 -103t-102.5 -132.5t-66.5 -156.5t-23.5 -174zM582 909q0 95 36.5 179.5t99.5 147.5t147 99.5t179 36.5t179.5 -36.5t147.5 -99.5t99.5 -147.5t36.5 -179.5t-36.5 -179.5t-99.5 -147.5t-147.5 -99.5t-179.5 -36.5t-179 36.5t-147 99.5t-99.5 147.5t-36.5 179.5z
M123 905q0 128 32.5 246t92.5 220.5t143.5 186.5t186 144t220.5 92.5t246 32.5t246 -32.5t220.5 -92.5t186.5 -144t144 -186.5t92.5 -220.5t32.5 -246t-32.5 -246t-92.5 -220.5t-144 -186t-186.5 -143.5t-220.5 -92.5t-246 -32.5t-246 32.5t-220.5 92.5t-186 143.5
t-143.5 186t-92.5 220.5t-32.5 246zM803 909q0 -51 18.5 -95t51 -76.5t76.5 -51t95 -18.5t95 18.5t77 51t51.5 76.5t18.5 95t-18.5 95t-51.5 76.5t-77 51.5t-95 19t-95 -19t-76.5 -51.5t-51 -76.5t-18.5 -95z" />
    <glyph glyph-name="zerothai" unicode="&#xe50;" horiz-adv-x="1747" 
d="M1670 799q0 -168 -29.5 -295t-82 -219.5t-126.5 -153.5t-162.5 -97.5t-189 -51.5t-207.5 -15t-207.5 15.5t-189 52.5t-162 99t-126 154.5t-82 218.5t-29.5 292q0 175 56 316t160 240t251 152.5t329 53.5q180 0 327.5 -50.5t251.5 -148t161 -239t57 -324.5zM1229 754
q0 138 -26.5 227t-74 140t-113 71t-142.5 20q-73 0 -137.5 -20t-113 -71t-76.5 -140t-28 -227q0 -217 90 -328t265 -111q176 0 266 111t90 328z" />
    <glyph glyph-name="onethai" unicode="&#xe51;" horiz-adv-x="1739" 
d="M803 -29q-92 0 -189.5 8.5t-195.5 37.5t-193.5 85.5t-183.5 151.5l230 238q63 -69 129 -107t130.5 -56.5t126 -22t114.5 -3.5q108 0 190.5 35.5t138 102t83.5 163t28 219.5q0 98 -20 175t-63 130t-110 81t-161 28q-75 0 -135 -15t-102 -43.5t-64.5 -70.5t-22.5 -96
q0 -39 13 -77t49.5 -64.5t103 -35.5t173.5 9v-328q-35 -8 -63 -12.5t-52 -7t-45.5 -3.5t-43.5 -1q-116 0 -221 35.5t-185 100t-127.5 154t-47.5 197.5q0 103 31 187t85 149t127.5 112t158 78t176.5 45.5t184 14.5q109 0 211 -18t192 -56.5t164.5 -97.5t128 -141t83 -188
t29.5 -237q0 -189 -56.5 -346t-165.5 -270.5t-268 -176.5t-364 -63z" />
    <glyph glyph-name="twothai" unicode="&#xe52;" horiz-adv-x="2050" 
d="M105 1225q0 55 -4.5 99t-18.5 74.5t-39 47t-65 16.5l101 312q95 0 179.5 -27.5t148.5 -84t101 -143t37 -204.5v-656q0 -77 31.5 -137t96.5 -101t165 -63t237 -22q125 0 208 21.5t133 60t71 93t21 120.5v434q0 68 -14.5 109t-52.5 63l-196 -170l-186 158
q-26 -19 -41 -61.5t-15 -98.5v-70q0 -40 3 -69.5t12.5 -49.5t26.5 -30t44 -10h41v-332h-116q-96 0 -162.5 23t-111 61.5t-70.5 88.5t-39 102.5t-16.5 104.5t-4.5 95v65q0 99 33 188t95.5 159t153.5 116t207 58l141 -131l140 127q114 -6 217 -43t181 -99t124 -145.5
t46 -183.5v-447q0 -120 -31 -215.5t-86 -168.5t-130.5 -125t-164 -85.5t-186.5 -49t-198 -15.5h-134q-201 0 -368.5 44.5t-288.5 129.5t-188.5 209t-67.5 284v574z" />
    <glyph glyph-name="threethai" unicode="&#xe53;" horiz-adv-x="1792" 
d="M644 1188q-27 -5 -48 -21.5t-35.5 -54t-21.5 -100.5t-7 -160v-197q0 -55 2.5 -112.5t16 -104t41.5 -76.5t78 -30q16 0 30.5 0.5t31 2.5t38 7t51.5 14v-348q-25 -8 -61 -13t-75 -8t-76.5 -4t-65.5 1q-103 13 -177 53t-125 96.5t-82 126.5t-48 143.5t-22.5 145.5t-5.5 135
v152q0 178 45 308t127 218t197.5 137t256.5 66l185 -168l200 168q144 -11 257.5 -61.5t192 -129t120 -180t41.5 -215.5v-979h-450v979q0 48 -3.5 84t-13.5 61.5t-29 41.5t-49 22l-270 -217z" />
    <glyph glyph-name="fourthai" unicode="&#xe54;" horiz-adv-x="1722" 
d="M926 1188q-88 0 -160.5 -13t-124.5 -45t-80.5 -86t-28.5 -135v-245q0 -71 10 -126t37 -94.5t73.5 -62.5t118.5 -29q-22 37 -35.5 85.5t-13.5 107.5q0 25 4 62t20.5 77.5t50 80.5t93 72t149.5 52t219 20v-307q-65 0 -100.5 -12t-52 -28.5t-20 -34t-3.5 -27.5q0 -42 16 -71
t42 -47t58.5 -26t64.5 -8h381v-348h-840q-141 0 -249 29.5t-188 79t-134 116t-86.5 140t-46.5 150.5t-14 149v217q0 173 63 298.5t174 206.5t263 119.5t331 38.5h183q52 0 86 15.5t54 45t28 71t8 93.5h409q0 -63 -9 -131t-31.5 -132.5t-61 -122t-98.5 -101t-144 -69
t-196 -25.5h-219z" />
    <glyph glyph-name="fivethai" unicode="&#xe55;" horiz-adv-x="1722" 
d="M926 1188q-88 0 -160.5 -15.5t-124.5 -49t-80.5 -86.5t-28.5 -128v-245q0 -71 10 -126t37 -94.5t73.5 -62.5t118.5 -29q-22 37 -35.5 85.5t-13.5 107.5q0 25 4 62t20.5 77.5t50 80.5t93 72t149.5 52t219 20v-307q-65 0 -100.5 -12t-52 -28.5t-20 -34t-3.5 -27.5
q0 -42 16 -71t42 -47t58.5 -26t64.5 -8h381v-348h-840q-141 0 -249 29.5t-188 79t-134 116t-86.5 140t-46.5 150.5t-14 149v217q0 128 35 230t99 179t154 129.5t200 82.5l-1 1q-7 21 -11.5 48.5t-4.5 52.5q0 66 23.5 123.5t64.5 100t97 67t121 24.5t121.5 -24.5t98 -67
t65.5 -100t24 -123.5q0 -12 -2.5 -30.5t-7.5 -31.5q68 19 96 79.5t28 147.5h399q0 -63 -9 -131t-31.5 -132.5t-61 -122t-98.5 -101t-144 -69t-196 -25.5h-219zM774 1604q0 -41 26 -67.5t63 -26.5q42 0 69 26.5t27 67.5q0 43 -27 70.5t-69 27.5q-37 0 -63 -27.5t-26 -70.5z
" />
    <glyph glyph-name="sixthai" unicode="&#xe56;" horiz-adv-x="1816" 
d="M464 1442q36 20 85 40.5t110 37.5t133 29.5t154 15.5q146 4 260.5 -23t200 -78t145 -121.5t97 -153.5t54 -174.5t16.5 -183.5v-135q0 -97 -23 -190t-68 -174.5t-113 -149.5t-157 -116.5t-200 -73.5t-243 -21q-147 5 -273.5 42t-220 104.5t-146.5 163.5t-53 219
q0 118 41.5 197.5t114 127.5t171 68t212.5 20h108v-311h-71q-69 0 -100 -32.5t-31 -82.5q0 -71 58 -110t193 -41q81 -2 147 18.5t112 64t71 111.5t25 162v131q0 111 -22 184t-63.5 117t-100 62t-130.5 18q-80 0 -153.5 -8.5t-147.5 -31t-150 -62.5t-160 -103l-337 541
l287 176z" />
    <glyph glyph-name="seventhai" unicode="&#xe57;" horiz-adv-x="2139" 
d="M1616 1311q0 120 32.5 207t91 144t139 84.5t176.5 27.5l98 -312q-39 0 -63.5 -10.5t-37.5 -34.5t-17.5 -62t-4.5 -93v-410q0 -92 -23 -186t-67 -182.5t-107.5 -169t-144.5 -147t-178 -115t-208 -72.5l-252 192q54 64 78.5 126.5t32.5 124.5t5.5 125.5t-2.5 131.5v164
q0 81 -2.5 141.5t-12.5 101.5t-29.5 63t-53.5 26l-208 -218l-205 222q-31 -8 -53 -29.5t-36.5 -61t-21 -101t-6.5 -148.5v-152q0 -33 1.5 -74t7 -84t16 -83.5t27.5 -72.5t42.5 -51.5t61.5 -19.5q11 0 19.5 1t19 3.5t26 7.5t39.5 13v-308q-41 -15 -89.5 -25.5t-100.5 -10.5
q-124 0 -220 54t-162 144t-100 207.5t-34 245.5v213q0 169 45 296.5t128 216t199.5 140t259.5 68.5l136 -156l143 152q168 -17 274.5 -75t167 -151t83.5 -218t23 -277q0 -59 -2.5 -104t-7.5 -85t-11.5 -78.5t-13.5 -84.5q44 70 73 152t29 183v484z" />
    <glyph glyph-name="eightthai" unicode="&#xe58;" horiz-adv-x="1747" 
d="M847 1180q-91 0 -150.5 -20t-94.5 -55.5t-49 -85.5t-14 -110v-356q0 -81 22 -130.5t70 -57.5l251 221l262 -221q46 7 63 46.5t17 125.5q0 27 -3.5 51.5t-13.5 43t-27.5 29.5t-45.5 11h-33v323h93q144 0 237 -40t146 -104.5t73.5 -145.5t20.5 -164q0 -277 -147 -417
t-441 -140l-201 159l-181 -159q-152 6 -266.5 50t-191 119.5t-115.5 181t-39 234.5v349q0 316 186.5 471.5t544.5 155.5h293q50 0 83 15.5t52 44.5t26.5 70.5t7.5 93.5h409q0 -63 -8.5 -131.5t-30 -134t-58 -124t-92.5 -103t-134 -70.5t-182 -26h-339z" />
    <glyph glyph-name="ninethai" unicode="&#xe59;" horiz-adv-x="1796" 
d="M1262 1544q48 0 77 15.5t45 45t21 71t5 93.5h392q0 -63 -6.5 -127.5t-25.5 -124t-52.5 -111.5t-88 -90.5t-132 -60.5t-184.5 -22h-31q-23 0 -43.5 -3.5t-34.5 -14t-18.5 -31t4.5 -54.5l432 -1130h-441l-416 1106q-13 35 -27 57.5t-27.5 35t-26 17.5t-22.5 5
q-43 0 -69.5 -22.5t-41 -70t-19.5 -122t-5 -179.5v-176q1 -52 1 -106t9 -97.5t32.5 -71.5t72.5 -28q12 0 30.5 2t53.5 15l54 -345q-26 -9 -57 -15.5t-64 -10.5t-66 -4.5t-63 2.5q-102 13 -175 49.5t-123 89.5t-79.5 118.5t-45.5 137t-21 145.5t-5 144v139q0 181 28.5 321.5
t93.5 236.5t172 146t263 50q43 0 86 -5t83.5 -18t78.5 -36t71 -60q41 53 101 73.5t126 20.5h78z" />
    <glyph glyph-name="angkhankhuthai" unicode="&#xe5a;" horiz-adv-x="2134" 
d="M1585 1769h443v-1769h-443v1769zM999 0v926q-27 -23 -64 -40t-76.5 -28t-78.5 -16.5t-71 -5.5q-151 0 -269.5 33t-200.5 96.5t-125.5 155.5t-43.5 210q0 87 26 153.5t69 115t99.5 81t117.5 52t122 28t114 8.5h201v-299h-131q-23 0 -52.5 -6.5t-56 -23t-45 -44
t-18.5 -69.5q0 -32 9.5 -64.5t32.5 -58t61.5 -41.5t97.5 -16q75 0 128.5 15.5t87.5 45t50 72t16 96.5v393h443v-1769h-443z" />
    <glyph glyph-name="khomutthai" unicode="&#xe5b;" horiz-adv-x="3748" 
d="M2961 893q-24 -34 -52 -72t-59.5 -86.5t-67 -110t-75.5 -141.5q-34 63 -67 124t-63.5 115t-56.5 99t-46 76q-28 -42 -62 -98t-69.5 -123.5t-70.5 -145t-64 -161.5q-65 176 -129 303.5t-117 208.5q-21 -116 -65 -223t-108 -200.5t-146 -170t-178.5 -131.5t-205.5 -85
t-227 -30q-151 0 -277.5 31t-229 87.5t-180 136t-129.5 176t-78.5 207t-26.5 230.5q0 169 49 317.5t145 259t239.5 174.5t332.5 64q118 0 209.5 -27t160 -74.5t116 -113t77 -141.5t42.5 -159.5t13 -168.5l-381 -4q0 77 -15 140.5t-43.5 108.5t-69.5 70t-93 25
q-169 0 -256.5 -120.5t-87.5 -366.5q0 -109 32 -199.5t94.5 -155.5t155 -101t213.5 -36q118 0 210 34t161.5 94.5t117 145.5t77.5 186.5t43.5 216.5t13.5 237l250 119q46 -46 89 -96t81 -99t70 -95.5t55 -86.5q23 37 52.5 80t63 89t71 93.5t75.5 93.5q37 -54 72 -106.5
t66.5 -100t58 -87t45.5 -66.5q18 24 38 50t38.5 49t34 41.5t24.5 27.5h565l217 -328h-672z" />
    <glyph glyph-name="ZWSP" unicode="&#x200b;" 
 />
    <glyph glyph-name="endash" unicode="&#x2013;" horiz-adv-x="1672" 
d="M0 1028h1672v-328h-1672v328z" />
    <glyph glyph-name="emdash" unicode="&#x2014;" horiz-adv-x="2293" 
d="M0 1028h2293v-328h-2293v328z" />
    <glyph glyph-name="quoteleft" unicode="&#x2018;" horiz-adv-x="737" 
d="M561 1982q-41 -6 -68 -27t-43 -49.5t-23.5 -60t-8.5 -59.5h143v-373h-385v316q1 75 18 151t59.5 144t116.5 123t191 89v-254z" />
    <glyph glyph-name="quoteright" unicode="&#x2019;" horiz-adv-x="737" 
d="M176 1593q42 6 69 27.5t43 50t22.5 60t8.5 59.5h-143v373h385v-316q-2 -75 -18.5 -151t-59 -144t-116.5 -123.5t-191 -89.5v254z" />
    <glyph glyph-name="quotedblleft" unicode="&#x201c;" horiz-adv-x="1253" 
d="M561 1982q-41 -6 -68 -27t-43 -49.5t-23.5 -60t-8.5 -59.5h143v-373h-385v316q1 75 18 151t59.5 144t116.5 123t191 89v-254zM1077 1982q-41 -6 -68 -27t-43 -49.5t-23.5 -60t-8.5 -59.5h143v-373h-385v316q1 75 18 151t59.5 144t116.5 123t191 89v-254z" />
    <glyph glyph-name="quotedblright" unicode="&#x201d;" horiz-adv-x="1253" 
d="M692 1597q42 6 69 27.5t43 50t23 60t9 59.5h-144v373h385v-316q-2 -75 -18 -151t-59 -144t-117 -123.5t-191 -89.5v254zM176 1597q42 6 69 27.5t43 50t22.5 60t8.5 59.5h-143v373h385v-316q-2 -75 -18.5 -151t-59 -144t-116.5 -123.5t-191 -89.5v254z" />
    <glyph glyph-name="bullet" unicode="&#x2022;" horiz-adv-x="1294" 
d="M643 266q-104 0 -198.5 43.5t-166 118t-113.5 173.5t-42 210q0 74 19 143t54 130t83 112t105.5 87.5t123 56.5t135.5 20q72 0 139 -20t125.5 -56.5t107 -87.5t83.5 -112t54 -130t19 -143q0 -111 -42 -210t-114 -173.5t-168 -118t-204 -43.5z" />
    <glyph glyph-name="Euro" unicode="&#x20ac;" horiz-adv-x="1823" 
d="M1327 1327q-2 85 -22 157t-58 124.5t-93 81.5t-126 29q-84 0 -142.5 -26.5t-95.5 -73t-56 -108.5t-25 -132h323v-245h-348q-2 -13 -2 -27t0.5 -33t1 -46t0.5 -66h348v-244h-332q4 -43 14 -90t27.5 -92t42.5 -85t59.5 -70.5t79.5 -48.5t101 -18q86 0 145 41t95 111.5
t51 164t12 199.5h418q4 -115 -12.5 -224.5t-54 -206.5t-97 -178.5t-140.5 -140t-184 -91t-229 -32.5q-144 0 -256.5 29t-198 81t-145.5 123t-100.5 156t-63 179.5t-31.5 192.5h-180v244h172v172h-172v245h193q14 90 42 176.5t72.5 163.5t106 142t144 111.5t186 73
t231.5 26.5q168 0 302.5 -58.5t228 -159.5t142 -236.5t44.5 -290.5h-418z" />
    <glyph glyph-name="trademark" unicode="&#x2122;" horiz-adv-x="2355" 
d="M2253 869h-279v746l-250 -746h-151l-246 746v-746h-274v1174h360l242 -741q34 91 63.5 184.5l59 187t59.5 186.5t64 183h352v-1174zM967 1810h-287v-941h-287v941h-291v233h865v-233z" />
    <glyph glyph-name="uni25CC" unicode="&#x25cc;" horiz-adv-x="1966" 
d="M758 524l-140 -41l50 135q37 -53 90 -94zM913 1208l70 131l61 -127q-28 5 -57 5q-37 0 -74 -9zM1040 459l-57 -123l-61 123q32 -8 65 -8q29 0 53 8zM1364 901l123 -65l-123 -54q4 21 4 54q0 32 -4 65zM610 774l-131 66l131 65q-4 -33 -4 -69q0 -33 4 -62zM676 1065
l-33 135l131 -49q-61 -33 -98 -86zM1290 602l37 -119l-123 37q49 33 86 82zM1200 1151l148 49l-54 -139q-37 53 -94 90z" />
    <glyph glyph-name="thothannobasethai" unicode="&#xf700;" horiz-adv-x="1446" 
d="M74 1225q9 121 56.5 224.5t129.5 179t197.5 118.5t259.5 43q43 0 90.5 -5.5t93.5 -15.5q31 25 50.5 58.5t19.5 64.5h434q-3 -43 -16 -87.5t-35 -87t-52.5 -79.5t-68.5 -65q62 -78 90.5 -185.5t15.5 -252.5q-5 -53 -15.5 -111t-28.5 -127.5t-43.5 -155t-60.5 -194
t-80.5 -243.5t-102.5 -304h-488l-237 758h-144v307h488l135 -455q34 133 64.5 254t58.5 242q17 72 12.5 133.5t-27.5 106.5t-65 70.5t-100 25.5q-99 0 -147 -53.5t-66 -163.5h-418z" />
    <glyph glyph-name="yoyingnobasethai" unicode="&#xf70f;" horiz-adv-x="2408" 
d="M1606 -8q-66 0 -134 12t-131.5 37t-120 63.5t-98 92.5t-66 123t-24.5 155v770q0 93 -56.5 143t-176.5 50q-46 0 -83.5 -7.5t-68.5 -21t-57 -32.5t-49 -42q28 -31 46.5 -71t18.5 -105v-831h156v-328h-606v1171q0 25 -6 49t-19.5 45t-35.5 37t-54 25q60 118 145 204.5
t185 143t209.5 84t218.5 27.5q85 0 168.5 -16t159 -46.5t140 -76t111.5 -104t74 -130.5t27 -156v-729q0 -99 40.5 -143.5t127.5 -44.5q83 0 123 44.5t40 143.5v1241h447v-1294q0 -89 -25 -159.5t-68 -124t-100.5 -91.5t-122.5 -62t-134.5 -35t-135.5 -11h-65z" />
    <glyph glyph-name="saraulowthai" unicode="&#xf718;" 
d="M-512 -1384v344h-180v307h540v-651h-360z" />
    <glyph glyph-name="sarauulowthai" unicode="&#xf719;" 
d="M-1188 -733h483v-320q0 -127 103 -127q53 0 77.5 31t24.5 96v320h353v-320q-2 -80 -30.5 -152t-85 -126.5t-141 -86.5t-198.5 -32t-198.5 32t-141 86.5t-85.5 126.5t-30 152v54h-131v266z" />
    <glyph glyph-name="phinthulowthai" unicode="&#xf71a;" 
d="M-632 -949q0 51 19.5 96.5t53.5 79.5t79.5 53.5t96.5 19.5t96.5 -19.5t79.5 -53.5t53.5 -79.5t19.5 -96.5t-19.5 -96.5t-53.5 -79.5t-79.5 -53.5t-96.5 -19.5t-96.5 19.5t-79.5 53.5t-53.5 79.5t-19.5 96.5z" />
    <glyph glyph-name="lochula.short" unicode="&#xf71d;" horiz-adv-x="1761" 
d="M1507 0h-434l-196 750l-193 -750h-430l-250 1769h463l106 -987l156 656h303l160 -693l61 443q6 41 13 79t10 71.5t-1 61.5t-20 48.5t-46 32.5t-79 14l-45 266q77 1 144 17.5t118 47.5t83 77t40 108h459q-12 -87 -39 -157.5t-63.5 -123.5t-81.5 -90.5t-94 -58.5
q27 -35 44 -71t24.5 -75.5t6.5 -84.5t-10 -97z" />
    <glyph glyph-name="yamakkanleftthai" 
d="M-492 2576q-72 0 -120.5 -11t-78 -34.5t-42 -59.5t-12.5 -87v-62h-70q-63 0 -101.5 -19t-60 -52.5t-28.5 -80.5t-7 -102h-307q0 75 16 150.5t52.5 140t96 111.5t146.5 65q25 133 154 209.5t362 85.5v-254z" />
    <glyph glyph-name="saraamleft" horiz-adv-x="1343" 
d="M16 1188q0 150 49 263t132 188.5t194 113t236 37.5q117 0 226 -29.5t193.5 -91t135.5 -156.5t51 -227v-1286h-451v1257q0 51 -10.5 86.5t-30.5 57t-48.5 31.5t-65.5 10q-78 0 -124 -66.5t-52 -187.5h-435zM-1106 2204q0 -22 8.5 -41.5t23 -34t34 -23t41.5 -8.5
q23 0 43 8.5t35 23t23.5 34t8.5 41.5q0 23 -8.5 43t-23.5 35t-35 23.5t-43 8.5q-22 0 -41.5 -8.5t-34 -23.5t-23 -35t-8.5 -43zM-1327 2204q0 69 26 129.5t70.5 105t104 70.5t127.5 26q69 0 129.5 -26t105 -70.5t70.5 -105t26 -129.5q0 -68 -26 -127.5t-70.5 -104
t-105 -70.5t-129.5 -26q-68 0 -127.5 26t-104 70.5t-70.5 104t-26 127.5z" />
    <glyph glyph-name="uni0E33.alt1" horiz-adv-x="1303" 
d="M16 1188q0 150 49 263t132 188.5t194 113t236 37.5q117 0 226 -29.5t193.5 -91t135.5 -156.5t51 -227v-1286h-451v1257q0 51 -10.5 86.5t-30.5 57t-48.5 31.5t-65.5 10q-78 0 -124 -66.5t-52 -187.5h-435zM-1106 2204q0 -22 8.5 -41.5t23 -34t34 -23t41.5 -8.5
q23 0 43 8.5t35 23t23.5 34t8.5 41.5q0 23 -8.5 43t-23.5 35t-35 23.5t-43 8.5q-22 0 -41.5 -8.5t-34 -23.5t-23 -35t-8.5 -43zM-1327 2204q0 69 26 129.5t70.5 105t104 70.5t127.5 26q69 0 129.5 -26t105 -70.5t70.5 -105t26 -129.5q0 -68 -26 -127.5t-70.5 -104
t-105 -70.5t-129.5 -26q-68 0 -127.5 26t-104 70.5t-70.5 104t-26 127.5z" />
    <glyph glyph-name="saraithai.alt1" 
d="M-1171 2314h1019v-327h-1163z" />
    <glyph glyph-name="saraiithai.alt1" 
d="M-1171 2314h659v213h360v-540h-1163z" />
    <glyph glyph-name="sarauethai.alt1" 
d="M-496 2269q0 -37 26.5 -63.5t63.5 -26.5q38 0 64.5 26.5t26.5 63.5t-26.5 63.5t-64.5 26.5q-37 0 -63.5 -26.5t-26.5 -63.5zM-1171 2314h483q7 51 32.5 95.5t63.5 78t86 53t100 19.5q58 0 110.5 -23t91.5 -62t62 -91.5t23 -110.5t-23 -110t-62 -91t-91.5 -62t-110.5 -23
h-909z" />
    <glyph glyph-name="saraueethai.alt1" 
d="M-1171 2314h335v213h287v-213h111v213h286v-540h-1163z" />
    <glyph glyph-name="saraithai.alt2" 
d="M-1729 2314h1082v-327h-1225z" />
    <glyph glyph-name="saraiithai.alt2" 
d="M-1729 2314h721v213h361v-540h-1225z" />
    <glyph glyph-name="sarauethai.alt2" 
d="M-1729 2314h574q7 51 32.5 95.5t64 78t86 53t100.5 19.5q58 0 110 -23t91 -62t62 -91.5t23 -110.5t-23 -110t-62 -91t-91 -62t-110 -23h-1000zM-963 2269q0 -37 26.5 -63.5t64.5 -26.5q37 0 63.5 26.5t26.5 63.5t-26.5 63.5t-63.5 26.5q-38 0 -64.5 -26.5t-26.5 -63.5z
" />
    <glyph glyph-name="saraueethai.alt2" 
d="M-1729 2314h406v213h287v-213h110v213h287v-540h-1233z" />
    <glyph glyph-name="maiekthai.alt2" 
d="M-975 3109h328v-467h-328v467z" />
    <glyph glyph-name="maithothai.alt2" 
d="M-1237 2646v274h-147v234h413v-254q57 6 102 27t76 54t47.5 77t16.5 96h295q0 -100 -39.5 -190.5t-114.5 -160t-183 -112t-245 -45.5h-221z" />
    <glyph glyph-name="maitrithai.alt2" 
d="M-1097 2727q-3 20 -6.5 38.5t-9.5 33t-15.5 23t-24.5 8.5q-20 0 -33 -22t-21 -52t-11.5 -62t-3.5 -52h-247q0 123 23 205.5t62 132.5t89.5 71t105.5 21q65 0 109 -29.5t71 -72.5q28 43 76.5 72.5t116.5 29.5q43 0 79.5 -9t65.5 -30t49 -54.5t31 -82.5q25 34 39.5 87.5
t14.5 121.5h258q0 -77 -22 -153.5t-63 -141t-98.5 -109.5t-128.5 -59h-209q0 20 -2 52t-9 62t-19 52t-33 22q-15 0 -25.5 -8.5t-17 -23t-11 -33t-7.5 -38.5h-173z" />
    <glyph glyph-name="maichattawathai.alt2" 
d="M-659 2871v-229h-271v229h-250v246h250v217h271v-217h253v-246h-253z" />
    <glyph glyph-name="saraithai.alt3" 
d="M-1704 2314h1552v-327h-1695z" />
    <glyph glyph-name="saraiithai.alt3" 
d="M-1704 2314h1192v213h360v-540h-1695z" />
    <glyph glyph-name="sarauethai.alt3" 
d="M-496 2269q0 -37 26.5 -63.5t63.5 -26.5q38 0 64.5 26.5t26.5 63.5t-26.5 63.5t-64.5 26.5q-37 0 -63.5 -26.5t-26.5 -63.5zM-1704 2314h1016q7 51 32.5 95.5t63.5 78t86 53t100 19.5q58 0 110.5 -23t91.5 -62t62 -91.5t23 -110.5t-23 -110t-62 -91t-91.5 -62t-110.5 -23
h-1441z" />
    <glyph glyph-name="saraueethai.alt3" 
d="M-1704 2314h868v213h291v-213h103v213h290v-540h-1695z" />
    <glyph glyph-name="maiekthai.alt4" 
d="M-479 2986h327v-467h-327v467z" />
    <glyph glyph-name="maithothai.alt4" 
d="M-860 2519v274h-148v234h414v-254q57 6 102 27t76 54t47.5 77t16.5 96h295q0 -100 -39.5 -190.5t-114.5 -160t-183 -112t-245 -45.5h-221z" />
    <glyph glyph-name="maitrithai.alt4" 
d="M-822 2605q-3 20 -6.5 38.5t-9.5 33t-15.5 23t-24.5 8.5q-20 0 -33 -22t-21 -52t-11.5 -62t-3.5 -52h-247q0 123 23 205.5t62 132.5t89.5 71t105.5 21q65 0 109 -29.5t71 -72.5q28 43 76.5 72.5t116.5 29.5q43 0 79.5 -9t65.5 -30t49 -54.5t31 -82.5q25 34 39.5 87.5
t14.5 121.5h258q0 -77 -22 -153.5t-63 -141t-98.5 -109.5t-128.5 -59h-209q0 20 -2 52t-9 62t-19 52t-33 22q-15 0 -25.5 -8.5t-17 -23t-11 -33t-7.5 -38.5h-173z" />
    <glyph glyph-name="maichattawathai.alt4" 
d="M-180 2748v-229h-271v229h-249v246h249v217h271v-217h254v-246h-254z" />
    <glyph glyph-name="maiekthai.alt5" 
d="M-1016 2986h328v-467h-328v467z" />
    <glyph glyph-name="maithothai.alt5" 
d="M-1278 2523v275h-147v233h413v-254q57 6 102 27t76 54t47.5 77t16.5 96h295q0 -100 -39.5 -190.5t-114.5 -160t-183 -112t-245 -45.5h-221z" />
    <glyph glyph-name="maitrithai.alt5" 
d="M-1137 2605q-3 20 -6.5 38.5t-9.5 33t-15.5 23t-24.5 8.5q-20 0 -33 -22t-21 -52t-11.5 -62t-3.5 -52h-247q0 123 23 205.5t62 132.5t89.5 71t105.5 21q65 0 109 -29.5t71 -72.5q28 43 76.5 72.5t116.5 29.5q43 0 79.5 -9t65.5 -30t49 -54.5t31 -82.5q25 34 39.5 87.5
t14.5 121.5h258q0 -77 -22 -153.5t-63 -141t-98.5 -109.5t-128.5 -59h-209q0 20 -2 52t-9 62t-19 52t-33 22q-15 0 -25.5 -8.5t-17 -23t-11 -33t-7.5 -38.5h-173z" />
    <glyph glyph-name="maichattawathai.alt5" 
d="M-700 2732v-229h-271v229h-250v246h250v217h271v-217h254v-246h-254z" />
    <glyph glyph-name="sarauthai.alt6" 
d="M-758 -913v426h-131v266h500v-692h-369z" />
    <glyph glyph-name="sarauuthai.alt6" 
d="M-1229 -221h484v-361q0 -65 24.5 -96t77.5 -31t77.5 31t24.5 96v361h353v-361q-2 -80 -30.5 -152t-85 -126.5t-141 -86.5t-198.5 -32t-198.5 32t-141 86.5t-85.5 126.5t-30 152v95h-131v266z" />
    <glyph glyph-name="phinthuthai.alt6" 
d="M-884 -474q0 51 19.5 96.5t53.5 79.5t79.5 53.5t96.5 19.5t96.5 -19.5t79.5 -53.5t53.5 -79.5t19.5 -96.5t-19.5 -96.5t-53.5 -79.5t-79.5 -53.5t-96.5 -19.5t-96.5 19.5t-79.5 53.5t-53.5 79.5t-19.5 96.5z" />
    <glyph glyph-name="sarauthai.alt7" 
d="M-725 -913v426h-131v266h491v-692h-360z" />
    <glyph glyph-name="sarauuthai.alt7" 
d="M-1434 -221h484v-361q0 -65 24.5 -96t77.5 -31q103 0 103 127v361h352v-361q-2 -80 -30.5 -152t-85 -126.5t-141 -86.5t-198.5 -32t-198.5 32t-141 86.5t-85 126.5t-30.5 152v95h-131v266z" />
    <glyph glyph-name="phinthuthai.alt7" 
d="M-814 -474q0 51 19.5 96.5t53.5 79.5t79.5 53.5t96.5 19.5t96.5 -19.5t79.5 -53.5t53.5 -79.5t19.5 -96.5t-19.5 -96.5t-53.5 -79.5t-79.5 -53.5t-96.5 -19.5t-96.5 19.5t-79.5 53.5t-53.5 79.5t-19.5 96.5z" />
    <glyph glyph-name="maihanakatthai.alt8" 
d="M233 2003h-1445v487h364v-159h1081v-328z" />
    <glyph glyph-name="maiekthai.alt8" 
d="M-852 3109h328v-467h-328v467z" />
    <glyph glyph-name="maithothai.alt8" 
d="M-1114 2646v274h-148v234h414v-254q57 6 102 27t76 54t47.5 77t16.5 96h295q0 -100 -39.5 -190.5t-114.5 -160t-183 -112t-245 -45.5h-221z" />
    <glyph glyph-name="maitrithai.alt8" 
d="M-933 2727q-3 20 -6.5 38.5t-9.5 33t-15.5 23t-24.5 8.5q-20 0 -33 -22t-21 -52t-11.5 -62t-3.5 -52h-247q0 123 23 205.5t62 132.5t89.5 71t105.5 21q65 0 109 -29.5t71 -72.5q28 43 76.5 72.5t116.5 29.5q43 0 79.5 -9t65.5 -30t49 -54.5t31 -82.5q25 34 39.5 87.5
t14.5 121.5h258q0 -77 -22 -153.5t-63 -141t-98.5 -109.5t-128.5 -59h-209q0 20 -2 52t-9 62t-19 52t-33 22q-15 0 -25.5 -8.5t-17 -23t-11 -33t-7.5 -38.5h-173z" />
    <glyph glyph-name="maichattawathai.alt8" 
d="M-578 2871v-229h-270v229h-250v246h250v217h270v-217h254v-246h-254z" />
    <glyph glyph-name="saraithai.alt9" 
d="M-1446 2314h1294v-327h-1437z" />
    <glyph glyph-name="saraiithai.alt9" 
d="M-1446 2314h934v213h360v-540h-1437z" />
    <glyph glyph-name="sarauethai.alt9" 
d="M-496 2269q0 -37 26.5 -63.5t63.5 -26.5q38 0 64.5 26.5t26.5 63.5t-26.5 63.5t-64.5 26.5q-37 0 -63.5 -26.5t-26.5 -63.5zM-1446 2314h758q7 51 32.5 95.5t63.5 78t86 53t100 19.5q58 0 110.5 -23t91.5 -62t62 -91.5t23 -110.5t-23 -110t-62 -91t-91.5 -62t-110.5 -23
h-1183z" />
    <glyph glyph-name="saraueethai.alt9" 
d="M-1446 2314h610v213h287v-213h111v213h286v-540h-1437z" />
    <glyph glyph-name="maiekupperleftthai.alt11" 
d="M-1126 3109h328v-467h-328v467z" />
    <glyph glyph-name="maichattawaupperleftthai.alt11" 
d="M-810 2871v-229h-271v229h-250v246h250v217h271v-217h254v-246h-254z" />
    <glyph glyph-name="sarauthai.alt9" 
d="M-792 -913v385h-180v307h540v-692h-360z" />
    <glyph glyph-name="sarauuthai.alt9" 
d="M-1288 -221h483v-361q0 -127 103 -127q53 0 77.5 31t24.5 96v361h353v-361q-2 -80 -30.5 -152t-85 -126.5t-141 -86.5t-198.5 -32t-198.5 32t-141 86.5t-85.5 126.5t-30 152v95h-131v266z" />
    <glyph glyph-name="phinthuthai.alt9" 
d="M-912 -474q0 51 19.5 96.5t53.5 79.5t79.5 53.5t96.5 19.5t96.5 -19.5t79.5 -53.5t53.5 -79.5t19.5 -96.5t-19.5 -96.5t-53.5 -79.5t-79.5 -53.5t-96.5 -19.5t-96.5 19.5t-79.5 53.5t-53.5 79.5t-19.5 96.5z" />
    </font>
</defs>
</svg>
