<svg xmlns="http://www.w3.org/2000/svg" xmlns:xlink="http://www.w3.org/1999/xlink" width="181" height="181" viewBox="0 0 181 181">
  <defs>
    <linearGradient id="linear-gradient" x1="0.5" y1="0.136" x2="0.5" y2="1.1" gradientUnits="objectBoundingBox">
      <stop offset="0" stop-color="#206fcb"/>
      <stop offset="1" stop-color="#103866"/>
    </linearGradient>
    <linearGradient id="linear-gradient-3" x1="0.535" y1="-0.102" x2="0.5" y2="0.811" gradientUnits="objectBoundingBox">
      <stop offset="0" stop-color="#effaff"/>
      <stop offset="1" stop-color="#54bbed"/>
    </linearGradient>
    <linearGradient id="linear-gradient-4" x1="0.5" x2="0.5" y2="1" gradientUnits="objectBoundingBox">
      <stop offset="0" stop-color="#206fcb"/>
      <stop offset="1" stop-color="#246dc1"/>
    </linearGradient>
    <clipPath id="clip-Artboard_100">
      <rect width="181" height="181"/>
    </clipPath>
  </defs>
  <g id="Artboard_100" data-name="Artboard – 100" clip-path="url(#clip-Artboard_100)">
    <rect width="181" height="181" fill="#fff"/>
    <g id="Group_28097" data-name="Group 28097" transform="translate(-865.593 -6020.805)">
      <g id="Group_28090" data-name="Group 28090" transform="translate(693.25 5941.859)">
        <g id="Group_27306" data-name="Group 27306" transform="translate(173.751 218.662)">
          <path id="Path_56597" data-name="Path 56597" d="M53.973,0H0V28.789H53.973L46.58,14.826Z" transform="translate(124.213)" fill="url(#linear-gradient)"/>
          <path id="Path_56596" data-name="Path 56596" d="M0,0H53.973V28.789H0L7.394,14.826Z" fill="url(#linear-gradient)"/>
          <path id="Path_56595" data-name="Path 56595" d="M17.745,0H37.707L19.963,12.846V32.532H0V12.577Z" transform="translate(23.66)" fill="#1e559a"/>
          <path id="Path_56598" data-name="Path 56598" d="M19.963,0H0L17.745,12.846V32.532H37.707V12.577Z" transform="translate(117.558)" fill="#1e559a"/>
        </g>
        <ellipse id="Ellipse_681" data-name="Ellipse 681" cx="58.064" cy="58.064" rx="58.064" ry="58.064" transform="translate(204.453 141.149)" fill="url(#linear-gradient-3)"/>
        <rect id="Rectangle_19590" data-name="Rectangle 19590" width="132.146" height="29.366" transform="translate(197.248 230.58)" fill="url(#linear-gradient-4)"/>
        <g id="Group_27753" data-name="Group 27753" transform="translate(209.203 234.928)">
          <g id="Group_27749" data-name="Group 27749" transform="translate(0 0)">
            <g id="Group_27254" data-name="Group 27254" transform="translate(0.467 2.15)" opacity="0.26">
              <path id="Path_56544" data-name="Path 56544" d="M83.26,76.978c-.36-2.518-6.547-2.266-6.547-2.266s-1.654-5.288-3.633-5.18-3.957,5.4-3.957,5.4-5.539-.719-5.9,1.763a2.163,2.163,0,0,0-.02.31c-.1,2.273,3.308,4.339,3.657,4.545a12.692,12.692,0,0,0-1.1,4.308c-.015,1.14.375,2.072,1.671,2.113a8.869,8.869,0,0,0,5.8-2.086s3.806,3.057,5.892,2.158c.672-.29.9-1.066.907-1.983a14.59,14.59,0,0,0-.953-4.509c4.289-2.937,4.182-4.478,4.182-4.478l0-.017A.519.519,0,0,0,83.26,76.978Z" transform="translate(-63.203 -69.53)"/>
            </g>
            <g id="Group_27255" data-name="Group 27255">
              <path id="Path_56545" data-name="Path 56545" d="M72.858,66.545c1.952,0,3.573,5.181,3.573,5.181s.172-.007.46-.007c1.44,0,5.787.175,6.087,2.273a.516.516,0,0,1,0,.072l0,.018s.107,1.54-4.182,4.478a14.59,14.59,0,0,1,.953,4.509c-.005.918-.235,1.694-.907,1.983a2.2,2.2,0,0,1-.875.166c-2.124,0-5.017-2.324-5.017-2.324a8.9,8.9,0,0,1-5.554,2.09c-.081,0-.163,0-.244,0-1.3-.041-1.686-.973-1.671-2.113a12.7,12.7,0,0,1,1.1-4.308c-.349-.206-3.755-2.272-3.657-4.545a2.16,2.16,0,0,1,.02-.31c.227-1.571,2.531-1.859,4.19-1.859a14.794,14.794,0,0,1,1.709.1s1.978-5.287,3.957-5.4h.06m0-.465h0l-.085,0c-1.974.108-3.724,4.085-4.237,5.361-.319-.029-.821-.062-1.4-.062-3.574,0-4.5,1.228-4.652,2.258a2.7,2.7,0,0,0-.025.375c-.093,2.168,2.467,4.045,3.54,4.733a12.32,12.32,0,0,0-.982,4.124c-.028,2.181,1.317,2.55,2.122,2.575.087,0,.173,0,.259,0a9.323,9.323,0,0,0,5.566-1.96c.822.61,3.139,2.194,5,2.194a2.662,2.662,0,0,0,1.06-.2c.781-.337,1.181-1.147,1.189-2.408a14.232,14.232,0,0,0-.861-4.334c3.994-2.806,4.108-4.389,4.088-4.688a.534.534,0,0,0,0-.09v-.006l0-.028c-.345-2.412-4.693-2.673-6.547-2.673h-.125c-.464-1.378-1.923-5.175-3.909-5.175Z" transform="translate(-62.454 -66.08)" fill="#fff"/>
            </g>
            <g id="Group_27747" data-name="Group 27747" transform="translate(0.466 0.465)">
              <path id="Path_56547" data-name="Path 56547" d="M66.893,78.771s-4.029-2.3-3.669-4.784,5.9-1.762,5.9-1.762,1.978-5.288,3.957-5.4,3.633,5.18,3.633,5.18,6.187-.252,6.547,2.266c0,0,.108,1.547-4.208,4.5,0,0,2.158,5.576.072,6.475s-5.892-2.158-5.892-2.158a8.869,8.869,0,0,1-5.8,2.086C64.016,85.065,66.893,78.771,66.893,78.771Z" transform="translate(-63.201 -66.826)" fill="#ffdb2d"/>
            </g>
            <g id="Group_27748" data-name="Group 27748" transform="translate(0.781 0.694)">
              <path id="Path_56552" data-name="Path 56552" d="M77.013,67.2s-1.34.007-3.139,4.152c0,0,2.59-4.847,3.975-3.678C78.334,68.032,77.952,67.131,77.013,67.2Z" transform="translate(-67.539 -67.194)" fill="#fff" opacity="0.7"/>
              <path id="Path_56553" data-name="Path 56553" d="M69.143,75.729a16.515,16.515,0,0,0-4,.523c-.746.238-1.216,1.257-1.376,1.214C63.478,77.376,64.107,75.1,69.143,75.729Z" transform="translate(-63.708 -70.37)" fill="#fff" opacity="0.5"/>
            </g>
          </g>
          <g id="Group_27750" data-name="Group 27750" transform="translate(28.891 0)">
            <g id="Group_27254-2" data-name="Group 27254" transform="translate(0.467 2.15)" opacity="0.26">
              <path id="Path_56544-2" data-name="Path 56544" d="M83.26,76.978c-.36-2.518-6.547-2.266-6.547-2.266s-1.654-5.288-3.633-5.18-3.957,5.4-3.957,5.4-5.539-.719-5.9,1.763a2.163,2.163,0,0,0-.02.31c-.1,2.273,3.308,4.339,3.657,4.545a12.692,12.692,0,0,0-1.1,4.308c-.015,1.14.375,2.072,1.671,2.113a8.869,8.869,0,0,0,5.8-2.086s3.806,3.057,5.892,2.158c.672-.29.9-1.066.907-1.983a14.59,14.59,0,0,0-.953-4.509c4.289-2.937,4.182-4.478,4.182-4.478l0-.017A.519.519,0,0,0,83.26,76.978Z" transform="translate(-63.203 -69.53)"/>
            </g>
            <g id="Group_27255-2" data-name="Group 27255" transform="translate(0)">
              <path id="Path_56545-2" data-name="Path 56545" d="M72.858,66.545c1.952,0,3.573,5.181,3.573,5.181s.172-.007.46-.007c1.44,0,5.787.175,6.087,2.273a.516.516,0,0,1,0,.072l0,.018s.107,1.54-4.182,4.478a14.59,14.59,0,0,1,.953,4.509c-.005.918-.235,1.694-.907,1.983a2.2,2.2,0,0,1-.875.166c-2.124,0-5.017-2.324-5.017-2.324a8.9,8.9,0,0,1-5.554,2.09c-.081,0-.163,0-.244,0-1.3-.041-1.686-.973-1.671-2.113a12.7,12.7,0,0,1,1.1-4.308c-.349-.206-3.755-2.272-3.657-4.545a2.16,2.16,0,0,1,.02-.31c.227-1.571,2.531-1.859,4.19-1.859a14.794,14.794,0,0,1,1.709.1s1.978-5.287,3.957-5.4h.06m0-.465h0l-.085,0c-1.974.108-3.724,4.085-4.237,5.361-.319-.029-.821-.062-1.4-.062-3.574,0-4.5,1.228-4.652,2.258a2.7,2.7,0,0,0-.025.375c-.093,2.168,2.467,4.045,3.54,4.733a12.32,12.32,0,0,0-.982,4.124c-.028,2.181,1.317,2.55,2.122,2.575.087,0,.173,0,.259,0a9.323,9.323,0,0,0,5.566-1.96c.822.61,3.139,2.194,5,2.194a2.662,2.662,0,0,0,1.06-.2c.781-.337,1.181-1.147,1.189-2.408a14.232,14.232,0,0,0-.861-4.334c3.994-2.806,4.108-4.389,4.088-4.688a.534.534,0,0,0,0-.09v-.006l0-.028c-.345-2.412-4.693-2.673-6.547-2.673h-.125c-.464-1.378-1.923-5.175-3.909-5.175Z" transform="translate(-62.454 -66.08)" fill="#fff"/>
            </g>
            <g id="Group_27747-2" data-name="Group 27747" transform="translate(0.466 0.465)">
              <path id="Path_56547-2" data-name="Path 56547" d="M66.893,78.771s-4.029-2.3-3.669-4.784,5.9-1.762,5.9-1.762,1.978-5.288,3.957-5.4,3.633,5.18,3.633,5.18,6.187-.252,6.547,2.266c0,0,.108,1.547-4.208,4.5,0,0,2.158,5.576.072,6.475s-5.892-2.158-5.892-2.158a8.869,8.869,0,0,1-5.8,2.086C64.016,85.065,66.893,78.771,66.893,78.771Z" transform="translate(-63.201 -66.826)" fill="#ffdb2d"/>
            </g>
            <g id="Group_27748-2" data-name="Group 27748" transform="translate(0.781 0.694)">
              <path id="Path_56552-2" data-name="Path 56552" d="M77.013,67.2s-1.34.007-3.139,4.152c0,0,2.59-4.847,3.975-3.678C78.334,68.032,77.952,67.131,77.013,67.2Z" transform="translate(-67.539 -67.194)" fill="#fff" opacity="0.7"/>
              <path id="Path_56553-2" data-name="Path 56553" d="M69.143,75.729a16.515,16.515,0,0,0-4,.523c-.746.238-1.216,1.257-1.376,1.214C63.478,77.376,64.107,75.1,69.143,75.729Z" transform="translate(-63.708 -70.37)" fill="#fff" opacity="0.5"/>
            </g>
          </g>
          <g id="Group_27751" data-name="Group 27751" transform="translate(57.781 0)">
            <g id="Group_27254-3" data-name="Group 27254" transform="translate(0.467 2.15)" opacity="0.26">
              <path id="Path_56544-3" data-name="Path 56544" d="M83.26,76.978c-.36-2.518-6.547-2.266-6.547-2.266s-1.654-5.288-3.633-5.18-3.957,5.4-3.957,5.4-5.539-.719-5.9,1.763a2.163,2.163,0,0,0-.02.31c-.1,2.273,3.308,4.339,3.657,4.545a12.692,12.692,0,0,0-1.1,4.308c-.015,1.14.375,2.072,1.671,2.113a8.869,8.869,0,0,0,5.8-2.086s3.806,3.057,5.892,2.158c.672-.29.9-1.066.907-1.983a14.59,14.59,0,0,0-.953-4.509c4.289-2.937,4.182-4.478,4.182-4.478l0-.017A.519.519,0,0,0,83.26,76.978Z" transform="translate(-63.203 -69.53)"/>
            </g>
            <g id="Group_27255-3" data-name="Group 27255" transform="translate(0)">
              <path id="Path_56545-3" data-name="Path 56545" d="M72.858,66.545c1.952,0,3.573,5.181,3.573,5.181s.172-.007.46-.007c1.44,0,5.787.175,6.087,2.273a.516.516,0,0,1,0,.072l0,.018s.107,1.54-4.182,4.478a14.59,14.59,0,0,1,.953,4.509c-.005.918-.235,1.694-.907,1.983a2.2,2.2,0,0,1-.875.166c-2.124,0-5.017-2.324-5.017-2.324a8.9,8.9,0,0,1-5.554,2.09c-.081,0-.163,0-.244,0-1.3-.041-1.686-.973-1.671-2.113a12.7,12.7,0,0,1,1.1-4.308c-.349-.206-3.755-2.272-3.657-4.545a2.16,2.16,0,0,1,.02-.31c.227-1.571,2.531-1.859,4.19-1.859a14.794,14.794,0,0,1,1.709.1s1.978-5.287,3.957-5.4h.06m0-.465h0l-.085,0c-1.974.108-3.724,4.085-4.237,5.361-.319-.029-.821-.062-1.4-.062-3.574,0-4.5,1.228-4.652,2.258a2.7,2.7,0,0,0-.025.375c-.093,2.168,2.467,4.045,3.54,4.733a12.32,12.32,0,0,0-.982,4.124c-.028,2.181,1.317,2.55,2.122,2.575.087,0,.173,0,.259,0a9.323,9.323,0,0,0,5.566-1.96c.822.61,3.139,2.194,5,2.194a2.662,2.662,0,0,0,1.06-.2c.781-.337,1.181-1.147,1.189-2.408a14.232,14.232,0,0,0-.861-4.334c3.994-2.806,4.108-4.389,4.088-4.688a.534.534,0,0,0,0-.09v-.006l0-.028c-.345-2.412-4.693-2.673-6.547-2.673h-.125c-.464-1.378-1.923-5.175-3.909-5.175Z" transform="translate(-62.454 -66.08)" fill="#fff"/>
            </g>
            <g id="Group_27747-3" data-name="Group 27747" transform="translate(0.466 0.465)">
              <path id="Path_56547-3" data-name="Path 56547" d="M66.893,78.771s-4.029-2.3-3.669-4.784,5.9-1.762,5.9-1.762,1.978-5.288,3.957-5.4,3.633,5.18,3.633,5.18,6.187-.252,6.547,2.266c0,0,.108,1.547-4.208,4.5,0,0,2.158,5.576.072,6.475s-5.892-2.158-5.892-2.158a8.869,8.869,0,0,1-5.8,2.086C64.016,85.065,66.893,78.771,66.893,78.771Z" transform="translate(-63.201 -66.826)" fill="#ffdb2d"/>
            </g>
            <g id="Group_27748-3" data-name="Group 27748" transform="translate(0.781 0.694)">
              <path id="Path_56552-3" data-name="Path 56552" d="M77.013,67.2s-1.34.007-3.139,4.152c0,0,2.59-4.847,3.975-3.678C78.334,68.032,77.952,67.131,77.013,67.2Z" transform="translate(-67.539 -67.194)" fill="#fff" opacity="0.7"/>
              <path id="Path_56553-3" data-name="Path 56553" d="M69.143,75.729a16.515,16.515,0,0,0-4,.523c-.746.238-1.216,1.257-1.376,1.214C63.478,77.376,64.107,75.1,69.143,75.729Z" transform="translate(-63.708 -70.37)" fill="#fff" opacity="0.5"/>
            </g>
          </g>
          <g id="Group_27752" data-name="Group 27752" transform="translate(86.672 0)">
            <g id="Group_27254-4" data-name="Group 27254" transform="translate(0.467 2.15)" opacity="0.26">
              <path id="Path_56544-4" data-name="Path 56544" d="M83.26,76.978c-.36-2.518-6.547-2.266-6.547-2.266s-1.654-5.288-3.633-5.18-3.957,5.4-3.957,5.4-5.539-.719-5.9,1.763a2.163,2.163,0,0,0-.02.31c-.1,2.273,3.308,4.339,3.657,4.545a12.692,12.692,0,0,0-1.1,4.308c-.015,1.14.375,2.072,1.671,2.113a8.869,8.869,0,0,0,5.8-2.086s3.806,3.057,5.892,2.158c.672-.29.9-1.066.907-1.983a14.59,14.59,0,0,0-.953-4.509c4.289-2.937,4.182-4.478,4.182-4.478l0-.017A.519.519,0,0,0,83.26,76.978Z" transform="translate(-63.203 -69.53)"/>
            </g>
            <g id="Group_27255-4" data-name="Group 27255" transform="translate(0)">
              <path id="Path_56545-4" data-name="Path 56545" d="M72.858,66.545c1.952,0,3.573,5.181,3.573,5.181s.172-.007.46-.007c1.44,0,5.787.175,6.087,2.273a.516.516,0,0,1,0,.072l0,.018s.107,1.54-4.182,4.478a14.59,14.59,0,0,1,.953,4.509c-.005.918-.235,1.694-.907,1.983a2.2,2.2,0,0,1-.875.166c-2.124,0-5.017-2.324-5.017-2.324a8.9,8.9,0,0,1-5.554,2.09c-.081,0-.163,0-.244,0-1.3-.041-1.686-.973-1.671-2.113a12.7,12.7,0,0,1,1.1-4.308c-.349-.206-3.755-2.272-3.657-4.545a2.16,2.16,0,0,1,.02-.31c.227-1.571,2.531-1.859,4.19-1.859a14.794,14.794,0,0,1,1.709.1s1.978-5.287,3.957-5.4h.06m0-.465h0l-.085,0c-1.974.108-3.724,4.085-4.237,5.361-.319-.029-.821-.062-1.4-.062-3.574,0-4.5,1.228-4.652,2.258a2.7,2.7,0,0,0-.025.375c-.093,2.168,2.467,4.045,3.54,4.733a12.32,12.32,0,0,0-.982,4.124c-.028,2.181,1.317,2.55,2.122,2.575.087,0,.173,0,.259,0a9.323,9.323,0,0,0,5.566-1.96c.822.61,3.139,2.194,5,2.194a2.662,2.662,0,0,0,1.06-.2c.781-.337,1.181-1.147,1.189-2.408a14.232,14.232,0,0,0-.861-4.334c3.994-2.806,4.108-4.389,4.088-4.688a.534.534,0,0,0,0-.09v-.006l0-.028c-.345-2.412-4.693-2.673-6.547-2.673h-.125c-.464-1.378-1.923-5.175-3.909-5.175Z" transform="translate(-62.454 -66.08)" fill="#fff"/>
            </g>
            <g id="Group_27747-4" data-name="Group 27747" transform="translate(0.466 0.465)">
              <path id="Path_56547-4" data-name="Path 56547" d="M66.893,78.771s-4.029-2.3-3.669-4.784,5.9-1.762,5.9-1.762,1.978-5.288,3.957-5.4,3.633,5.18,3.633,5.18,6.187-.252,6.547,2.266c0,0,.108,1.547-4.208,4.5,0,0,2.158,5.576.072,6.475s-5.892-2.158-5.892-2.158a8.869,8.869,0,0,1-5.8,2.086C64.016,85.065,66.893,78.771,66.893,78.771Z" transform="translate(-63.201 -66.826)" fill="#ffdb2d"/>
            </g>
            <g id="Group_27748-4" data-name="Group 27748" transform="translate(0.781 0.694)">
              <path id="Path_56552-4" data-name="Path 56552" d="M77.013,67.2s-1.34.007-3.139,4.152c0,0,2.59-4.847,3.975-3.678C78.334,68.032,77.952,67.131,77.013,67.2Z" transform="translate(-67.539 -67.194)" fill="#fff" opacity="0.7"/>
              <path id="Path_56553-4" data-name="Path 56553" d="M69.143,75.729a16.515,16.515,0,0,0-4,.523c-.746.238-1.216,1.257-1.376,1.214C63.478,77.376,64.107,75.1,69.143,75.729Z" transform="translate(-63.708 -70.37)" fill="#fff" opacity="0.5"/>
            </g>
          </g>
        </g>
      </g>
      <g id="Group_27746" data-name="Group 27746" transform="translate(906 6047.008)">
        <path id="Path_57052" data-name="Path 57052" d="M886.414,903.711c0,24.332-22.775,37.673-50.871,37.673s-50.869-13.341-50.869-37.673,22.775-50.448,50.869-50.448S886.414,879.377,886.414,903.711Z" transform="translate(-784.674 -830.44)" fill="#8ae66b"/>
        <g id="Group_27740" data-name="Group 27740" transform="translate(14.991 73.815)">
          <path id="Path_57053" data-name="Path 57053" d="M808.836,914.743c0,2.938-1.713,5.319-3.827,5.319s-3.826-2.381-3.826-5.319,1.714-5.323,3.826-5.323S808.836,911.8,808.836,914.743Z" transform="translate(-801.183 -909.42)" fill="#441f04"/>
          <path id="Path_57054" data-name="Path 57054" d="M805.318,912.361c0,1.219-.712,2.209-1.589,2.209s-1.588-.991-1.588-2.209.712-2.207,1.588-2.207S805.318,911.14,805.318,912.361Z" transform="translate(-801.271 -909.487)" fill="#fff"/>
        </g>
        <g id="Group_27741" data-name="Group 27741" transform="translate(77.568 73.815)">
          <path id="Path_57055" data-name="Path 57055" d="M877.751,914.743c0,2.938-1.714,5.319-3.827,5.319s-3.826-2.381-3.826-5.319,1.713-5.323,3.826-5.323S877.751,911.8,877.751,914.743Z" transform="translate(-870.098 -909.42)" fill="#441f04"/>
          <path id="Path_57056" data-name="Path 57056" d="M874.231,912.361c0,1.219-.711,2.209-1.587,2.209s-1.589-.991-1.589-2.209.712-2.207,1.589-2.207S874.231,911.14,874.231,912.361Z" transform="translate(-870.186 -909.487)" fill="#fff"/>
        </g>
        <path id="Path_57057" data-name="Path 57057" d="M811.395,928.511a6.039,6.039,0,1,1-6.038-6.039A6.039,6.039,0,0,1,811.395,928.511Z" transform="translate(-786.021 -836.805)" fill="#ff6161"/>
        <path id="Path_57058" data-name="Path 57058" d="M880.193,928.511a6.04,6.04,0,1,1-6.04-6.039A6.041,6.041,0,0,1,880.193,928.511Z" transform="translate(-792.347 -836.805)" fill="#ff6161"/>
        <g id="Group_27742" data-name="Group 27742" transform="translate(3.81 53.727)">
          <path id="Path_57059" data-name="Path 57059" d="M816.735,939.668a10.4,10.4,0,0,1,8.3-2.937,11.315,11.315,0,0,1,2.421.479c.507.134.717.055.953-.416,1.47-2.95,4.151-4.075,7.169-4.607,3.052-.538,5.679.547,8.11,2.281a4.55,4.55,0,0,1,1.6,1.995c.312.773.711.892,1.474.686a10.985,10.985,0,0,1,8.837,1.191c.61.364.906,1.035,1.536,1.344a1.471,1.471,0,0,0,.117.494,10.978,10.978,0,0,1,1.77,7.175c-.586.765-1.508.77-2.319.972a7.579,7.579,0,0,0-3.61,1.9,2.692,2.692,0,0,0-.779,2.916,1.844,1.844,0,0,0,1.893,1.575,8.854,8.854,0,0,0,2.255-.246c.431-.078.877-.261,1.284.082-1.821,4.189-5.186,6.52-9.439,7.684a46.6,46.6,0,0,1-14.869,1.212,30.931,30.931,0,0,1-9.307-1.658c-3.658-1.374-6.552-3.638-8.058-7.388.307-.359.692-.212,1.057-.155.614.094,1.21.274,1.819.391.853.163,1.744.158,2.23-.655a2.723,2.723,0,0,0,.232-2.935,4.783,4.783,0,0,0-1.333-1.424,12.6,12.6,0,0,0-4.2-1.922c-.355-.1-.769-.063-1.022-.416a10.845,10.845,0,0,1,1.722-7.036A1.93,1.93,0,0,0,816.735,939.668Z" transform="translate(-791.256 -899.677)" fill="#fefd81" fill-rule="evenodd"/>
          <path id="Path_57060" data-name="Path 57060" d="M812.467,944.011a10.525,10.525,0,0,1,6.095,2.729,2.968,2.968,0,0,1,.587,4.01,2.158,2.158,0,0,1-2.526.918,13.313,13.313,0,0,0-2.938-.541c-2.263-.522-4.587-.538-6.878-.833a20.554,20.554,0,0,1-17.822-18.115c-.474-4.221.6-8.128,2.01-12.005a41.041,41.041,0,0,0,2.436-8.185,14.892,14.892,0,0,0-1.835-9.863c-.568-.982-1.111-1.984-1.621-3a1.842,1.842,0,0,1-.035-1.878,1.454,1.454,0,0,1,2.291-.451,13.5,13.5,0,0,1,4.071,4.886c2.709,4.942,2.859,10.1,1.343,15.427-.836,2.94-2.069,5.776-2.5,8.821-.642,4.5-.43,8.888,2.8,12.485a15.552,15.552,0,0,0,11.025,5.425A17.663,17.663,0,0,0,812.467,944.011Z" transform="translate(-788.87 -896.402)" fill="#54b332" fill-rule="evenodd"/>
          <path id="Path_57061" data-name="Path 57061" d="M861.491,951.274c-1.017.158-2.03.352-3.054.462a2.033,2.033,0,0,1-2.313-.968c-.465-1.011-.885-2.1-.14-3.2a6.159,6.159,0,0,1,3.42-2.512c1.119-.335,2.242-.658,3.363-.986,4.1-.117,8.061-.591,11.6-3.05,4.63-3.212,6.28-7.625,5.957-13.049-.2-3.284-1.378-6.3-2.311-9.393a24.535,24.535,0,0,1-1.342-9.562,18.413,18.413,0,0,1,5.208-11.325,8.308,8.308,0,0,1,1.218-.959,1.253,1.253,0,0,1,1.621-.068,1.663,1.663,0,0,1,.755,1.784,6.279,6.279,0,0,1-.976,2.155c-3.482,5.127-3.543,10.543-1.5,16.188a74.653,74.653,0,0,1,2.864,8.711,20.539,20.539,0,0,1-16.13,24.562c-2.245.421-4.525.487-6.778.813A3.376,3.376,0,0,0,861.491,951.274Z" transform="translate(-795.005 -896.399)" fill="#54b332" fill-rule="evenodd"/>
        </g>
        <path id="Path_57062" data-name="Path 57062" d="M826.562,855.588a20.478,20.478,0,0,1,.208,3.583c-.111,3.248-3.583,5.911-6.618,4.948-1.652-.525-2.461-2.088-3.386-3.426a16.719,16.719,0,0,1-.991-1.888,23.441,23.441,0,0,0-9.342-13.37,14.6,14.6,0,0,1-5.977-7.964,8.527,8.527,0,0,1,.1-5.49,3.623,3.623,0,0,1,5.27-2.191,14.248,14.248,0,0,1,4.243,3.4c2.732,2.835,3.88,2.684,5.685-.829,1.111-2.162,2.542-3.844,5.148-4.14a4.129,4.129,0,0,1,4.806,4.114,13.353,13.353,0,0,1-.716,5.11,22.274,22.274,0,0,0-1.35,6.627,19.427,19.427,0,0,0,1.4,7.674C825.542,853.033,826.055,854.31,826.562,855.588Z" transform="translate(-786.088 -828.135)" fill="#ce8554" fill-rule="evenodd"/>
        <path id="Path_57063" data-name="Path 57063" d="M860.775,858.788a23.4,23.4,0,0,1-2.737,4.205c-1.438,1.714-3.385,1.545-5.052.828-2.417-1.039-3.676-3.927-3.119-6.956a3.992,3.992,0,0,0,.163-1.3c.784-2.441,1.967-4.727,2.486-7.285a19.875,19.875,0,0,0-.725-10.085,15.847,15.847,0,0,1-.951-5.209c.053-1.854.5-3.514,2.257-4.357a4.977,4.977,0,0,1,5.385.712,6.622,6.622,0,0,1,1.9,2.211c.333.627.635,1.272.989,1.888,1.148,2,2.478,2.225,4.182.683,1.121-1.014,2.16-2.119,3.3-3.115a8.009,8.009,0,0,1,1.9-1.213A3.579,3.579,0,0,1,876,831.985c1.154,3.253.275,6.208-1.532,8.961a15.564,15.564,0,0,1-4.225,4.417A23.124,23.124,0,0,0,860.775,858.788Z" transform="translate(-790.657 -828.129)" fill="#ce8554" fill-rule="evenodd"/>
        <g id="Group_27743" data-name="Group 27743" transform="translate(6.727 18.251)">
          <path id="Path_57064" data-name="Path 57064" d="M799.313,873.058a2.73,2.73,0,0,0,.12-.538A8.847,8.847,0,0,0,804.8,868a2.452,2.452,0,0,0-.551-3.226c-2.082-1.954-3.192-4.471-4.436-6.971a19.714,19.714,0,0,0-5.163-7,2.415,2.415,0,0,1-.578-.512c1.651-2.182,3.359-2.589,5.8-1.406,3.565,1.731,6.109,4.617,8.591,7.572a45.378,45.378,0,0,1,4,5.722c.325.536.628.665,1.143.358.468.1.6.517.781.87" transform="translate(-792.265 -848.229)" fill="#8ae66b" fill-rule="evenodd"/>
          <path id="Path_57065" data-name="Path 57065" d="M793.886,850.494a6.8,6.8,0,0,1,3.4,3.188,26.844,26.844,0,0,1,3.066,5.219,12.745,12.745,0,0,0,3.507,5.453c2.245,1.912,1.46,3.644.218,5.339a9.477,9.477,0,0,1-4.009,3.072.8.8,0,0,1-.82-.036c-4.052-2.263-5.763-6.049-6.688-10.329a19.853,19.853,0,0,1,.207-9.523A6.251,6.251,0,0,1,793.886,850.494Z" transform="translate(-792.083 -848.437)" fill="#54b332" fill-rule="evenodd"/>
        </g>
        <g id="Group_27744" data-name="Group 27744" transform="translate(71.789 19.415)">
          <path id="Path_57066" data-name="Path 57066" d="M878.8,874.34a2.754,2.754,0,0,1-.12-.539,8.847,8.847,0,0,1-5.365-4.524,2.451,2.451,0,0,1,.551-3.225c2.082-1.954,3.192-4.472,4.436-6.972a19.692,19.692,0,0,1,5.163-7,2.439,2.439,0,0,0,.578-.513c-1.651-2.181-3.359-2.589-5.8-1.406-3.565,1.73-6.109,4.617-8.591,7.571a45.446,45.446,0,0,0-4,5.722c-.325.537-.627.666-1.143.358-.468.1-.6.518-.781.871" transform="translate(-863.733 -849.51)" fill="#8ae66b" fill-rule="evenodd"/>
          <path id="Path_57067" data-name="Path 57067" d="M884.95,851.775a6.8,6.8,0,0,0-3.4,3.188,26.847,26.847,0,0,0-3.066,5.219,12.751,12.751,0,0,1-3.507,5.453c-2.245,1.912-1.46,3.644-.218,5.339a9.474,9.474,0,0,0,4.009,3.071.8.8,0,0,0,.82-.036c4.052-2.263,5.763-6.049,6.688-10.329a19.85,19.85,0,0,0-.207-9.522A6.262,6.262,0,0,0,884.95,851.775Z" transform="translate(-864.636 -849.718)" fill="#54b332" fill-rule="evenodd"/>
        </g>
        <g id="Group_27745" data-name="Group 27745" transform="translate(39.609 101.298)">
          <path id="Path_57068" data-name="Path 57068" d="M849.458,950.436a.656.656,0,0,1-.373.636.717.717,0,0,1-.8-.112c-1.27-.9-1.272-.9-2.384.245a.758.758,0,0,1-1.041.213.769.769,0,0,1-.222-1.046,2.774,2.774,0,0,1,4.462-.774A1.147,1.147,0,0,1,849.458,950.436Z" transform="translate(-829.788 -948.788)" fill="#af5c1e" fill-rule="evenodd"/>
          <path id="Path_57069" data-name="Path 57069" d="M833.237,950.737c-.015.677-.589,1.011-1.1.676a2.968,2.968,0,0,1-.529-.566,1.115,1.115,0,0,0-1.868-.114c-.377.348-.768.652-1.208.205s-.222-.923.135-1.321a2.775,2.775,0,0,1,4.467.736A1.913,1.913,0,0,1,833.237,950.737Z" transform="translate(-828.295 -948.788)" fill="#af5c1e" fill-rule="evenodd"/>
        </g>
        <path id="Path_57070" data-name="Path 57070" d="M824.5,904.674a5.477,5.477,0,0,1-4.076-2.23c-.323-.373-.588-.728-1.154-.61-2.1.439-3.541-.548-4.587-2.227a1.592,1.592,0,0,0-1.881-.923c-2,.354-3.162-1.064-4.143-2.434a15.423,15.423,0,0,1-2.835-6.406c-.616-3.619,2.212-7.387,6.22-6.171a24.386,24.386,0,0,1,13.887,10.943,15.164,15.164,0,0,1,2.253,5.738A3.488,3.488,0,0,1,824.5,904.674Z" transform="translate(-786.611 -833.216)" fill="#54b332" fill-rule="evenodd"/>
        <path id="Path_57071" data-name="Path 57071" d="M867.36,898.737c-1.164-.59-1.61.362-2.24,1.219-1.021,1.387-2.345,2.318-4.218,1.9a1.216,1.216,0,0,0-1.3.576,5.306,5.306,0,0,1-4.215,2.238,3.445,3.445,0,0,1-3.536-4.3c.841-4.745,3.586-8.333,7-11.478a20.814,20.814,0,0,1,9.668-5.319,4.763,4.763,0,0,1,5.472,3.333c.9,3.563-1.676,9.6-4.853,11.474A3.633,3.633,0,0,1,867.36,898.737Z" transform="translate(-790.845 -833.219)" fill="#54b332" fill-rule="evenodd"/>
      </g>
    </g>
  </g>
</svg>
