<svg xmlns="http://www.w3.org/2000/svg" xmlns:xlink="http://www.w3.org/1999/xlink" width="181" height="181" viewBox="0 0 181 181">
  <defs>
    <linearGradient id="linear-gradient" x1="0.5" y1="0.136" x2="0.5" y2="1.1" gradientUnits="objectBoundingBox">
      <stop offset="0" stop-color="#206fcb"/>
      <stop offset="1" stop-color="#103866"/>
    </linearGradient>
    <linearGradient id="linear-gradient-3" x1="0.535" y1="-0.102" x2="0.5" y2="0.811" gradientUnits="objectBoundingBox">
      <stop offset="0" stop-color="#effaff"/>
      <stop offset="1" stop-color="#54bbed"/>
    </linearGradient>
    <linearGradient id="linear-gradient-4" x1="0.5" x2="0.5" y2="1" gradientUnits="objectBoundingBox">
      <stop offset="0" stop-color="#206fcb"/>
      <stop offset="1" stop-color="#246dc1"/>
    </linearGradient>
    <clipPath id="clip-Artboard_28">
      <rect width="181" height="181"/>
    </clipPath>
  </defs>
  <g id="Artboard_28" data-name="Artboard – 28" clip-path="url(#clip-Artboard_28)">
    <rect width="181" height="181" fill="#fff"/>
    <g id="Group_27874" data-name="Group 27874" transform="translate(-865.593 -2840)">
      <g id="Group_27868" data-name="Group 27868" transform="translate(693.25 2760.851)">
        <g id="Group_27306" data-name="Group 27306" transform="translate(173.751 218.662)">
          <path id="Path_56597" data-name="Path 56597" d="M53.973,0H0V28.789H53.973L46.58,14.826Z" transform="translate(124.213)" fill="url(#linear-gradient)"/>
          <path id="Path_56596" data-name="Path 56596" d="M0,0H53.973V28.789H0L7.394,14.826Z" fill="url(#linear-gradient)"/>
          <path id="Path_56595" data-name="Path 56595" d="M17.745,0H37.707L19.963,12.846V32.532H0V12.577Z" transform="translate(23.66)" fill="#1e559a"/>
          <path id="Path_56598" data-name="Path 56598" d="M19.963,0H0L17.745,12.846V32.532H37.707V12.577Z" transform="translate(117.558)" fill="#1e559a"/>
        </g>
        <ellipse id="Ellipse_681" data-name="Ellipse 681" cx="58.064" cy="58.064" rx="58.064" ry="58.064" transform="translate(204.453 141.149)" fill="url(#linear-gradient-3)"/>
        <rect id="Rectangle_19590" data-name="Rectangle 19590" width="132.146" height="29.366" transform="translate(197.248 230.58)" fill="url(#linear-gradient-4)"/>
        <g id="Group_27753" data-name="Group 27753" transform="translate(209.203 234.928)">
          <g id="Group_27749" data-name="Group 27749" transform="translate(0 0)">
            <g id="Group_27254" data-name="Group 27254" transform="translate(0.467 2.15)" opacity="0.26">
              <path id="Path_56544" data-name="Path 56544" d="M83.26,76.978c-.36-2.518-6.547-2.266-6.547-2.266s-1.654-5.288-3.633-5.18-3.957,5.4-3.957,5.4-5.539-.719-5.9,1.763a2.163,2.163,0,0,0-.02.31c-.1,2.273,3.308,4.339,3.657,4.545a12.692,12.692,0,0,0-1.1,4.308c-.015,1.14.375,2.072,1.671,2.113a8.869,8.869,0,0,0,5.8-2.086s3.806,3.057,5.892,2.158c.672-.29.9-1.066.907-1.983a14.59,14.59,0,0,0-.953-4.509c4.289-2.937,4.182-4.478,4.182-4.478l0-.017A.519.519,0,0,0,83.26,76.978Z" transform="translate(-63.203 -69.53)"/>
            </g>
            <g id="Group_27255" data-name="Group 27255">
              <path id="Path_56545" data-name="Path 56545" d="M72.858,66.545c1.952,0,3.573,5.181,3.573,5.181s.172-.007.46-.007c1.44,0,5.787.175,6.087,2.273a.516.516,0,0,1,0,.072l0,.018s.107,1.54-4.182,4.478a14.59,14.59,0,0,1,.953,4.509c-.005.918-.235,1.694-.907,1.983a2.2,2.2,0,0,1-.875.166c-2.124,0-5.017-2.324-5.017-2.324a8.9,8.9,0,0,1-5.554,2.09c-.081,0-.163,0-.244,0-1.3-.041-1.686-.973-1.671-2.113a12.7,12.7,0,0,1,1.1-4.308c-.349-.206-3.755-2.272-3.657-4.545a2.16,2.16,0,0,1,.02-.31c.227-1.571,2.531-1.859,4.19-1.859a14.794,14.794,0,0,1,1.709.1s1.978-5.287,3.957-5.4h.06m0-.465h0l-.085,0c-1.974.108-3.724,4.085-4.237,5.361-.319-.029-.821-.062-1.4-.062-3.574,0-4.5,1.228-4.652,2.258a2.7,2.7,0,0,0-.025.375c-.093,2.168,2.467,4.045,3.54,4.733a12.32,12.32,0,0,0-.982,4.124c-.028,2.181,1.317,2.55,2.122,2.575.087,0,.173,0,.259,0a9.323,9.323,0,0,0,5.566-1.96c.822.61,3.139,2.194,5,2.194a2.662,2.662,0,0,0,1.06-.2c.781-.337,1.181-1.147,1.189-2.408a14.232,14.232,0,0,0-.861-4.334c3.994-2.806,4.108-4.389,4.088-4.688a.534.534,0,0,0,0-.09v-.006l0-.028c-.345-2.412-4.693-2.673-6.547-2.673h-.125c-.464-1.378-1.923-5.175-3.909-5.175Z" transform="translate(-62.454 -66.08)" fill="#fff"/>
            </g>
            <g id="Group_27747" data-name="Group 27747" transform="translate(0.466 0.465)">
              <path id="Path_56547" data-name="Path 56547" d="M66.893,78.771s-4.029-2.3-3.669-4.784,5.9-1.762,5.9-1.762,1.978-5.288,3.957-5.4,3.633,5.18,3.633,5.18,6.187-.252,6.547,2.266c0,0,.108,1.547-4.208,4.5,0,0,2.158,5.576.072,6.475s-5.892-2.158-5.892-2.158a8.869,8.869,0,0,1-5.8,2.086C64.016,85.065,66.893,78.771,66.893,78.771Z" transform="translate(-63.201 -66.826)" fill="#ffdb2d"/>
            </g>
            <g id="Group_27748" data-name="Group 27748" transform="translate(0.781 0.694)">
              <path id="Path_56552" data-name="Path 56552" d="M77.013,67.2s-1.34.007-3.139,4.152c0,0,2.59-4.847,3.975-3.678C78.334,68.032,77.952,67.131,77.013,67.2Z" transform="translate(-67.539 -67.194)" fill="#fff" opacity="0.7"/>
              <path id="Path_56553" data-name="Path 56553" d="M69.143,75.729a16.515,16.515,0,0,0-4,.523c-.746.238-1.216,1.257-1.376,1.214C63.478,77.376,64.107,75.1,69.143,75.729Z" transform="translate(-63.708 -70.37)" fill="#fff" opacity="0.5"/>
            </g>
          </g>
          <g id="Group_27750" data-name="Group 27750" transform="translate(28.891 0)">
            <g id="Group_27254-2" data-name="Group 27254" transform="translate(0.467 2.15)" opacity="0.26">
              <path id="Path_56544-2" data-name="Path 56544" d="M83.26,76.978c-.36-2.518-6.547-2.266-6.547-2.266s-1.654-5.288-3.633-5.18-3.957,5.4-3.957,5.4-5.539-.719-5.9,1.763a2.163,2.163,0,0,0-.02.31c-.1,2.273,3.308,4.339,3.657,4.545a12.692,12.692,0,0,0-1.1,4.308c-.015,1.14.375,2.072,1.671,2.113a8.869,8.869,0,0,0,5.8-2.086s3.806,3.057,5.892,2.158c.672-.29.9-1.066.907-1.983a14.59,14.59,0,0,0-.953-4.509c4.289-2.937,4.182-4.478,4.182-4.478l0-.017A.519.519,0,0,0,83.26,76.978Z" transform="translate(-63.203 -69.53)"/>
            </g>
            <g id="Group_27255-2" data-name="Group 27255" transform="translate(0)">
              <path id="Path_56545-2" data-name="Path 56545" d="M72.858,66.545c1.952,0,3.573,5.181,3.573,5.181s.172-.007.46-.007c1.44,0,5.787.175,6.087,2.273a.516.516,0,0,1,0,.072l0,.018s.107,1.54-4.182,4.478a14.59,14.59,0,0,1,.953,4.509c-.005.918-.235,1.694-.907,1.983a2.2,2.2,0,0,1-.875.166c-2.124,0-5.017-2.324-5.017-2.324a8.9,8.9,0,0,1-5.554,2.09c-.081,0-.163,0-.244,0-1.3-.041-1.686-.973-1.671-2.113a12.7,12.7,0,0,1,1.1-4.308c-.349-.206-3.755-2.272-3.657-4.545a2.16,2.16,0,0,1,.02-.31c.227-1.571,2.531-1.859,4.19-1.859a14.794,14.794,0,0,1,1.709.1s1.978-5.287,3.957-5.4h.06m0-.465h0l-.085,0c-1.974.108-3.724,4.085-4.237,5.361-.319-.029-.821-.062-1.4-.062-3.574,0-4.5,1.228-4.652,2.258a2.7,2.7,0,0,0-.025.375c-.093,2.168,2.467,4.045,3.54,4.733a12.32,12.32,0,0,0-.982,4.124c-.028,2.181,1.317,2.55,2.122,2.575.087,0,.173,0,.259,0a9.323,9.323,0,0,0,5.566-1.96c.822.61,3.139,2.194,5,2.194a2.662,2.662,0,0,0,1.06-.2c.781-.337,1.181-1.147,1.189-2.408a14.232,14.232,0,0,0-.861-4.334c3.994-2.806,4.108-4.389,4.088-4.688a.534.534,0,0,0,0-.09v-.006l0-.028c-.345-2.412-4.693-2.673-6.547-2.673h-.125c-.464-1.378-1.923-5.175-3.909-5.175Z" transform="translate(-62.454 -66.08)" fill="#fff"/>
            </g>
            <g id="Group_27747-2" data-name="Group 27747" transform="translate(0.466 0.465)">
              <path id="Path_56547-2" data-name="Path 56547" d="M66.893,78.771s-4.029-2.3-3.669-4.784,5.9-1.762,5.9-1.762,1.978-5.288,3.957-5.4,3.633,5.18,3.633,5.18,6.187-.252,6.547,2.266c0,0,.108,1.547-4.208,4.5,0,0,2.158,5.576.072,6.475s-5.892-2.158-5.892-2.158a8.869,8.869,0,0,1-5.8,2.086C64.016,85.065,66.893,78.771,66.893,78.771Z" transform="translate(-63.201 -66.826)" fill="#ffdb2d"/>
            </g>
            <g id="Group_27748-2" data-name="Group 27748" transform="translate(0.781 0.694)">
              <path id="Path_56552-2" data-name="Path 56552" d="M77.013,67.2s-1.34.007-3.139,4.152c0,0,2.59-4.847,3.975-3.678C78.334,68.032,77.952,67.131,77.013,67.2Z" transform="translate(-67.539 -67.194)" fill="#fff" opacity="0.7"/>
              <path id="Path_56553-2" data-name="Path 56553" d="M69.143,75.729a16.515,16.515,0,0,0-4,.523c-.746.238-1.216,1.257-1.376,1.214C63.478,77.376,64.107,75.1,69.143,75.729Z" transform="translate(-63.708 -70.37)" fill="#fff" opacity="0.5"/>
            </g>
          </g>
          <g id="Group_27751" data-name="Group 27751" transform="translate(57.781 0)">
            <g id="Group_27254-3" data-name="Group 27254" transform="translate(0.467 2.15)" opacity="0.26">
              <path id="Path_56544-3" data-name="Path 56544" d="M83.26,76.978c-.36-2.518-6.547-2.266-6.547-2.266s-1.654-5.288-3.633-5.18-3.957,5.4-3.957,5.4-5.539-.719-5.9,1.763a2.163,2.163,0,0,0-.02.31c-.1,2.273,3.308,4.339,3.657,4.545a12.692,12.692,0,0,0-1.1,4.308c-.015,1.14.375,2.072,1.671,2.113a8.869,8.869,0,0,0,5.8-2.086s3.806,3.057,5.892,2.158c.672-.29.9-1.066.907-1.983a14.59,14.59,0,0,0-.953-4.509c4.289-2.937,4.182-4.478,4.182-4.478l0-.017A.519.519,0,0,0,83.26,76.978Z" transform="translate(-63.203 -69.53)"/>
            </g>
            <g id="Group_27255-3" data-name="Group 27255" transform="translate(0)">
              <path id="Path_56545-3" data-name="Path 56545" d="M72.858,66.545c1.952,0,3.573,5.181,3.573,5.181s.172-.007.46-.007c1.44,0,5.787.175,6.087,2.273a.516.516,0,0,1,0,.072l0,.018s.107,1.54-4.182,4.478a14.59,14.59,0,0,1,.953,4.509c-.005.918-.235,1.694-.907,1.983a2.2,2.2,0,0,1-.875.166c-2.124,0-5.017-2.324-5.017-2.324a8.9,8.9,0,0,1-5.554,2.09c-.081,0-.163,0-.244,0-1.3-.041-1.686-.973-1.671-2.113a12.7,12.7,0,0,1,1.1-4.308c-.349-.206-3.755-2.272-3.657-4.545a2.16,2.16,0,0,1,.02-.31c.227-1.571,2.531-1.859,4.19-1.859a14.794,14.794,0,0,1,1.709.1s1.978-5.287,3.957-5.4h.06m0-.465h0l-.085,0c-1.974.108-3.724,4.085-4.237,5.361-.319-.029-.821-.062-1.4-.062-3.574,0-4.5,1.228-4.652,2.258a2.7,2.7,0,0,0-.025.375c-.093,2.168,2.467,4.045,3.54,4.733a12.32,12.32,0,0,0-.982,4.124c-.028,2.181,1.317,2.55,2.122,2.575.087,0,.173,0,.259,0a9.323,9.323,0,0,0,5.566-1.96c.822.61,3.139,2.194,5,2.194a2.662,2.662,0,0,0,1.06-.2c.781-.337,1.181-1.147,1.189-2.408a14.232,14.232,0,0,0-.861-4.334c3.994-2.806,4.108-4.389,4.088-4.688a.534.534,0,0,0,0-.09v-.006l0-.028c-.345-2.412-4.693-2.673-6.547-2.673h-.125c-.464-1.378-1.923-5.175-3.909-5.175Z" transform="translate(-62.454 -66.08)" fill="#fff"/>
            </g>
            <g id="Group_27747-3" data-name="Group 27747" transform="translate(0.466 0.465)">
              <path id="Path_56547-3" data-name="Path 56547" d="M66.893,78.771s-4.029-2.3-3.669-4.784,5.9-1.762,5.9-1.762,1.978-5.288,3.957-5.4,3.633,5.18,3.633,5.18,6.187-.252,6.547,2.266c0,0,.108,1.547-4.208,4.5,0,0,2.158,5.576.072,6.475s-5.892-2.158-5.892-2.158a8.869,8.869,0,0,1-5.8,2.086C64.016,85.065,66.893,78.771,66.893,78.771Z" transform="translate(-63.201 -66.826)" fill="#ffdb2d"/>
            </g>
            <g id="Group_27748-3" data-name="Group 27748" transform="translate(0.781 0.694)">
              <path id="Path_56552-3" data-name="Path 56552" d="M77.013,67.2s-1.34.007-3.139,4.152c0,0,2.59-4.847,3.975-3.678C78.334,68.032,77.952,67.131,77.013,67.2Z" transform="translate(-67.539 -67.194)" fill="#fff" opacity="0.7"/>
              <path id="Path_56553-3" data-name="Path 56553" d="M69.143,75.729a16.515,16.515,0,0,0-4,.523c-.746.238-1.216,1.257-1.376,1.214C63.478,77.376,64.107,75.1,69.143,75.729Z" transform="translate(-63.708 -70.37)" fill="#fff" opacity="0.5"/>
            </g>
          </g>
          <g id="Group_27752" data-name="Group 27752" transform="translate(86.672 0)">
            <g id="Group_27254-4" data-name="Group 27254" transform="translate(0.467 2.15)" opacity="0.26">
              <path id="Path_56544-4" data-name="Path 56544" d="M83.26,76.978c-.36-2.518-6.547-2.266-6.547-2.266s-1.654-5.288-3.633-5.18-3.957,5.4-3.957,5.4-5.539-.719-5.9,1.763a2.163,2.163,0,0,0-.02.31c-.1,2.273,3.308,4.339,3.657,4.545a12.692,12.692,0,0,0-1.1,4.308c-.015,1.14.375,2.072,1.671,2.113a8.869,8.869,0,0,0,5.8-2.086s3.806,3.057,5.892,2.158c.672-.29.9-1.066.907-1.983a14.59,14.59,0,0,0-.953-4.509c4.289-2.937,4.182-4.478,4.182-4.478l0-.017A.519.519,0,0,0,83.26,76.978Z" transform="translate(-63.203 -69.53)"/>
            </g>
            <g id="Group_27255-4" data-name="Group 27255" transform="translate(0)">
              <path id="Path_56545-4" data-name="Path 56545" d="M72.858,66.545c1.952,0,3.573,5.181,3.573,5.181s.172-.007.46-.007c1.44,0,5.787.175,6.087,2.273a.516.516,0,0,1,0,.072l0,.018s.107,1.54-4.182,4.478a14.59,14.59,0,0,1,.953,4.509c-.005.918-.235,1.694-.907,1.983a2.2,2.2,0,0,1-.875.166c-2.124,0-5.017-2.324-5.017-2.324a8.9,8.9,0,0,1-5.554,2.09c-.081,0-.163,0-.244,0-1.3-.041-1.686-.973-1.671-2.113a12.7,12.7,0,0,1,1.1-4.308c-.349-.206-3.755-2.272-3.657-4.545a2.16,2.16,0,0,1,.02-.31c.227-1.571,2.531-1.859,4.19-1.859a14.794,14.794,0,0,1,1.709.1s1.978-5.287,3.957-5.4h.06m0-.465h0l-.085,0c-1.974.108-3.724,4.085-4.237,5.361-.319-.029-.821-.062-1.4-.062-3.574,0-4.5,1.228-4.652,2.258a2.7,2.7,0,0,0-.025.375c-.093,2.168,2.467,4.045,3.54,4.733a12.32,12.32,0,0,0-.982,4.124c-.028,2.181,1.317,2.55,2.122,2.575.087,0,.173,0,.259,0a9.323,9.323,0,0,0,5.566-1.96c.822.61,3.139,2.194,5,2.194a2.662,2.662,0,0,0,1.06-.2c.781-.337,1.181-1.147,1.189-2.408a14.232,14.232,0,0,0-.861-4.334c3.994-2.806,4.108-4.389,4.088-4.688a.534.534,0,0,0,0-.09v-.006l0-.028c-.345-2.412-4.693-2.673-6.547-2.673h-.125c-.464-1.378-1.923-5.175-3.909-5.175Z" transform="translate(-62.454 -66.08)" fill="#fff"/>
            </g>
            <g id="Group_27747-4" data-name="Group 27747" transform="translate(0.466 0.465)">
              <path id="Path_56547-4" data-name="Path 56547" d="M66.893,78.771s-4.029-2.3-3.669-4.784,5.9-1.762,5.9-1.762,1.978-5.288,3.957-5.4,3.633,5.18,3.633,5.18,6.187-.252,6.547,2.266c0,0,.108,1.547-4.208,4.5,0,0,2.158,5.576.072,6.475s-5.892-2.158-5.892-2.158a8.869,8.869,0,0,1-5.8,2.086C64.016,85.065,66.893,78.771,66.893,78.771Z" transform="translate(-63.201 -66.826)" fill="#ffdb2d"/>
            </g>
            <g id="Group_27748-4" data-name="Group 27748" transform="translate(0.781 0.694)">
              <path id="Path_56552-4" data-name="Path 56552" d="M77.013,67.2s-1.34.007-3.139,4.152c0,0,2.59-4.847,3.975-3.678C78.334,68.032,77.952,67.131,77.013,67.2Z" transform="translate(-67.539 -67.194)" fill="#fff" opacity="0.7"/>
              <path id="Path_56553-4" data-name="Path 56553" d="M69.143,75.729a16.515,16.515,0,0,0-4,.523c-.746.238-1.216,1.257-1.376,1.214C63.478,77.376,64.107,75.1,69.143,75.729Z" transform="translate(-63.708 -70.37)" fill="#fff" opacity="0.5"/>
            </g>
          </g>
        </g>
      </g>
      <g id="Group_27869" data-name="Group 27869" transform="translate(902 2840)">
        <g id="Group_27312" data-name="Group 27312">
          <g id="Group_27309" data-name="Group 27309">
            <path id="Path_56599" data-name="Path 56599" d="M1280.4,177.885c-7.341,22.563-20.394,38.542-29.156,35.692s-9.914-23.453-2.573-46.016,20.393-38.544,29.156-35.693S1287.742,155.321,1280.4,177.885Z" transform="translate(-1175.639 -131.54)" fill="#fff"/>
            <path id="Path_56600" data-name="Path 56600" d="M1173.565,177.885c7.341,22.563,20.394,38.544,29.155,35.692s9.915-23.453,2.574-46.015-20.394-38.544-29.157-35.692S1166.224,155.323,1173.565,177.885Z" transform="translate(-1168.732 -131.54)" fill="#fff"/>
          </g>
          <path id="Path_56601" data-name="Path 56601" d="M1182.658,182.343c5.735,16.949,13.034,29.788,19.617,27.562s4.587-16.87-1.146-33.822-13.035-29.789-19.618-27.563S1176.926,165.392,1182.658,182.343Z" transform="translate(-1169.529 -133.078)" fill="#ffbdbd"/>
          <path id="Path_56602" data-name="Path 56602" d="M1253.338,175.965c-5.85,16.911-7.946,31.53-1.379,33.8s13.96-10.524,19.813-27.434,7.947-31.53,1.38-33.8S1259.192,159.056,1253.338,175.965Z" transform="translate(-1176.013 -133.078)" fill="#ffbdbd"/>
          <path id="Path_56603" data-name="Path 56603" d="M1273.875,244.006c0,23.841-22.317,36.914-49.843,36.914s-49.845-13.073-49.845-36.914,22.316-49.427,49.845-49.427S1273.875,220.165,1273.875,244.006Z" transform="translate(-1169.234 -137.337)" fill="#fff"/>
          <g id="Group_27310" data-name="Group 27310" transform="translate(19.861 107.203)">
            <path id="Path_56604" data-name="Path 56604" d="M1198.1,254.816c0,2.878-1.677,5.213-3.748,5.213s-3.75-2.335-3.75-5.213,1.68-5.217,3.75-5.217S1198.1,251.934,1198.1,254.816Z" transform="translate(-1190.605 -249.599)" fill="#441f04"/>
            <path id="Path_56605" data-name="Path 56605" d="M1194.657,252.481c0,1.2-.7,2.166-1.555,2.166s-1.557-.97-1.557-2.166.7-2.162,1.557-2.162S1194.657,251.287,1194.657,252.481Z" transform="translate(-1190.691 -249.665)" fill="#fff"/>
          </g>
          <g id="Group_27311" data-name="Group 27311" transform="translate(81.177 107.203)">
            <path id="Path_56606" data-name="Path 56606" d="M1265.628,254.816c0,2.878-1.678,5.213-3.749,5.213s-3.748-2.335-3.748-5.213,1.678-5.217,3.748-5.217S1265.628,251.934,1265.628,254.816Z" transform="translate(-1258.13 -249.599)" fill="#441f04"/>
            <path id="Path_56607" data-name="Path 56607" d="M1262.18,252.481c0,1.2-.7,2.166-1.556,2.166s-1.556-.97-1.556-2.166.7-2.162,1.556-2.162S1262.18,251.287,1262.18,252.481Z" transform="translate(-1258.216 -249.665)" fill="#fff"/>
          </g>
          <path id="Path_56608" data-name="Path 56608" d="M1234.579,261.108c0,1.987-2.785,3.6-6.222,3.6s-6.224-1.611-6.224-3.6,2.785-3.6,6.224-3.6S1234.579,259.121,1234.579,261.108Z" transform="translate(-1173.643 -143.124)" fill="#441f04"/>
          <path id="Path_56609" data-name="Path 56609" d="M1201.977,268.307a5.918,5.918,0,1,1-5.917-5.918A5.918,5.918,0,0,1,1201.977,268.307Z" transform="translate(-1170.701 -143.573)" fill="#ffbdbd"/>
          <path id="Path_56610" data-name="Path 56610" d="M1268.02,268.307a5.917,5.917,0,1,1-5.917-5.918A5.918,5.918,0,0,1,1268.02,268.307Z" transform="translate(-1176.775 -143.573)" fill="#ffbdbd"/>
          <rect id="Rectangle_19591" data-name="Rectangle 19591" width="0.994" height="9.116" transform="translate(54.217 121.12)" fill="#441f04"/>
          <path id="Path_56611" data-name="Path 56611" d="M1233.738,271.012a5.322,5.322,0,0,1-5.239,3.811c-2.309,0-5.729-1.3-5.729-4.235a7.062,7.062,0,0,0,5.729,2.722A8.029,8.029,0,0,0,1233.738,271.012Z" transform="translate(-1173.702 -144.327)" fill="#441f04"/>
        </g>
      </g>
    </g>
  </g>
</svg>
