<svg xmlns="http://www.w3.org/2000/svg" xmlns:xlink="http://www.w3.org/1999/xlink" width="181" height="181" viewBox="0 0 181 181">
  <defs>
    <linearGradient id="linear-gradient" x1="0.5" y1="0.136" x2="0.5" y2="1.1" gradientUnits="objectBoundingBox">
      <stop offset="0" stop-color="#206fcb"/>
      <stop offset="1" stop-color="#103866"/>
    </linearGradient>
    <linearGradient id="linear-gradient-3" x1="0.535" y1="-0.102" x2="0.5" y2="0.811" gradientUnits="objectBoundingBox">
      <stop offset="0" stop-color="#effaff"/>
      <stop offset="1" stop-color="#54bbed"/>
    </linearGradient>
    <linearGradient id="linear-gradient-4" x1="0.5" x2="0.5" y2="1" gradientUnits="objectBoundingBox">
      <stop offset="0" stop-color="#206fcb"/>
      <stop offset="1" stop-color="#246dc1"/>
    </linearGradient>
    <clipPath id="clip-Artboard_29">
      <rect width="181" height="181"/>
    </clipPath>
  </defs>
  <g id="Artboard_29" data-name="Artboard – 29" clip-path="url(#clip-Artboard_29)">
    <rect width="181" height="181" fill="#fff"/>
    <g id="Group_27884" data-name="Group 27884" transform="translate(-127.593 -2440)">
      <g id="Group_27880" data-name="Group 27880" transform="translate(-44.75 2361.054)">
        <g id="Group_27306" data-name="Group 27306" transform="translate(173.751 218.662)">
          <path id="Path_56597" data-name="Path 56597" d="M53.973,0H0V28.789H53.973L46.58,14.826Z" transform="translate(124.213)" fill="url(#linear-gradient)"/>
          <path id="Path_56596" data-name="Path 56596" d="M0,0H53.973V28.789H0L7.394,14.826Z" fill="url(#linear-gradient)"/>
          <path id="Path_56595" data-name="Path 56595" d="M17.745,0H37.707L19.963,12.846V32.532H0V12.577Z" transform="translate(23.66)" fill="#1e559a"/>
          <path id="Path_56598" data-name="Path 56598" d="M19.963,0H0L17.745,12.846V32.532H37.707V12.577Z" transform="translate(117.558)" fill="#1e559a"/>
        </g>
        <ellipse id="Ellipse_681" data-name="Ellipse 681" cx="58.064" cy="58.064" rx="58.064" ry="58.064" transform="translate(204.453 141.149)" fill="url(#linear-gradient-3)"/>
        <rect id="Rectangle_19590" data-name="Rectangle 19590" width="132.146" height="29.366" transform="translate(197.248 230.58)" fill="url(#linear-gradient-4)"/>
        <g id="Group_27753" data-name="Group 27753" transform="translate(209.203 234.928)">
          <g id="Group_27749" data-name="Group 27749" transform="translate(0 0)">
            <g id="Group_27254" data-name="Group 27254" transform="translate(0.467 2.15)" opacity="0.26">
              <path id="Path_56544" data-name="Path 56544" d="M83.26,76.978c-.36-2.518-6.547-2.266-6.547-2.266s-1.654-5.288-3.633-5.18-3.957,5.4-3.957,5.4-5.539-.719-5.9,1.763a2.163,2.163,0,0,0-.02.31c-.1,2.273,3.308,4.339,3.657,4.545a12.692,12.692,0,0,0-1.1,4.308c-.015,1.14.375,2.072,1.671,2.113a8.869,8.869,0,0,0,5.8-2.086s3.806,3.057,5.892,2.158c.672-.29.9-1.066.907-1.983a14.59,14.59,0,0,0-.953-4.509c4.289-2.937,4.182-4.478,4.182-4.478l0-.017A.519.519,0,0,0,83.26,76.978Z" transform="translate(-63.203 -69.53)"/>
            </g>
            <g id="Group_27255" data-name="Group 27255">
              <path id="Path_56545" data-name="Path 56545" d="M72.858,66.545c1.952,0,3.573,5.181,3.573,5.181s.172-.007.46-.007c1.44,0,5.787.175,6.087,2.273a.516.516,0,0,1,0,.072l0,.018s.107,1.54-4.182,4.478a14.59,14.59,0,0,1,.953,4.509c-.005.918-.235,1.694-.907,1.983a2.2,2.2,0,0,1-.875.166c-2.124,0-5.017-2.324-5.017-2.324a8.9,8.9,0,0,1-5.554,2.09c-.081,0-.163,0-.244,0-1.3-.041-1.686-.973-1.671-2.113a12.7,12.7,0,0,1,1.1-4.308c-.349-.206-3.755-2.272-3.657-4.545a2.16,2.16,0,0,1,.02-.31c.227-1.571,2.531-1.859,4.19-1.859a14.794,14.794,0,0,1,1.709.1s1.978-5.287,3.957-5.4h.06m0-.465h0l-.085,0c-1.974.108-3.724,4.085-4.237,5.361-.319-.029-.821-.062-1.4-.062-3.574,0-4.5,1.228-4.652,2.258a2.7,2.7,0,0,0-.025.375c-.093,2.168,2.467,4.045,3.54,4.733a12.32,12.32,0,0,0-.982,4.124c-.028,2.181,1.317,2.55,2.122,2.575.087,0,.173,0,.259,0a9.323,9.323,0,0,0,5.566-1.96c.822.61,3.139,2.194,5,2.194a2.662,2.662,0,0,0,1.06-.2c.781-.337,1.181-1.147,1.189-2.408a14.232,14.232,0,0,0-.861-4.334c3.994-2.806,4.108-4.389,4.088-4.688a.534.534,0,0,0,0-.09v-.006l0-.028c-.345-2.412-4.693-2.673-6.547-2.673h-.125c-.464-1.378-1.923-5.175-3.909-5.175Z" transform="translate(-62.454 -66.08)" fill="#fff"/>
            </g>
            <g id="Group_27747" data-name="Group 27747" transform="translate(0.466 0.465)">
              <path id="Path_56547" data-name="Path 56547" d="M66.893,78.771s-4.029-2.3-3.669-4.784,5.9-1.762,5.9-1.762,1.978-5.288,3.957-5.4,3.633,5.18,3.633,5.18,6.187-.252,6.547,2.266c0,0,.108,1.547-4.208,4.5,0,0,2.158,5.576.072,6.475s-5.892-2.158-5.892-2.158a8.869,8.869,0,0,1-5.8,2.086C64.016,85.065,66.893,78.771,66.893,78.771Z" transform="translate(-63.201 -66.826)" fill="#ffdb2d"/>
            </g>
            <g id="Group_27748" data-name="Group 27748" transform="translate(0.781 0.694)">
              <path id="Path_56552" data-name="Path 56552" d="M77.013,67.2s-1.34.007-3.139,4.152c0,0,2.59-4.847,3.975-3.678C78.334,68.032,77.952,67.131,77.013,67.2Z" transform="translate(-67.539 -67.194)" fill="#fff" opacity="0.7"/>
              <path id="Path_56553" data-name="Path 56553" d="M69.143,75.729a16.515,16.515,0,0,0-4,.523c-.746.238-1.216,1.257-1.376,1.214C63.478,77.376,64.107,75.1,69.143,75.729Z" transform="translate(-63.708 -70.37)" fill="#fff" opacity="0.5"/>
            </g>
          </g>
          <g id="Group_27750" data-name="Group 27750" transform="translate(28.891 0)">
            <g id="Group_27254-2" data-name="Group 27254" transform="translate(0.467 2.15)" opacity="0.26">
              <path id="Path_56544-2" data-name="Path 56544" d="M83.26,76.978c-.36-2.518-6.547-2.266-6.547-2.266s-1.654-5.288-3.633-5.18-3.957,5.4-3.957,5.4-5.539-.719-5.9,1.763a2.163,2.163,0,0,0-.02.31c-.1,2.273,3.308,4.339,3.657,4.545a12.692,12.692,0,0,0-1.1,4.308c-.015,1.14.375,2.072,1.671,2.113a8.869,8.869,0,0,0,5.8-2.086s3.806,3.057,5.892,2.158c.672-.29.9-1.066.907-1.983a14.59,14.59,0,0,0-.953-4.509c4.289-2.937,4.182-4.478,4.182-4.478l0-.017A.519.519,0,0,0,83.26,76.978Z" transform="translate(-63.203 -69.53)"/>
            </g>
            <g id="Group_27255-2" data-name="Group 27255" transform="translate(0)">
              <path id="Path_56545-2" data-name="Path 56545" d="M72.858,66.545c1.952,0,3.573,5.181,3.573,5.181s.172-.007.46-.007c1.44,0,5.787.175,6.087,2.273a.516.516,0,0,1,0,.072l0,.018s.107,1.54-4.182,4.478a14.59,14.59,0,0,1,.953,4.509c-.005.918-.235,1.694-.907,1.983a2.2,2.2,0,0,1-.875.166c-2.124,0-5.017-2.324-5.017-2.324a8.9,8.9,0,0,1-5.554,2.09c-.081,0-.163,0-.244,0-1.3-.041-1.686-.973-1.671-2.113a12.7,12.7,0,0,1,1.1-4.308c-.349-.206-3.755-2.272-3.657-4.545a2.16,2.16,0,0,1,.02-.31c.227-1.571,2.531-1.859,4.19-1.859a14.794,14.794,0,0,1,1.709.1s1.978-5.287,3.957-5.4h.06m0-.465h0l-.085,0c-1.974.108-3.724,4.085-4.237,5.361-.319-.029-.821-.062-1.4-.062-3.574,0-4.5,1.228-4.652,2.258a2.7,2.7,0,0,0-.025.375c-.093,2.168,2.467,4.045,3.54,4.733a12.32,12.32,0,0,0-.982,4.124c-.028,2.181,1.317,2.55,2.122,2.575.087,0,.173,0,.259,0a9.323,9.323,0,0,0,5.566-1.96c.822.61,3.139,2.194,5,2.194a2.662,2.662,0,0,0,1.06-.2c.781-.337,1.181-1.147,1.189-2.408a14.232,14.232,0,0,0-.861-4.334c3.994-2.806,4.108-4.389,4.088-4.688a.534.534,0,0,0,0-.09v-.006l0-.028c-.345-2.412-4.693-2.673-6.547-2.673h-.125c-.464-1.378-1.923-5.175-3.909-5.175Z" transform="translate(-62.454 -66.08)" fill="#fff"/>
            </g>
            <g id="Group_27747-2" data-name="Group 27747" transform="translate(0.466 0.465)">
              <path id="Path_56547-2" data-name="Path 56547" d="M66.893,78.771s-4.029-2.3-3.669-4.784,5.9-1.762,5.9-1.762,1.978-5.288,3.957-5.4,3.633,5.18,3.633,5.18,6.187-.252,6.547,2.266c0,0,.108,1.547-4.208,4.5,0,0,2.158,5.576.072,6.475s-5.892-2.158-5.892-2.158a8.869,8.869,0,0,1-5.8,2.086C64.016,85.065,66.893,78.771,66.893,78.771Z" transform="translate(-63.201 -66.826)" fill="#0f4e98"/>
            </g>
            <g id="Group_27748-2" data-name="Group 27748" transform="translate(0.781 0.694)">
              <path id="Path_56552-2" data-name="Path 56552" d="M77.013,67.2s-1.34.007-3.139,4.152c0,0,2.59-4.847,3.975-3.678C78.334,68.032,77.952,67.131,77.013,67.2Z" transform="translate(-67.539 -67.194)" fill="#fff" opacity="0.7"/>
              <path id="Path_56553-2" data-name="Path 56553" d="M69.143,75.729a16.515,16.515,0,0,0-4,.523c-.746.238-1.216,1.257-1.376,1.214C63.478,77.376,64.107,75.1,69.143,75.729Z" transform="translate(-63.708 -70.37)" fill="#fff" opacity="0.5"/>
            </g>
          </g>
          <g id="Group_27751" data-name="Group 27751" transform="translate(57.781 0)">
            <g id="Group_27254-3" data-name="Group 27254" transform="translate(0.467 2.15)" opacity="0.26">
              <path id="Path_56544-3" data-name="Path 56544" d="M83.26,76.978c-.36-2.518-6.547-2.266-6.547-2.266s-1.654-5.288-3.633-5.18-3.957,5.4-3.957,5.4-5.539-.719-5.9,1.763a2.163,2.163,0,0,0-.02.31c-.1,2.273,3.308,4.339,3.657,4.545a12.692,12.692,0,0,0-1.1,4.308c-.015,1.14.375,2.072,1.671,2.113a8.869,8.869,0,0,0,5.8-2.086s3.806,3.057,5.892,2.158c.672-.29.9-1.066.907-1.983a14.59,14.59,0,0,0-.953-4.509c4.289-2.937,4.182-4.478,4.182-4.478l0-.017A.519.519,0,0,0,83.26,76.978Z" transform="translate(-63.203 -69.53)"/>
            </g>
            <g id="Group_27255-3" data-name="Group 27255" transform="translate(0)">
              <path id="Path_56545-3" data-name="Path 56545" d="M72.858,66.545c1.952,0,3.573,5.181,3.573,5.181s.172-.007.46-.007c1.44,0,5.787.175,6.087,2.273a.516.516,0,0,1,0,.072l0,.018s.107,1.54-4.182,4.478a14.59,14.59,0,0,1,.953,4.509c-.005.918-.235,1.694-.907,1.983a2.2,2.2,0,0,1-.875.166c-2.124,0-5.017-2.324-5.017-2.324a8.9,8.9,0,0,1-5.554,2.09c-.081,0-.163,0-.244,0-1.3-.041-1.686-.973-1.671-2.113a12.7,12.7,0,0,1,1.1-4.308c-.349-.206-3.755-2.272-3.657-4.545a2.16,2.16,0,0,1,.02-.31c.227-1.571,2.531-1.859,4.19-1.859a14.794,14.794,0,0,1,1.709.1s1.978-5.287,3.957-5.4h.06m0-.465h0l-.085,0c-1.974.108-3.724,4.085-4.237,5.361-.319-.029-.821-.062-1.4-.062-3.574,0-4.5,1.228-4.652,2.258a2.7,2.7,0,0,0-.025.375c-.093,2.168,2.467,4.045,3.54,4.733a12.32,12.32,0,0,0-.982,4.124c-.028,2.181,1.317,2.55,2.122,2.575.087,0,.173,0,.259,0a9.323,9.323,0,0,0,5.566-1.96c.822.61,3.139,2.194,5,2.194a2.662,2.662,0,0,0,1.06-.2c.781-.337,1.181-1.147,1.189-2.408a14.232,14.232,0,0,0-.861-4.334c3.994-2.806,4.108-4.389,4.088-4.688a.534.534,0,0,0,0-.09v-.006l0-.028c-.345-2.412-4.693-2.673-6.547-2.673h-.125c-.464-1.378-1.923-5.175-3.909-5.175Z" transform="translate(-62.454 -66.08)" fill="#fff"/>
            </g>
            <g id="Group_27747-3" data-name="Group 27747" transform="translate(0.466 0.465)">
              <path id="Path_56547-3" data-name="Path 56547" d="M66.893,78.771s-4.029-2.3-3.669-4.784,5.9-1.762,5.9-1.762,1.978-5.288,3.957-5.4,3.633,5.18,3.633,5.18,6.187-.252,6.547,2.266c0,0,.108,1.547-4.208,4.5,0,0,2.158,5.576.072,6.475s-5.892-2.158-5.892-2.158a8.869,8.869,0,0,1-5.8,2.086C64.016,85.065,66.893,78.771,66.893,78.771Z" transform="translate(-63.201 -66.826)" fill="#0f4e98"/>
            </g>
            <g id="Group_27748-3" data-name="Group 27748" transform="translate(0.781 0.694)">
              <path id="Path_56552-3" data-name="Path 56552" d="M77.013,67.2s-1.34.007-3.139,4.152c0,0,2.59-4.847,3.975-3.678C78.334,68.032,77.952,67.131,77.013,67.2Z" transform="translate(-67.539 -67.194)" fill="#fff" opacity="0.7"/>
              <path id="Path_56553-3" data-name="Path 56553" d="M69.143,75.729a16.515,16.515,0,0,0-4,.523c-.746.238-1.216,1.257-1.376,1.214C63.478,77.376,64.107,75.1,69.143,75.729Z" transform="translate(-63.708 -70.37)" fill="#fff" opacity="0.5"/>
            </g>
          </g>
          <g id="Group_27752" data-name="Group 27752" transform="translate(86.672 0)">
            <g id="Group_27254-4" data-name="Group 27254" transform="translate(0.467 2.15)" opacity="0.26">
              <path id="Path_56544-4" data-name="Path 56544" d="M83.26,76.978c-.36-2.518-6.547-2.266-6.547-2.266s-1.654-5.288-3.633-5.18-3.957,5.4-3.957,5.4-5.539-.719-5.9,1.763a2.163,2.163,0,0,0-.02.31c-.1,2.273,3.308,4.339,3.657,4.545a12.692,12.692,0,0,0-1.1,4.308c-.015,1.14.375,2.072,1.671,2.113a8.869,8.869,0,0,0,5.8-2.086s3.806,3.057,5.892,2.158c.672-.29.9-1.066.907-1.983a14.59,14.59,0,0,0-.953-4.509c4.289-2.937,4.182-4.478,4.182-4.478l0-.017A.519.519,0,0,0,83.26,76.978Z" transform="translate(-63.203 -69.53)"/>
            </g>
            <g id="Group_27255-4" data-name="Group 27255" transform="translate(0)">
              <path id="Path_56545-4" data-name="Path 56545" d="M72.858,66.545c1.952,0,3.573,5.181,3.573,5.181s.172-.007.46-.007c1.44,0,5.787.175,6.087,2.273a.516.516,0,0,1,0,.072l0,.018s.107,1.54-4.182,4.478a14.59,14.59,0,0,1,.953,4.509c-.005.918-.235,1.694-.907,1.983a2.2,2.2,0,0,1-.875.166c-2.124,0-5.017-2.324-5.017-2.324a8.9,8.9,0,0,1-5.554,2.09c-.081,0-.163,0-.244,0-1.3-.041-1.686-.973-1.671-2.113a12.7,12.7,0,0,1,1.1-4.308c-.349-.206-3.755-2.272-3.657-4.545a2.16,2.16,0,0,1,.02-.31c.227-1.571,2.531-1.859,4.19-1.859a14.794,14.794,0,0,1,1.709.1s1.978-5.287,3.957-5.4h.06m0-.465h0l-.085,0c-1.974.108-3.724,4.085-4.237,5.361-.319-.029-.821-.062-1.4-.062-3.574,0-4.5,1.228-4.652,2.258a2.7,2.7,0,0,0-.025.375c-.093,2.168,2.467,4.045,3.54,4.733a12.32,12.32,0,0,0-.982,4.124c-.028,2.181,1.317,2.55,2.122,2.575.087,0,.173,0,.259,0a9.323,9.323,0,0,0,5.566-1.96c.822.61,3.139,2.194,5,2.194a2.662,2.662,0,0,0,1.06-.2c.781-.337,1.181-1.147,1.189-2.408a14.232,14.232,0,0,0-.861-4.334c3.994-2.806,4.108-4.389,4.088-4.688a.534.534,0,0,0,0-.09v-.006l0-.028c-.345-2.412-4.693-2.673-6.547-2.673h-.125c-.464-1.378-1.923-5.175-3.909-5.175Z" transform="translate(-62.454 -66.08)" fill="#fff"/>
            </g>
            <g id="Group_27747-4" data-name="Group 27747" transform="translate(0.466 0.465)">
              <path id="Path_56547-4" data-name="Path 56547" d="M66.893,78.771s-4.029-2.3-3.669-4.784,5.9-1.762,5.9-1.762,1.978-5.288,3.957-5.4,3.633,5.18,3.633,5.18,6.187-.252,6.547,2.266c0,0,.108,1.547-4.208,4.5,0,0,2.158,5.576.072,6.475s-5.892-2.158-5.892-2.158a8.869,8.869,0,0,1-5.8,2.086C64.016,85.065,66.893,78.771,66.893,78.771Z" transform="translate(-63.201 -66.826)" fill="#0f4e98"/>
            </g>
            <g id="Group_27748-4" data-name="Group 27748" transform="translate(0.781 0.694)">
              <path id="Path_56552-4" data-name="Path 56552" d="M77.013,67.2s-1.34.007-3.139,4.152c0,0,2.59-4.847,3.975-3.678C78.334,68.032,77.952,67.131,77.013,67.2Z" transform="translate(-67.539 -67.194)" fill="#fff" opacity="0.7"/>
              <path id="Path_56553-4" data-name="Path 56553" d="M69.143,75.729a16.515,16.515,0,0,0-4,.523c-.746.238-1.216,1.257-1.376,1.214C63.478,77.376,64.107,75.1,69.143,75.729Z" transform="translate(-63.708 -70.37)" fill="#fff" opacity="0.5"/>
            </g>
          </g>
        </g>
      </g>
      <g id="Group_27883" data-name="Group 27883" transform="translate(167 2495)">
        <g id="Group_27353" data-name="Group 27353">
          <path id="Path_56688" data-name="Path 56688" d="M1405.387,184.241c5.284,6.906-2.178,7.446-9.084,12.73s-10.639,13.311-15.923,6.4-5.815-24.926-2.172-27.836C1384.3,170.672,1400.1,177.335,1405.387,184.241Z" transform="translate(-1375.869 -173.871)" fill="#6d9fcc"/>
          <path id="Path_56689" data-name="Path 56689" d="M1401,189.261c3.058,3.994-1.26,4.309-5.256,7.366s-6.158,7.7-9.215,3.708-5.157-13.453-1.161-16.511S1397.948,185.265,1401,189.261Z" transform="translate(-1376.541 -174.694)" fill="#ffbdbd"/>
        </g>
        <g id="Group_27354" data-name="Group 27354" transform="translate(71.858)">
          <path id="Path_56690" data-name="Path 56690" d="M1456.789,184.241c-5.282,6.906,2.179,7.446,9.084,12.73s10.641,13.311,15.924,6.4,5.815-24.926,2.172-27.836C1477.879,170.672,1462.074,177.335,1456.789,184.241Z" transform="translate(-1455.004 -173.871)" fill="#6d9fcc"/>
          <path id="Path_56691" data-name="Path 56691" d="M1462.432,189.261c-3.058,3.994,1.261,4.309,5.256,7.366s6.156,7.7,9.214,3.708,5.158-13.453,1.162-16.511S1465.489,185.265,1462.432,189.261Z" transform="translate(-1455.592 -174.694)" fill="#ffbdbd"/>
        </g>
        <path id="Path_56692" data-name="Path 56692" d="M1477.587,227.348c0,23.841-22.316,36.914-49.843,36.914S1377.9,251.19,1377.9,227.348s22.316-49.427,49.844-49.427S1477.587,203.507,1477.587,227.348Z" transform="translate(-1376.056 -174.244)" fill="#6d9fcc"/>
        <g id="Group_27355" data-name="Group 27355" transform="translate(16.753 53.639)">
          <path id="Path_56693" data-name="Path 56693" d="M1401.816,238.158c0,2.879-1.677,5.213-3.749,5.213s-3.748-2.334-3.748-5.213,1.679-5.216,3.748-5.216S1401.816,235.277,1401.816,238.158Z" transform="translate(-1394.319 -232.942)" fill="#441f04"/>
          <path id="Path_56694" data-name="Path 56694" d="M1398.369,235.824c0,1.194-.7,2.166-1.554,2.166s-1.558-.972-1.558-2.166.7-2.163,1.558-2.163S1398.369,234.63,1398.369,235.824Z" transform="translate(-1394.405 -233.008)" fill="#fff"/>
        </g>
        <path id="Path_56695" data-name="Path 56695" d="M1444.937,250.88c0,5.157-5.823,9.337-13.008,9.337s-13.006-4.181-13.006-9.337,5.823-9.336,13.006-9.336S1444.937,245.725,1444.937,250.88Z" transform="translate(-1379.828 -180.094)" fill="#fff"/>
        <g id="Group_27356" data-name="Group 27356" transform="translate(78.067 53.639)">
          <path id="Path_56696" data-name="Path 56696" d="M1469.341,238.158c0,2.879-1.679,5.213-3.749,5.213s-3.749-2.334-3.749-5.213,1.679-5.216,3.749-5.216S1469.341,235.277,1469.341,238.158Z" transform="translate(-1461.842 -232.942)" fill="#441f04"/>
          <path id="Path_56697" data-name="Path 56697" d="M1465.892,235.824c0,1.194-.7,2.166-1.554,2.166s-1.558-.972-1.558-2.166.7-2.163,1.558-2.163S1465.892,234.63,1465.892,235.824Z" transform="translate(-1461.928 -233.008)" fill="#fff"/>
        </g>
        <path id="Path_56698" data-name="Path 56698" d="M1438.293,244.451c0,1.987-2.788,3.6-6.225,3.6s-6.222-1.611-6.222-3.6,2.785-3.6,6.222-3.6S1438.293,242.464,1438.293,244.451Z" transform="translate(-1380.465 -180.031)" fill="#441f04"/>
        <path id="Path_56699" data-name="Path 56699" d="M1405.689,251.65a5.917,5.917,0,1,1-5.918-5.918A5.918,5.918,0,0,1,1405.689,251.65Z" transform="translate(-1377.523 -180.48)" fill="#ffbdbd"/>
        <path id="Path_56700" data-name="Path 56700" d="M1471.732,251.65a5.917,5.917,0,1,1-5.915-5.918A5.916,5.916,0,0,1,1471.732,251.65Z" transform="translate(-1383.596 -180.48)" fill="#ffbdbd"/>
        <rect id="Rectangle_19595" data-name="Rectangle 19595" width="0.993" height="9.115" transform="translate(51.108 67.556)" fill="#441f04"/>
        <path id="Path_56701" data-name="Path 56701" d="M1437.451,254.355a5.321,5.321,0,0,1-5.239,3.81c-2.307,0-5.727-1.3-5.727-4.234a7.059,7.059,0,0,0,5.727,2.722A8.033,8.033,0,0,0,1437.451,254.355Z" transform="translate(-1380.524 -181.234)" fill="#441f04"/>
        <g id="Group_27357" data-name="Group 27357" transform="translate(36.18 3.677)">
          <path id="Path_56702" data-name="Path 56702" d="M1415.713,180.758v11.477a4.1,4.1,0,1,0,8.191,0V178.6A46.286,46.286,0,0,0,1415.713,180.758Z" transform="translate(-1415.713 -177.983)" fill="#fff"/>
          <path id="Path_56703" data-name="Path 56703" d="M1436.17,196.393V178.822a4.049,4.049,0,0,0-.074-.725c-1.239-.105-2.486-.176-3.747-.176-1.451,0-2.884.086-4.3.224a4.057,4.057,0,0,0-.069.676v17.571a4.1,4.1,0,0,0,8.192,0Z" transform="translate(-1416.841 -177.921)" fill="#fff"/>
          <path id="Path_56704" data-name="Path 56704" d="M1444.339,196.323a4.1,4.1,0,0,0,4.1-4.1V180.544a46.088,46.088,0,0,0-8.192-2.036v13.719A4.1,4.1,0,0,0,1444.339,196.323Z" transform="translate(-1417.969 -177.975)" fill="#fff"/>
        </g>
      </g>
    </g>
  </g>
</svg>
