<svg xmlns="http://www.w3.org/2000/svg" xmlns:xlink="http://www.w3.org/1999/xlink" width="181" height="181" viewBox="0 0 181 181">
  <defs>
    <linearGradient id="linear-gradient" x1="0.5" y1="0.136" x2="0.5" y2="1.1" gradientUnits="objectBoundingBox">
      <stop offset="0" stop-color="#206fcb"/>
      <stop offset="1" stop-color="#103866"/>
    </linearGradient>
    <linearGradient id="linear-gradient-3" x1="0.535" y1="-0.102" x2="0.5" y2="0.811" gradientUnits="objectBoundingBox">
      <stop offset="0" stop-color="#effaff"/>
      <stop offset="1" stop-color="#54bbed"/>
    </linearGradient>
    <linearGradient id="linear-gradient-4" x1="0.5" x2="0.5" y2="1" gradientUnits="objectBoundingBox">
      <stop offset="0" stop-color="#206fcb"/>
      <stop offset="1" stop-color="#246dc1"/>
    </linearGradient>
    <clipPath id="clip-Artboard_38">
      <rect width="181" height="181"/>
    </clipPath>
  </defs>
  <g id="Artboard_38" data-name="Artboard – 38" clip-path="url(#clip-Artboard_38)">
    <rect width="181" height="181" fill="#fff"/>
    <g id="Group_27789" data-name="Group 27789" transform="translate(-602.593 -279.946)">
      <g id="Group_27763" data-name="Group 27763" transform="translate(430.249 201)">
        <g id="Group_27306" data-name="Group 27306" transform="translate(173.751 218.662)">
          <path id="Path_56597" data-name="Path 56597" d="M53.973,0H0V28.789H53.973L46.58,14.826Z" transform="translate(124.213)" fill="url(#linear-gradient)"/>
          <path id="Path_56596" data-name="Path 56596" d="M0,0H53.973V28.789H0L7.394,14.826Z" fill="url(#linear-gradient)"/>
          <path id="Path_56595" data-name="Path 56595" d="M17.745,0H37.707L19.963,12.846V32.532H0V12.577Z" transform="translate(23.66)" fill="#1e559a"/>
          <path id="Path_56598" data-name="Path 56598" d="M19.963,0H0L17.745,12.846V32.532H37.707V12.577Z" transform="translate(117.558)" fill="#1e559a"/>
        </g>
        <ellipse id="Ellipse_681" data-name="Ellipse 681" cx="58.064" cy="58.064" rx="58.064" ry="58.064" transform="translate(204.453 141.149)" fill="url(#linear-gradient-3)"/>
        <rect id="Rectangle_19590" data-name="Rectangle 19590" width="132.146" height="29.366" transform="translate(197.248 230.58)" fill="url(#linear-gradient-4)"/>
        <g id="Group_27753" data-name="Group 27753" transform="translate(209.203 234.928)">
          <g id="Group_27749" data-name="Group 27749" transform="translate(0 0)">
            <g id="Group_27254" data-name="Group 27254" transform="translate(0.467 2.15)" opacity="0.26">
              <path id="Path_56544" data-name="Path 56544" d="M83.26,76.978c-.36-2.518-6.547-2.266-6.547-2.266s-1.654-5.288-3.633-5.18-3.957,5.4-3.957,5.4-5.539-.719-5.9,1.763a2.163,2.163,0,0,0-.02.31c-.1,2.273,3.308,4.339,3.657,4.545a12.692,12.692,0,0,0-1.1,4.308c-.015,1.14.375,2.072,1.671,2.113a8.869,8.869,0,0,0,5.8-2.086s3.806,3.057,5.892,2.158c.672-.29.9-1.066.907-1.983a14.59,14.59,0,0,0-.953-4.509c4.289-2.937,4.182-4.478,4.182-4.478l0-.017A.519.519,0,0,0,83.26,76.978Z" transform="translate(-63.203 -69.53)"/>
            </g>
            <g id="Group_27255" data-name="Group 27255">
              <path id="Path_56545" data-name="Path 56545" d="M72.858,66.545c1.952,0,3.573,5.181,3.573,5.181s.172-.007.46-.007c1.44,0,5.787.175,6.087,2.273a.516.516,0,0,1,0,.072l0,.018s.107,1.54-4.182,4.478a14.59,14.59,0,0,1,.953,4.509c-.005.918-.235,1.694-.907,1.983a2.2,2.2,0,0,1-.875.166c-2.124,0-5.017-2.324-5.017-2.324a8.9,8.9,0,0,1-5.554,2.09c-.081,0-.163,0-.244,0-1.3-.041-1.686-.973-1.671-2.113a12.7,12.7,0,0,1,1.1-4.308c-.349-.206-3.755-2.272-3.657-4.545a2.16,2.16,0,0,1,.02-.31c.227-1.571,2.531-1.859,4.19-1.859a14.794,14.794,0,0,1,1.709.1s1.978-5.287,3.957-5.4h.06m0-.465h0l-.085,0c-1.974.108-3.724,4.085-4.237,5.361-.319-.029-.821-.062-1.4-.062-3.574,0-4.5,1.228-4.652,2.258a2.7,2.7,0,0,0-.025.375c-.093,2.168,2.467,4.045,3.54,4.733a12.32,12.32,0,0,0-.982,4.124c-.028,2.181,1.317,2.55,2.122,2.575.087,0,.173,0,.259,0a9.323,9.323,0,0,0,5.566-1.96c.822.61,3.139,2.194,5,2.194a2.662,2.662,0,0,0,1.06-.2c.781-.337,1.181-1.147,1.189-2.408a14.232,14.232,0,0,0-.861-4.334c3.994-2.806,4.108-4.389,4.088-4.688a.534.534,0,0,0,0-.09v-.006l0-.028c-.345-2.412-4.693-2.673-6.547-2.673h-.125c-.464-1.378-1.923-5.175-3.909-5.175Z" transform="translate(-62.454 -66.08)" fill="#fff"/>
            </g>
            <g id="Group_27747" data-name="Group 27747" transform="translate(0.466 0.465)">
              <path id="Path_56547" data-name="Path 56547" d="M66.893,78.771s-4.029-2.3-3.669-4.784,5.9-1.762,5.9-1.762,1.978-5.288,3.957-5.4,3.633,5.18,3.633,5.18,6.187-.252,6.547,2.266c0,0,.108,1.547-4.208,4.5,0,0,2.158,5.576.072,6.475s-5.892-2.158-5.892-2.158a8.869,8.869,0,0,1-5.8,2.086C64.016,85.065,66.893,78.771,66.893,78.771Z" transform="translate(-63.201 -66.826)" fill="#ffdb2d"/>
            </g>
            <g id="Group_27748" data-name="Group 27748" transform="translate(0.781 0.694)">
              <path id="Path_56552" data-name="Path 56552" d="M77.013,67.2s-1.34.007-3.139,4.152c0,0,2.59-4.847,3.975-3.678C78.334,68.032,77.952,67.131,77.013,67.2Z" transform="translate(-67.539 -67.194)" fill="#fff" opacity="0.7"/>
              <path id="Path_56553" data-name="Path 56553" d="M69.143,75.729a16.515,16.515,0,0,0-4,.523c-.746.238-1.216,1.257-1.376,1.214C63.478,77.376,64.107,75.1,69.143,75.729Z" transform="translate(-63.708 -70.37)" fill="#fff" opacity="0.5"/>
            </g>
          </g>
          <g id="Group_27750" data-name="Group 27750" transform="translate(28.891 0)">
            <g id="Group_27254-2" data-name="Group 27254" transform="translate(0.467 2.15)" opacity="0.26">
              <path id="Path_56544-2" data-name="Path 56544" d="M83.26,76.978c-.36-2.518-6.547-2.266-6.547-2.266s-1.654-5.288-3.633-5.18-3.957,5.4-3.957,5.4-5.539-.719-5.9,1.763a2.163,2.163,0,0,0-.02.31c-.1,2.273,3.308,4.339,3.657,4.545a12.692,12.692,0,0,0-1.1,4.308c-.015,1.14.375,2.072,1.671,2.113a8.869,8.869,0,0,0,5.8-2.086s3.806,3.057,5.892,2.158c.672-.29.9-1.066.907-1.983a14.59,14.59,0,0,0-.953-4.509c4.289-2.937,4.182-4.478,4.182-4.478l0-.017A.519.519,0,0,0,83.26,76.978Z" transform="translate(-63.203 -69.53)"/>
            </g>
            <g id="Group_27255-2" data-name="Group 27255" transform="translate(0)">
              <path id="Path_56545-2" data-name="Path 56545" d="M72.858,66.545c1.952,0,3.573,5.181,3.573,5.181s.172-.007.46-.007c1.44,0,5.787.175,6.087,2.273a.516.516,0,0,1,0,.072l0,.018s.107,1.54-4.182,4.478a14.59,14.59,0,0,1,.953,4.509c-.005.918-.235,1.694-.907,1.983a2.2,2.2,0,0,1-.875.166c-2.124,0-5.017-2.324-5.017-2.324a8.9,8.9,0,0,1-5.554,2.09c-.081,0-.163,0-.244,0-1.3-.041-1.686-.973-1.671-2.113a12.7,12.7,0,0,1,1.1-4.308c-.349-.206-3.755-2.272-3.657-4.545a2.16,2.16,0,0,1,.02-.31c.227-1.571,2.531-1.859,4.19-1.859a14.794,14.794,0,0,1,1.709.1s1.978-5.287,3.957-5.4h.06m0-.465h0l-.085,0c-1.974.108-3.724,4.085-4.237,5.361-.319-.029-.821-.062-1.4-.062-3.574,0-4.5,1.228-4.652,2.258a2.7,2.7,0,0,0-.025.375c-.093,2.168,2.467,4.045,3.54,4.733a12.32,12.32,0,0,0-.982,4.124c-.028,2.181,1.317,2.55,2.122,2.575.087,0,.173,0,.259,0a9.323,9.323,0,0,0,5.566-1.96c.822.61,3.139,2.194,5,2.194a2.662,2.662,0,0,0,1.06-.2c.781-.337,1.181-1.147,1.189-2.408a14.232,14.232,0,0,0-.861-4.334c3.994-2.806,4.108-4.389,4.088-4.688a.534.534,0,0,0,0-.09v-.006l0-.028c-.345-2.412-4.693-2.673-6.547-2.673h-.125c-.464-1.378-1.923-5.175-3.909-5.175Z" transform="translate(-62.454 -66.08)" fill="#fff"/>
            </g>
            <g id="Group_27747-2" data-name="Group 27747" transform="translate(0.466 0.465)">
              <path id="Path_56547-2" data-name="Path 56547" d="M66.893,78.771s-4.029-2.3-3.669-4.784,5.9-1.762,5.9-1.762,1.978-5.288,3.957-5.4,3.633,5.18,3.633,5.18,6.187-.252,6.547,2.266c0,0,.108,1.547-4.208,4.5,0,0,2.158,5.576.072,6.475s-5.892-2.158-5.892-2.158a8.869,8.869,0,0,1-5.8,2.086C64.016,85.065,66.893,78.771,66.893,78.771Z" transform="translate(-63.201 -66.826)" fill="#ffdb2d"/>
            </g>
            <g id="Group_27748-2" data-name="Group 27748" transform="translate(0.781 0.694)">
              <path id="Path_56552-2" data-name="Path 56552" d="M77.013,67.2s-1.34.007-3.139,4.152c0,0,2.59-4.847,3.975-3.678C78.334,68.032,77.952,67.131,77.013,67.2Z" transform="translate(-67.539 -67.194)" fill="#fff" opacity="0.7"/>
              <path id="Path_56553-2" data-name="Path 56553" d="M69.143,75.729a16.515,16.515,0,0,0-4,.523c-.746.238-1.216,1.257-1.376,1.214C63.478,77.376,64.107,75.1,69.143,75.729Z" transform="translate(-63.708 -70.37)" fill="#fff" opacity="0.5"/>
            </g>
          </g>
          <g id="Group_27751" data-name="Group 27751" transform="translate(57.781 0)">
            <g id="Group_27254-3" data-name="Group 27254" transform="translate(0.467 2.15)" opacity="0.26">
              <path id="Path_56544-3" data-name="Path 56544" d="M83.26,76.978c-.36-2.518-6.547-2.266-6.547-2.266s-1.654-5.288-3.633-5.18-3.957,5.4-3.957,5.4-5.539-.719-5.9,1.763a2.163,2.163,0,0,0-.02.31c-.1,2.273,3.308,4.339,3.657,4.545a12.692,12.692,0,0,0-1.1,4.308c-.015,1.14.375,2.072,1.671,2.113a8.869,8.869,0,0,0,5.8-2.086s3.806,3.057,5.892,2.158c.672-.29.9-1.066.907-1.983a14.59,14.59,0,0,0-.953-4.509c4.289-2.937,4.182-4.478,4.182-4.478l0-.017A.519.519,0,0,0,83.26,76.978Z" transform="translate(-63.203 -69.53)"/>
            </g>
            <g id="Group_27255-3" data-name="Group 27255" transform="translate(0)">
              <path id="Path_56545-3" data-name="Path 56545" d="M72.858,66.545c1.952,0,3.573,5.181,3.573,5.181s.172-.007.46-.007c1.44,0,5.787.175,6.087,2.273a.516.516,0,0,1,0,.072l0,.018s.107,1.54-4.182,4.478a14.59,14.59,0,0,1,.953,4.509c-.005.918-.235,1.694-.907,1.983a2.2,2.2,0,0,1-.875.166c-2.124,0-5.017-2.324-5.017-2.324a8.9,8.9,0,0,1-5.554,2.09c-.081,0-.163,0-.244,0-1.3-.041-1.686-.973-1.671-2.113a12.7,12.7,0,0,1,1.1-4.308c-.349-.206-3.755-2.272-3.657-4.545a2.16,2.16,0,0,1,.02-.31c.227-1.571,2.531-1.859,4.19-1.859a14.794,14.794,0,0,1,1.709.1s1.978-5.287,3.957-5.4h.06m0-.465h0l-.085,0c-1.974.108-3.724,4.085-4.237,5.361-.319-.029-.821-.062-1.4-.062-3.574,0-4.5,1.228-4.652,2.258a2.7,2.7,0,0,0-.025.375c-.093,2.168,2.467,4.045,3.54,4.733a12.32,12.32,0,0,0-.982,4.124c-.028,2.181,1.317,2.55,2.122,2.575.087,0,.173,0,.259,0a9.323,9.323,0,0,0,5.566-1.96c.822.61,3.139,2.194,5,2.194a2.662,2.662,0,0,0,1.06-.2c.781-.337,1.181-1.147,1.189-2.408a14.232,14.232,0,0,0-.861-4.334c3.994-2.806,4.108-4.389,4.088-4.688a.534.534,0,0,0,0-.09v-.006l0-.028c-.345-2.412-4.693-2.673-6.547-2.673h-.125c-.464-1.378-1.923-5.175-3.909-5.175Z" transform="translate(-62.454 -66.08)" fill="#fff"/>
            </g>
            <g id="Group_27747-3" data-name="Group 27747" transform="translate(0.466 0.465)">
              <path id="Path_56547-3" data-name="Path 56547" d="M66.893,78.771s-4.029-2.3-3.669-4.784,5.9-1.762,5.9-1.762,1.978-5.288,3.957-5.4,3.633,5.18,3.633,5.18,6.187-.252,6.547,2.266c0,0,.108,1.547-4.208,4.5,0,0,2.158,5.576.072,6.475s-5.892-2.158-5.892-2.158a8.869,8.869,0,0,1-5.8,2.086C64.016,85.065,66.893,78.771,66.893,78.771Z" transform="translate(-63.201 -66.826)" fill="#0f4e98"/>
            </g>
            <g id="Group_27748-3" data-name="Group 27748" transform="translate(0.781 0.694)">
              <path id="Path_56552-3" data-name="Path 56552" d="M77.013,67.2s-1.34.007-3.139,4.152c0,0,2.59-4.847,3.975-3.678C78.334,68.032,77.952,67.131,77.013,67.2Z" transform="translate(-67.539 -67.194)" fill="#fff" opacity="0.7"/>
              <path id="Path_56553-3" data-name="Path 56553" d="M69.143,75.729a16.515,16.515,0,0,0-4,.523c-.746.238-1.216,1.257-1.376,1.214C63.478,77.376,64.107,75.1,69.143,75.729Z" transform="translate(-63.708 -70.37)" fill="#fff" opacity="0.5"/>
            </g>
          </g>
          <g id="Group_27752" data-name="Group 27752" transform="translate(86.672 0)">
            <g id="Group_27254-4" data-name="Group 27254" transform="translate(0.467 2.15)" opacity="0.26">
              <path id="Path_56544-4" data-name="Path 56544" d="M83.26,76.978c-.36-2.518-6.547-2.266-6.547-2.266s-1.654-5.288-3.633-5.18-3.957,5.4-3.957,5.4-5.539-.719-5.9,1.763a2.163,2.163,0,0,0-.02.31c-.1,2.273,3.308,4.339,3.657,4.545a12.692,12.692,0,0,0-1.1,4.308c-.015,1.14.375,2.072,1.671,2.113a8.869,8.869,0,0,0,5.8-2.086s3.806,3.057,5.892,2.158c.672-.29.9-1.066.907-1.983a14.59,14.59,0,0,0-.953-4.509c4.289-2.937,4.182-4.478,4.182-4.478l0-.017A.519.519,0,0,0,83.26,76.978Z" transform="translate(-63.203 -69.53)"/>
            </g>
            <g id="Group_27255-4" data-name="Group 27255" transform="translate(0)">
              <path id="Path_56545-4" data-name="Path 56545" d="M72.858,66.545c1.952,0,3.573,5.181,3.573,5.181s.172-.007.46-.007c1.44,0,5.787.175,6.087,2.273a.516.516,0,0,1,0,.072l0,.018s.107,1.54-4.182,4.478a14.59,14.59,0,0,1,.953,4.509c-.005.918-.235,1.694-.907,1.983a2.2,2.2,0,0,1-.875.166c-2.124,0-5.017-2.324-5.017-2.324a8.9,8.9,0,0,1-5.554,2.09c-.081,0-.163,0-.244,0-1.3-.041-1.686-.973-1.671-2.113a12.7,12.7,0,0,1,1.1-4.308c-.349-.206-3.755-2.272-3.657-4.545a2.16,2.16,0,0,1,.02-.31c.227-1.571,2.531-1.859,4.19-1.859a14.794,14.794,0,0,1,1.709.1s1.978-5.287,3.957-5.4h.06m0-.465h0l-.085,0c-1.974.108-3.724,4.085-4.237,5.361-.319-.029-.821-.062-1.4-.062-3.574,0-4.5,1.228-4.652,2.258a2.7,2.7,0,0,0-.025.375c-.093,2.168,2.467,4.045,3.54,4.733a12.32,12.32,0,0,0-.982,4.124c-.028,2.181,1.317,2.55,2.122,2.575.087,0,.173,0,.259,0a9.323,9.323,0,0,0,5.566-1.96c.822.61,3.139,2.194,5,2.194a2.662,2.662,0,0,0,1.06-.2c.781-.337,1.181-1.147,1.189-2.408a14.232,14.232,0,0,0-.861-4.334c3.994-2.806,4.108-4.389,4.088-4.688a.534.534,0,0,0,0-.09v-.006l0-.028c-.345-2.412-4.693-2.673-6.547-2.673h-.125c-.464-1.378-1.923-5.175-3.909-5.175Z" transform="translate(-62.454 -66.08)" fill="#fff"/>
            </g>
            <g id="Group_27747-4" data-name="Group 27747" transform="translate(0.466 0.465)">
              <path id="Path_56547-4" data-name="Path 56547" d="M66.893,78.771s-4.029-2.3-3.669-4.784,5.9-1.762,5.9-1.762,1.978-5.288,3.957-5.4,3.633,5.18,3.633,5.18,6.187-.252,6.547,2.266c0,0,.108,1.547-4.208,4.5,0,0,2.158,5.576.072,6.475s-5.892-2.158-5.892-2.158a8.869,8.869,0,0,1-5.8,2.086C64.016,85.065,66.893,78.771,66.893,78.771Z" transform="translate(-63.201 -66.826)" fill="#0f4e98"/>
            </g>
            <g id="Group_27748-4" data-name="Group 27748" transform="translate(0.781 0.694)">
              <path id="Path_56552-4" data-name="Path 56552" d="M77.013,67.2s-1.34.007-3.139,4.152c0,0,2.59-4.847,3.975-3.678C78.334,68.032,77.952,67.131,77.013,67.2Z" transform="translate(-67.539 -67.194)" fill="#fff" opacity="0.7"/>
              <path id="Path_56553-4" data-name="Path 56553" d="M69.143,75.729a16.515,16.515,0,0,0-4,.523c-.746.238-1.216,1.257-1.376,1.214C63.478,77.376,64.107,75.1,69.143,75.729Z" transform="translate(-63.708 -70.37)" fill="#fff" opacity="0.5"/>
            </g>
          </g>
        </g>
      </g>
      <g id="Group_27717" data-name="Group 27717" transform="translate(625 321)">
        <g id="Group_27713" data-name="Group 27713" transform="translate(0 58.202)">
          <path id="Path_56991" data-name="Path 56991" d="M328.575,452.041a8.549,8.549,0,0,0-3.452,1.828c-2.582,2.647-9.274,6.656-11.1,6.246s1.368-2.2,4.52-4.058-7.258,1.117-9.976,1.117,3.63-2.605,6.619-3.6-6.943-.126-8.613-1.069,1.519-.42,6.993-.424,4.712-1.486.457-2.356c-2.833-.577-6.952-1.321-9.388-1.753a16.64,16.64,0,0,1,4.434-2.956c3.814.812,13.37,2.725,13.37,2.725C326.732,448.612,328.406,450.15,328.575,452.041Z" transform="translate(-298.597 -444.538)" fill="#ed7323"/>
          <path id="Path_56992" data-name="Path 56992" d="M317.933,465.751c-2,0-11.258,1.489-17.115-4.28-4.155-4.1-3.38-10.051,0-13.774s3.832-3.537,7.64-2.725c0,0-8.5,3.6-7.134,10.234S309.22,465.192,317.933,465.751Z" transform="translate(-297.985 -444.489)" fill="#231f20"/>
          <path id="Path_56993" data-name="Path 56993" d="M325.623,458.468c-3.3,4.468-5.369,7.631-7.367,7.631-8.713-.558-15.24-3.908-16.609-10.546-.643-3.112.89-5.558,2.7-7.278,2.436.432,6.555,1.177,9.388,1.753,4.255.871,5.017,2.353-.457,2.356s-8.666-.518-6.993.424,11.6.074,8.613,1.069-9.333,3.6-6.619,3.6,13.128-2.977,9.976-1.117-6.345,3.645-4.52,4.058,8.516-3.6,11.1-6.246a8.549,8.549,0,0,1,3.452-1.828C328.446,454.149,327.233,456.282,325.623,458.468Z" transform="translate(-298.308 -444.837)" fill="#c85d28"/>
        </g>
        <g id="Group_27714" data-name="Group 27714" transform="translate(105.673 58.202)">
          <path id="Path_56994" data-name="Path 56994" d="M432.723,450.351c4.716,0,4.716,1.366.456,1.734s-3.649,1.121,1.2,2.3-2.869,1.426-5.446.867-4.876-.186-2.139,1.262,5.929,4.631,2.139,3.629-13.088-5.781-13.088-5.781a6.083,6.083,0,0,0-1.026.089c-1.195-2.974-.314-5.5,5.688-6.708,0,0,9.556-1.913,13.37-2.725A16.859,16.859,0,0,1,438,447.681c-.561.071-1.122.172-1.678.294C424.253,450.69,428.011,450.351,432.723,450.351Z" transform="translate(-414.36 -444.538)" fill="#ed7323"/>
          <path id="Path_56995" data-name="Path 56995" d="M425.42,465.751c2,0,11.258,1.489,17.115-4.28,4.156-4.1,3.381-10.051,0-13.774s-3.831-3.537-7.64-2.725c0,0,8.5,3.6,7.134,10.234S434.133,465.192,425.42,465.751Z" transform="translate(-415.377 -444.489)" fill="#231f20"/>
          <path id="Path_56996" data-name="Path 56996" d="M441.058,455.523c-1.368,6.638-7.9,9.987-16.609,10.546-2,0-4.063-3.164-7.366-7.631a17.664,17.664,0,0,1-2.217-3.716,6.083,6.083,0,0,1,1.026-.089s9.292,4.78,13.088,5.781.6-2.182-2.139-3.629-.439-1.817,2.139-1.262,10.291.312,5.446-.867-5.456-1.932-1.2-2.3,4.261-1.734-.456-1.734-8.47.339,3.595-2.375c.556-.123,1.117-.223,1.678-.294C439.981,449.683,441.738,452.229,441.058,455.523Z" transform="translate(-414.406 -444.808)" fill="#c85d28"/>
        </g>
        <path id="Path_56997" data-name="Path 56997" d="M416.175,450.779c0,23.841-22.316,36.913-49.844,36.913s-49.842-13.071-49.842-36.913,22.314-49.427,49.842-49.427S416.175,426.938,416.175,450.779Z" transform="translate(-299.687 -382.32)" fill="#ed7323"/>
        <path id="Path_56998" data-name="Path 56998" d="M377.825,408.457c-2.024.681-14.06,5.887-13.487,0a41.9,41.9,0,0,0,0-14.07,18.974,18.974,0,0,1,0-7.317.013.013,0,0,1,.005-.009,6.71,6.71,0,0,1,5.9-2.66c3.937.286,4.85,8.506,6.4,15.205C376.914,405.734,379.849,407.777,377.825,408.457Z" transform="translate(-304.054 -380.759)" fill="#ed7323"/>
        <path id="Path_56999" data-name="Path 56999" d="M376.671,399.239c-1.545-6.7-2.458-14.919-6.4-15.205a6.711,6.711,0,0,0-5.9,2.66c.8-3.617,2.9-6,5.9-6.29C375,379.95,376.393,393.112,376.671,399.239Z" transform="translate(-304.091 -380.392)" fill="#231f20"/>
        <path id="Path_57000" data-name="Path 57000" d="M402.058,485c-6.048,4.787-19.528,9.575-34.647,9.071-25.488-.85-30.615-6.8-35.907-9.828-5.951-3.4,10.657-12.977,36.158-12.977S407.432,480.748,402.058,485Z" transform="translate(-300.956 -388.75)" fill="#c85d28"/>
        <path id="Path_57001" data-name="Path 57001" d="M366.395,401.234s-18.763,1.6-22.034,12.633,9.375,17.259,23.11,17.259,32.123-9.252,26.309-16.9S381.234,401.234,366.395,401.234Z" transform="translate(-302.202 -382.309)" fill="#fff" opacity="0.2"/>
        <path id="Path_57002" data-name="Path 57002" d="M408.3,471.46c-2.281,4.71-6.884,7.815-11.528,10.012-4.456,2.108-9.4,3.483-14.3,2.96-.609-.065-1.345-.271-1.481-.87-.153-.673.582-1.186,1.21-1.471,3.164-1.434,6.494-2.49,9.6-4.049a19.356,19.356,0,0,0,8.952-8.86c5.225-10.308,6.348-28.284-1.364-40.9-13.132-21.475-33.192-21.791-33.192-21.791s-20.06.316-33.192,21.791c-7.3,11.944-6.687,28.7-2.158,39.193a19.971,19.971,0,0,0,10.57,10.847c3.1,1.423,6.366,2.5,9.3,4.23.364.215.768.526.736.947-.037.489-.617.714-1.1.8-3.745.695-7.613-.149-11.207-1.41-5.783-2.031-11.388-5.363-14.595-10.586-2.641-4.3-3.428-9.5-3.421-14.549.015-11.615-.061-23.131,5.42-33.275,7.089-13.123,24-22.34,39.2-22.172,11.023.119,24.662,2.6,32,11.8a70.955,70.955,0,0,1,10.568,19.061C412.322,444.993,414.113,459.446,408.3,471.46Z" transform="translate(-300.113 -382.408)" fill="#fff"/>
        <path id="Path_57003" data-name="Path 57003" d="M326.259,480.9c-2.505-2.665-4.012-6.518-4.672-11.23.945,1.851,3.745,5.969,9.3,4,1.783,4.131,4.163,7.3,6.909,8.811,9.718,5.369,13.73,5.369,13.73,7.263S336.663,491.957,326.259,480.9Z" transform="translate(-300.156 -388.603)" fill="#d0d2d3"/>
        <path id="Path_57004" data-name="Path 57004" d="M386.959,490.324c0-1.894,4.012-1.894,13.73-7.263,2.354-1.3,4.44-3.808,6.116-7.105,1.587.815,2.943,1.484,4.022,1.926a7.59,7.59,0,0,0,3.646.417,14.675,14.675,0,0,1-2.246,3.184C401.821,492.535,386.959,492.219,386.959,490.324Z" transform="translate(-306.167 -389.18)" fill="#d0d2d3"/>
        <g id="Group_27715" data-name="Group 27715" transform="translate(31.71 68.993)">
          <path id="Path_57005" data-name="Path 57005" d="M340.4,461.589c0,2.878-1.678,5.213-3.749,5.213s-3.749-2.335-3.749-5.213,1.679-5.216,3.749-5.216S340.4,458.707,340.4,461.589Z" transform="translate(-332.906 -456.373)" fill="#441f04"/>
          <path id="Path_57006" data-name="Path 57006" d="M336.957,459.255c0,1.2-.7,2.166-1.556,2.166s-1.556-.97-1.556-2.166.7-2.163,1.556-2.163S336.957,458.06,336.957,459.255Z" transform="translate(-332.992 -456.439)" fill="#fff"/>
        </g>
        <g id="Group_27716" data-name="Group 27716" transform="translate(93.024 68.993)">
          <path id="Path_57007" data-name="Path 57007" d="M407.929,461.589c0,2.878-1.679,5.213-3.75,5.213s-3.748-2.335-3.748-5.213,1.679-5.216,3.748-5.216S407.929,458.707,407.929,461.589Z" transform="translate(-400.43 -456.373)" fill="#441f04"/>
          <path id="Path_57008" data-name="Path 57008" d="M404.481,459.255c0,1.2-.7,2.166-1.556,2.166s-1.555-.97-1.555-2.166.7-2.163,1.555-2.163S404.481,458.06,404.481,459.255Z" transform="translate(-400.516 -456.439)" fill="#fff"/>
        </g>
      </g>
    </g>
  </g>
</svg>
