<svg xmlns="http://www.w3.org/2000/svg" xmlns:xlink="http://www.w3.org/1999/xlink" width="181" height="181" viewBox="0 0 181 181">
  <defs>
    <linearGradient id="linear-gradient" x1="0.5" y1="0.136" x2="0.5" y2="1.1" gradientUnits="objectBoundingBox">
      <stop offset="0" stop-color="#206fcb"/>
      <stop offset="1" stop-color="#103866"/>
    </linearGradient>
    <linearGradient id="linear-gradient-3" x1="0.535" y1="-0.102" x2="0.5" y2="0.811" gradientUnits="objectBoundingBox">
      <stop offset="0" stop-color="#effaff"/>
      <stop offset="1" stop-color="#54bbed"/>
    </linearGradient>
    <linearGradient id="linear-gradient-4" x1="0.5" x2="0.5" y2="1" gradientUnits="objectBoundingBox">
      <stop offset="0" stop-color="#206fcb"/>
      <stop offset="1" stop-color="#246dc1"/>
    </linearGradient>
    <clipPath id="clip-Artboard_42">
      <rect width="181" height="181"/>
    </clipPath>
  </defs>
  <g id="Artboard_42" data-name="Artboard – 42" clip-path="url(#clip-Artboard_42)">
    <rect width="181" height="181" fill="#fff"/>
    <g id="Group_27918" data-name="Group 27918" transform="translate(-373.593 -2863)">
      <g id="Group_27912" data-name="Group 27912" transform="translate(201.25 2783.714)">
        <g id="Group_27306" data-name="Group 27306" transform="translate(173.751 218.662)">
          <path id="Path_56597" data-name="Path 56597" d="M53.973,0H0V28.789H53.973L46.58,14.826Z" transform="translate(124.213)" fill="url(#linear-gradient)"/>
          <path id="Path_56596" data-name="Path 56596" d="M0,0H53.973V28.789H0L7.394,14.826Z" fill="url(#linear-gradient)"/>
          <path id="Path_56595" data-name="Path 56595" d="M17.745,0H37.707L19.963,12.846V32.532H0V12.577Z" transform="translate(23.66)" fill="#1e559a"/>
          <path id="Path_56598" data-name="Path 56598" d="M19.963,0H0L17.745,12.846V32.532H37.707V12.577Z" transform="translate(117.558)" fill="#1e559a"/>
        </g>
        <ellipse id="Ellipse_681" data-name="Ellipse 681" cx="58.064" cy="58.064" rx="58.064" ry="58.064" transform="translate(204.453 141.149)" fill="url(#linear-gradient-3)"/>
        <rect id="Rectangle_19590" data-name="Rectangle 19590" width="132.146" height="29.366" transform="translate(197.248 230.58)" fill="url(#linear-gradient-4)"/>
        <g id="Group_27753" data-name="Group 27753" transform="translate(209.203 234.928)">
          <g id="Group_27749" data-name="Group 27749" transform="translate(0 0)">
            <g id="Group_27254" data-name="Group 27254" transform="translate(0.467 2.15)" opacity="0.26">
              <path id="Path_56544" data-name="Path 56544" d="M83.26,76.978c-.36-2.518-6.547-2.266-6.547-2.266s-1.654-5.288-3.633-5.18-3.957,5.4-3.957,5.4-5.539-.719-5.9,1.763a2.163,2.163,0,0,0-.02.31c-.1,2.273,3.308,4.339,3.657,4.545a12.692,12.692,0,0,0-1.1,4.308c-.015,1.14.375,2.072,1.671,2.113a8.869,8.869,0,0,0,5.8-2.086s3.806,3.057,5.892,2.158c.672-.29.9-1.066.907-1.983a14.59,14.59,0,0,0-.953-4.509c4.289-2.937,4.182-4.478,4.182-4.478l0-.017A.519.519,0,0,0,83.26,76.978Z" transform="translate(-63.203 -69.53)"/>
            </g>
            <g id="Group_27255" data-name="Group 27255">
              <path id="Path_56545" data-name="Path 56545" d="M72.858,66.545c1.952,0,3.573,5.181,3.573,5.181s.172-.007.46-.007c1.44,0,5.787.175,6.087,2.273a.516.516,0,0,1,0,.072l0,.018s.107,1.54-4.182,4.478a14.59,14.59,0,0,1,.953,4.509c-.005.918-.235,1.694-.907,1.983a2.2,2.2,0,0,1-.875.166c-2.124,0-5.017-2.324-5.017-2.324a8.9,8.9,0,0,1-5.554,2.09c-.081,0-.163,0-.244,0-1.3-.041-1.686-.973-1.671-2.113a12.7,12.7,0,0,1,1.1-4.308c-.349-.206-3.755-2.272-3.657-4.545a2.16,2.16,0,0,1,.02-.31c.227-1.571,2.531-1.859,4.19-1.859a14.794,14.794,0,0,1,1.709.1s1.978-5.287,3.957-5.4h.06m0-.465h0l-.085,0c-1.974.108-3.724,4.085-4.237,5.361-.319-.029-.821-.062-1.4-.062-3.574,0-4.5,1.228-4.652,2.258a2.7,2.7,0,0,0-.025.375c-.093,2.168,2.467,4.045,3.54,4.733a12.32,12.32,0,0,0-.982,4.124c-.028,2.181,1.317,2.55,2.122,2.575.087,0,.173,0,.259,0a9.323,9.323,0,0,0,5.566-1.96c.822.61,3.139,2.194,5,2.194a2.662,2.662,0,0,0,1.06-.2c.781-.337,1.181-1.147,1.189-2.408a14.232,14.232,0,0,0-.861-4.334c3.994-2.806,4.108-4.389,4.088-4.688a.534.534,0,0,0,0-.09v-.006l0-.028c-.345-2.412-4.693-2.673-6.547-2.673h-.125c-.464-1.378-1.923-5.175-3.909-5.175Z" transform="translate(-62.454 -66.08)" fill="#fff"/>
            </g>
            <g id="Group_27747" data-name="Group 27747" transform="translate(0.466 0.465)">
              <path id="Path_56547" data-name="Path 56547" d="M66.893,78.771s-4.029-2.3-3.669-4.784,5.9-1.762,5.9-1.762,1.978-5.288,3.957-5.4,3.633,5.18,3.633,5.18,6.187-.252,6.547,2.266c0,0,.108,1.547-4.208,4.5,0,0,2.158,5.576.072,6.475s-5.892-2.158-5.892-2.158a8.869,8.869,0,0,1-5.8,2.086C64.016,85.065,66.893,78.771,66.893,78.771Z" transform="translate(-63.201 -66.826)" fill="#ffdb2d"/>
            </g>
            <g id="Group_27748" data-name="Group 27748" transform="translate(0.781 0.694)">
              <path id="Path_56552" data-name="Path 56552" d="M77.013,67.2s-1.34.007-3.139,4.152c0,0,2.59-4.847,3.975-3.678C78.334,68.032,77.952,67.131,77.013,67.2Z" transform="translate(-67.539 -67.194)" fill="#fff" opacity="0.7"/>
              <path id="Path_56553" data-name="Path 56553" d="M69.143,75.729a16.515,16.515,0,0,0-4,.523c-.746.238-1.216,1.257-1.376,1.214C63.478,77.376,64.107,75.1,69.143,75.729Z" transform="translate(-63.708 -70.37)" fill="#fff" opacity="0.5"/>
            </g>
          </g>
          <g id="Group_27750" data-name="Group 27750" transform="translate(28.891 0)">
            <g id="Group_27254-2" data-name="Group 27254" transform="translate(0.467 2.15)" opacity="0.26">
              <path id="Path_56544-2" data-name="Path 56544" d="M83.26,76.978c-.36-2.518-6.547-2.266-6.547-2.266s-1.654-5.288-3.633-5.18-3.957,5.4-3.957,5.4-5.539-.719-5.9,1.763a2.163,2.163,0,0,0-.02.31c-.1,2.273,3.308,4.339,3.657,4.545a12.692,12.692,0,0,0-1.1,4.308c-.015,1.14.375,2.072,1.671,2.113a8.869,8.869,0,0,0,5.8-2.086s3.806,3.057,5.892,2.158c.672-.29.9-1.066.907-1.983a14.59,14.59,0,0,0-.953-4.509c4.289-2.937,4.182-4.478,4.182-4.478l0-.017A.519.519,0,0,0,83.26,76.978Z" transform="translate(-63.203 -69.53)"/>
            </g>
            <g id="Group_27255-2" data-name="Group 27255" transform="translate(0)">
              <path id="Path_56545-2" data-name="Path 56545" d="M72.858,66.545c1.952,0,3.573,5.181,3.573,5.181s.172-.007.46-.007c1.44,0,5.787.175,6.087,2.273a.516.516,0,0,1,0,.072l0,.018s.107,1.54-4.182,4.478a14.59,14.59,0,0,1,.953,4.509c-.005.918-.235,1.694-.907,1.983a2.2,2.2,0,0,1-.875.166c-2.124,0-5.017-2.324-5.017-2.324a8.9,8.9,0,0,1-5.554,2.09c-.081,0-.163,0-.244,0-1.3-.041-1.686-.973-1.671-2.113a12.7,12.7,0,0,1,1.1-4.308c-.349-.206-3.755-2.272-3.657-4.545a2.16,2.16,0,0,1,.02-.31c.227-1.571,2.531-1.859,4.19-1.859a14.794,14.794,0,0,1,1.709.1s1.978-5.287,3.957-5.4h.06m0-.465h0l-.085,0c-1.974.108-3.724,4.085-4.237,5.361-.319-.029-.821-.062-1.4-.062-3.574,0-4.5,1.228-4.652,2.258a2.7,2.7,0,0,0-.025.375c-.093,2.168,2.467,4.045,3.54,4.733a12.32,12.32,0,0,0-.982,4.124c-.028,2.181,1.317,2.55,2.122,2.575.087,0,.173,0,.259,0a9.323,9.323,0,0,0,5.566-1.96c.822.61,3.139,2.194,5,2.194a2.662,2.662,0,0,0,1.06-.2c.781-.337,1.181-1.147,1.189-2.408a14.232,14.232,0,0,0-.861-4.334c3.994-2.806,4.108-4.389,4.088-4.688a.534.534,0,0,0,0-.09v-.006l0-.028c-.345-2.412-4.693-2.673-6.547-2.673h-.125c-.464-1.378-1.923-5.175-3.909-5.175Z" transform="translate(-62.454 -66.08)" fill="#fff"/>
            </g>
            <g id="Group_27747-2" data-name="Group 27747" transform="translate(0.466 0.465)">
              <path id="Path_56547-2" data-name="Path 56547" d="M66.893,78.771s-4.029-2.3-3.669-4.784,5.9-1.762,5.9-1.762,1.978-5.288,3.957-5.4,3.633,5.18,3.633,5.18,6.187-.252,6.547,2.266c0,0,.108,1.547-4.208,4.5,0,0,2.158,5.576.072,6.475s-5.892-2.158-5.892-2.158a8.869,8.869,0,0,1-5.8,2.086C64.016,85.065,66.893,78.771,66.893,78.771Z" transform="translate(-63.201 -66.826)" fill="#ffdb2d"/>
            </g>
            <g id="Group_27748-2" data-name="Group 27748" transform="translate(0.781 0.694)">
              <path id="Path_56552-2" data-name="Path 56552" d="M77.013,67.2s-1.34.007-3.139,4.152c0,0,2.59-4.847,3.975-3.678C78.334,68.032,77.952,67.131,77.013,67.2Z" transform="translate(-67.539 -67.194)" fill="#fff" opacity="0.7"/>
              <path id="Path_56553-2" data-name="Path 56553" d="M69.143,75.729a16.515,16.515,0,0,0-4,.523c-.746.238-1.216,1.257-1.376,1.214C63.478,77.376,64.107,75.1,69.143,75.729Z" transform="translate(-63.708 -70.37)" fill="#fff" opacity="0.5"/>
            </g>
          </g>
          <g id="Group_27751" data-name="Group 27751" transform="translate(57.781 0)">
            <g id="Group_27254-3" data-name="Group 27254" transform="translate(0.467 2.15)" opacity="0.26">
              <path id="Path_56544-3" data-name="Path 56544" d="M83.26,76.978c-.36-2.518-6.547-2.266-6.547-2.266s-1.654-5.288-3.633-5.18-3.957,5.4-3.957,5.4-5.539-.719-5.9,1.763a2.163,2.163,0,0,0-.02.31c-.1,2.273,3.308,4.339,3.657,4.545a12.692,12.692,0,0,0-1.1,4.308c-.015,1.14.375,2.072,1.671,2.113a8.869,8.869,0,0,0,5.8-2.086s3.806,3.057,5.892,2.158c.672-.29.9-1.066.907-1.983a14.59,14.59,0,0,0-.953-4.509c4.289-2.937,4.182-4.478,4.182-4.478l0-.017A.519.519,0,0,0,83.26,76.978Z" transform="translate(-63.203 -69.53)"/>
            </g>
            <g id="Group_27255-3" data-name="Group 27255" transform="translate(0)">
              <path id="Path_56545-3" data-name="Path 56545" d="M72.858,66.545c1.952,0,3.573,5.181,3.573,5.181s.172-.007.46-.007c1.44,0,5.787.175,6.087,2.273a.516.516,0,0,1,0,.072l0,.018s.107,1.54-4.182,4.478a14.59,14.59,0,0,1,.953,4.509c-.005.918-.235,1.694-.907,1.983a2.2,2.2,0,0,1-.875.166c-2.124,0-5.017-2.324-5.017-2.324a8.9,8.9,0,0,1-5.554,2.09c-.081,0-.163,0-.244,0-1.3-.041-1.686-.973-1.671-2.113a12.7,12.7,0,0,1,1.1-4.308c-.349-.206-3.755-2.272-3.657-4.545a2.16,2.16,0,0,1,.02-.31c.227-1.571,2.531-1.859,4.19-1.859a14.794,14.794,0,0,1,1.709.1s1.978-5.287,3.957-5.4h.06m0-.465h0l-.085,0c-1.974.108-3.724,4.085-4.237,5.361-.319-.029-.821-.062-1.4-.062-3.574,0-4.5,1.228-4.652,2.258a2.7,2.7,0,0,0-.025.375c-.093,2.168,2.467,4.045,3.54,4.733a12.32,12.32,0,0,0-.982,4.124c-.028,2.181,1.317,2.55,2.122,2.575.087,0,.173,0,.259,0a9.323,9.323,0,0,0,5.566-1.96c.822.61,3.139,2.194,5,2.194a2.662,2.662,0,0,0,1.06-.2c.781-.337,1.181-1.147,1.189-2.408a14.232,14.232,0,0,0-.861-4.334c3.994-2.806,4.108-4.389,4.088-4.688a.534.534,0,0,0,0-.09v-.006l0-.028c-.345-2.412-4.693-2.673-6.547-2.673h-.125c-.464-1.378-1.923-5.175-3.909-5.175Z" transform="translate(-62.454 -66.08)" fill="#fff"/>
            </g>
            <g id="Group_27747-3" data-name="Group 27747" transform="translate(0.466 0.465)">
              <path id="Path_56547-3" data-name="Path 56547" d="M66.893,78.771s-4.029-2.3-3.669-4.784,5.9-1.762,5.9-1.762,1.978-5.288,3.957-5.4,3.633,5.18,3.633,5.18,6.187-.252,6.547,2.266c0,0,.108,1.547-4.208,4.5,0,0,2.158,5.576.072,6.475s-5.892-2.158-5.892-2.158a8.869,8.869,0,0,1-5.8,2.086C64.016,85.065,66.893,78.771,66.893,78.771Z" transform="translate(-63.201 -66.826)" fill="#0f4e98"/>
            </g>
            <g id="Group_27748-3" data-name="Group 27748" transform="translate(0.781 0.694)">
              <path id="Path_56552-3" data-name="Path 56552" d="M77.013,67.2s-1.34.007-3.139,4.152c0,0,2.59-4.847,3.975-3.678C78.334,68.032,77.952,67.131,77.013,67.2Z" transform="translate(-67.539 -67.194)" fill="#fff" opacity="0.7"/>
              <path id="Path_56553-3" data-name="Path 56553" d="M69.143,75.729a16.515,16.515,0,0,0-4,.523c-.746.238-1.216,1.257-1.376,1.214C63.478,77.376,64.107,75.1,69.143,75.729Z" transform="translate(-63.708 -70.37)" fill="#fff" opacity="0.5"/>
            </g>
          </g>
          <g id="Group_27752" data-name="Group 27752" transform="translate(86.672 0)">
            <g id="Group_27254-4" data-name="Group 27254" transform="translate(0.467 2.15)" opacity="0.26">
              <path id="Path_56544-4" data-name="Path 56544" d="M83.26,76.978c-.36-2.518-6.547-2.266-6.547-2.266s-1.654-5.288-3.633-5.18-3.957,5.4-3.957,5.4-5.539-.719-5.9,1.763a2.163,2.163,0,0,0-.02.31c-.1,2.273,3.308,4.339,3.657,4.545a12.692,12.692,0,0,0-1.1,4.308c-.015,1.14.375,2.072,1.671,2.113a8.869,8.869,0,0,0,5.8-2.086s3.806,3.057,5.892,2.158c.672-.29.9-1.066.907-1.983a14.59,14.59,0,0,0-.953-4.509c4.289-2.937,4.182-4.478,4.182-4.478l0-.017A.519.519,0,0,0,83.26,76.978Z" transform="translate(-63.203 -69.53)"/>
            </g>
            <g id="Group_27255-4" data-name="Group 27255" transform="translate(0)">
              <path id="Path_56545-4" data-name="Path 56545" d="M72.858,66.545c1.952,0,3.573,5.181,3.573,5.181s.172-.007.46-.007c1.44,0,5.787.175,6.087,2.273a.516.516,0,0,1,0,.072l0,.018s.107,1.54-4.182,4.478a14.59,14.59,0,0,1,.953,4.509c-.005.918-.235,1.694-.907,1.983a2.2,2.2,0,0,1-.875.166c-2.124,0-5.017-2.324-5.017-2.324a8.9,8.9,0,0,1-5.554,2.09c-.081,0-.163,0-.244,0-1.3-.041-1.686-.973-1.671-2.113a12.7,12.7,0,0,1,1.1-4.308c-.349-.206-3.755-2.272-3.657-4.545a2.16,2.16,0,0,1,.02-.31c.227-1.571,2.531-1.859,4.19-1.859a14.794,14.794,0,0,1,1.709.1s1.978-5.287,3.957-5.4h.06m0-.465h0l-.085,0c-1.974.108-3.724,4.085-4.237,5.361-.319-.029-.821-.062-1.4-.062-3.574,0-4.5,1.228-4.652,2.258a2.7,2.7,0,0,0-.025.375c-.093,2.168,2.467,4.045,3.54,4.733a12.32,12.32,0,0,0-.982,4.124c-.028,2.181,1.317,2.55,2.122,2.575.087,0,.173,0,.259,0a9.323,9.323,0,0,0,5.566-1.96c.822.61,3.139,2.194,5,2.194a2.662,2.662,0,0,0,1.06-.2c.781-.337,1.181-1.147,1.189-2.408a14.232,14.232,0,0,0-.861-4.334c3.994-2.806,4.108-4.389,4.088-4.688a.534.534,0,0,0,0-.09v-.006l0-.028c-.345-2.412-4.693-2.673-6.547-2.673h-.125c-.464-1.378-1.923-5.175-3.909-5.175Z" transform="translate(-62.454 -66.08)" fill="#fff"/>
            </g>
            <g id="Group_27747-4" data-name="Group 27747" transform="translate(0.466 0.465)">
              <path id="Path_56547-4" data-name="Path 56547" d="M66.893,78.771s-4.029-2.3-3.669-4.784,5.9-1.762,5.9-1.762,1.978-5.288,3.957-5.4,3.633,5.18,3.633,5.18,6.187-.252,6.547,2.266c0,0,.108,1.547-4.208,4.5,0,0,2.158,5.576.072,6.475s-5.892-2.158-5.892-2.158a8.869,8.869,0,0,1-5.8,2.086C64.016,85.065,66.893,78.771,66.893,78.771Z" transform="translate(-63.201 -66.826)" fill="#0f4e98"/>
            </g>
            <g id="Group_27748-4" data-name="Group 27748" transform="translate(0.781 0.694)">
              <path id="Path_56552-4" data-name="Path 56552" d="M77.013,67.2s-1.34.007-3.139,4.152c0,0,2.59-4.847,3.975-3.678C78.334,68.032,77.952,67.131,77.013,67.2Z" transform="translate(-67.539 -67.194)" fill="#fff" opacity="0.7"/>
              <path id="Path_56553-4" data-name="Path 56553" d="M69.143,75.729a16.515,16.515,0,0,0-4,.523c-.746.238-1.216,1.257-1.376,1.214C63.478,77.376,64.107,75.1,69.143,75.729Z" transform="translate(-63.708 -70.37)" fill="#fff" opacity="0.5"/>
            </g>
          </g>
        </g>
      </g>
      <g id="Group_27914" data-name="Group 27914" transform="translate(414 2922)">
        <path id="Path_56955" data-name="Path 56955" d="M658.817,448.513c0,23.841-22.316,36.914-49.843,36.914s-49.844-13.072-49.844-36.914,22.316-49.427,49.844-49.427S658.817,424.672,658.817,448.513Z" transform="translate(-559.13 -399.086)" fill="#666"/>
        <path id="Path_56956" data-name="Path 56956" d="M610.934,419.789c-5.479.028-12.856,5.513-19.351,15.389-6.781,10.613-13.021,27.162-8.023,46.979,9.307,3.55,17.684,5.4,27.281,5.4,8.653,0,19.151-1.68,27.469-5.4C646.648,449.091,623.217,419.851,610.934,419.789Z" transform="translate(-561.21 -400.99)" fill="#e6e6e6"/>
        <g id="Group_27697" data-name="Group 27697" transform="translate(14.909 49.961)">
          <path id="Path_56957" data-name="Path 56957" d="M583.046,459.323c0,2.879-1.677,5.213-3.749,5.213s-3.747-2.334-3.747-5.213,1.679-5.216,3.747-5.216S583.046,456.442,583.046,459.323Z" transform="translate(-575.549 -454.107)" fill="#441f04"/>
          <path id="Path_56958" data-name="Path 56958" d="M579.6,456.989c0,1.194-.7,2.166-1.555,2.166s-1.558-.972-1.558-2.166.7-2.163,1.558-2.163S579.6,455.795,579.6,456.989Z" transform="translate(-575.635 -454.173)" fill="#fff"/>
        </g>
        <g id="Group_27698" data-name="Group 27698" transform="translate(76.223 49.961)">
          <path id="Path_56959" data-name="Path 56959" d="M650.571,459.323c0,2.879-1.679,5.213-3.749,5.213s-3.749-2.334-3.749-5.213,1.679-5.216,3.749-5.216S650.571,456.442,650.571,459.323Z" transform="translate(-643.072 -454.107)" fill="#441f04"/>
          <path id="Path_56960" data-name="Path 56960" d="M647.122,456.989c0,1.194-.7,2.166-1.555,2.166s-1.557-.972-1.557-2.166.7-2.163,1.557-2.163S647.122,455.795,647.122,456.989Z" transform="translate(-643.158 -454.173)" fill="#fff"/>
        </g>
        <g id="Group_27699" data-name="Group 27699" transform="translate(23.939 28.31)">
          <path id="Path_56961" data-name="Path 56961" d="M642.916,430.263c-.552,0-1.452,1.475-1.969,3.156-.475,1.547-.449,2.713.026,2.713s1.272-1.166,1.822-2.713C643.392,431.738,643.467,430.263,642.916,430.263Z" transform="translate(-590.562 -430.263)" fill="#333"/>
          <path id="Path_56962" data-name="Path 56962" d="M585.867,430.263c-.552,0-.476,1.475.121,3.156.548,1.547,1.347,2.713,1.822,2.713s.5-1.166.025-2.713C587.319,431.738,586.419,430.263,585.867,430.263Z" transform="translate(-585.494 -430.263)" fill="#333"/>
        </g>
        <g id="Group_27710" data-name="Group 27710" transform="translate(25.049 45.144)">
          <path id="Path_56963" data-name="Path 56963" d="M611.223,448.8a24.507,24.507,0,0,0-24.507,24.507c0,13.534,10.973,16.733,24.507,16.733s24.507-3.2,24.507-16.733A24.507,24.507,0,0,0,611.223,448.8Z" transform="translate(-586.716 -448.802)" fill="#ccc"/>
          <path id="Path_56964" data-name="Path 56964" d="M633.13,473.6a14.943,14.943,0,0,1-.953,5.586,10.479,10.479,0,0,1-1.071,2.01,10.117,10.117,0,0,1-1.332,1.573,11.451,11.451,0,0,1-1.832,1.427,13.988,13.988,0,0,1-1.664.9,18.151,18.151,0,0,1-2.109.814c-.625.2-1.506.443-2.4.634q-1.037.222-2.174.386c-.714.106-1.46.193-2.235.264q-1.019.1-2.11.154-1.264.067-2.624.084c-.363.006-.733.01-1.106.01s-.743,0-1.106-.01q-1.366-.015-2.628-.084-1.091-.059-2.107-.154c-.775-.071-1.521-.158-2.235-.264q-1.139-.164-2.175-.386a21.612,21.612,0,0,1-4.512-1.447,14.266,14.266,0,0,1-1.663-.9,10.583,10.583,0,0,1-3.164-3,10.276,10.276,0,0,1-1.071-2.01,14.924,14.924,0,0,1-.952-5.586c0-.27.006-.54.016-.807a21.508,21.508,0,0,1,.557-4.148,20.9,20.9,0,0,1,.836-2.715,21.333,21.333,0,0,1,2.968-5.355,21.055,21.055,0,0,1,1.871-2.158,21.3,21.3,0,0,1,2.032-1.817,21.668,21.668,0,0,1,2.505-1.7,20.222,20.222,0,0,1,2.059-1.052h0a21.126,21.126,0,0,1,4.38-1.416c.643-.132,1.3-.238,1.958-.309a21.345,21.345,0,0,1,4.847,0h0c.663.071,1.316.177,1.959.309a21.469,21.469,0,0,1,8.941,4.168h0a21.822,21.822,0,0,1,3.9,3.972,21.485,21.485,0,0,1,2.972,5.355,20.872,20.872,0,0,1,.836,2.715,21.5,21.5,0,0,1,.557,4.148C633.122,473.061,633.13,473.332,633.13,473.6Z" transform="translate(-587.009 -449.095)" fill="#ed7b72"/>
          <path id="Path_56965" data-name="Path 56965" d="M629.352,484.51a12.1,12.1,0,0,1-1.032.73,13.988,13.988,0,0,1-1.664.9,18.156,18.156,0,0,1-2.109.814c-.625.2-1.506.443-2.4.634q-1.037.222-2.174.386c-.714.106-1.46.193-2.235.264q-1.019.1-2.11.154-1.264.067-2.624.084c-.363.006-.733.01-1.106.01s-.743,0-1.106-.01q-1.366-.015-2.628-.084-1.091-.059-2.107-.154c-.775-.071-1.521-.158-2.235-.264q-1.139-.164-2.175-.386a21.612,21.612,0,0,1-4.512-1.447,14.266,14.266,0,0,1-1.663-.9,12.07,12.07,0,0,1-1.032-.73c-1.721-6.886,1.976-16.011,10.221-19.656h0a17.763,17.763,0,0,1,18.229,2.274h0C628.531,471.506,630.734,478.981,629.352,484.51Z" transform="translate(-587.388 -450.137)" fill="#ed7161"/>
          <path id="Path_56966" data-name="Path 56966" d="M624.447,488.073q-.829.241-1.737.434-1.037.222-2.174.386c-.714.106-1.46.193-2.235.264q-1.019.1-2.11.154-1.264.067-2.624.084c-.363.006-.733.01-1.106.01s-.743,0-1.106-.01q-1.366-.015-2.628-.084-1.091-.059-2.107-.154c-.775-.071-1.521-.158-2.235-.264q-1.139-.164-2.175-.386-.906-.192-1.736-.434a12.09,12.09,0,0,1,4.412-12.1,12.252,12.252,0,0,1,15.144,0h0C623.947,479.026,625.48,484.273,624.447,488.073Z" transform="translate(-587.953 -451.06)" fill="#d56455"/>
          <g id="Group_27709" data-name="Group 27709" transform="translate(2.912 2.895)">
            <g id="Group_27704" data-name="Group 27704">
              <g id="Group_27700" data-name="Group 27700" transform="translate(12.832)">
                <path id="Path_56967" data-name="Path 56967" d="M622.913,453.894a25.667,25.667,0,0,0-2.984,1.949,23.346,23.346,0,0,0-1.4-3.361A21.336,21.336,0,0,1,622.913,453.894Z" transform="translate(-605.386 -452.035)" fill="#fff"/>
                <path id="Path_56968" data-name="Path 56968" d="M615.882,452.128a23.428,23.428,0,0,0-2.422,2.756,23.139,23.139,0,0,0-2.425-2.756,21.345,21.345,0,0,1,4.847,0Z" transform="translate(-604.697 -451.99)" fill="#fff"/>
                <path id="Path_56969" data-name="Path 56969" d="M608.435,452.482a23.657,23.657,0,0,0-1.4,3.361,25.417,25.417,0,0,0-2.985-1.945A21.126,21.126,0,0,1,608.435,452.482Z" transform="translate(-604.055 -452.035)" fill="#fff"/>
              </g>
              <g id="Group_27703" data-name="Group 27703" transform="translate(0 2.914)">
                <g id="Group_27701" data-name="Group 27701">
                  <path id="Path_56970" data-name="Path 56970" d="M601.53,455.2a25.908,25.908,0,0,0-.152,2.591c-.669-.183-1.645-.777-2.354-.893A21.668,21.668,0,0,1,601.53,455.2Z" transform="translate(-590.76 -455.199)" fill="#fff"/>
                  <path id="Path_56971" data-name="Path 56971" d="M597.094,461.415c-.663.009-1.69-.274-2.368-.188a21.055,21.055,0,0,1,1.871-2.158C596.607,459.752,597.013,460.753,597.094,461.415Z" transform="translate(-590.365 -455.555)" fill="#fff"/>
                  <path id="Path_56972" data-name="Path 56972" d="M593.518,466.152a16.436,16.436,0,0,0-2.061.893,21.411,21.411,0,0,1,1.379-2.942C593.032,464.8,593.261,465.489,593.518,466.152Z" transform="translate(-590.064 -456.018)" fill="#fff"/>
                  <path id="Path_56973" data-name="Path 56973" d="M591.83,472.545a16.824,16.824,0,0,0-1.907,1.936,21.508,21.508,0,0,1,.557-4.148A24.873,24.873,0,0,0,591.83,472.545Z" transform="translate(-589.923 -456.591)" fill="#fff"/>
                </g>
                <g id="Group_27702" data-name="Group 27702" transform="translate(32.421)">
                  <path id="Path_56974" data-name="Path 56974" d="M637.3,474.481a16.852,16.852,0,0,0-1.911-1.936,24.9,24.9,0,0,0,1.354-2.212A21.5,21.5,0,0,1,637.3,474.481Z" transform="translate(-626.524 -456.591)" fill="#fff"/>
                  <path id="Path_56975" data-name="Path 56975" d="M635.746,467.045a16.609,16.609,0,0,0-2.061-.893c.254-.663.486-1.348.678-2.049A21.007,21.007,0,0,1,635.746,467.045Z" transform="translate(-626.368 -456.018)" fill="#fff"/>
                  <path id="Path_56976" data-name="Path 56976" d="M632.459,461.228c-.678-.086-1.54.495-2.2.485.081-.663.322-1.958.332-2.64A20.847,20.847,0,0,1,632.459,461.228Z" transform="translate(-626.053 -455.555)" fill="#fff"/>
                  <path id="Path_56977" data-name="Path 56977" d="M628.126,456.9c-.707.113-1.537.66-2.207.84a24.376,24.376,0,0,0-.292-2.541A21.242,21.242,0,0,1,628.126,456.9Z" transform="translate(-625.627 -455.199)" fill="#fff"/>
                </g>
              </g>
            </g>
            <g id="Group_27708" data-name="Group 27708" transform="translate(0.936 26.909)">
              <path id="Path_56978" data-name="Path 56978" d="M614.7,490.728c-.363.006-.733.01-1.106.01s-.743,0-1.106-.01l1.106-2.885Z" transform="translate(-592.934 -482.196)" fill="#fff"/>
              <g id="Group_27707" data-name="Group 27707">
                <g id="Group_27705" data-name="Group 27705" transform="translate(24.39)">
                  <path id="Path_56979" data-name="Path 56979" d="M619.924,490.49q-1.019.1-2.11.154l.686-2.8Z" transform="translate(-617.814 -482.196)" fill="#fff"/>
                  <path id="Path_56980" data-name="Path 56980" d="M624.773,489.78q-1.037.222-2.174.386l.392-2.977Z" transform="translate(-618.254 -482.136)" fill="#fff"/>
                  <path id="Path_56981" data-name="Path 56981" d="M629.744,488.213a18.151,18.151,0,0,1-2.109.814l-.048-3.135Z" transform="translate(-618.713 -482.016)" fill="#fff"/>
                  <path id="Path_56982" data-name="Path 56982" d="M633.522,485.726a11.4,11.4,0,0,1-1.832,1.427l-1.036-3.023Z" transform="translate(-618.995 -481.855)" fill="#fff"/>
                  <path id="Path_56983" data-name="Path 56983" d="M636.134,481.913a10.479,10.479,0,0,1-1.071,2.01l-2.133-2.3Z" transform="translate(-619.204 -481.624)" fill="#fff"/>
                </g>
                <g id="Group_27706" data-name="Group 27706">
                  <path id="Path_56984" data-name="Path 56984" d="M609.381,490.644q-1.091-.059-2.107-.154l1.421-2.647Z" transform="translate(-592.455 -482.196)" fill="#fff"/>
                  <path id="Path_56985" data-name="Path 56985" d="M604.593,490.165q-1.139-.164-2.175-.386l1.782-2.592Z" transform="translate(-592.008 -482.136)" fill="#fff"/>
                  <path id="Path_56986" data-name="Path 56986" d="M599.607,485.891l-.048,3.135a18.243,18.243,0,0,1-2.11-.814Z" transform="translate(-591.551 -482.016)" fill="#fff"/>
                  <path id="Path_56987" data-name="Path 56987" d="M596.465,484.131l-1.032,3.023a11.674,11.674,0,0,1-1.833-1.425Z" transform="translate(-591.197 -481.855)" fill="#fff"/>
                  <path id="Path_56988" data-name="Path 56988" d="M594.157,481.624l-2.132,2.3a10.276,10.276,0,0,1-1.071-2.01Z" transform="translate(-590.954 -481.624)" fill="#fff"/>
                </g>
              </g>
            </g>
          </g>
        </g>
        <g id="Group_27711" data-name="Group 27711" transform="translate(37.777 35.486)">
          <path id="Path_56989" data-name="Path 56989" d="M604.954,445.6c5.051-3.66,10.546-4.2,17.238,0C615.338,442.722,611.439,442.346,604.954,445.6Z" transform="translate(-601.121 -438.578)" fill="#ccc"/>
          <path id="Path_56990" data-name="Path 56990" d="M600.733,442.218c7.379-5.21,15.752-5.59,24.9,0C615.984,438.025,610.828,436.995,600.733,442.218Z" transform="translate(-600.733 -438.166)" fill="#ccc"/>
        </g>
      </g>
    </g>
  </g>
</svg>
