<svg xmlns="http://www.w3.org/2000/svg" xmlns:xlink="http://www.w3.org/1999/xlink" width="181" height="181" viewBox="0 0 181 181">
  <defs>
    <linearGradient id="linear-gradient" x1="0.5" y1="0.136" x2="0.5" y2="1.1" gradientUnits="objectBoundingBox">
      <stop offset="0" stop-color="#206fcb"/>
      <stop offset="1" stop-color="#103866"/>
    </linearGradient>
    <linearGradient id="linear-gradient-3" x1="0.535" y1="-0.102" x2="0.5" y2="0.811" gradientUnits="objectBoundingBox">
      <stop offset="0" stop-color="#effaff"/>
      <stop offset="1" stop-color="#54bbed"/>
    </linearGradient>
    <linearGradient id="linear-gradient-4" x1="0.5" x2="0.5" y2="1" gradientUnits="objectBoundingBox">
      <stop offset="0" stop-color="#206fcb"/>
      <stop offset="1" stop-color="#246dc1"/>
    </linearGradient>
    <clipPath id="clip-Artboard_47">
      <rect width="181" height="181"/>
    </clipPath>
  </defs>
  <g id="Artboard_47" data-name="Artboard – 47" clip-path="url(#clip-Artboard_47)">
    <rect width="181" height="181" fill="#fff"/>
    <g id="Group_27802" data-name="Group 27802" transform="translate(-1111.593 -280)">
      <g id="Group_27765" data-name="Group 27765" transform="translate(939.249 201)">
        <g id="Group_27306" data-name="Group 27306" transform="translate(173.751 218.662)">
          <path id="Path_56597" data-name="Path 56597" d="M53.973,0H0V28.789H53.973L46.58,14.826Z" transform="translate(124.213)" fill="url(#linear-gradient)"/>
          <path id="Path_56596" data-name="Path 56596" d="M0,0H53.973V28.789H0L7.394,14.826Z" fill="url(#linear-gradient)"/>
          <path id="Path_56595" data-name="Path 56595" d="M17.745,0H37.707L19.963,12.846V32.532H0V12.577Z" transform="translate(23.66)" fill="#1e559a"/>
          <path id="Path_56598" data-name="Path 56598" d="M19.963,0H0L17.745,12.846V32.532H37.707V12.577Z" transform="translate(117.558)" fill="#1e559a"/>
        </g>
        <ellipse id="Ellipse_681" data-name="Ellipse 681" cx="58.064" cy="58.064" rx="58.064" ry="58.064" transform="translate(204.453 141.149)" fill="url(#linear-gradient-3)"/>
        <rect id="Rectangle_19590" data-name="Rectangle 19590" width="132.146" height="29.366" transform="translate(197.248 230.58)" fill="url(#linear-gradient-4)"/>
        <g id="Group_27753" data-name="Group 27753" transform="translate(209.203 234.928)">
          <g id="Group_27749" data-name="Group 27749" transform="translate(0 0)">
            <g id="Group_27254" data-name="Group 27254" transform="translate(0.467 2.15)" opacity="0.26">
              <path id="Path_56544" data-name="Path 56544" d="M83.26,76.978c-.36-2.518-6.547-2.266-6.547-2.266s-1.654-5.288-3.633-5.18-3.957,5.4-3.957,5.4-5.539-.719-5.9,1.763a2.163,2.163,0,0,0-.02.31c-.1,2.273,3.308,4.339,3.657,4.545a12.692,12.692,0,0,0-1.1,4.308c-.015,1.14.375,2.072,1.671,2.113a8.869,8.869,0,0,0,5.8-2.086s3.806,3.057,5.892,2.158c.672-.29.9-1.066.907-1.983a14.59,14.59,0,0,0-.953-4.509c4.289-2.937,4.182-4.478,4.182-4.478l0-.017A.519.519,0,0,0,83.26,76.978Z" transform="translate(-63.203 -69.53)"/>
            </g>
            <g id="Group_27255" data-name="Group 27255">
              <path id="Path_56545" data-name="Path 56545" d="M72.858,66.545c1.952,0,3.573,5.181,3.573,5.181s.172-.007.46-.007c1.44,0,5.787.175,6.087,2.273a.516.516,0,0,1,0,.072l0,.018s.107,1.54-4.182,4.478a14.59,14.59,0,0,1,.953,4.509c-.005.918-.235,1.694-.907,1.983a2.2,2.2,0,0,1-.875.166c-2.124,0-5.017-2.324-5.017-2.324a8.9,8.9,0,0,1-5.554,2.09c-.081,0-.163,0-.244,0-1.3-.041-1.686-.973-1.671-2.113a12.7,12.7,0,0,1,1.1-4.308c-.349-.206-3.755-2.272-3.657-4.545a2.16,2.16,0,0,1,.02-.31c.227-1.571,2.531-1.859,4.19-1.859a14.794,14.794,0,0,1,1.709.1s1.978-5.287,3.957-5.4h.06m0-.465h0l-.085,0c-1.974.108-3.724,4.085-4.237,5.361-.319-.029-.821-.062-1.4-.062-3.574,0-4.5,1.228-4.652,2.258a2.7,2.7,0,0,0-.025.375c-.093,2.168,2.467,4.045,3.54,4.733a12.32,12.32,0,0,0-.982,4.124c-.028,2.181,1.317,2.55,2.122,2.575.087,0,.173,0,.259,0a9.323,9.323,0,0,0,5.566-1.96c.822.61,3.139,2.194,5,2.194a2.662,2.662,0,0,0,1.06-.2c.781-.337,1.181-1.147,1.189-2.408a14.232,14.232,0,0,0-.861-4.334c3.994-2.806,4.108-4.389,4.088-4.688a.534.534,0,0,0,0-.09v-.006l0-.028c-.345-2.412-4.693-2.673-6.547-2.673h-.125c-.464-1.378-1.923-5.175-3.909-5.175Z" transform="translate(-62.454 -66.08)" fill="#fff"/>
            </g>
            <g id="Group_27747" data-name="Group 27747" transform="translate(0.466 0.465)">
              <path id="Path_56547" data-name="Path 56547" d="M66.893,78.771s-4.029-2.3-3.669-4.784,5.9-1.762,5.9-1.762,1.978-5.288,3.957-5.4,3.633,5.18,3.633,5.18,6.187-.252,6.547,2.266c0,0,.108,1.547-4.208,4.5,0,0,2.158,5.576.072,6.475s-5.892-2.158-5.892-2.158a8.869,8.869,0,0,1-5.8,2.086C64.016,85.065,66.893,78.771,66.893,78.771Z" transform="translate(-63.201 -66.826)" fill="#ffdb2d"/>
            </g>
            <g id="Group_27748" data-name="Group 27748" transform="translate(0.781 0.694)">
              <path id="Path_56552" data-name="Path 56552" d="M77.013,67.2s-1.34.007-3.139,4.152c0,0,2.59-4.847,3.975-3.678C78.334,68.032,77.952,67.131,77.013,67.2Z" transform="translate(-67.539 -67.194)" fill="#fff" opacity="0.7"/>
              <path id="Path_56553" data-name="Path 56553" d="M69.143,75.729a16.515,16.515,0,0,0-4,.523c-.746.238-1.216,1.257-1.376,1.214C63.478,77.376,64.107,75.1,69.143,75.729Z" transform="translate(-63.708 -70.37)" fill="#fff" opacity="0.5"/>
            </g>
          </g>
          <g id="Group_27750" data-name="Group 27750" transform="translate(28.891 0)">
            <g id="Group_27254-2" data-name="Group 27254" transform="translate(0.467 2.15)" opacity="0.26">
              <path id="Path_56544-2" data-name="Path 56544" d="M83.26,76.978c-.36-2.518-6.547-2.266-6.547-2.266s-1.654-5.288-3.633-5.18-3.957,5.4-3.957,5.4-5.539-.719-5.9,1.763a2.163,2.163,0,0,0-.02.31c-.1,2.273,3.308,4.339,3.657,4.545a12.692,12.692,0,0,0-1.1,4.308c-.015,1.14.375,2.072,1.671,2.113a8.869,8.869,0,0,0,5.8-2.086s3.806,3.057,5.892,2.158c.672-.29.9-1.066.907-1.983a14.59,14.59,0,0,0-.953-4.509c4.289-2.937,4.182-4.478,4.182-4.478l0-.017A.519.519,0,0,0,83.26,76.978Z" transform="translate(-63.203 -69.53)"/>
            </g>
            <g id="Group_27255-2" data-name="Group 27255" transform="translate(0)">
              <path id="Path_56545-2" data-name="Path 56545" d="M72.858,66.545c1.952,0,3.573,5.181,3.573,5.181s.172-.007.46-.007c1.44,0,5.787.175,6.087,2.273a.516.516,0,0,1,0,.072l0,.018s.107,1.54-4.182,4.478a14.59,14.59,0,0,1,.953,4.509c-.005.918-.235,1.694-.907,1.983a2.2,2.2,0,0,1-.875.166c-2.124,0-5.017-2.324-5.017-2.324a8.9,8.9,0,0,1-5.554,2.09c-.081,0-.163,0-.244,0-1.3-.041-1.686-.973-1.671-2.113a12.7,12.7,0,0,1,1.1-4.308c-.349-.206-3.755-2.272-3.657-4.545a2.16,2.16,0,0,1,.02-.31c.227-1.571,2.531-1.859,4.19-1.859a14.794,14.794,0,0,1,1.709.1s1.978-5.287,3.957-5.4h.06m0-.465h0l-.085,0c-1.974.108-3.724,4.085-4.237,5.361-.319-.029-.821-.062-1.4-.062-3.574,0-4.5,1.228-4.652,2.258a2.7,2.7,0,0,0-.025.375c-.093,2.168,2.467,4.045,3.54,4.733a12.32,12.32,0,0,0-.982,4.124c-.028,2.181,1.317,2.55,2.122,2.575.087,0,.173,0,.259,0a9.323,9.323,0,0,0,5.566-1.96c.822.61,3.139,2.194,5,2.194a2.662,2.662,0,0,0,1.06-.2c.781-.337,1.181-1.147,1.189-2.408a14.232,14.232,0,0,0-.861-4.334c3.994-2.806,4.108-4.389,4.088-4.688a.534.534,0,0,0,0-.09v-.006l0-.028c-.345-2.412-4.693-2.673-6.547-2.673h-.125c-.464-1.378-1.923-5.175-3.909-5.175Z" transform="translate(-62.454 -66.08)" fill="#fff"/>
            </g>
            <g id="Group_27747-2" data-name="Group 27747" transform="translate(0.466 0.465)">
              <path id="Path_56547-2" data-name="Path 56547" d="M66.893,78.771s-4.029-2.3-3.669-4.784,5.9-1.762,5.9-1.762,1.978-5.288,3.957-5.4,3.633,5.18,3.633,5.18,6.187-.252,6.547,2.266c0,0,.108,1.547-4.208,4.5,0,0,2.158,5.576.072,6.475s-5.892-2.158-5.892-2.158a8.869,8.869,0,0,1-5.8,2.086C64.016,85.065,66.893,78.771,66.893,78.771Z" transform="translate(-63.201 -66.826)" fill="#ffdb2d"/>
            </g>
            <g id="Group_27748-2" data-name="Group 27748" transform="translate(0.781 0.694)">
              <path id="Path_56552-2" data-name="Path 56552" d="M77.013,67.2s-1.34.007-3.139,4.152c0,0,2.59-4.847,3.975-3.678C78.334,68.032,77.952,67.131,77.013,67.2Z" transform="translate(-67.539 -67.194)" fill="#fff" opacity="0.7"/>
              <path id="Path_56553-2" data-name="Path 56553" d="M69.143,75.729a16.515,16.515,0,0,0-4,.523c-.746.238-1.216,1.257-1.376,1.214C63.478,77.376,64.107,75.1,69.143,75.729Z" transform="translate(-63.708 -70.37)" fill="#fff" opacity="0.5"/>
            </g>
          </g>
          <g id="Group_27751" data-name="Group 27751" transform="translate(57.781 0)">
            <g id="Group_27254-3" data-name="Group 27254" transform="translate(0.467 2.15)" opacity="0.26">
              <path id="Path_56544-3" data-name="Path 56544" d="M83.26,76.978c-.36-2.518-6.547-2.266-6.547-2.266s-1.654-5.288-3.633-5.18-3.957,5.4-3.957,5.4-5.539-.719-5.9,1.763a2.163,2.163,0,0,0-.02.31c-.1,2.273,3.308,4.339,3.657,4.545a12.692,12.692,0,0,0-1.1,4.308c-.015,1.14.375,2.072,1.671,2.113a8.869,8.869,0,0,0,5.8-2.086s3.806,3.057,5.892,2.158c.672-.29.9-1.066.907-1.983a14.59,14.59,0,0,0-.953-4.509c4.289-2.937,4.182-4.478,4.182-4.478l0-.017A.519.519,0,0,0,83.26,76.978Z" transform="translate(-63.203 -69.53)"/>
            </g>
            <g id="Group_27255-3" data-name="Group 27255" transform="translate(0)">
              <path id="Path_56545-3" data-name="Path 56545" d="M72.858,66.545c1.952,0,3.573,5.181,3.573,5.181s.172-.007.46-.007c1.44,0,5.787.175,6.087,2.273a.516.516,0,0,1,0,.072l0,.018s.107,1.54-4.182,4.478a14.59,14.59,0,0,1,.953,4.509c-.005.918-.235,1.694-.907,1.983a2.2,2.2,0,0,1-.875.166c-2.124,0-5.017-2.324-5.017-2.324a8.9,8.9,0,0,1-5.554,2.09c-.081,0-.163,0-.244,0-1.3-.041-1.686-.973-1.671-2.113a12.7,12.7,0,0,1,1.1-4.308c-.349-.206-3.755-2.272-3.657-4.545a2.16,2.16,0,0,1,.02-.31c.227-1.571,2.531-1.859,4.19-1.859a14.794,14.794,0,0,1,1.709.1s1.978-5.287,3.957-5.4h.06m0-.465h0l-.085,0c-1.974.108-3.724,4.085-4.237,5.361-.319-.029-.821-.062-1.4-.062-3.574,0-4.5,1.228-4.652,2.258a2.7,2.7,0,0,0-.025.375c-.093,2.168,2.467,4.045,3.54,4.733a12.32,12.32,0,0,0-.982,4.124c-.028,2.181,1.317,2.55,2.122,2.575.087,0,.173,0,.259,0a9.323,9.323,0,0,0,5.566-1.96c.822.61,3.139,2.194,5,2.194a2.662,2.662,0,0,0,1.06-.2c.781-.337,1.181-1.147,1.189-2.408a14.232,14.232,0,0,0-.861-4.334c3.994-2.806,4.108-4.389,4.088-4.688a.534.534,0,0,0,0-.09v-.006l0-.028c-.345-2.412-4.693-2.673-6.547-2.673h-.125c-.464-1.378-1.923-5.175-3.909-5.175Z" transform="translate(-62.454 -66.08)" fill="#fff"/>
            </g>
            <g id="Group_27747-3" data-name="Group 27747" transform="translate(0.466 0.465)">
              <path id="Path_56547-3" data-name="Path 56547" d="M66.893,78.771s-4.029-2.3-3.669-4.784,5.9-1.762,5.9-1.762,1.978-5.288,3.957-5.4,3.633,5.18,3.633,5.18,6.187-.252,6.547,2.266c0,0,.108,1.547-4.208,4.5,0,0,2.158,5.576.072,6.475s-5.892-2.158-5.892-2.158a8.869,8.869,0,0,1-5.8,2.086C64.016,85.065,66.893,78.771,66.893,78.771Z" transform="translate(-63.201 -66.826)" fill="#ffdb2d"/>
            </g>
            <g id="Group_27748-3" data-name="Group 27748" transform="translate(0.781 0.694)">
              <path id="Path_56552-3" data-name="Path 56552" d="M77.013,67.2s-1.34.007-3.139,4.152c0,0,2.59-4.847,3.975-3.678C78.334,68.032,77.952,67.131,77.013,67.2Z" transform="translate(-67.539 -67.194)" fill="#fff" opacity="0.7"/>
              <path id="Path_56553-3" data-name="Path 56553" d="M69.143,75.729a16.515,16.515,0,0,0-4,.523c-.746.238-1.216,1.257-1.376,1.214C63.478,77.376,64.107,75.1,69.143,75.729Z" transform="translate(-63.708 -70.37)" fill="#fff" opacity="0.5"/>
            </g>
          </g>
          <g id="Group_27752" data-name="Group 27752" transform="translate(86.672 0)">
            <g id="Group_27254-4" data-name="Group 27254" transform="translate(0.467 2.15)" opacity="0.26">
              <path id="Path_56544-4" data-name="Path 56544" d="M83.26,76.978c-.36-2.518-6.547-2.266-6.547-2.266s-1.654-5.288-3.633-5.18-3.957,5.4-3.957,5.4-5.539-.719-5.9,1.763a2.163,2.163,0,0,0-.02.31c-.1,2.273,3.308,4.339,3.657,4.545a12.692,12.692,0,0,0-1.1,4.308c-.015,1.14.375,2.072,1.671,2.113a8.869,8.869,0,0,0,5.8-2.086s3.806,3.057,5.892,2.158c.672-.29.9-1.066.907-1.983a14.59,14.59,0,0,0-.953-4.509c4.289-2.937,4.182-4.478,4.182-4.478l0-.017A.519.519,0,0,0,83.26,76.978Z" transform="translate(-63.203 -69.53)"/>
            </g>
            <g id="Group_27255-4" data-name="Group 27255" transform="translate(0)">
              <path id="Path_56545-4" data-name="Path 56545" d="M72.858,66.545c1.952,0,3.573,5.181,3.573,5.181s.172-.007.46-.007c1.44,0,5.787.175,6.087,2.273a.516.516,0,0,1,0,.072l0,.018s.107,1.54-4.182,4.478a14.59,14.59,0,0,1,.953,4.509c-.005.918-.235,1.694-.907,1.983a2.2,2.2,0,0,1-.875.166c-2.124,0-5.017-2.324-5.017-2.324a8.9,8.9,0,0,1-5.554,2.09c-.081,0-.163,0-.244,0-1.3-.041-1.686-.973-1.671-2.113a12.7,12.7,0,0,1,1.1-4.308c-.349-.206-3.755-2.272-3.657-4.545a2.16,2.16,0,0,1,.02-.31c.227-1.571,2.531-1.859,4.19-1.859a14.794,14.794,0,0,1,1.709.1s1.978-5.287,3.957-5.4h.06m0-.465h0l-.085,0c-1.974.108-3.724,4.085-4.237,5.361-.319-.029-.821-.062-1.4-.062-3.574,0-4.5,1.228-4.652,2.258a2.7,2.7,0,0,0-.025.375c-.093,2.168,2.467,4.045,3.54,4.733a12.32,12.32,0,0,0-.982,4.124c-.028,2.181,1.317,2.55,2.122,2.575.087,0,.173,0,.259,0a9.323,9.323,0,0,0,5.566-1.96c.822.61,3.139,2.194,5,2.194a2.662,2.662,0,0,0,1.06-.2c.781-.337,1.181-1.147,1.189-2.408a14.232,14.232,0,0,0-.861-4.334c3.994-2.806,4.108-4.389,4.088-4.688a.534.534,0,0,0,0-.09v-.006l0-.028c-.345-2.412-4.693-2.673-6.547-2.673h-.125c-.464-1.378-1.923-5.175-3.909-5.175Z" transform="translate(-62.454 -66.08)" fill="#fff"/>
            </g>
            <g id="Group_27747-4" data-name="Group 27747" transform="translate(0.466 0.465)">
              <path id="Path_56547-4" data-name="Path 56547" d="M66.893,78.771s-4.029-2.3-3.669-4.784,5.9-1.762,5.9-1.762,1.978-5.288,3.957-5.4,3.633,5.18,3.633,5.18,6.187-.252,6.547,2.266c0,0,.108,1.547-4.208,4.5,0,0,2.158,5.576.072,6.475s-5.892-2.158-5.892-2.158a8.869,8.869,0,0,1-5.8,2.086C64.016,85.065,66.893,78.771,66.893,78.771Z" transform="translate(-63.201 -66.826)" fill="#0f4e98"/>
            </g>
            <g id="Group_27748-4" data-name="Group 27748" transform="translate(0.781 0.694)">
              <path id="Path_56552-4" data-name="Path 56552" d="M77.013,67.2s-1.34.007-3.139,4.152c0,0,2.59-4.847,3.975-3.678C78.334,68.032,77.952,67.131,77.013,67.2Z" transform="translate(-67.539 -67.194)" fill="#fff" opacity="0.7"/>
              <path id="Path_56553-4" data-name="Path 56553" d="M69.143,75.729a16.515,16.515,0,0,0-4,.523c-.746.238-1.216,1.257-1.376,1.214C63.478,77.376,64.107,75.1,69.143,75.729Z" transform="translate(-63.708 -70.37)" fill="#fff" opacity="0.5"/>
            </g>
          </g>
        </g>
      </g>
      <g id="Group_27720" data-name="Group 27720" transform="translate(1152 317)">
        <path id="Path_57009" data-name="Path 57009" d="M833.2,407.935c.174,0,.347-.009.522-.009a30.834,30.834,0,0,1,17.677,5.449c4.608-4.863,4.359-10.225,1.036-8.747-2.1.932-4.79,2.686-6.108,3.346,4.51-9.154-2.921-21.379-5.028-16.365-1.358,3.232-2.187,7.762-4.187,10.98,1.217-11.469-11.629-21.635-11.07-15.064.446,5.245.659,6,0,10.62-2.638-6.6-29.081-13.131-23.882-7.425,6.145,6.744,12.393,14.687,15.546,20.978a31.138,31.138,0,0,1,14.974-3.771C832.85,407.926,833.024,407.932,833.2,407.935Z" transform="translate(-782.977 -385.454)" fill="#3ab449"/>
        <path id="Path_57010" data-name="Path 57010" d="M880.89,457.393c0,23.841-22.316,36.914-49.842,36.914S781.2,481.235,781.2,457.393s22.316-49.427,49.845-49.427S880.89,433.552,880.89,457.393Z" transform="translate(-781.112 -387.525)" fill="#fff"/>
        <g id="Group_27718" data-name="Group 27718" transform="translate(15 70.403)">
          <path id="Path_57011" data-name="Path 57011" d="M805.119,468.2c0,2.879-1.677,5.213-3.748,5.213s-3.748-2.334-3.748-5.213,1.679-5.216,3.748-5.216S805.119,465.322,805.119,468.2Z" transform="translate(-797.622 -462.987)" fill="#441f04"/>
          <path id="Path_57012" data-name="Path 57012" d="M801.672,465.869c0,1.194-.7,2.166-1.555,2.166s-1.558-.972-1.558-2.166.7-2.163,1.558-2.163S801.672,464.675,801.672,465.869Z" transform="translate(-797.708 -463.053)" fill="#fff"/>
        </g>
        <g id="Group_27719" data-name="Group 27719" transform="translate(76.313 70.403)">
          <path id="Path_57013" data-name="Path 57013" d="M872.644,468.2c0,2.879-1.679,5.213-3.748,5.213s-3.75-2.334-3.75-5.213,1.679-5.216,3.75-5.216S872.644,465.322,872.644,468.2Z" transform="translate(-865.145 -462.987)" fill="#441f04"/>
          <path id="Path_57014" data-name="Path 57014" d="M869.195,465.869c0,1.194-.7,2.166-1.554,2.166s-1.557-.972-1.557-2.166.7-2.163,1.557-2.163S869.195,464.675,869.195,465.869Z" transform="translate(-865.231 -463.053)" fill="#fff"/>
        </g>
        <path id="Path_57015" data-name="Path 57015" d="M808.993,481.695a5.918,5.918,0,1,1-5.918-5.918A5.918,5.918,0,0,1,808.993,481.695Z" transform="translate(-782.58 -393.761)" fill="#ffbdbd"/>
        <path id="Path_57016" data-name="Path 57016" d="M875.036,481.695a5.917,5.917,0,1,1-5.916-5.918A5.917,5.917,0,0,1,875.036,481.695Z" transform="translate(-788.653 -393.761)" fill="#ffbdbd"/>
        <path id="Path_57017" data-name="Path 57017" d="M880.79,457.312c0,16.292-10.422,27.555-25.807,33.055,27.988-15.053,13.948-54.4-.293-60.387-17.6-7.4-21.078,41.3-23.842,41.194-2.058-.078-5.181-49.336-22.983-41.194-14.653,6.7-32.669,36.13-2.453,59.826-14.559-5.683-24.308-16.737-24.308-32.494,0-23.841,22.317-49.428,49.843-49.428S880.79,433.471,880.79,457.312Z" transform="translate(-781.103 -387.517)" fill="#3ab449"/>
        <path id="Path_57018" data-name="Path 57018" d="M840.036,458.938c-.151.844-3.276,15.056-3.276,15.056h-2.142s-2.2-12.662-2.834-14.8,2.645-2.835,4.032-2.835S840.35,457.174,840.036,458.938Z" transform="translate(-785.756 -391.975)" fill="#fb0101"/>
        <path id="Path_57019" data-name="Path 57019" d="M844.483,478.25c0,4.736-7.842,9.108-9.877,9.088-1.434-.013-9.877-4.351-9.877-9.088,0-3.259,4.422-3.973,9.877-3.973S844.483,474.991,844.483,478.25Z" transform="translate(-785.115 -393.623)" fill="#f0da10"/>
      </g>
    </g>
  </g>
</svg>
