<svg xmlns="http://www.w3.org/2000/svg" xmlns:xlink="http://www.w3.org/1999/xlink" width="181" height="181" viewBox="0 0 181 181">
  <defs>
    <linearGradient id="linear-gradient" x1="0.5" y1="0.136" x2="0.5" y2="1.1" gradientUnits="objectBoundingBox">
      <stop offset="0" stop-color="#206fcb"/>
      <stop offset="1" stop-color="#103866"/>
    </linearGradient>
    <linearGradient id="linear-gradient-3" x1="0.535" y1="-0.102" x2="0.5" y2="0.811" gradientUnits="objectBoundingBox">
      <stop offset="0" stop-color="#effaff"/>
      <stop offset="1" stop-color="#54bbed"/>
    </linearGradient>
    <linearGradient id="linear-gradient-4" x1="0.5" x2="0.5" y2="1" gradientUnits="objectBoundingBox">
      <stop offset="0" stop-color="#206fcb"/>
      <stop offset="1" stop-color="#246dc1"/>
    </linearGradient>
    <clipPath id="clip-Artboard_51">
      <rect width="181" height="181"/>
    </clipPath>
  </defs>
  <g id="Artboard_51" data-name="Artboard – 51" clip-path="url(#clip-Artboard_51)">
    <rect width="181" height="181" fill="#fff"/>
    <g id="Group_27798" data-name="Group 27798" transform="translate(-1268.593 -280)">
      <g id="Group_27766" data-name="Group 27766" transform="translate(1096.249 201)">
        <g id="Group_27306" data-name="Group 27306" transform="translate(173.751 218.662)">
          <path id="Path_56597" data-name="Path 56597" d="M53.973,0H0V28.789H53.973L46.58,14.826Z" transform="translate(124.213)" fill="url(#linear-gradient)"/>
          <path id="Path_56596" data-name="Path 56596" d="M0,0H53.973V28.789H0L7.394,14.826Z" fill="url(#linear-gradient)"/>
          <path id="Path_56595" data-name="Path 56595" d="M17.745,0H37.707L19.963,12.846V32.532H0V12.577Z" transform="translate(23.66)" fill="#1e559a"/>
          <path id="Path_56598" data-name="Path 56598" d="M19.963,0H0L17.745,12.846V32.532H37.707V12.577Z" transform="translate(117.558)" fill="#1e559a"/>
        </g>
        <ellipse id="Ellipse_681" data-name="Ellipse 681" cx="58.064" cy="58.064" rx="58.064" ry="58.064" transform="translate(204.453 141.149)" fill="url(#linear-gradient-3)"/>
        <rect id="Rectangle_19590" data-name="Rectangle 19590" width="132.146" height="29.366" transform="translate(197.248 230.58)" fill="url(#linear-gradient-4)"/>
        <g id="Group_27753" data-name="Group 27753" transform="translate(209.203 234.928)">
          <g id="Group_27749" data-name="Group 27749" transform="translate(0 0)">
            <g id="Group_27254" data-name="Group 27254" transform="translate(0.467 2.15)" opacity="0.26">
              <path id="Path_56544" data-name="Path 56544" d="M83.26,76.978c-.36-2.518-6.547-2.266-6.547-2.266s-1.654-5.288-3.633-5.18-3.957,5.4-3.957,5.4-5.539-.719-5.9,1.763a2.163,2.163,0,0,0-.02.31c-.1,2.273,3.308,4.339,3.657,4.545a12.692,12.692,0,0,0-1.1,4.308c-.015,1.14.375,2.072,1.671,2.113a8.869,8.869,0,0,0,5.8-2.086s3.806,3.057,5.892,2.158c.672-.29.9-1.066.907-1.983a14.59,14.59,0,0,0-.953-4.509c4.289-2.937,4.182-4.478,4.182-4.478l0-.017A.519.519,0,0,0,83.26,76.978Z" transform="translate(-63.203 -69.53)"/>
            </g>
            <g id="Group_27255" data-name="Group 27255">
              <path id="Path_56545" data-name="Path 56545" d="M72.858,66.545c1.952,0,3.573,5.181,3.573,5.181s.172-.007.46-.007c1.44,0,5.787.175,6.087,2.273a.516.516,0,0,1,0,.072l0,.018s.107,1.54-4.182,4.478a14.59,14.59,0,0,1,.953,4.509c-.005.918-.235,1.694-.907,1.983a2.2,2.2,0,0,1-.875.166c-2.124,0-5.017-2.324-5.017-2.324a8.9,8.9,0,0,1-5.554,2.09c-.081,0-.163,0-.244,0-1.3-.041-1.686-.973-1.671-2.113a12.7,12.7,0,0,1,1.1-4.308c-.349-.206-3.755-2.272-3.657-4.545a2.16,2.16,0,0,1,.02-.31c.227-1.571,2.531-1.859,4.19-1.859a14.794,14.794,0,0,1,1.709.1s1.978-5.287,3.957-5.4h.06m0-.465h0l-.085,0c-1.974.108-3.724,4.085-4.237,5.361-.319-.029-.821-.062-1.4-.062-3.574,0-4.5,1.228-4.652,2.258a2.7,2.7,0,0,0-.025.375c-.093,2.168,2.467,4.045,3.54,4.733a12.32,12.32,0,0,0-.982,4.124c-.028,2.181,1.317,2.55,2.122,2.575.087,0,.173,0,.259,0a9.323,9.323,0,0,0,5.566-1.96c.822.61,3.139,2.194,5,2.194a2.662,2.662,0,0,0,1.06-.2c.781-.337,1.181-1.147,1.189-2.408a14.232,14.232,0,0,0-.861-4.334c3.994-2.806,4.108-4.389,4.088-4.688a.534.534,0,0,0,0-.09v-.006l0-.028c-.345-2.412-4.693-2.673-6.547-2.673h-.125c-.464-1.378-1.923-5.175-3.909-5.175Z" transform="translate(-62.454 -66.08)" fill="#fff"/>
            </g>
            <g id="Group_27747" data-name="Group 27747" transform="translate(0.466 0.465)">
              <path id="Path_56547" data-name="Path 56547" d="M66.893,78.771s-4.029-2.3-3.669-4.784,5.9-1.762,5.9-1.762,1.978-5.288,3.957-5.4,3.633,5.18,3.633,5.18,6.187-.252,6.547,2.266c0,0,.108,1.547-4.208,4.5,0,0,2.158,5.576.072,6.475s-5.892-2.158-5.892-2.158a8.869,8.869,0,0,1-5.8,2.086C64.016,85.065,66.893,78.771,66.893,78.771Z" transform="translate(-63.201 -66.826)" fill="#ffdb2d"/>
            </g>
            <g id="Group_27748" data-name="Group 27748" transform="translate(0.781 0.694)">
              <path id="Path_56552" data-name="Path 56552" d="M77.013,67.2s-1.34.007-3.139,4.152c0,0,2.59-4.847,3.975-3.678C78.334,68.032,77.952,67.131,77.013,67.2Z" transform="translate(-67.539 -67.194)" fill="#fff" opacity="0.7"/>
              <path id="Path_56553" data-name="Path 56553" d="M69.143,75.729a16.515,16.515,0,0,0-4,.523c-.746.238-1.216,1.257-1.376,1.214C63.478,77.376,64.107,75.1,69.143,75.729Z" transform="translate(-63.708 -70.37)" fill="#fff" opacity="0.5"/>
            </g>
          </g>
          <g id="Group_27750" data-name="Group 27750" transform="translate(28.891 0)">
            <g id="Group_27254-2" data-name="Group 27254" transform="translate(0.467 2.15)" opacity="0.26">
              <path id="Path_56544-2" data-name="Path 56544" d="M83.26,76.978c-.36-2.518-6.547-2.266-6.547-2.266s-1.654-5.288-3.633-5.18-3.957,5.4-3.957,5.4-5.539-.719-5.9,1.763a2.163,2.163,0,0,0-.02.31c-.1,2.273,3.308,4.339,3.657,4.545a12.692,12.692,0,0,0-1.1,4.308c-.015,1.14.375,2.072,1.671,2.113a8.869,8.869,0,0,0,5.8-2.086s3.806,3.057,5.892,2.158c.672-.29.9-1.066.907-1.983a14.59,14.59,0,0,0-.953-4.509c4.289-2.937,4.182-4.478,4.182-4.478l0-.017A.519.519,0,0,0,83.26,76.978Z" transform="translate(-63.203 -69.53)"/>
            </g>
            <g id="Group_27255-2" data-name="Group 27255" transform="translate(0)">
              <path id="Path_56545-2" data-name="Path 56545" d="M72.858,66.545c1.952,0,3.573,5.181,3.573,5.181s.172-.007.46-.007c1.44,0,5.787.175,6.087,2.273a.516.516,0,0,1,0,.072l0,.018s.107,1.54-4.182,4.478a14.59,14.59,0,0,1,.953,4.509c-.005.918-.235,1.694-.907,1.983a2.2,2.2,0,0,1-.875.166c-2.124,0-5.017-2.324-5.017-2.324a8.9,8.9,0,0,1-5.554,2.09c-.081,0-.163,0-.244,0-1.3-.041-1.686-.973-1.671-2.113a12.7,12.7,0,0,1,1.1-4.308c-.349-.206-3.755-2.272-3.657-4.545a2.16,2.16,0,0,1,.02-.31c.227-1.571,2.531-1.859,4.19-1.859a14.794,14.794,0,0,1,1.709.1s1.978-5.287,3.957-5.4h.06m0-.465h0l-.085,0c-1.974.108-3.724,4.085-4.237,5.361-.319-.029-.821-.062-1.4-.062-3.574,0-4.5,1.228-4.652,2.258a2.7,2.7,0,0,0-.025.375c-.093,2.168,2.467,4.045,3.54,4.733a12.32,12.32,0,0,0-.982,4.124c-.028,2.181,1.317,2.55,2.122,2.575.087,0,.173,0,.259,0a9.323,9.323,0,0,0,5.566-1.96c.822.61,3.139,2.194,5,2.194a2.662,2.662,0,0,0,1.06-.2c.781-.337,1.181-1.147,1.189-2.408a14.232,14.232,0,0,0-.861-4.334c3.994-2.806,4.108-4.389,4.088-4.688a.534.534,0,0,0,0-.09v-.006l0-.028c-.345-2.412-4.693-2.673-6.547-2.673h-.125c-.464-1.378-1.923-5.175-3.909-5.175Z" transform="translate(-62.454 -66.08)" fill="#fff"/>
            </g>
            <g id="Group_27747-2" data-name="Group 27747" transform="translate(0.466 0.465)">
              <path id="Path_56547-2" data-name="Path 56547" d="M66.893,78.771s-4.029-2.3-3.669-4.784,5.9-1.762,5.9-1.762,1.978-5.288,3.957-5.4,3.633,5.18,3.633,5.18,6.187-.252,6.547,2.266c0,0,.108,1.547-4.208,4.5,0,0,2.158,5.576.072,6.475s-5.892-2.158-5.892-2.158a8.869,8.869,0,0,1-5.8,2.086C64.016,85.065,66.893,78.771,66.893,78.771Z" transform="translate(-63.201 -66.826)" fill="#ffdb2d"/>
            </g>
            <g id="Group_27748-2" data-name="Group 27748" transform="translate(0.781 0.694)">
              <path id="Path_56552-2" data-name="Path 56552" d="M77.013,67.2s-1.34.007-3.139,4.152c0,0,2.59-4.847,3.975-3.678C78.334,68.032,77.952,67.131,77.013,67.2Z" transform="translate(-67.539 -67.194)" fill="#fff" opacity="0.7"/>
              <path id="Path_56553-2" data-name="Path 56553" d="M69.143,75.729a16.515,16.515,0,0,0-4,.523c-.746.238-1.216,1.257-1.376,1.214C63.478,77.376,64.107,75.1,69.143,75.729Z" transform="translate(-63.708 -70.37)" fill="#fff" opacity="0.5"/>
            </g>
          </g>
          <g id="Group_27751" data-name="Group 27751" transform="translate(57.781 0)">
            <g id="Group_27254-3" data-name="Group 27254" transform="translate(0.467 2.15)" opacity="0.26">
              <path id="Path_56544-3" data-name="Path 56544" d="M83.26,76.978c-.36-2.518-6.547-2.266-6.547-2.266s-1.654-5.288-3.633-5.18-3.957,5.4-3.957,5.4-5.539-.719-5.9,1.763a2.163,2.163,0,0,0-.02.31c-.1,2.273,3.308,4.339,3.657,4.545a12.692,12.692,0,0,0-1.1,4.308c-.015,1.14.375,2.072,1.671,2.113a8.869,8.869,0,0,0,5.8-2.086s3.806,3.057,5.892,2.158c.672-.29.9-1.066.907-1.983a14.59,14.59,0,0,0-.953-4.509c4.289-2.937,4.182-4.478,4.182-4.478l0-.017A.519.519,0,0,0,83.26,76.978Z" transform="translate(-63.203 -69.53)"/>
            </g>
            <g id="Group_27255-3" data-name="Group 27255" transform="translate(0)">
              <path id="Path_56545-3" data-name="Path 56545" d="M72.858,66.545c1.952,0,3.573,5.181,3.573,5.181s.172-.007.46-.007c1.44,0,5.787.175,6.087,2.273a.516.516,0,0,1,0,.072l0,.018s.107,1.54-4.182,4.478a14.59,14.59,0,0,1,.953,4.509c-.005.918-.235,1.694-.907,1.983a2.2,2.2,0,0,1-.875.166c-2.124,0-5.017-2.324-5.017-2.324a8.9,8.9,0,0,1-5.554,2.09c-.081,0-.163,0-.244,0-1.3-.041-1.686-.973-1.671-2.113a12.7,12.7,0,0,1,1.1-4.308c-.349-.206-3.755-2.272-3.657-4.545a2.16,2.16,0,0,1,.02-.31c.227-1.571,2.531-1.859,4.19-1.859a14.794,14.794,0,0,1,1.709.1s1.978-5.287,3.957-5.4h.06m0-.465h0l-.085,0c-1.974.108-3.724,4.085-4.237,5.361-.319-.029-.821-.062-1.4-.062-3.574,0-4.5,1.228-4.652,2.258a2.7,2.7,0,0,0-.025.375c-.093,2.168,2.467,4.045,3.54,4.733a12.32,12.32,0,0,0-.982,4.124c-.028,2.181,1.317,2.55,2.122,2.575.087,0,.173,0,.259,0a9.323,9.323,0,0,0,5.566-1.96c.822.61,3.139,2.194,5,2.194a2.662,2.662,0,0,0,1.06-.2c.781-.337,1.181-1.147,1.189-2.408a14.232,14.232,0,0,0-.861-4.334c3.994-2.806,4.108-4.389,4.088-4.688a.534.534,0,0,0,0-.09v-.006l0-.028c-.345-2.412-4.693-2.673-6.547-2.673h-.125c-.464-1.378-1.923-5.175-3.909-5.175Z" transform="translate(-62.454 -66.08)" fill="#fff"/>
            </g>
            <g id="Group_27747-3" data-name="Group 27747" transform="translate(0.466 0.465)">
              <path id="Path_56547-3" data-name="Path 56547" d="M66.893,78.771s-4.029-2.3-3.669-4.784,5.9-1.762,5.9-1.762,1.978-5.288,3.957-5.4,3.633,5.18,3.633,5.18,6.187-.252,6.547,2.266c0,0,.108,1.547-4.208,4.5,0,0,2.158,5.576.072,6.475s-5.892-2.158-5.892-2.158a8.869,8.869,0,0,1-5.8,2.086C64.016,85.065,66.893,78.771,66.893,78.771Z" transform="translate(-63.201 -66.826)" fill="#ffdb2d"/>
            </g>
            <g id="Group_27748-3" data-name="Group 27748" transform="translate(0.781 0.694)">
              <path id="Path_56552-3" data-name="Path 56552" d="M77.013,67.2s-1.34.007-3.139,4.152c0,0,2.59-4.847,3.975-3.678C78.334,68.032,77.952,67.131,77.013,67.2Z" transform="translate(-67.539 -67.194)" fill="#fff" opacity="0.7"/>
              <path id="Path_56553-3" data-name="Path 56553" d="M69.143,75.729a16.515,16.515,0,0,0-4,.523c-.746.238-1.216,1.257-1.376,1.214C63.478,77.376,64.107,75.1,69.143,75.729Z" transform="translate(-63.708 -70.37)" fill="#fff" opacity="0.5"/>
            </g>
          </g>
          <g id="Group_27752" data-name="Group 27752" transform="translate(86.672 0)">
            <g id="Group_27254-4" data-name="Group 27254" transform="translate(0.467 2.15)" opacity="0.26">
              <path id="Path_56544-4" data-name="Path 56544" d="M83.26,76.978c-.36-2.518-6.547-2.266-6.547-2.266s-1.654-5.288-3.633-5.18-3.957,5.4-3.957,5.4-5.539-.719-5.9,1.763a2.163,2.163,0,0,0-.02.31c-.1,2.273,3.308,4.339,3.657,4.545a12.692,12.692,0,0,0-1.1,4.308c-.015,1.14.375,2.072,1.671,2.113a8.869,8.869,0,0,0,5.8-2.086s3.806,3.057,5.892,2.158c.672-.29.9-1.066.907-1.983a14.59,14.59,0,0,0-.953-4.509c4.289-2.937,4.182-4.478,4.182-4.478l0-.017A.519.519,0,0,0,83.26,76.978Z" transform="translate(-63.203 -69.53)"/>
            </g>
            <g id="Group_27255-4" data-name="Group 27255" transform="translate(0)">
              <path id="Path_56545-4" data-name="Path 56545" d="M72.858,66.545c1.952,0,3.573,5.181,3.573,5.181s.172-.007.46-.007c1.44,0,5.787.175,6.087,2.273a.516.516,0,0,1,0,.072l0,.018s.107,1.54-4.182,4.478a14.59,14.59,0,0,1,.953,4.509c-.005.918-.235,1.694-.907,1.983a2.2,2.2,0,0,1-.875.166c-2.124,0-5.017-2.324-5.017-2.324a8.9,8.9,0,0,1-5.554,2.09c-.081,0-.163,0-.244,0-1.3-.041-1.686-.973-1.671-2.113a12.7,12.7,0,0,1,1.1-4.308c-.349-.206-3.755-2.272-3.657-4.545a2.16,2.16,0,0,1,.02-.31c.227-1.571,2.531-1.859,4.19-1.859a14.794,14.794,0,0,1,1.709.1s1.978-5.287,3.957-5.4h.06m0-.465h0l-.085,0c-1.974.108-3.724,4.085-4.237,5.361-.319-.029-.821-.062-1.4-.062-3.574,0-4.5,1.228-4.652,2.258a2.7,2.7,0,0,0-.025.375c-.093,2.168,2.467,4.045,3.54,4.733a12.32,12.32,0,0,0-.982,4.124c-.028,2.181,1.317,2.55,2.122,2.575.087,0,.173,0,.259,0a9.323,9.323,0,0,0,5.566-1.96c.822.61,3.139,2.194,5,2.194a2.662,2.662,0,0,0,1.06-.2c.781-.337,1.181-1.147,1.189-2.408a14.232,14.232,0,0,0-.861-4.334c3.994-2.806,4.108-4.389,4.088-4.688a.534.534,0,0,0,0-.09v-.006l0-.028c-.345-2.412-4.693-2.673-6.547-2.673h-.125c-.464-1.378-1.923-5.175-3.909-5.175Z" transform="translate(-62.454 -66.08)" fill="#fff"/>
            </g>
            <g id="Group_27747-4" data-name="Group 27747" transform="translate(0.466 0.465)">
              <path id="Path_56547-4" data-name="Path 56547" d="M66.893,78.771s-4.029-2.3-3.669-4.784,5.9-1.762,5.9-1.762,1.978-5.288,3.957-5.4,3.633,5.18,3.633,5.18,6.187-.252,6.547,2.266c0,0,.108,1.547-4.208,4.5,0,0,2.158,5.576.072,6.475s-5.892-2.158-5.892-2.158a8.869,8.869,0,0,1-5.8,2.086C64.016,85.065,66.893,78.771,66.893,78.771Z" transform="translate(-63.201 -66.826)" fill="#0f4e98"/>
            </g>
            <g id="Group_27748-4" data-name="Group 27748" transform="translate(0.781 0.694)">
              <path id="Path_56552-4" data-name="Path 56552" d="M77.013,67.2s-1.34.007-3.139,4.152c0,0,2.59-4.847,3.975-3.678C78.334,68.032,77.952,67.131,77.013,67.2Z" transform="translate(-67.539 -67.194)" fill="#fff" opacity="0.7"/>
              <path id="Path_56553-4" data-name="Path 56553" d="M69.143,75.729a16.515,16.515,0,0,0-4,.523c-.746.238-1.216,1.257-1.376,1.214C63.478,77.376,64.107,75.1,69.143,75.729Z" transform="translate(-63.708 -70.37)" fill="#fff" opacity="0.5"/>
            </g>
          </g>
        </g>
      </g>
      <g id="Group_27609" data-name="Group 27609" transform="translate(1309 328)">
        <path id="Path_56885" data-name="Path 56885" d="M1110.13,455.366c0,23.841-22.316,36.913-49.842,36.913s-49.845-13.072-49.845-36.913,22.317-49.427,49.845-49.427S1110.13,431.524,1110.13,455.366Z" transform="translate(-1010.443 -405.939)" fill="#cbd6e0"/>
        <g id="Group_27573" data-name="Group 27573" transform="translate(4.478 0.148)">
          <path id="Path_56886" data-name="Path 56886" d="M1082.905,412.054c10.925,5.07,14.615,11.758,20.326,18.814-3.024-2.016-4.826-2.839-7.7-3.181,6.244,3.766,10.555,9.411,11.815,15.47l-3.792-2.093a32.688,32.688,0,0,1,2.254,16.127,11.39,11.39,0,0,0-3.513-3.478,59.428,59.428,0,0,1-4.576,18.761l-3.269-4.62q-5.794,12.32-11.588,24.638-1.129-2.975-2.26-5.95c-6.43,2.355-11.061,5.25-13.352,8.847l-3.358-5.272q-2.009,4.7-4.02,9.407a58.992,58.992,0,0,1-13.636-10.555,15.247,15.247,0,0,0-1.759,5.7,48.765,48.765,0,0,1-14.2-17.5q-.768,2.3-1.534,4.6-2.283-10.609-4.564-21.218a14.751,14.751,0,0,0-5.512,6.07,25.093,25.093,0,0,1,2.9-20.76,20.6,20.6,0,0,0-6.194,3.225c.926-10.259,11.087-29.476,21.333-36.363C1036.708,412.726,1058.379,398.279,1082.905,412.054Z" transform="translate(-1015.375 -406.101)" fill="#dae5ef"/>
          <path id="Path_56887" data-name="Path 56887" d="M1036.1,502.909a14.97,14.97,0,0,1-.514-1.808A14.97,14.97,0,0,0,1036.1,502.909Z" transform="translate(-1017.234 -414.838)" fill="#dae5ef"/>
        </g>
        <g id="Group_27579" data-name="Group 27579" transform="translate(26.122 34.238)">
          <g id="Group_27578" data-name="Group 27578" opacity="0.5">
            <g id="Group_27575" data-name="Group 27575" transform="translate(28.419)">
              <g id="Group_27574" data-name="Group 27574">
                <path id="Path_56888" data-name="Path 56888" d="M1088.627,447.9c-8.6-1.363-8.877,6.719-18.12,9.03,5.586-3.5,9.15-8.97,10.176-13.288a13.316,13.316,0,0,1-.574,3.232,5.762,5.762,0,0,1,7.943-2.2,5.328,5.328,0,0,0-4.438,2.084A5.8,5.8,0,0,1,1088.627,447.9Z" transform="translate(-1070.507 -443.645)" fill="#cbd6e0"/>
              </g>
            </g>
            <g id="Group_27577" data-name="Group 27577">
              <g id="Group_27576" data-name="Group 27576">
                <path id="Path_56889" data-name="Path 56889" d="M1057.331,456.963c-9.279-2.43-9.582-10.413-18.121-9.06a5.774,5.774,0,0,1,5.013-1.148,5.348,5.348,0,0,0-4.469-2.084,5.8,5.8,0,0,1,7.973,2.2,12.082,12.082,0,0,1-.574-3.232C1048.18,447.964,1051.713,453.43,1057.331,456.963Z" transform="translate(-1039.21 -443.645)" fill="#cbd6e0"/>
              </g>
            </g>
          </g>
        </g>
        <g id="Group_27580" data-name="Group 27580" transform="translate(14.91 49.961)">
          <path id="Path_56890" data-name="Path 56890" d="M1034.359,466.176c0,2.878-1.677,5.213-3.748,5.213s-3.747-2.335-3.747-5.213,1.678-5.216,3.747-5.216S1034.359,463.294,1034.359,466.176Z" transform="translate(-1026.863 -460.96)" fill="#441f04"/>
          <path id="Path_56891" data-name="Path 56891" d="M1030.912,463.841c0,1.194-.7,2.166-1.554,2.166s-1.557-.972-1.557-2.166.7-2.163,1.557-2.163S1030.912,462.647,1030.912,463.841Z" transform="translate(-1026.949 -461.026)" fill="#fff"/>
        </g>
        <g id="Group_27581" data-name="Group 27581" transform="translate(76.223 49.961)">
          <path id="Path_56892" data-name="Path 56892" d="M1101.884,466.176c0,2.878-1.679,5.213-3.748,5.213s-3.75-2.335-3.75-5.213,1.68-5.216,3.75-5.216S1101.884,463.294,1101.884,466.176Z" transform="translate(-1094.385 -460.96)" fill="#441f04"/>
          <path id="Path_56893" data-name="Path 56893" d="M1098.436,463.841c0,1.194-.7,2.166-1.555,2.166s-1.557-.972-1.557-2.166.7-2.163,1.557-2.163S1098.436,462.647,1098.436,463.841Z" transform="translate(-1094.471 -461.026)" fill="#fff"/>
        </g>
        <path id="Path_56894" data-name="Path 56894" d="M1038.234,479.667a5.917,5.917,0,1,1-5.918-5.918A5.918,5.918,0,0,1,1038.234,479.667Z" transform="translate(-1011.91 -412.175)" fill="#ffbdbd"/>
        <path id="Path_56895" data-name="Path 56895" d="M1104.276,479.667a5.917,5.917,0,1,1-5.916-5.918A5.917,5.917,0,0,1,1104.276,479.667Z" transform="translate(-1017.984 -412.175)" fill="#ffbdbd"/>
        <g id="Group_27608" data-name="Group 27608" transform="translate(26.255 50.08)">
          <g id="Group_27584" data-name="Group 27584">
            <g id="Group_27583" data-name="Group 27583">
              <g id="Group_27582" data-name="Group 27582">
                <path id="Path_56896" data-name="Path 56896" d="M1087.294,482.154c0,1.443-1.333,2.776-3.7,3.924a30.371,30.371,0,0,0-14.1,13.4c-3.11,6.218-6.183,11.438-6.183,11.438s-3.072-5.219-6.181-11.438a30.373,30.373,0,0,0-14.1-13.4c-2.332-1.148-3.665-2.481-3.665-3.924,0-1.962,2.406-3.7,6.367-5.034a13.015,13.015,0,0,0,7.81-6.848c2.333-5,5.85-9.18,9.772-9.18s7.441,4.182,9.773,9.18a13.049,13.049,0,0,0,7.774,6.848C1084.851,478.415,1087.294,480.192,1087.294,482.154Z" transform="translate(-1039.357 -461.091)" fill="#ffd93b"/>
              </g>
            </g>
          </g>
          <g id="Group_27587" data-name="Group 27587" transform="translate(23.822 1.496)">
            <g id="Group_27586" data-name="Group 27586">
              <g id="Group_27585" data-name="Group 27585">
                <path id="Path_56897" data-name="Path 56897" d="M1083.266,477.271a13.049,13.049,0,0,1-7.774-6.848,20.175,20.175,0,0,0-5.715-7.685c2.861,5.228,4,12.2,9.133,15.695,1.187.807,2.525,1.367,3.718,2.167.82.548,1,1.223-.14,1.54-3.7,1.024-14.405,17.945-16.9,28.709l.127.218s3.073-5.219,6.183-11.438a30.371,30.371,0,0,1,14.1-13.4c2.369-1.148,3.7-2.481,3.7-3.924C1089.707,480.343,1087.263,478.566,1083.266,477.271Z" transform="translate(-1065.592 -462.738)" fill="#f4c534"/>
              </g>
            </g>
          </g>
          <g id="Group_27590" data-name="Group 27590" transform="translate(17.962 3.633)" opacity="0.35">
            <g id="Group_27589" data-name="Group 27589">
              <g id="Group_27588" data-name="Group 27588">
                <path id="Path_56898" data-name="Path 56898" d="M1062.854,468.937c-1.185,1.48-2.665,2.257-3.369,1.7-.7-.518-.3-2.184.852-3.665,1.184-1.481,2.665-2.258,3.368-1.7S1064,467.456,1062.854,468.937Z" transform="translate(-1059.138 -465.092)" fill="#fff"/>
              </g>
            </g>
          </g>
          <g id="Group_27607" data-name="Group 27607" transform="translate(14.021 10.824)">
            <g id="Group_27598" data-name="Group 27598">
              <g id="Group_27597" data-name="Group 27597">
                <g id="Group_27593" data-name="Group 27593">
                  <g id="Group_27592" data-name="Group 27592">
                    <g id="Group_27591" data-name="Group 27591">
                      <path id="Path_56899" data-name="Path 56899" d="M1059.878,478.842c-1.413,2.561-3.392,4.173-4.456,3.587-1.038-.573-.754-3.122.659-5.682,1.431-2.593,3.435-4.192,4.473-3.619C1061.617,473.714,1061.308,476.249,1059.878,478.842Z" transform="translate(-1054.799 -473.011)" fill="#89664c"/>
                    </g>
                  </g>
                </g>
                <g id="Group_27596" data-name="Group 27596" transform="translate(0.02 0.003)">
                  <g id="Group_27595" data-name="Group 27595">
                    <g id="Group_27594" data-name="Group 27594">
                      <path id="Path_56900" data-name="Path 56900" d="M1061.082,475.715a1.164,1.164,0,0,0-.514-.762c-1.074-.592-3.066,1.029-4.481,3.6a10.98,10.98,0,0,0-1.174,3.058c-.3-1.062.144-2.969,1.176-4.882,1.447-2.58,3.443-4.168,4.481-3.595C1061.178,473.467,1061.335,474.451,1061.082,475.715Z" transform="translate(-1054.82 -473.014)" fill="#6b503b"/>
                    </g>
                  </g>
                </g>
              </g>
            </g>
            <g id="Group_27606" data-name="Group 27606" transform="translate(13.497)">
              <g id="Group_27605" data-name="Group 27605">
                <g id="Group_27601" data-name="Group 27601" transform="translate(0.008)">
                  <g id="Group_27600" data-name="Group 27600">
                    <g id="Group_27599" data-name="Group 27599">
                      <path id="Path_56901" data-name="Path 56901" d="M1070.982,478.842c1.412,2.561,3.391,4.173,4.455,3.587,1.038-.573.754-3.122-.659-5.682-1.431-2.593-3.435-4.192-4.473-3.619C1069.242,473.714,1069.551,476.249,1070.982,478.842Z" transform="translate(-1069.672 -473.011)" fill="#89664c"/>
                    </g>
                  </g>
                </g>
                <g id="Group_27604" data-name="Group 27604" transform="translate(0 0.003)">
                  <g id="Group_27603" data-name="Group 27603">
                    <g id="Group_27602" data-name="Group 27602">
                      <path id="Path_56902" data-name="Path 56902" d="M1069.779,475.715a1.158,1.158,0,0,1,.514-.762c1.073-.592,3.065,1.029,4.48,3.6a10.949,10.949,0,0,1,1.174,3.058c.3-1.062-.144-2.969-1.175-4.882-1.447-2.58-3.444-4.168-4.482-3.595C1069.682,473.467,1069.525,474.451,1069.779,475.715Z" transform="translate(-1069.663 -473.014)" fill="#6b503b"/>
                    </g>
                  </g>
                </g>
              </g>
            </g>
          </g>
        </g>
      </g>
    </g>
  </g>
</svg>
