<svg xmlns="http://www.w3.org/2000/svg" xmlns:xlink="http://www.w3.org/1999/xlink" width="181" height="181" viewBox="0 0 181 181">
  <defs>
    <linearGradient id="linear-gradient" x1="0.5" y1="0.136" x2="0.5" y2="1.1" gradientUnits="objectBoundingBox">
      <stop offset="0" stop-color="#206fcb"/>
      <stop offset="1" stop-color="#103866"/>
    </linearGradient>
    <linearGradient id="linear-gradient-3" x1="0.535" y1="-0.102" x2="0.5" y2="0.811" gradientUnits="objectBoundingBox">
      <stop offset="0" stop-color="#effaff"/>
      <stop offset="1" stop-color="#54bbed"/>
    </linearGradient>
    <linearGradient id="linear-gradient-4" x1="0.5" x2="0.5" y2="1" gradientUnits="objectBoundingBox">
      <stop offset="0" stop-color="#206fcb"/>
      <stop offset="1" stop-color="#246dc1"/>
    </linearGradient>
    <clipPath id="clip-Artboard_54">
      <rect width="181" height="181"/>
    </clipPath>
  </defs>
  <g id="Artboard_54" data-name="Artboard – 54" clip-path="url(#clip-Artboard_54)">
    <rect width="181" height="181" fill="#fff"/>
    <g id="Group_27952" data-name="Group 27952" transform="translate(-373.593 -3688)">
      <g id="Group_27946" data-name="Group 27946" transform="translate(201.25 3608.714)">
        <g id="Group_27306" data-name="Group 27306" transform="translate(173.751 218.662)">
          <path id="Path_56597" data-name="Path 56597" d="M53.973,0H0V28.789H53.973L46.58,14.826Z" transform="translate(124.213)" fill="url(#linear-gradient)"/>
          <path id="Path_56596" data-name="Path 56596" d="M0,0H53.973V28.789H0L7.394,14.826Z" fill="url(#linear-gradient)"/>
          <path id="Path_56595" data-name="Path 56595" d="M17.745,0H37.707L19.963,12.846V32.532H0V12.577Z" transform="translate(23.66)" fill="#1e559a"/>
          <path id="Path_56598" data-name="Path 56598" d="M19.963,0H0L17.745,12.846V32.532H37.707V12.577Z" transform="translate(117.558)" fill="#1e559a"/>
        </g>
        <ellipse id="Ellipse_681" data-name="Ellipse 681" cx="58.064" cy="58.064" rx="58.064" ry="58.064" transform="translate(204.453 141.149)" fill="url(#linear-gradient-3)"/>
        <rect id="Rectangle_19590" data-name="Rectangle 19590" width="132.146" height="29.366" transform="translate(197.248 230.58)" fill="url(#linear-gradient-4)"/>
        <g id="Group_27753" data-name="Group 27753" transform="translate(209.203 234.928)">
          <g id="Group_27749" data-name="Group 27749" transform="translate(0 0)">
            <g id="Group_27254" data-name="Group 27254" transform="translate(0.467 2.15)" opacity="0.26">
              <path id="Path_56544" data-name="Path 56544" d="M83.26,76.978c-.36-2.518-6.547-2.266-6.547-2.266s-1.654-5.288-3.633-5.18-3.957,5.4-3.957,5.4-5.539-.719-5.9,1.763a2.163,2.163,0,0,0-.02.31c-.1,2.273,3.308,4.339,3.657,4.545a12.692,12.692,0,0,0-1.1,4.308c-.015,1.14.375,2.072,1.671,2.113a8.869,8.869,0,0,0,5.8-2.086s3.806,3.057,5.892,2.158c.672-.29.9-1.066.907-1.983a14.59,14.59,0,0,0-.953-4.509c4.289-2.937,4.182-4.478,4.182-4.478l0-.017A.519.519,0,0,0,83.26,76.978Z" transform="translate(-63.203 -69.53)"/>
            </g>
            <g id="Group_27255" data-name="Group 27255">
              <path id="Path_56545" data-name="Path 56545" d="M72.858,66.545c1.952,0,3.573,5.181,3.573,5.181s.172-.007.46-.007c1.44,0,5.787.175,6.087,2.273a.516.516,0,0,1,0,.072l0,.018s.107,1.54-4.182,4.478a14.59,14.59,0,0,1,.953,4.509c-.005.918-.235,1.694-.907,1.983a2.2,2.2,0,0,1-.875.166c-2.124,0-5.017-2.324-5.017-2.324a8.9,8.9,0,0,1-5.554,2.09c-.081,0-.163,0-.244,0-1.3-.041-1.686-.973-1.671-2.113a12.7,12.7,0,0,1,1.1-4.308c-.349-.206-3.755-2.272-3.657-4.545a2.16,2.16,0,0,1,.02-.31c.227-1.571,2.531-1.859,4.19-1.859a14.794,14.794,0,0,1,1.709.1s1.978-5.287,3.957-5.4h.06m0-.465h0l-.085,0c-1.974.108-3.724,4.085-4.237,5.361-.319-.029-.821-.062-1.4-.062-3.574,0-4.5,1.228-4.652,2.258a2.7,2.7,0,0,0-.025.375c-.093,2.168,2.467,4.045,3.54,4.733a12.32,12.32,0,0,0-.982,4.124c-.028,2.181,1.317,2.55,2.122,2.575.087,0,.173,0,.259,0a9.323,9.323,0,0,0,5.566-1.96c.822.61,3.139,2.194,5,2.194a2.662,2.662,0,0,0,1.06-.2c.781-.337,1.181-1.147,1.189-2.408a14.232,14.232,0,0,0-.861-4.334c3.994-2.806,4.108-4.389,4.088-4.688a.534.534,0,0,0,0-.09v-.006l0-.028c-.345-2.412-4.693-2.673-6.547-2.673h-.125c-.464-1.378-1.923-5.175-3.909-5.175Z" transform="translate(-62.454 -66.08)" fill="#fff"/>
            </g>
            <g id="Group_27747" data-name="Group 27747" transform="translate(0.466 0.465)">
              <path id="Path_56547" data-name="Path 56547" d="M66.893,78.771s-4.029-2.3-3.669-4.784,5.9-1.762,5.9-1.762,1.978-5.288,3.957-5.4,3.633,5.18,3.633,5.18,6.187-.252,6.547,2.266c0,0,.108,1.547-4.208,4.5,0,0,2.158,5.576.072,6.475s-5.892-2.158-5.892-2.158a8.869,8.869,0,0,1-5.8,2.086C64.016,85.065,66.893,78.771,66.893,78.771Z" transform="translate(-63.201 -66.826)" fill="#ffdb2d"/>
            </g>
            <g id="Group_27748" data-name="Group 27748" transform="translate(0.781 0.694)">
              <path id="Path_56552" data-name="Path 56552" d="M77.013,67.2s-1.34.007-3.139,4.152c0,0,2.59-4.847,3.975-3.678C78.334,68.032,77.952,67.131,77.013,67.2Z" transform="translate(-67.539 -67.194)" fill="#fff" opacity="0.7"/>
              <path id="Path_56553" data-name="Path 56553" d="M69.143,75.729a16.515,16.515,0,0,0-4,.523c-.746.238-1.216,1.257-1.376,1.214C63.478,77.376,64.107,75.1,69.143,75.729Z" transform="translate(-63.708 -70.37)" fill="#fff" opacity="0.5"/>
            </g>
          </g>
          <g id="Group_27750" data-name="Group 27750" transform="translate(28.891 0)">
            <g id="Group_27254-2" data-name="Group 27254" transform="translate(0.467 2.15)" opacity="0.26">
              <path id="Path_56544-2" data-name="Path 56544" d="M83.26,76.978c-.36-2.518-6.547-2.266-6.547-2.266s-1.654-5.288-3.633-5.18-3.957,5.4-3.957,5.4-5.539-.719-5.9,1.763a2.163,2.163,0,0,0-.02.31c-.1,2.273,3.308,4.339,3.657,4.545a12.692,12.692,0,0,0-1.1,4.308c-.015,1.14.375,2.072,1.671,2.113a8.869,8.869,0,0,0,5.8-2.086s3.806,3.057,5.892,2.158c.672-.29.9-1.066.907-1.983a14.59,14.59,0,0,0-.953-4.509c4.289-2.937,4.182-4.478,4.182-4.478l0-.017A.519.519,0,0,0,83.26,76.978Z" transform="translate(-63.203 -69.53)"/>
            </g>
            <g id="Group_27255-2" data-name="Group 27255" transform="translate(0)">
              <path id="Path_56545-2" data-name="Path 56545" d="M72.858,66.545c1.952,0,3.573,5.181,3.573,5.181s.172-.007.46-.007c1.44,0,5.787.175,6.087,2.273a.516.516,0,0,1,0,.072l0,.018s.107,1.54-4.182,4.478a14.59,14.59,0,0,1,.953,4.509c-.005.918-.235,1.694-.907,1.983a2.2,2.2,0,0,1-.875.166c-2.124,0-5.017-2.324-5.017-2.324a8.9,8.9,0,0,1-5.554,2.09c-.081,0-.163,0-.244,0-1.3-.041-1.686-.973-1.671-2.113a12.7,12.7,0,0,1,1.1-4.308c-.349-.206-3.755-2.272-3.657-4.545a2.16,2.16,0,0,1,.02-.31c.227-1.571,2.531-1.859,4.19-1.859a14.794,14.794,0,0,1,1.709.1s1.978-5.287,3.957-5.4h.06m0-.465h0l-.085,0c-1.974.108-3.724,4.085-4.237,5.361-.319-.029-.821-.062-1.4-.062-3.574,0-4.5,1.228-4.652,2.258a2.7,2.7,0,0,0-.025.375c-.093,2.168,2.467,4.045,3.54,4.733a12.32,12.32,0,0,0-.982,4.124c-.028,2.181,1.317,2.55,2.122,2.575.087,0,.173,0,.259,0a9.323,9.323,0,0,0,5.566-1.96c.822.61,3.139,2.194,5,2.194a2.662,2.662,0,0,0,1.06-.2c.781-.337,1.181-1.147,1.189-2.408a14.232,14.232,0,0,0-.861-4.334c3.994-2.806,4.108-4.389,4.088-4.688a.534.534,0,0,0,0-.09v-.006l0-.028c-.345-2.412-4.693-2.673-6.547-2.673h-.125c-.464-1.378-1.923-5.175-3.909-5.175Z" transform="translate(-62.454 -66.08)" fill="#fff"/>
            </g>
            <g id="Group_27747-2" data-name="Group 27747" transform="translate(0.466 0.465)">
              <path id="Path_56547-2" data-name="Path 56547" d="M66.893,78.771s-4.029-2.3-3.669-4.784,5.9-1.762,5.9-1.762,1.978-5.288,3.957-5.4,3.633,5.18,3.633,5.18,6.187-.252,6.547,2.266c0,0,.108,1.547-4.208,4.5,0,0,2.158,5.576.072,6.475s-5.892-2.158-5.892-2.158a8.869,8.869,0,0,1-5.8,2.086C64.016,85.065,66.893,78.771,66.893,78.771Z" transform="translate(-63.201 -66.826)" fill="#ffdb2d"/>
            </g>
            <g id="Group_27748-2" data-name="Group 27748" transform="translate(0.781 0.694)">
              <path id="Path_56552-2" data-name="Path 56552" d="M77.013,67.2s-1.34.007-3.139,4.152c0,0,2.59-4.847,3.975-3.678C78.334,68.032,77.952,67.131,77.013,67.2Z" transform="translate(-67.539 -67.194)" fill="#fff" opacity="0.7"/>
              <path id="Path_56553-2" data-name="Path 56553" d="M69.143,75.729a16.515,16.515,0,0,0-4,.523c-.746.238-1.216,1.257-1.376,1.214C63.478,77.376,64.107,75.1,69.143,75.729Z" transform="translate(-63.708 -70.37)" fill="#fff" opacity="0.5"/>
            </g>
          </g>
          <g id="Group_27751" data-name="Group 27751" transform="translate(57.781 0)">
            <g id="Group_27254-3" data-name="Group 27254" transform="translate(0.467 2.15)" opacity="0.26">
              <path id="Path_56544-3" data-name="Path 56544" d="M83.26,76.978c-.36-2.518-6.547-2.266-6.547-2.266s-1.654-5.288-3.633-5.18-3.957,5.4-3.957,5.4-5.539-.719-5.9,1.763a2.163,2.163,0,0,0-.02.31c-.1,2.273,3.308,4.339,3.657,4.545a12.692,12.692,0,0,0-1.1,4.308c-.015,1.14.375,2.072,1.671,2.113a8.869,8.869,0,0,0,5.8-2.086s3.806,3.057,5.892,2.158c.672-.29.9-1.066.907-1.983a14.59,14.59,0,0,0-.953-4.509c4.289-2.937,4.182-4.478,4.182-4.478l0-.017A.519.519,0,0,0,83.26,76.978Z" transform="translate(-63.203 -69.53)"/>
            </g>
            <g id="Group_27255-3" data-name="Group 27255" transform="translate(0)">
              <path id="Path_56545-3" data-name="Path 56545" d="M72.858,66.545c1.952,0,3.573,5.181,3.573,5.181s.172-.007.46-.007c1.44,0,5.787.175,6.087,2.273a.516.516,0,0,1,0,.072l0,.018s.107,1.54-4.182,4.478a14.59,14.59,0,0,1,.953,4.509c-.005.918-.235,1.694-.907,1.983a2.2,2.2,0,0,1-.875.166c-2.124,0-5.017-2.324-5.017-2.324a8.9,8.9,0,0,1-5.554,2.09c-.081,0-.163,0-.244,0-1.3-.041-1.686-.973-1.671-2.113a12.7,12.7,0,0,1,1.1-4.308c-.349-.206-3.755-2.272-3.657-4.545a2.16,2.16,0,0,1,.02-.31c.227-1.571,2.531-1.859,4.19-1.859a14.794,14.794,0,0,1,1.709.1s1.978-5.287,3.957-5.4h.06m0-.465h0l-.085,0c-1.974.108-3.724,4.085-4.237,5.361-.319-.029-.821-.062-1.4-.062-3.574,0-4.5,1.228-4.652,2.258a2.7,2.7,0,0,0-.025.375c-.093,2.168,2.467,4.045,3.54,4.733a12.32,12.32,0,0,0-.982,4.124c-.028,2.181,1.317,2.55,2.122,2.575.087,0,.173,0,.259,0a9.323,9.323,0,0,0,5.566-1.96c.822.61,3.139,2.194,5,2.194a2.662,2.662,0,0,0,1.06-.2c.781-.337,1.181-1.147,1.189-2.408a14.232,14.232,0,0,0-.861-4.334c3.994-2.806,4.108-4.389,4.088-4.688a.534.534,0,0,0,0-.09v-.006l0-.028c-.345-2.412-4.693-2.673-6.547-2.673h-.125c-.464-1.378-1.923-5.175-3.909-5.175Z" transform="translate(-62.454 -66.08)" fill="#fff"/>
            </g>
            <g id="Group_27747-3" data-name="Group 27747" transform="translate(0.466 0.465)">
              <path id="Path_56547-3" data-name="Path 56547" d="M66.893,78.771s-4.029-2.3-3.669-4.784,5.9-1.762,5.9-1.762,1.978-5.288,3.957-5.4,3.633,5.18,3.633,5.18,6.187-.252,6.547,2.266c0,0,.108,1.547-4.208,4.5,0,0,2.158,5.576.072,6.475s-5.892-2.158-5.892-2.158a8.869,8.869,0,0,1-5.8,2.086C64.016,85.065,66.893,78.771,66.893,78.771Z" transform="translate(-63.201 -66.826)" fill="#0f4e98"/>
            </g>
            <g id="Group_27748-3" data-name="Group 27748" transform="translate(0.781 0.694)">
              <path id="Path_56552-3" data-name="Path 56552" d="M77.013,67.2s-1.34.007-3.139,4.152c0,0,2.59-4.847,3.975-3.678C78.334,68.032,77.952,67.131,77.013,67.2Z" transform="translate(-67.539 -67.194)" fill="#fff" opacity="0.7"/>
              <path id="Path_56553-3" data-name="Path 56553" d="M69.143,75.729a16.515,16.515,0,0,0-4,.523c-.746.238-1.216,1.257-1.376,1.214C63.478,77.376,64.107,75.1,69.143,75.729Z" transform="translate(-63.708 -70.37)" fill="#fff" opacity="0.5"/>
            </g>
          </g>
          <g id="Group_27752" data-name="Group 27752" transform="translate(86.672 0)">
            <g id="Group_27254-4" data-name="Group 27254" transform="translate(0.467 2.15)" opacity="0.26">
              <path id="Path_56544-4" data-name="Path 56544" d="M83.26,76.978c-.36-2.518-6.547-2.266-6.547-2.266s-1.654-5.288-3.633-5.18-3.957,5.4-3.957,5.4-5.539-.719-5.9,1.763a2.163,2.163,0,0,0-.02.31c-.1,2.273,3.308,4.339,3.657,4.545a12.692,12.692,0,0,0-1.1,4.308c-.015,1.14.375,2.072,1.671,2.113a8.869,8.869,0,0,0,5.8-2.086s3.806,3.057,5.892,2.158c.672-.29.9-1.066.907-1.983a14.59,14.59,0,0,0-.953-4.509c4.289-2.937,4.182-4.478,4.182-4.478l0-.017A.519.519,0,0,0,83.26,76.978Z" transform="translate(-63.203 -69.53)"/>
            </g>
            <g id="Group_27255-4" data-name="Group 27255" transform="translate(0)">
              <path id="Path_56545-4" data-name="Path 56545" d="M72.858,66.545c1.952,0,3.573,5.181,3.573,5.181s.172-.007.46-.007c1.44,0,5.787.175,6.087,2.273a.516.516,0,0,1,0,.072l0,.018s.107,1.54-4.182,4.478a14.59,14.59,0,0,1,.953,4.509c-.005.918-.235,1.694-.907,1.983a2.2,2.2,0,0,1-.875.166c-2.124,0-5.017-2.324-5.017-2.324a8.9,8.9,0,0,1-5.554,2.09c-.081,0-.163,0-.244,0-1.3-.041-1.686-.973-1.671-2.113a12.7,12.7,0,0,1,1.1-4.308c-.349-.206-3.755-2.272-3.657-4.545a2.16,2.16,0,0,1,.02-.31c.227-1.571,2.531-1.859,4.19-1.859a14.794,14.794,0,0,1,1.709.1s1.978-5.287,3.957-5.4h.06m0-.465h0l-.085,0c-1.974.108-3.724,4.085-4.237,5.361-.319-.029-.821-.062-1.4-.062-3.574,0-4.5,1.228-4.652,2.258a2.7,2.7,0,0,0-.025.375c-.093,2.168,2.467,4.045,3.54,4.733a12.32,12.32,0,0,0-.982,4.124c-.028,2.181,1.317,2.55,2.122,2.575.087,0,.173,0,.259,0a9.323,9.323,0,0,0,5.566-1.96c.822.61,3.139,2.194,5,2.194a2.662,2.662,0,0,0,1.06-.2c.781-.337,1.181-1.147,1.189-2.408a14.232,14.232,0,0,0-.861-4.334c3.994-2.806,4.108-4.389,4.088-4.688a.534.534,0,0,0,0-.09v-.006l0-.028c-.345-2.412-4.693-2.673-6.547-2.673h-.125c-.464-1.378-1.923-5.175-3.909-5.175Z" transform="translate(-62.454 -66.08)" fill="#fff"/>
            </g>
            <g id="Group_27747-4" data-name="Group 27747" transform="translate(0.466 0.465)">
              <path id="Path_56547-4" data-name="Path 56547" d="M66.893,78.771s-4.029-2.3-3.669-4.784,5.9-1.762,5.9-1.762,1.978-5.288,3.957-5.4,3.633,5.18,3.633,5.18,6.187-.252,6.547,2.266c0,0,.108,1.547-4.208,4.5,0,0,2.158,5.576.072,6.475s-5.892-2.158-5.892-2.158a8.869,8.869,0,0,1-5.8,2.086C64.016,85.065,66.893,78.771,66.893,78.771Z" transform="translate(-63.201 -66.826)" fill="#0f4e98"/>
            </g>
            <g id="Group_27748-4" data-name="Group 27748" transform="translate(0.781 0.694)">
              <path id="Path_56552-4" data-name="Path 56552" d="M77.013,67.2s-1.34.007-3.139,4.152c0,0,2.59-4.847,3.975-3.678C78.334,68.032,77.952,67.131,77.013,67.2Z" transform="translate(-67.539 -67.194)" fill="#fff" opacity="0.7"/>
              <path id="Path_56553-4" data-name="Path 56553" d="M69.143,75.729a16.515,16.515,0,0,0-4,.523c-.746.238-1.216,1.257-1.376,1.214C63.478,77.376,64.107,75.1,69.143,75.729Z" transform="translate(-63.708 -70.37)" fill="#fff" opacity="0.5"/>
            </g>
          </g>
        </g>
      </g>
      <g id="Group_27949" data-name="Group 27949" transform="translate(407 3730)">
        <g id="Group_27519" data-name="Group 27519" transform="translate(0 29.45)">
          <path id="Path_56855" data-name="Path 56855" d="M1262.755,481.729s-38.161,11.729-51.152-18.394c-10.1-23.41,9.827-39.308,9.827-39.308S1241.221,477.621,1262.755,481.729Z" transform="translate(-1208.749 -424.027)" fill="#73a02d"/>
          <path id="Path_56856" data-name="Path 56856" d="M1214.668,461.094s5.04.629,10.835-3.905" transform="translate(-1209.293 -427.077)" fill="none" stroke="#466018" stroke-linecap="round" stroke-miterlimit="10" stroke-width="3"/>
          <path id="Path_56857" data-name="Path 56857" d="M1220.634,469.835s5.04.63,10.836-3.906" transform="translate(-1209.842 -427.88)" fill="none" stroke="#466018" stroke-linecap="round" stroke-miterlimit="10" stroke-width="3"/>
          <path id="Path_56858" data-name="Path 56858" d="M1228.543,478.714s5.04.63,10.835-3.905" transform="translate(-1210.569 -428.697)" fill="none" stroke="#466018" stroke-linecap="round" stroke-miterlimit="10" stroke-width="3"/>
        </g>
        <g id="Group_27520" data-name="Group 27520" transform="translate(60.843 29.45)">
          <path id="Path_56859" data-name="Path 56859" d="M1275.754,481.729s38.16,11.729,51.152-18.394c10.1-23.41-9.828-39.308-9.828-39.308S1297.289,477.621,1275.754,481.729Z" transform="translate(-1275.754 -424.027)" fill="#73a02d"/>
          <path id="Path_56860" data-name="Path 56860" d="M1328.214,461.094s-5.04.629-10.835-3.905" transform="translate(-1279.582 -427.077)" fill="none" stroke="#466018" stroke-linecap="round" stroke-miterlimit="10" stroke-width="3"/>
          <path id="Path_56861" data-name="Path 56861" d="M1322.248,469.835s-5.04.63-10.836-3.906" transform="translate(-1279.033 -427.88)" fill="none" stroke="#466018" stroke-linecap="round" stroke-miterlimit="10" stroke-width="3"/>
          <path id="Path_56862" data-name="Path 56862" d="M1314.339,478.714s-5.04.63-10.836-3.905" transform="translate(-1278.306 -428.697)" fill="none" stroke="#466018" stroke-linecap="round" stroke-miterlimit="10" stroke-width="3"/>
        </g>
        <path id="Path_56863" data-name="Path 56863" d="M1316.639,441.021c0,23.841-22.316,36.914-49.843,36.914s-49.844-13.072-49.844-36.914,22.316-49.427,49.844-49.427S1316.639,417.18,1316.639,441.021Z" transform="translate(-1209.503 -391.594)" fill="#8cc63e"/>
        <g id="Group_27569" data-name="Group 27569" transform="translate(27.235 58.366)">
          <g id="Group_27523" data-name="Group 27523" transform="translate(0 2.262)">
            <g id="Group_27522" data-name="Group 27522">
              <g id="Group_27521" data-name="Group 27521">
                <path id="Path_56864" data-name="Path 56864" d="M1298.019,464.006c0,11.434-13.269,20.7-29.638,20.7s-29.638-9.268-29.638-20.7,13.246-1.96,29.615-1.96S1298.019,452.572,1298.019,464.006Z" transform="translate(-1238.742 -458.362)" fill="#ffe9ab"/>
              </g>
            </g>
          </g>
          <g id="Group_27525" data-name="Group 27525" transform="translate(15.53 0.654)">
            <g id="Group_27524" data-name="Group 27524">
              <path id="Path_56865" data-name="Path 56865" d="M1284.061,465.725c0,5.044-6.316,9.134-14.108,9.134s-14.108-4.09-14.108-9.134,6.316-9.134,14.108-9.134S1284.061,460.68,1284.061,465.725Z" transform="translate(-1255.845 -456.591)" fill="#ffe9ab"/>
            </g>
          </g>
          <g id="Group_27528" data-name="Group 27528" transform="translate(15.688)">
            <g id="Group_27527" data-name="Group 27527">
              <g id="Group_27526" data-name="Group 27526">
                <path id="Path_56866" data-name="Path 56866" d="M1283.909,464.361c-2.681-5.35-8.246-7.236-13.945-7.184-10.545-.1-13.945,7.2-13.945,7.2s1.076-8.281,13.945-8.509C1278.7,456.024,1283.36,460.529,1283.909,464.361Z" transform="translate(-1256.019 -455.871)" fill="#ffd68d"/>
              </g>
            </g>
          </g>
          <g id="Group_27531" data-name="Group 27531" transform="translate(7.114 13.193)">
            <g id="Group_27530" data-name="Group 27530">
              <g id="Group_27529" data-name="Group 27529">
                <path id="Path_56867" data-name="Path 56867" d="M1290.182,473.824a51.86,51.86,0,0,1-10.075,4.411,29.625,29.625,0,0,0-4.727,1.956,17.429,17.429,0,0,1-12.54.005,29.961,29.961,0,0,0-4.742-1.963,52.441,52.441,0,0,1-10.093-4.409c-3.5-2.02.167-5.849,3.019-1.26,2.209,3.461,15.9,9.732,18.045,1.95l.024-.047c0,.024.024.047.024.072,2.169,7.8,15.906,1.44,18.045-1.974C1290.038,467.976,1293.7,471.8,1290.182,473.824Z" transform="translate(-1246.576 -470.401)" fill="#3e4347"/>
              </g>
            </g>
          </g>
          <g id="Group_27552" data-name="Group 27552" transform="translate(21.137 3.724)">
            <g id="Group_27541" data-name="Group 27541" transform="translate(11.057)">
              <g id="Group_27534" data-name="Group 27534" transform="translate(0 1.292)">
                <g id="Group_27533" data-name="Group 27533">
                  <g id="Group_27532" data-name="Group 27532">
                    <path id="Path_56868" data-name="Path 56868" d="M1279.1,463.2c-.155,2.119-2.845,2.617-4.906,2.83.437-1.113,1.288-3.353,2.187-4.134A1.572,1.572,0,0,1,1279.1,463.2Z" transform="translate(-1274.196 -461.395)" fill="#ffdc97"/>
                  </g>
                </g>
              </g>
              <g id="Group_27537" data-name="Group 27537" transform="translate(2.247)">
                <g id="Group_27536" data-name="Group 27536">
                  <g id="Group_27535" data-name="Group 27535">
                    <path id="Path_56869" data-name="Path 56869" d="M1279.653,464.209a3.057,3.057,0,0,0-.114-3.08,2.22,2.22,0,0,0-2.868-.531,2.2,2.2,0,0,1,3.237.259A2.71,2.71,0,0,1,1279.653,464.209Z" transform="translate(-1276.671 -459.972)" fill="#ffd68d"/>
                  </g>
                </g>
              </g>
              <g id="Group_27540" data-name="Group 27540" transform="translate(0 1.29)">
                <g id="Group_27539" data-name="Group 27539">
                  <g id="Group_27538" data-name="Group 27538">
                    <path id="Path_56870" data-name="Path 56870" d="M1279.1,463.2a2.182,2.182,0,0,1-.974,1.69.638.638,0,0,0,.092-.331,1.011,1.011,0,0,0-1.746-.845c-.569.5-2,1.6-2.278,2.315.441-1.121,1.287-3.362,2.187-4.134A1.572,1.572,0,0,1,1279.1,463.2Z" transform="translate(-1274.196 -461.393)" fill="#ffd68d"/>
                  </g>
                </g>
              </g>
            </g>
            <g id="Group_27551" data-name="Group 27551">
              <g id="Group_27544" data-name="Group 27544" transform="translate(1.031 1.292)">
                <g id="Group_27543" data-name="Group 27543">
                  <g id="Group_27542" data-name="Group 27542">
                    <path id="Path_56871" data-name="Path 56871" d="M1263.164,463.2c.154,2.119,2.845,2.617,4.906,2.83-.437-1.113-1.288-3.353-2.187-4.134A1.572,1.572,0,0,0,1263.164,463.2Z" transform="translate(-1263.155 -461.395)" fill="#ffdc97"/>
                  </g>
                </g>
              </g>
              <g id="Group_27547" data-name="Group 27547">
                <g id="Group_27546" data-name="Group 27546">
                  <g id="Group_27545" data-name="Group 27545">
                    <path id="Path_56872" data-name="Path 56872" d="M1262.736,464.209a3.053,3.053,0,0,1,.115-3.08,2.219,2.219,0,0,1,2.868-.531,2.2,2.2,0,0,0-3.237.259A2.71,2.71,0,0,0,1262.736,464.209Z" transform="translate(-1262.019 -459.972)" fill="#ffd68d"/>
                  </g>
                </g>
              </g>
              <g id="Group_27550" data-name="Group 27550" transform="translate(1.03 1.29)">
                <g id="Group_27549" data-name="Group 27549">
                  <g id="Group_27548" data-name="Group 27548">
                    <path id="Path_56873" data-name="Path 56873" d="M1263.164,463.2a2.18,2.18,0,0,0,.974,1.69.629.629,0,0,1-.092-.331,1.011,1.011,0,0,1,1.745-.845c.57.5,2,1.6,2.279,2.315-.441-1.121-1.287-3.362-2.187-4.134A1.571,1.571,0,0,0,1263.164,463.2Z" transform="translate(-1263.154 -461.393)" fill="#ffd68d"/>
                  </g>
                </g>
              </g>
            </g>
          </g>
          <g id="Group_27559" data-name="Group 27559" transform="translate(3.937 9.637)">
            <g id="Group_27555" data-name="Group 27555" transform="translate(44.558)">
              <g id="Group_27554" data-name="Group 27554">
                <g id="Group_27553" data-name="Group 27553">
                  <path id="Path_56874" data-name="Path 56874" d="M1298.992,472.829a8.464,8.464,0,0,0-6.843-6.09C1296.22,465.787,1298.8,467.438,1298.992,472.829Z" transform="translate(-1292.149 -466.484)" fill="#ffd68d"/>
                </g>
              </g>
            </g>
            <g id="Group_27558" data-name="Group 27558">
              <g id="Group_27557" data-name="Group 27557">
                <g id="Group_27556" data-name="Group 27556">
                  <path id="Path_56875" data-name="Path 56875" d="M1243.078,472.829a8.466,8.466,0,0,1,6.844-6.09C1245.851,465.787,1243.273,467.438,1243.078,472.829Z" transform="translate(-1243.078 -466.484)" fill="#ffd68d"/>
                </g>
              </g>
            </g>
          </g>
          <g id="Group_27562" data-name="Group 27562" transform="translate(25.793 21.39)">
            <g id="Group_27561" data-name="Group 27561">
              <g id="Group_27560" data-name="Group 27560">
                <path id="Path_56876" data-name="Path 56876" d="M1296.543,496.513a18.077,18.077,0,0,1-12.9,8.343c-7.239.69-11.952-4.52-14.394-11.475a41.837,41.837,0,0,1-2.078-9.776,4.1,4.1,0,0,1,.7-2.781,2.609,2.609,0,0,1,2.412-1.05c.094.009.187.014.284.014a2.93,2.93,0,0,0,1.064-.192,2.62,2.62,0,0,1,2.8.641,4.2,4.2,0,0,1,1.206,2.949,35.835,35.835,0,0,0,.787,8.076c.864,4.018,2.786,7.778,6.937,7.867,3.759.129,8.014-2.746,9.615-4.931a9.485,9.485,0,0,1-2.452,5.16A27.175,27.175,0,0,0,1296.543,496.513Z" transform="translate(-1267.147 -479.428)" fill="#e24b4b"/>
              </g>
            </g>
          </g>
          <g id="Group_27565" data-name="Group 27565" transform="translate(25.852 25.712)">
            <g id="Group_27564" data-name="Group 27564">
              <g id="Group_27563" data-name="Group 27563">
                <path id="Path_56877" data-name="Path 56877" d="M1296.519,496.973a17.157,17.157,0,0,1-4.854,5.157,17.746,17.746,0,0,1-6.673,2.964c-6.073,1.192-10.946-1.791-13.883-7.187a35.427,35.427,0,0,1-3.9-13.72c.7,2.334,1.44,7.557,4.76,13.229,2.746,4.744,7.381,7.743,12.833,6.674a18.05,18.05,0,0,0,6.463-2.5A18.539,18.539,0,0,0,1296.519,496.973Z" transform="translate(-1267.212 -484.187)" fill="#d03f3f"/>
              </g>
            </g>
          </g>
          <g id="Group_27568" data-name="Group 27568" transform="translate(49.162 36.165)">
            <g id="Group_27567" data-name="Group 27567">
              <g id="Group_27566" data-name="Group 27566">
                <path id="Path_56878" data-name="Path 56878" d="M1295.357,495.7a8.789,8.789,0,0,1-2.474,5.157A25.838,25.838,0,0,0,1295.357,495.7Z" transform="translate(-1292.883 -495.699)" fill="#d03f3f"/>
              </g>
            </g>
          </g>
        </g>
        <g id="Group_27570" data-name="Group 27570" transform="translate(22.358 49.961)">
          <path id="Path_56879" data-name="Path 56879" d="M1240.867,451.831c0,2.878-1.677,5.213-3.748,5.213s-3.748-2.335-3.748-5.213,1.679-5.216,3.748-5.216S1240.867,448.949,1240.867,451.831Z" transform="translate(-1233.371 -446.615)" fill="#441f04"/>
          <path id="Path_56880" data-name="Path 56880" d="M1237.421,449.5c0,1.194-.7,2.165-1.555,2.165s-1.557-.971-1.557-2.165.7-2.163,1.557-2.163S1237.421,448.3,1237.421,449.5Z" transform="translate(-1233.457 -446.681)" fill="#fff"/>
        </g>
        <g id="Group_27571" data-name="Group 27571" transform="translate(83.671 49.961)">
          <path id="Path_56881" data-name="Path 56881" d="M1308.392,451.831c0,2.878-1.678,5.213-3.749,5.213s-3.749-2.335-3.749-5.213,1.679-5.216,3.749-5.216S1308.392,448.949,1308.392,451.831Z" transform="translate(-1300.894 -446.615)" fill="#441f04"/>
          <path id="Path_56882" data-name="Path 56882" d="M1304.944,449.5c0,1.194-.7,2.165-1.555,2.165s-1.557-.971-1.557-2.165.7-2.163,1.557-2.163S1304.944,448.3,1304.944,449.5Z" transform="translate(-1300.98 -446.681)" fill="#fff"/>
        </g>
        <path id="Path_56883" data-name="Path 56883" d="M1244.741,465.322a5.917,5.917,0,1,1-5.918-5.917A5.918,5.918,0,0,1,1244.741,465.322Z" transform="translate(-1210.97 -397.83)" fill="#ffbdbd"/>
        <path id="Path_56884" data-name="Path 56884" d="M1310.784,465.322a5.917,5.917,0,1,1-5.916-5.917A5.917,5.917,0,0,1,1310.784,465.322Z" transform="translate(-1217.044 -397.83)" fill="#ffbdbd"/>
      </g>
    </g>
  </g>
</svg>
