<svg xmlns="http://www.w3.org/2000/svg" xmlns:xlink="http://www.w3.org/1999/xlink" width="181" height="181" viewBox="0 0 181 181">
  <defs>
    <linearGradient id="linear-gradient" x1="0.5" y1="0.136" x2="0.5" y2="1.1" gradientUnits="objectBoundingBox">
      <stop offset="0" stop-color="#206fcb"/>
      <stop offset="1" stop-color="#103866"/>
    </linearGradient>
    <linearGradient id="linear-gradient-3" x1="0.535" y1="-0.102" x2="0.5" y2="0.811" gradientUnits="objectBoundingBox">
      <stop offset="0" stop-color="#effaff"/>
      <stop offset="1" stop-color="#54bbed"/>
    </linearGradient>
    <linearGradient id="linear-gradient-4" x1="0.5" x2="0.5" y2="1" gradientUnits="objectBoundingBox">
      <stop offset="0" stop-color="#206fcb"/>
      <stop offset="1" stop-color="#246dc1"/>
    </linearGradient>
    <clipPath id="clip-Artboard_7">
      <rect width="181" height="181"/>
    </clipPath>
  </defs>
  <g id="Artboard_7" data-name="Artboard – 7" clip-path="url(#clip-Artboard_7)">
    <rect width="181" height="181" fill="#fff"/>
    <g id="Group_27818" data-name="Group 27818" transform="translate(-5121.843 -2975)">
      <g id="Group_27808" data-name="Group 27808" transform="translate(4949.499 2896.054)">
        <g id="Group_27306" data-name="Group 27306" transform="translate(173.751 218.662)">
          <path id="Path_56597" data-name="Path 56597" d="M53.973,0H0V28.789H53.973L46.58,14.826Z" transform="translate(124.213)" fill="url(#linear-gradient)"/>
          <path id="Path_56596" data-name="Path 56596" d="M0,0H53.973V28.789H0L7.394,14.826Z" fill="url(#linear-gradient)"/>
          <path id="Path_56595" data-name="Path 56595" d="M17.745,0H37.707L19.963,12.846V32.532H0V12.577Z" transform="translate(23.66)" fill="#1e559a"/>
          <path id="Path_56598" data-name="Path 56598" d="M19.963,0H0L17.745,12.846V32.532H37.707V12.577Z" transform="translate(117.558)" fill="#1e559a"/>
        </g>
        <ellipse id="Ellipse_681" data-name="Ellipse 681" cx="58.064" cy="58.064" rx="58.064" ry="58.064" transform="translate(204.453 141.149)" fill="url(#linear-gradient-3)"/>
        <rect id="Rectangle_19590" data-name="Rectangle 19590" width="132.146" height="29.366" transform="translate(197.248 230.58)" fill="url(#linear-gradient-4)"/>
        <g id="Group_27753" data-name="Group 27753" transform="translate(209.203 234.928)">
          <g id="Group_27749" data-name="Group 27749" transform="translate(0 0)">
            <g id="Group_27254" data-name="Group 27254" transform="translate(0.467 2.15)" opacity="0.26">
              <path id="Path_56544" data-name="Path 56544" d="M83.26,76.978c-.36-2.518-6.547-2.266-6.547-2.266s-1.654-5.288-3.633-5.18-3.957,5.4-3.957,5.4-5.539-.719-5.9,1.763a2.163,2.163,0,0,0-.02.31c-.1,2.273,3.308,4.339,3.657,4.545a12.692,12.692,0,0,0-1.1,4.308c-.015,1.14.375,2.072,1.671,2.113a8.869,8.869,0,0,0,5.8-2.086s3.806,3.057,5.892,2.158c.672-.29.9-1.066.907-1.983a14.59,14.59,0,0,0-.953-4.509c4.289-2.937,4.182-4.478,4.182-4.478l0-.017A.519.519,0,0,0,83.26,76.978Z" transform="translate(-63.203 -69.53)"/>
            </g>
            <g id="Group_27255" data-name="Group 27255">
              <path id="Path_56545" data-name="Path 56545" d="M72.858,66.545c1.952,0,3.573,5.181,3.573,5.181s.172-.007.46-.007c1.44,0,5.787.175,6.087,2.273a.516.516,0,0,1,0,.072l0,.018s.107,1.54-4.182,4.478a14.59,14.59,0,0,1,.953,4.509c-.005.918-.235,1.694-.907,1.983a2.2,2.2,0,0,1-.875.166c-2.124,0-5.017-2.324-5.017-2.324a8.9,8.9,0,0,1-5.554,2.09c-.081,0-.163,0-.244,0-1.3-.041-1.686-.973-1.671-2.113a12.7,12.7,0,0,1,1.1-4.308c-.349-.206-3.755-2.272-3.657-4.545a2.16,2.16,0,0,1,.02-.31c.227-1.571,2.531-1.859,4.19-1.859a14.794,14.794,0,0,1,1.709.1s1.978-5.287,3.957-5.4h.06m0-.465h0l-.085,0c-1.974.108-3.724,4.085-4.237,5.361-.319-.029-.821-.062-1.4-.062-3.574,0-4.5,1.228-4.652,2.258a2.7,2.7,0,0,0-.025.375c-.093,2.168,2.467,4.045,3.54,4.733a12.32,12.32,0,0,0-.982,4.124c-.028,2.181,1.317,2.55,2.122,2.575.087,0,.173,0,.259,0a9.323,9.323,0,0,0,5.566-1.96c.822.61,3.139,2.194,5,2.194a2.662,2.662,0,0,0,1.06-.2c.781-.337,1.181-1.147,1.189-2.408a14.232,14.232,0,0,0-.861-4.334c3.994-2.806,4.108-4.389,4.088-4.688a.534.534,0,0,0,0-.09v-.006l0-.028c-.345-2.412-4.693-2.673-6.547-2.673h-.125c-.464-1.378-1.923-5.175-3.909-5.175Z" transform="translate(-62.454 -66.08)" fill="#fff"/>
            </g>
            <g id="Group_27747" data-name="Group 27747" transform="translate(0.466 0.465)">
              <path id="Path_56547" data-name="Path 56547" d="M66.893,78.771s-4.029-2.3-3.669-4.784,5.9-1.762,5.9-1.762,1.978-5.288,3.957-5.4,3.633,5.18,3.633,5.18,6.187-.252,6.547,2.266c0,0,.108,1.547-4.208,4.5,0,0,2.158,5.576.072,6.475s-5.892-2.158-5.892-2.158a8.869,8.869,0,0,1-5.8,2.086C64.016,85.065,66.893,78.771,66.893,78.771Z" transform="translate(-63.201 -66.826)" fill="#ffdb2d"/>
            </g>
            <g id="Group_27748" data-name="Group 27748" transform="translate(0.781 0.694)">
              <path id="Path_56552" data-name="Path 56552" d="M77.013,67.2s-1.34.007-3.139,4.152c0,0,2.59-4.847,3.975-3.678C78.334,68.032,77.952,67.131,77.013,67.2Z" transform="translate(-67.539 -67.194)" fill="#fff" opacity="0.7"/>
              <path id="Path_56553" data-name="Path 56553" d="M69.143,75.729a16.515,16.515,0,0,0-4,.523c-.746.238-1.216,1.257-1.376,1.214C63.478,77.376,64.107,75.1,69.143,75.729Z" transform="translate(-63.708 -70.37)" fill="#fff" opacity="0.5"/>
            </g>
          </g>
          <g id="Group_27750" data-name="Group 27750" transform="translate(28.891 0)">
            <g id="Group_27254-2" data-name="Group 27254" transform="translate(0.467 2.15)" opacity="0.26">
              <path id="Path_56544-2" data-name="Path 56544" d="M83.26,76.978c-.36-2.518-6.547-2.266-6.547-2.266s-1.654-5.288-3.633-5.18-3.957,5.4-3.957,5.4-5.539-.719-5.9,1.763a2.163,2.163,0,0,0-.02.31c-.1,2.273,3.308,4.339,3.657,4.545a12.692,12.692,0,0,0-1.1,4.308c-.015,1.14.375,2.072,1.671,2.113a8.869,8.869,0,0,0,5.8-2.086s3.806,3.057,5.892,2.158c.672-.29.9-1.066.907-1.983a14.59,14.59,0,0,0-.953-4.509c4.289-2.937,4.182-4.478,4.182-4.478l0-.017A.519.519,0,0,0,83.26,76.978Z" transform="translate(-63.203 -69.53)"/>
            </g>
            <g id="Group_27255-2" data-name="Group 27255" transform="translate(0)">
              <path id="Path_56545-2" data-name="Path 56545" d="M72.858,66.545c1.952,0,3.573,5.181,3.573,5.181s.172-.007.46-.007c1.44,0,5.787.175,6.087,2.273a.516.516,0,0,1,0,.072l0,.018s.107,1.54-4.182,4.478a14.59,14.59,0,0,1,.953,4.509c-.005.918-.235,1.694-.907,1.983a2.2,2.2,0,0,1-.875.166c-2.124,0-5.017-2.324-5.017-2.324a8.9,8.9,0,0,1-5.554,2.09c-.081,0-.163,0-.244,0-1.3-.041-1.686-.973-1.671-2.113a12.7,12.7,0,0,1,1.1-4.308c-.349-.206-3.755-2.272-3.657-4.545a2.16,2.16,0,0,1,.02-.31c.227-1.571,2.531-1.859,4.19-1.859a14.794,14.794,0,0,1,1.709.1s1.978-5.287,3.957-5.4h.06m0-.465h0l-.085,0c-1.974.108-3.724,4.085-4.237,5.361-.319-.029-.821-.062-1.4-.062-3.574,0-4.5,1.228-4.652,2.258a2.7,2.7,0,0,0-.025.375c-.093,2.168,2.467,4.045,3.54,4.733a12.32,12.32,0,0,0-.982,4.124c-.028,2.181,1.317,2.55,2.122,2.575.087,0,.173,0,.259,0a9.323,9.323,0,0,0,5.566-1.96c.822.61,3.139,2.194,5,2.194a2.662,2.662,0,0,0,1.06-.2c.781-.337,1.181-1.147,1.189-2.408a14.232,14.232,0,0,0-.861-4.334c3.994-2.806,4.108-4.389,4.088-4.688a.534.534,0,0,0,0-.09v-.006l0-.028c-.345-2.412-4.693-2.673-6.547-2.673h-.125c-.464-1.378-1.923-5.175-3.909-5.175Z" transform="translate(-62.454 -66.08)" fill="#fff"/>
            </g>
            <g id="Group_27747-2" data-name="Group 27747" transform="translate(0.466 0.465)">
              <path id="Path_56547-2" data-name="Path 56547" d="M66.893,78.771s-4.029-2.3-3.669-4.784,5.9-1.762,5.9-1.762,1.978-5.288,3.957-5.4,3.633,5.18,3.633,5.18,6.187-.252,6.547,2.266c0,0,.108,1.547-4.208,4.5,0,0,2.158,5.576.072,6.475s-5.892-2.158-5.892-2.158a8.869,8.869,0,0,1-5.8,2.086C64.016,85.065,66.893,78.771,66.893,78.771Z" transform="translate(-63.201 -66.826)" fill="#ffdb2d"/>
            </g>
            <g id="Group_27748-2" data-name="Group 27748" transform="translate(0.781 0.694)">
              <path id="Path_56552-2" data-name="Path 56552" d="M77.013,67.2s-1.34.007-3.139,4.152c0,0,2.59-4.847,3.975-3.678C78.334,68.032,77.952,67.131,77.013,67.2Z" transform="translate(-67.539 -67.194)" fill="#fff" opacity="0.7"/>
              <path id="Path_56553-2" data-name="Path 56553" d="M69.143,75.729a16.515,16.515,0,0,0-4,.523c-.746.238-1.216,1.257-1.376,1.214C63.478,77.376,64.107,75.1,69.143,75.729Z" transform="translate(-63.708 -70.37)" fill="#fff" opacity="0.5"/>
            </g>
          </g>
          <g id="Group_27751" data-name="Group 27751" transform="translate(57.781 0)">
            <g id="Group_27254-3" data-name="Group 27254" transform="translate(0.467 2.15)" opacity="0.26">
              <path id="Path_56544-3" data-name="Path 56544" d="M83.26,76.978c-.36-2.518-6.547-2.266-6.547-2.266s-1.654-5.288-3.633-5.18-3.957,5.4-3.957,5.4-5.539-.719-5.9,1.763a2.163,2.163,0,0,0-.02.31c-.1,2.273,3.308,4.339,3.657,4.545a12.692,12.692,0,0,0-1.1,4.308c-.015,1.14.375,2.072,1.671,2.113a8.869,8.869,0,0,0,5.8-2.086s3.806,3.057,5.892,2.158c.672-.29.9-1.066.907-1.983a14.59,14.59,0,0,0-.953-4.509c4.289-2.937,4.182-4.478,4.182-4.478l0-.017A.519.519,0,0,0,83.26,76.978Z" transform="translate(-63.203 -69.53)"/>
            </g>
            <g id="Group_27255-3" data-name="Group 27255" transform="translate(0)">
              <path id="Path_56545-3" data-name="Path 56545" d="M72.858,66.545c1.952,0,3.573,5.181,3.573,5.181s.172-.007.46-.007c1.44,0,5.787.175,6.087,2.273a.516.516,0,0,1,0,.072l0,.018s.107,1.54-4.182,4.478a14.59,14.59,0,0,1,.953,4.509c-.005.918-.235,1.694-.907,1.983a2.2,2.2,0,0,1-.875.166c-2.124,0-5.017-2.324-5.017-2.324a8.9,8.9,0,0,1-5.554,2.09c-.081,0-.163,0-.244,0-1.3-.041-1.686-.973-1.671-2.113a12.7,12.7,0,0,1,1.1-4.308c-.349-.206-3.755-2.272-3.657-4.545a2.16,2.16,0,0,1,.02-.31c.227-1.571,2.531-1.859,4.19-1.859a14.794,14.794,0,0,1,1.709.1s1.978-5.287,3.957-5.4h.06m0-.465h0l-.085,0c-1.974.108-3.724,4.085-4.237,5.361-.319-.029-.821-.062-1.4-.062-3.574,0-4.5,1.228-4.652,2.258a2.7,2.7,0,0,0-.025.375c-.093,2.168,2.467,4.045,3.54,4.733a12.32,12.32,0,0,0-.982,4.124c-.028,2.181,1.317,2.55,2.122,2.575.087,0,.173,0,.259,0a9.323,9.323,0,0,0,5.566-1.96c.822.61,3.139,2.194,5,2.194a2.662,2.662,0,0,0,1.06-.2c.781-.337,1.181-1.147,1.189-2.408a14.232,14.232,0,0,0-.861-4.334c3.994-2.806,4.108-4.389,4.088-4.688a.534.534,0,0,0,0-.09v-.006l0-.028c-.345-2.412-4.693-2.673-6.547-2.673h-.125c-.464-1.378-1.923-5.175-3.909-5.175Z" transform="translate(-62.454 -66.08)" fill="#fff"/>
            </g>
            <g id="Group_27747-3" data-name="Group 27747" transform="translate(0.466 0.465)">
              <path id="Path_56547-3" data-name="Path 56547" d="M66.893,78.771s-4.029-2.3-3.669-4.784,5.9-1.762,5.9-1.762,1.978-5.288,3.957-5.4,3.633,5.18,3.633,5.18,6.187-.252,6.547,2.266c0,0,.108,1.547-4.208,4.5,0,0,2.158,5.576.072,6.475s-5.892-2.158-5.892-2.158a8.869,8.869,0,0,1-5.8,2.086C64.016,85.065,66.893,78.771,66.893,78.771Z" transform="translate(-63.201 -66.826)" fill="#ffdb2d"/>
            </g>
            <g id="Group_27748-3" data-name="Group 27748" transform="translate(0.781 0.694)">
              <path id="Path_56552-3" data-name="Path 56552" d="M77.013,67.2s-1.34.007-3.139,4.152c0,0,2.59-4.847,3.975-3.678C78.334,68.032,77.952,67.131,77.013,67.2Z" transform="translate(-67.539 -67.194)" fill="#fff" opacity="0.7"/>
              <path id="Path_56553-3" data-name="Path 56553" d="M69.143,75.729a16.515,16.515,0,0,0-4,.523c-.746.238-1.216,1.257-1.376,1.214C63.478,77.376,64.107,75.1,69.143,75.729Z" transform="translate(-63.708 -70.37)" fill="#fff" opacity="0.5"/>
            </g>
          </g>
          <g id="Group_27752" data-name="Group 27752" transform="translate(86.672 0)">
            <g id="Group_27254-4" data-name="Group 27254" transform="translate(0.467 2.15)" opacity="0.26">
              <path id="Path_56544-4" data-name="Path 56544" d="M83.26,76.978c-.36-2.518-6.547-2.266-6.547-2.266s-1.654-5.288-3.633-5.18-3.957,5.4-3.957,5.4-5.539-.719-5.9,1.763a2.163,2.163,0,0,0-.02.31c-.1,2.273,3.308,4.339,3.657,4.545a12.692,12.692,0,0,0-1.1,4.308c-.015,1.14.375,2.072,1.671,2.113a8.869,8.869,0,0,0,5.8-2.086s3.806,3.057,5.892,2.158c.672-.29.9-1.066.907-1.983a14.59,14.59,0,0,0-.953-4.509c4.289-2.937,4.182-4.478,4.182-4.478l0-.017A.519.519,0,0,0,83.26,76.978Z" transform="translate(-63.203 -69.53)"/>
            </g>
            <g id="Group_27255-4" data-name="Group 27255" transform="translate(0)">
              <path id="Path_56545-4" data-name="Path 56545" d="M72.858,66.545c1.952,0,3.573,5.181,3.573,5.181s.172-.007.46-.007c1.44,0,5.787.175,6.087,2.273a.516.516,0,0,1,0,.072l0,.018s.107,1.54-4.182,4.478a14.59,14.59,0,0,1,.953,4.509c-.005.918-.235,1.694-.907,1.983a2.2,2.2,0,0,1-.875.166c-2.124,0-5.017-2.324-5.017-2.324a8.9,8.9,0,0,1-5.554,2.09c-.081,0-.163,0-.244,0-1.3-.041-1.686-.973-1.671-2.113a12.7,12.7,0,0,1,1.1-4.308c-.349-.206-3.755-2.272-3.657-4.545a2.16,2.16,0,0,1,.02-.31c.227-1.571,2.531-1.859,4.19-1.859a14.794,14.794,0,0,1,1.709.1s1.978-5.287,3.957-5.4h.06m0-.465h0l-.085,0c-1.974.108-3.724,4.085-4.237,5.361-.319-.029-.821-.062-1.4-.062-3.574,0-4.5,1.228-4.652,2.258a2.7,2.7,0,0,0-.025.375c-.093,2.168,2.467,4.045,3.54,4.733a12.32,12.32,0,0,0-.982,4.124c-.028,2.181,1.317,2.55,2.122,2.575.087,0,.173,0,.259,0a9.323,9.323,0,0,0,5.566-1.96c.822.61,3.139,2.194,5,2.194a2.662,2.662,0,0,0,1.06-.2c.781-.337,1.181-1.147,1.189-2.408a14.232,14.232,0,0,0-.861-4.334c3.994-2.806,4.108-4.389,4.088-4.688a.534.534,0,0,0,0-.09v-.006l0-.028c-.345-2.412-4.693-2.673-6.547-2.673h-.125c-.464-1.378-1.923-5.175-3.909-5.175Z" transform="translate(-62.454 -66.08)" fill="#fff"/>
            </g>
            <g id="Group_27747-4" data-name="Group 27747" transform="translate(0.466 0.465)">
              <path id="Path_56547-4" data-name="Path 56547" d="M66.893,78.771s-4.029-2.3-3.669-4.784,5.9-1.762,5.9-1.762,1.978-5.288,3.957-5.4,3.633,5.18,3.633,5.18,6.187-.252,6.547,2.266c0,0,.108,1.547-4.208,4.5,0,0,2.158,5.576.072,6.475s-5.892-2.158-5.892-2.158a8.869,8.869,0,0,1-5.8,2.086C64.016,85.065,66.893,78.771,66.893,78.771Z" transform="translate(-63.201 -66.826)" fill="#0f4e98"/>
            </g>
            <g id="Group_27748-4" data-name="Group 27748" transform="translate(0.781 0.694)">
              <path id="Path_56552-4" data-name="Path 56552" d="M77.013,67.2s-1.34.007-3.139,4.152c0,0,2.59-4.847,3.975-3.678C78.334,68.032,77.952,67.131,77.013,67.2Z" transform="translate(-67.539 -67.194)" fill="#fff" opacity="0.7"/>
              <path id="Path_56553-4" data-name="Path 56553" d="M69.143,75.729a16.515,16.515,0,0,0-4,.523c-.746.238-1.216,1.257-1.376,1.214C63.478,77.376,64.107,75.1,69.143,75.729Z" transform="translate(-63.708 -70.37)" fill="#fff" opacity="0.5"/>
            </g>
          </g>
        </g>
      </g>
      <g id="Group_27815" data-name="Group 27815" transform="translate(5162.499 3024)">
        <path id="Path_56919" data-name="Path 56919" d="M322.053,239.786c0,23.841-22.316,36.914-49.843,36.914s-49.844-13.072-49.844-36.914,22.316-49.427,49.844-49.427S322.053,215.945,322.053,239.786Z" transform="translate(-222.366 -190.359)" fill="#8cc63e"/>
        <g id="Group_27655" data-name="Group 27655" transform="translate(3.464 26.134)">
          <g id="Group_27622" data-name="Group 27622" transform="translate(12.902 7.796)">
            <g id="Group_27621" data-name="Group 27621">
              <path id="Path_56920" data-name="Path 56920" d="M244.405,228.441a2.342,2.342,0,0,1-3.3,3.3.779.779,0,0,1-.185-.185,2.342,2.342,0,0,1,3.3-3.3A.78.78,0,0,1,244.405,228.441Z" transform="translate(-240.389 -227.725)" fill="#7fb239"/>
            </g>
          </g>
          <g id="Group_27624" data-name="Group 27624" transform="translate(14.42 19.624)">
            <g id="Group_27623" data-name="Group 27623">
              <path id="Path_56921" data-name="Path 56921" d="M246.774,241.577a2.756,2.756,0,0,1-3.885,3.886.854.854,0,0,1-.194-.193,2.757,2.757,0,0,1,3.885-3.886A.858.858,0,0,1,246.774,241.577Z" transform="translate(-242.061 -240.751)" fill="#7fb239"/>
            </g>
          </g>
          <g id="Group_27626" data-name="Group 27626" transform="translate(17.462 13.86)">
            <g id="Group_27625" data-name="Group 27625">
              <path id="Path_56922" data-name="Path 56922" d="M248.041,234.879a1.529,1.529,0,0,1-2.154,2.154.576.576,0,0,1-.139-.139,1.53,1.53,0,0,1,2.154-2.154A.561.561,0,0,1,248.041,234.879Z" transform="translate(-245.411 -234.403)" fill="#7fb239"/>
            </g>
          </g>
          <g id="Group_27628" data-name="Group 27628" transform="translate(5.723)">
            <g id="Group_27627" data-name="Group 27627">
              <path id="Path_56923" data-name="Path 56923" d="M238.365,220.172a3.44,3.44,0,0,1-4.851,4.848,1.073,1.073,0,0,1-.242-.242,3.44,3.44,0,0,1,4.85-4.848A1.06,1.06,0,0,1,238.365,220.172Z" transform="translate(-232.483 -219.139)" fill="#7fb239"/>
            </g>
          </g>
          <g id="Group_27630" data-name="Group 27630" transform="translate(8.465 25.26)">
            <g id="Group_27629" data-name="Group 27629">
              <path id="Path_56924" data-name="Path 56924" d="M238.537,247.508a1.763,1.763,0,0,1-2.483,2.483.644.644,0,0,1-.161-.161,1.764,1.764,0,0,1,2.484-2.483A.655.655,0,0,1,238.537,247.508Z" transform="translate(-235.503 -246.958)" fill="#7fb239"/>
            </g>
          </g>
          <g id="Group_27632" data-name="Group 27632" transform="translate(0 6.754)">
            <g id="Group_27631" data-name="Group 27631">
              <path id="Path_56925" data-name="Path 56925" d="M227.8,226.577a2.386,2.386,0,0,0-1.127.311,18.378,18.378,0,0,0-.489,3.664v.257a2.409,2.409,0,0,0,1.615.641,2.437,2.437,0,1,0,0-4.873Z" transform="translate(-226.181 -226.577)" fill="#7fb239"/>
            </g>
          </g>
          <g id="Group_27634" data-name="Group 27634" transform="translate(15.649 30.363)">
            <g id="Group_27633" data-name="Group 27633">
              <path id="Path_56926" data-name="Path 56926" d="M246.62,253.152a1.867,1.867,0,0,1-2.631,2.631.662.662,0,0,1-.157-.157,1.868,1.868,0,0,1,2.631-2.631A.678.678,0,0,1,246.62,253.152Z" transform="translate(-243.415 -252.577)" fill="#7fb239"/>
            </g>
          </g>
          <g id="Group_27654" data-name="Group 27654" transform="translate(2.274)">
            <g id="Group_27636" data-name="Group 27636" transform="translate(0 13.471)">
              <g id="Group_27635" data-name="Group 27635">
                <path id="Path_56927" data-name="Path 56927" d="M236.459,235.329c3.3,4.62-1.8,9.716-6.419,6.419a1.323,1.323,0,0,1-.3-.3c-3.3-4.621,1.8-9.717,6.419-6.419A1.323,1.323,0,0,1,236.459,235.329Z" transform="translate(-228.686 -233.975)" fill="#7fb239"/>
              </g>
            </g>
            <g id="Group_27653" data-name="Group 27653" transform="translate(70.359)">
              <g id="Group_27638" data-name="Group 27638" transform="translate(2.986 7.795)">
                <g id="Group_27637" data-name="Group 27637">
                  <path id="Path_56928" data-name="Path 56928" d="M309.987,228.439a2.343,2.343,0,0,0,3.3,3.3.814.814,0,0,0,.185-.185,2.343,2.343,0,0,0-3.3-3.3A.78.78,0,0,0,309.987,228.439Z" transform="translate(-309.458 -227.724)" fill="#7fb239"/>
                </g>
              </g>
              <g id="Group_27640" data-name="Group 27640" transform="translate(0.666 19.624)">
                <g id="Group_27639" data-name="Group 27639">
                  <path id="Path_56929" data-name="Path 56929" d="M307.537,241.576a2.757,2.757,0,0,0,3.885,3.886.84.84,0,0,0,.194-.194,2.756,2.756,0,0,0-3.885-3.885A.853.853,0,0,0,307.537,241.576Z" transform="translate(-306.904 -240.75)" fill="#7fb239"/>
                </g>
              </g>
              <g id="Group_27642" data-name="Group 27642" transform="translate(0 13.86)">
                <g id="Group_27641" data-name="Group 27641">
                  <path id="Path_56930" data-name="Path 56930" d="M306.511,234.879a1.529,1.529,0,0,0,2.154,2.154.561.561,0,0,0,.139-.139,1.53,1.53,0,0,0-2.154-2.154A.56.56,0,0,0,306.511,234.879Z" transform="translate(-306.17 -234.403)" fill="#7fb239"/>
                </g>
              </g>
              <g id="Group_27644" data-name="Group 27644" transform="translate(8.039)">
                <g id="Group_27643" data-name="Group 27643">
                  <path id="Path_56931" data-name="Path 56931" d="M315.811,220.172a3.44,3.44,0,0,0,4.85,4.848,1.058,1.058,0,0,0,.242-.242,3.44,3.44,0,0,0-4.851-4.848A1.074,1.074,0,0,0,315.811,220.172Z" transform="translate(-315.023 -219.139)" fill="#7fb239"/>
                </g>
              </g>
              <g id="Group_27646" data-name="Group 27646" transform="translate(9.332 13.471)">
                <g id="Group_27645" data-name="Group 27645">
                  <path id="Path_56932" data-name="Path 56932" d="M317.5,235.329c-3.3,4.62,1.8,9.716,6.419,6.419a1.323,1.323,0,0,0,.3-.3c3.3-4.621-1.8-9.717-6.42-6.419A1.338,1.338,0,0,0,317.5,235.329Z" transform="translate(-316.447 -233.975)" fill="#7fb239"/>
                </g>
              </g>
              <g id="Group_27648" data-name="Group 27648" transform="translate(8.542 25.26)">
                <g id="Group_27647" data-name="Group 27647">
                  <path id="Path_56933" data-name="Path 56933" d="M315.967,247.508a1.764,1.764,0,0,0,2.484,2.483.66.66,0,0,0,.161-.161,1.764,1.764,0,0,0-2.484-2.483A.675.675,0,0,0,315.967,247.508Z" transform="translate(-315.577 -246.958)" fill="#7fb239"/>
                </g>
              </g>
              <g id="Group_27650" data-name="Group 27650" transform="translate(16.379 6.754)">
                <g id="Group_27649" data-name="Group 27649">
                  <path id="Path_56934" data-name="Path 56934" d="M324.208,229.014a2.436,2.436,0,0,0,2.436,2.436,2.411,2.411,0,0,0,1.616-.641v-.257a18.337,18.337,0,0,0-.481-3.658,2.38,2.38,0,0,0-1.135-.317A2.436,2.436,0,0,0,324.208,229.014Z" transform="translate(-324.208 -226.577)" fill="#7fb239"/>
                </g>
              </g>
              <g id="Group_27652" data-name="Group 27652" transform="translate(1.158 30.363)">
                <g id="Group_27651" data-name="Group 27651">
                  <path id="Path_56935" data-name="Path 56935" d="M307.865,253.152a1.867,1.867,0,0,0,2.631,2.631.645.645,0,0,0,.157-.157,1.868,1.868,0,0,0-2.631-2.631A.679.679,0,0,0,307.865,253.152Z" transform="translate(-307.446 -252.577)" fill="#7fb239"/>
                </g>
              </g>
            </g>
          </g>
        </g>
        <g id="Group_27674" data-name="Group 27674" transform="translate(29.016 7.845)">
          <g id="Group_27658" data-name="Group 27658" transform="translate(2.682 0.112)">
            <g id="Group_27657" data-name="Group 27657">
              <g id="Group_27656" data-name="Group 27656">
                <path id="Path_56936" data-name="Path 56936" d="M263.071,202.044a2.9,2.9,0,0,1-2.876,2.922,2.922,2.922,0,0,1,0-5.844A2.9,2.9,0,0,1,263.071,202.044Z" transform="translate(-257.274 -199.122)" fill="#7fb239"/>
              </g>
            </g>
          </g>
          <g id="Group_27660" data-name="Group 27660" transform="translate(6.239 11.53)">
            <g id="Group_27659" data-name="Group 27659">
              <path id="Path_56937" data-name="Path 56937" d="M272.786,217.493a5.8,5.8,0,1,1-5.8-5.8A5.793,5.793,0,0,1,272.786,217.493Z" transform="translate(-261.191 -211.696)" fill="#7fb239"/>
            </g>
          </g>
          <g id="Group_27662" data-name="Group 27662" transform="translate(21.858 4.603)">
            <g id="Group_27661" data-name="Group 27661">
              <path id="Path_56938" data-name="Path 56938" d="M285.32,207.555a3.464,3.464,0,1,1-3.488-3.488A3.47,3.47,0,0,1,285.32,207.555Z" transform="translate(-278.392 -204.067)" fill="#7fb239"/>
            </g>
          </g>
          <g id="Group_27665" data-name="Group 27665" transform="translate(13.009)">
            <g id="Group_27664" data-name="Group 27664">
              <g id="Group_27663" data-name="Group 27663">
                <path id="Path_56939" data-name="Path 56939" d="M273.829,204.208a3.039,3.039,0,0,1-4.236,0,2.974,2.974,0,0,1,0-4.351,3.041,3.041,0,0,1,4.236,0A2.976,2.976,0,0,1,273.829,204.208Z" transform="translate(-268.647 -198.998)" fill="#7fb239"/>
              </g>
            </g>
          </g>
          <g id="Group_27668" data-name="Group 27668" transform="translate(21.127 16.585)">
            <g id="Group_27667" data-name="Group 27667">
              <g id="Group_27666" data-name="Group 27666">
                <path id="Path_56940" data-name="Path 56940" d="M285.977,221.41a4.2,4.2,0,1,1-4.2-4.147A4.205,4.205,0,0,1,285.977,221.41Z" transform="translate(-277.587 -217.263)" fill="#7fb239"/>
              </g>
            </g>
          </g>
          <g id="Group_27671" data-name="Group 27671" transform="translate(31.893 1.069)">
            <g id="Group_27670" data-name="Group 27670">
              <g id="Group_27669" data-name="Group 27669">
                <path id="Path_56941" data-name="Path 56941" d="M299.865,205.426a5.211,5.211,0,1,1-5.211-5.251A5.229,5.229,0,0,1,299.865,205.426Z" transform="translate(-289.443 -200.175)" fill="#7fb239"/>
              </g>
            </g>
          </g>
          <g id="Group_27673" data-name="Group 27673" transform="translate(0 8.974)">
            <g id="Group_27672" data-name="Group 27672">
              <path id="Path_56942" data-name="Path 56942" d="M256.938,209.366A1.516,1.516,0,0,1,254.8,211.5a.646.646,0,0,1-.157-.157,1.516,1.516,0,0,1,2.133-2.133A.646.646,0,0,1,256.938,209.366Z" transform="translate(-254.32 -208.881)" fill="#7fb239"/>
            </g>
          </g>
        </g>
        <g id="Group_27675" data-name="Group 27675" transform="translate(14.909 49.961)">
          <path id="Path_56943" data-name="Path 56943" d="M246.282,250.6c0,2.878-1.677,5.213-3.749,5.213s-3.747-2.335-3.747-5.213,1.679-5.216,3.747-5.216S246.282,247.714,246.282,250.6Z" transform="translate(-238.785 -245.38)" fill="#441f04"/>
          <path id="Path_56944" data-name="Path 56944" d="M242.835,248.262c0,1.194-.7,2.165-1.555,2.165s-1.558-.971-1.558-2.165.7-2.163,1.558-2.163S242.835,247.067,242.835,248.262Z" transform="translate(-238.871 -245.446)" fill="#fff"/>
        </g>
        <g id="Group_27676" data-name="Group 27676" transform="translate(76.223 49.961)">
          <path id="Path_56945" data-name="Path 56945" d="M313.807,250.6c0,2.878-1.679,5.213-3.749,5.213s-3.749-2.335-3.749-5.213,1.679-5.216,3.749-5.216S313.807,247.714,313.807,250.6Z" transform="translate(-306.308 -245.38)" fill="#441f04"/>
          <path id="Path_56946" data-name="Path 56946" d="M310.358,248.262c0,1.194-.7,2.165-1.555,2.165s-1.557-.971-1.557-2.165.7-2.163,1.557-2.163S310.358,247.067,310.358,248.262Z" transform="translate(-306.394 -245.446)" fill="#fff"/>
        </g>
        <path id="Path_56947" data-name="Path 56947" d="M250.155,264.087a5.917,5.917,0,1,1-5.918-5.917A5.918,5.918,0,0,1,250.155,264.087Z" transform="translate(-223.833 -196.595)" fill="#ffbdbd"/>
        <path id="Path_56948" data-name="Path 56948" d="M316.2,264.087a5.917,5.917,0,1,1-5.916-5.917A5.917,5.917,0,0,1,316.2,264.087Z" transform="translate(-229.907 -196.595)" fill="#ffbdbd"/>
        <g id="Group_27695" data-name="Group 27695" transform="translate(25.813 46.818)">
          <g id="Group_27679" data-name="Group 27679" transform="translate(4.378 9.755)">
            <g id="Group_27678" data-name="Group 27678">
              <g id="Group_27677" data-name="Group 27677">
                <path id="Path_56949" data-name="Path 56949" d="M292.708,273.507c0,11.52-8.327,20.894-18.516,20.894-10.252,0-18.578-9.374-18.578-20.894,0-11.472,8.327-20.846,18.578-20.846C284.382,252.661,292.708,262.035,292.708,273.507Z" transform="translate(-255.614 -252.661)" fill="#719d34"/>
              </g>
            </g>
          </g>
          <g id="Group_27682" data-name="Group 27682" transform="translate(7.977 13.806)">
            <g id="Group_27681" data-name="Group 27681">
              <g id="Group_27680" data-name="Group 27680">
                <path id="Path_56950" data-name="Path 56950" d="M289.473,273.922c0,9.285-6.711,16.839-14.923,16.839-8.262,0-14.973-7.554-14.973-16.839,0-9.246,6.71-16.8,14.973-16.8C282.762,257.122,289.473,264.676,289.473,273.922Z" transform="translate(-259.578 -257.122)" fill="#5c4533"/>
              </g>
            </g>
          </g>
          <g id="Group_27684" data-name="Group 27684" transform="translate(13.06 38.083)">
            <g id="Group_27683" data-name="Group 27683">
              <path id="Path_56951" data-name="Path 56951" d="M275.065,293.219A13.929,13.929,0,0,0,284.908,289a12.043,12.043,0,0,0-19.732,0A14,14,0,0,0,275.065,293.219Z" transform="translate(-265.176 -283.858)" fill="#e24b4b"/>
            </g>
          </g>
          <g id="Group_27694" data-name="Group 27694">
            <g id="Group_27687" data-name="Group 27687">
              <g id="Group_27686" data-name="Group 27686">
                <g id="Group_27685" data-name="Group 27685">
                  <path id="Path_56952" data-name="Path 56952" d="M296.628,267.812a6.781,6.781,0,0,1-2.271,5.791q-20.443,18.143-40.941.4a7.628,7.628,0,0,1-2.556-6.758c1.874-14.422,11.357-25.325,22.827-25.325C285.328,241.918,294.867,253.161,296.628,267.812Z" transform="translate(-250.793 -241.918)" fill="#7fb239"/>
                </g>
              </g>
            </g>
            <g id="Group_27690" data-name="Group 27690" transform="translate(0.353 6.216)" opacity="0.35">
              <g id="Group_27689" data-name="Group 27689">
                <g id="Group_27688" data-name="Group 27688">
                  <path id="Path_56953" data-name="Path 56953" d="M294.393,274.233a6.781,6.781,0,0,0,2.271-5.791,33.311,33.311,0,0,0-9.059-19.678c.581,3.215,1.088,11.893-1.255,18.411-4.081,11.356-26.015,13.147-35.167,3.826a7.665,7.665,0,0,0,2.271,3.629Q273.893,292.347,294.393,274.233Z" transform="translate(-251.182 -248.763)" fill="#719d34"/>
                </g>
              </g>
            </g>
            <g id="Group_27693" data-name="Group 27693" transform="translate(9.878 3.711)" opacity="0.1">
              <g id="Group_27692" data-name="Group 27692">
                <g id="Group_27691" data-name="Group 27691">
                  <path id="Path_56954" data-name="Path 56954" d="M269.694,258.818c-5.1,4.772-9.063,1.618-7.78-3.351C265.055,242.129,286.745,242.576,269.694,258.818Z" transform="translate(-261.671 -246.005)" fill="#fff"/>
                </g>
              </g>
            </g>
          </g>
        </g>
      </g>
    </g>
  </g>
</svg>
