<svg xmlns="http://www.w3.org/2000/svg" xmlns:xlink="http://www.w3.org/1999/xlink" width="181" height="181" viewBox="0 0 181 181">
  <defs>
    <linearGradient id="linear-gradient" x1="0.5" y1="0.136" x2="0.5" y2="1.1" gradientUnits="objectBoundingBox">
      <stop offset="0" stop-color="#206fcb"/>
      <stop offset="1" stop-color="#103866"/>
    </linearGradient>
    <linearGradient id="linear-gradient-3" x1="0.535" y1="-0.102" x2="0.5" y2="0.811" gradientUnits="objectBoundingBox">
      <stop offset="0" stop-color="#effaff"/>
      <stop offset="1" stop-color="#54bbed"/>
    </linearGradient>
    <linearGradient id="linear-gradient-4" x1="0.5" x2="0.5" y2="1" gradientUnits="objectBoundingBox">
      <stop offset="0" stop-color="#206fcb"/>
      <stop offset="1" stop-color="#246dc1"/>
    </linearGradient>
    <clipPath id="clip-Artboard_71">
      <rect width="181" height="181"/>
    </clipPath>
  </defs>
  <g id="Artboard_71" data-name="Artboard – 71" clip-path="url(#clip-Artboard_71)">
    <rect width="181" height="181" fill="#fff"/>
    <g id="Group_27792" data-name="Group 27792" transform="translate(-821.593 -514)">
      <g id="Group_27771" data-name="Group 27771" transform="translate(649.249 435)">
        <g id="Group_27306" data-name="Group 27306" transform="translate(173.751 218.662)">
          <path id="Path_56597" data-name="Path 56597" d="M53.973,0H0V28.789H53.973L46.58,14.826Z" transform="translate(124.213)" fill="url(#linear-gradient)"/>
          <path id="Path_56596" data-name="Path 56596" d="M0,0H53.973V28.789H0L7.394,14.826Z" fill="url(#linear-gradient)"/>
          <path id="Path_56595" data-name="Path 56595" d="M17.745,0H37.707L19.963,12.846V32.532H0V12.577Z" transform="translate(23.66)" fill="#1e559a"/>
          <path id="Path_56598" data-name="Path 56598" d="M19.963,0H0L17.745,12.846V32.532H37.707V12.577Z" transform="translate(117.558)" fill="#1e559a"/>
        </g>
        <ellipse id="Ellipse_681" data-name="Ellipse 681" cx="58.064" cy="58.064" rx="58.064" ry="58.064" transform="translate(204.453 141.149)" fill="url(#linear-gradient-3)"/>
        <rect id="Rectangle_19590" data-name="Rectangle 19590" width="132.146" height="29.366" transform="translate(197.248 230.58)" fill="url(#linear-gradient-4)"/>
        <g id="Group_27753" data-name="Group 27753" transform="translate(209.203 234.928)">
          <g id="Group_27749" data-name="Group 27749" transform="translate(0 0)">
            <g id="Group_27254" data-name="Group 27254" transform="translate(0.467 2.15)" opacity="0.26">
              <path id="Path_56544" data-name="Path 56544" d="M83.26,76.978c-.36-2.518-6.547-2.266-6.547-2.266s-1.654-5.288-3.633-5.18-3.957,5.4-3.957,5.4-5.539-.719-5.9,1.763a2.163,2.163,0,0,0-.02.31c-.1,2.273,3.308,4.339,3.657,4.545a12.692,12.692,0,0,0-1.1,4.308c-.015,1.14.375,2.072,1.671,2.113a8.869,8.869,0,0,0,5.8-2.086s3.806,3.057,5.892,2.158c.672-.29.9-1.066.907-1.983a14.59,14.59,0,0,0-.953-4.509c4.289-2.937,4.182-4.478,4.182-4.478l0-.017A.519.519,0,0,0,83.26,76.978Z" transform="translate(-63.203 -69.53)"/>
            </g>
            <g id="Group_27255" data-name="Group 27255">
              <path id="Path_56545" data-name="Path 56545" d="M72.858,66.545c1.952,0,3.573,5.181,3.573,5.181s.172-.007.46-.007c1.44,0,5.787.175,6.087,2.273a.516.516,0,0,1,0,.072l0,.018s.107,1.54-4.182,4.478a14.59,14.59,0,0,1,.953,4.509c-.005.918-.235,1.694-.907,1.983a2.2,2.2,0,0,1-.875.166c-2.124,0-5.017-2.324-5.017-2.324a8.9,8.9,0,0,1-5.554,2.09c-.081,0-.163,0-.244,0-1.3-.041-1.686-.973-1.671-2.113a12.7,12.7,0,0,1,1.1-4.308c-.349-.206-3.755-2.272-3.657-4.545a2.16,2.16,0,0,1,.02-.31c.227-1.571,2.531-1.859,4.19-1.859a14.794,14.794,0,0,1,1.709.1s1.978-5.287,3.957-5.4h.06m0-.465h0l-.085,0c-1.974.108-3.724,4.085-4.237,5.361-.319-.029-.821-.062-1.4-.062-3.574,0-4.5,1.228-4.652,2.258a2.7,2.7,0,0,0-.025.375c-.093,2.168,2.467,4.045,3.54,4.733a12.32,12.32,0,0,0-.982,4.124c-.028,2.181,1.317,2.55,2.122,2.575.087,0,.173,0,.259,0a9.323,9.323,0,0,0,5.566-1.96c.822.61,3.139,2.194,5,2.194a2.662,2.662,0,0,0,1.06-.2c.781-.337,1.181-1.147,1.189-2.408a14.232,14.232,0,0,0-.861-4.334c3.994-2.806,4.108-4.389,4.088-4.688a.534.534,0,0,0,0-.09v-.006l0-.028c-.345-2.412-4.693-2.673-6.547-2.673h-.125c-.464-1.378-1.923-5.175-3.909-5.175Z" transform="translate(-62.454 -66.08)" fill="#fff"/>
            </g>
            <g id="Group_27747" data-name="Group 27747" transform="translate(0.466 0.465)">
              <path id="Path_56547" data-name="Path 56547" d="M66.893,78.771s-4.029-2.3-3.669-4.784,5.9-1.762,5.9-1.762,1.978-5.288,3.957-5.4,3.633,5.18,3.633,5.18,6.187-.252,6.547,2.266c0,0,.108,1.547-4.208,4.5,0,0,2.158,5.576.072,6.475s-5.892-2.158-5.892-2.158a8.869,8.869,0,0,1-5.8,2.086C64.016,85.065,66.893,78.771,66.893,78.771Z" transform="translate(-63.201 -66.826)" fill="#ffdb2d"/>
            </g>
            <g id="Group_27748" data-name="Group 27748" transform="translate(0.781 0.694)">
              <path id="Path_56552" data-name="Path 56552" d="M77.013,67.2s-1.34.007-3.139,4.152c0,0,2.59-4.847,3.975-3.678C78.334,68.032,77.952,67.131,77.013,67.2Z" transform="translate(-67.539 -67.194)" fill="#fff" opacity="0.7"/>
              <path id="Path_56553" data-name="Path 56553" d="M69.143,75.729a16.515,16.515,0,0,0-4,.523c-.746.238-1.216,1.257-1.376,1.214C63.478,77.376,64.107,75.1,69.143,75.729Z" transform="translate(-63.708 -70.37)" fill="#fff" opacity="0.5"/>
            </g>
          </g>
          <g id="Group_27750" data-name="Group 27750" transform="translate(28.891 0)">
            <g id="Group_27254-2" data-name="Group 27254" transform="translate(0.467 2.15)" opacity="0.26">
              <path id="Path_56544-2" data-name="Path 56544" d="M83.26,76.978c-.36-2.518-6.547-2.266-6.547-2.266s-1.654-5.288-3.633-5.18-3.957,5.4-3.957,5.4-5.539-.719-5.9,1.763a2.163,2.163,0,0,0-.02.31c-.1,2.273,3.308,4.339,3.657,4.545a12.692,12.692,0,0,0-1.1,4.308c-.015,1.14.375,2.072,1.671,2.113a8.869,8.869,0,0,0,5.8-2.086s3.806,3.057,5.892,2.158c.672-.29.9-1.066.907-1.983a14.59,14.59,0,0,0-.953-4.509c4.289-2.937,4.182-4.478,4.182-4.478l0-.017A.519.519,0,0,0,83.26,76.978Z" transform="translate(-63.203 -69.53)"/>
            </g>
            <g id="Group_27255-2" data-name="Group 27255" transform="translate(0)">
              <path id="Path_56545-2" data-name="Path 56545" d="M72.858,66.545c1.952,0,3.573,5.181,3.573,5.181s.172-.007.46-.007c1.44,0,5.787.175,6.087,2.273a.516.516,0,0,1,0,.072l0,.018s.107,1.54-4.182,4.478a14.59,14.59,0,0,1,.953,4.509c-.005.918-.235,1.694-.907,1.983a2.2,2.2,0,0,1-.875.166c-2.124,0-5.017-2.324-5.017-2.324a8.9,8.9,0,0,1-5.554,2.09c-.081,0-.163,0-.244,0-1.3-.041-1.686-.973-1.671-2.113a12.7,12.7,0,0,1,1.1-4.308c-.349-.206-3.755-2.272-3.657-4.545a2.16,2.16,0,0,1,.02-.31c.227-1.571,2.531-1.859,4.19-1.859a14.794,14.794,0,0,1,1.709.1s1.978-5.287,3.957-5.4h.06m0-.465h0l-.085,0c-1.974.108-3.724,4.085-4.237,5.361-.319-.029-.821-.062-1.4-.062-3.574,0-4.5,1.228-4.652,2.258a2.7,2.7,0,0,0-.025.375c-.093,2.168,2.467,4.045,3.54,4.733a12.32,12.32,0,0,0-.982,4.124c-.028,2.181,1.317,2.55,2.122,2.575.087,0,.173,0,.259,0a9.323,9.323,0,0,0,5.566-1.96c.822.61,3.139,2.194,5,2.194a2.662,2.662,0,0,0,1.06-.2c.781-.337,1.181-1.147,1.189-2.408a14.232,14.232,0,0,0-.861-4.334c3.994-2.806,4.108-4.389,4.088-4.688a.534.534,0,0,0,0-.09v-.006l0-.028c-.345-2.412-4.693-2.673-6.547-2.673h-.125c-.464-1.378-1.923-5.175-3.909-5.175Z" transform="translate(-62.454 -66.08)" fill="#fff"/>
            </g>
            <g id="Group_27747-2" data-name="Group 27747" transform="translate(0.466 0.465)">
              <path id="Path_56547-2" data-name="Path 56547" d="M66.893,78.771s-4.029-2.3-3.669-4.784,5.9-1.762,5.9-1.762,1.978-5.288,3.957-5.4,3.633,5.18,3.633,5.18,6.187-.252,6.547,2.266c0,0,.108,1.547-4.208,4.5,0,0,2.158,5.576.072,6.475s-5.892-2.158-5.892-2.158a8.869,8.869,0,0,1-5.8,2.086C64.016,85.065,66.893,78.771,66.893,78.771Z" transform="translate(-63.201 -66.826)" fill="#ffdb2d"/>
            </g>
            <g id="Group_27748-2" data-name="Group 27748" transform="translate(0.781 0.694)">
              <path id="Path_56552-2" data-name="Path 56552" d="M77.013,67.2s-1.34.007-3.139,4.152c0,0,2.59-4.847,3.975-3.678C78.334,68.032,77.952,67.131,77.013,67.2Z" transform="translate(-67.539 -67.194)" fill="#fff" opacity="0.7"/>
              <path id="Path_56553-2" data-name="Path 56553" d="M69.143,75.729a16.515,16.515,0,0,0-4,.523c-.746.238-1.216,1.257-1.376,1.214C63.478,77.376,64.107,75.1,69.143,75.729Z" transform="translate(-63.708 -70.37)" fill="#fff" opacity="0.5"/>
            </g>
          </g>
          <g id="Group_27751" data-name="Group 27751" transform="translate(57.781 0)">
            <g id="Group_27254-3" data-name="Group 27254" transform="translate(0.467 2.15)" opacity="0.26">
              <path id="Path_56544-3" data-name="Path 56544" d="M83.26,76.978c-.36-2.518-6.547-2.266-6.547-2.266s-1.654-5.288-3.633-5.18-3.957,5.4-3.957,5.4-5.539-.719-5.9,1.763a2.163,2.163,0,0,0-.02.31c-.1,2.273,3.308,4.339,3.657,4.545a12.692,12.692,0,0,0-1.1,4.308c-.015,1.14.375,2.072,1.671,2.113a8.869,8.869,0,0,0,5.8-2.086s3.806,3.057,5.892,2.158c.672-.29.9-1.066.907-1.983a14.59,14.59,0,0,0-.953-4.509c4.289-2.937,4.182-4.478,4.182-4.478l0-.017A.519.519,0,0,0,83.26,76.978Z" transform="translate(-63.203 -69.53)"/>
            </g>
            <g id="Group_27255-3" data-name="Group 27255" transform="translate(0)">
              <path id="Path_56545-3" data-name="Path 56545" d="M72.858,66.545c1.952,0,3.573,5.181,3.573,5.181s.172-.007.46-.007c1.44,0,5.787.175,6.087,2.273a.516.516,0,0,1,0,.072l0,.018s.107,1.54-4.182,4.478a14.59,14.59,0,0,1,.953,4.509c-.005.918-.235,1.694-.907,1.983a2.2,2.2,0,0,1-.875.166c-2.124,0-5.017-2.324-5.017-2.324a8.9,8.9,0,0,1-5.554,2.09c-.081,0-.163,0-.244,0-1.3-.041-1.686-.973-1.671-2.113a12.7,12.7,0,0,1,1.1-4.308c-.349-.206-3.755-2.272-3.657-4.545a2.16,2.16,0,0,1,.02-.31c.227-1.571,2.531-1.859,4.19-1.859a14.794,14.794,0,0,1,1.709.1s1.978-5.287,3.957-5.4h.06m0-.465h0l-.085,0c-1.974.108-3.724,4.085-4.237,5.361-.319-.029-.821-.062-1.4-.062-3.574,0-4.5,1.228-4.652,2.258a2.7,2.7,0,0,0-.025.375c-.093,2.168,2.467,4.045,3.54,4.733a12.32,12.32,0,0,0-.982,4.124c-.028,2.181,1.317,2.55,2.122,2.575.087,0,.173,0,.259,0a9.323,9.323,0,0,0,5.566-1.96c.822.61,3.139,2.194,5,2.194a2.662,2.662,0,0,0,1.06-.2c.781-.337,1.181-1.147,1.189-2.408a14.232,14.232,0,0,0-.861-4.334c3.994-2.806,4.108-4.389,4.088-4.688a.534.534,0,0,0,0-.09v-.006l0-.028c-.345-2.412-4.693-2.673-6.547-2.673h-.125c-.464-1.378-1.923-5.175-3.909-5.175Z" transform="translate(-62.454 -66.08)" fill="#fff"/>
            </g>
            <g id="Group_27747-3" data-name="Group 27747" transform="translate(0.466 0.465)">
              <path id="Path_56547-3" data-name="Path 56547" d="M66.893,78.771s-4.029-2.3-3.669-4.784,5.9-1.762,5.9-1.762,1.978-5.288,3.957-5.4,3.633,5.18,3.633,5.18,6.187-.252,6.547,2.266c0,0,.108,1.547-4.208,4.5,0,0,2.158,5.576.072,6.475s-5.892-2.158-5.892-2.158a8.869,8.869,0,0,1-5.8,2.086C64.016,85.065,66.893,78.771,66.893,78.771Z" transform="translate(-63.201 -66.826)" fill="#ffdb2d"/>
            </g>
            <g id="Group_27748-3" data-name="Group 27748" transform="translate(0.781 0.694)">
              <path id="Path_56552-3" data-name="Path 56552" d="M77.013,67.2s-1.34.007-3.139,4.152c0,0,2.59-4.847,3.975-3.678C78.334,68.032,77.952,67.131,77.013,67.2Z" transform="translate(-67.539 -67.194)" fill="#fff" opacity="0.7"/>
              <path id="Path_56553-3" data-name="Path 56553" d="M69.143,75.729a16.515,16.515,0,0,0-4,.523c-.746.238-1.216,1.257-1.376,1.214C63.478,77.376,64.107,75.1,69.143,75.729Z" transform="translate(-63.708 -70.37)" fill="#fff" opacity="0.5"/>
            </g>
          </g>
          <g id="Group_27752" data-name="Group 27752" transform="translate(86.672 0)">
            <g id="Group_27254-4" data-name="Group 27254" transform="translate(0.467 2.15)" opacity="0.26">
              <path id="Path_56544-4" data-name="Path 56544" d="M83.26,76.978c-.36-2.518-6.547-2.266-6.547-2.266s-1.654-5.288-3.633-5.18-3.957,5.4-3.957,5.4-5.539-.719-5.9,1.763a2.163,2.163,0,0,0-.02.31c-.1,2.273,3.308,4.339,3.657,4.545a12.692,12.692,0,0,0-1.1,4.308c-.015,1.14.375,2.072,1.671,2.113a8.869,8.869,0,0,0,5.8-2.086s3.806,3.057,5.892,2.158c.672-.29.9-1.066.907-1.983a14.59,14.59,0,0,0-.953-4.509c4.289-2.937,4.182-4.478,4.182-4.478l0-.017A.519.519,0,0,0,83.26,76.978Z" transform="translate(-63.203 -69.53)"/>
            </g>
            <g id="Group_27255-4" data-name="Group 27255" transform="translate(0)">
              <path id="Path_56545-4" data-name="Path 56545" d="M72.858,66.545c1.952,0,3.573,5.181,3.573,5.181s.172-.007.46-.007c1.44,0,5.787.175,6.087,2.273a.516.516,0,0,1,0,.072l0,.018s.107,1.54-4.182,4.478a14.59,14.59,0,0,1,.953,4.509c-.005.918-.235,1.694-.907,1.983a2.2,2.2,0,0,1-.875.166c-2.124,0-5.017-2.324-5.017-2.324a8.9,8.9,0,0,1-5.554,2.09c-.081,0-.163,0-.244,0-1.3-.041-1.686-.973-1.671-2.113a12.7,12.7,0,0,1,1.1-4.308c-.349-.206-3.755-2.272-3.657-4.545a2.16,2.16,0,0,1,.02-.31c.227-1.571,2.531-1.859,4.19-1.859a14.794,14.794,0,0,1,1.709.1s1.978-5.287,3.957-5.4h.06m0-.465h0l-.085,0c-1.974.108-3.724,4.085-4.237,5.361-.319-.029-.821-.062-1.4-.062-3.574,0-4.5,1.228-4.652,2.258a2.7,2.7,0,0,0-.025.375c-.093,2.168,2.467,4.045,3.54,4.733a12.32,12.32,0,0,0-.982,4.124c-.028,2.181,1.317,2.55,2.122,2.575.087,0,.173,0,.259,0a9.323,9.323,0,0,0,5.566-1.96c.822.61,3.139,2.194,5,2.194a2.662,2.662,0,0,0,1.06-.2c.781-.337,1.181-1.147,1.189-2.408a14.232,14.232,0,0,0-.861-4.334c3.994-2.806,4.108-4.389,4.088-4.688a.534.534,0,0,0,0-.09v-.006l0-.028c-.345-2.412-4.693-2.673-6.547-2.673h-.125c-.464-1.378-1.923-5.175-3.909-5.175Z" transform="translate(-62.454 -66.08)" fill="#fff"/>
            </g>
            <g id="Group_27747-4" data-name="Group 27747" transform="translate(0.466 0.465)">
              <path id="Path_56547-4" data-name="Path 56547" d="M66.893,78.771s-4.029-2.3-3.669-4.784,5.9-1.762,5.9-1.762,1.978-5.288,3.957-5.4,3.633,5.18,3.633,5.18,6.187-.252,6.547,2.266c0,0,.108,1.547-4.208,4.5,0,0,2.158,5.576.072,6.475s-5.892-2.158-5.892-2.158a8.869,8.869,0,0,1-5.8,2.086C64.016,85.065,66.893,78.771,66.893,78.771Z" transform="translate(-63.201 -66.826)" fill="#0f4e98"/>
            </g>
            <g id="Group_27748-4" data-name="Group 27748" transform="translate(0.781 0.694)">
              <path id="Path_56552-4" data-name="Path 56552" d="M77.013,67.2s-1.34.007-3.139,4.152c0,0,2.59-4.847,3.975-3.678C78.334,68.032,77.952,67.131,77.013,67.2Z" transform="translate(-67.539 -67.194)" fill="#fff" opacity="0.7"/>
              <path id="Path_56553-4" data-name="Path 56553" d="M69.143,75.729a16.515,16.515,0,0,0-4,.523c-.746.238-1.216,1.257-1.376,1.214C63.478,77.376,64.107,75.1,69.143,75.729Z" transform="translate(-63.708 -70.37)" fill="#fff" opacity="0.5"/>
            </g>
          </g>
        </g>
      </g>
      <g id="Group_27345" data-name="Group 27345" transform="translate(862 563)">
        <g id="Group_27337" data-name="Group 27337" transform="translate(0.955 0)">
          <g id="Group_27334" data-name="Group 27334">
            <g id="Group_27333" data-name="Group 27333">
              <path id="Path_56661" data-name="Path 56661" d="M816.264,630.048c.578,5.742-.575,2.647-5.86,3.675-12.12,2.36-21.874-8.423-14.34-17.867C802.44,607.865,816.375,618.129,816.264,630.048Z" transform="translate(-793.42 -613.026)" fill="#6d9fcc"/>
            </g>
          </g>
          <g id="Group_27336" data-name="Group 27336" transform="translate(6.83 6.427)">
            <g id="Group_27335" data-name="Group 27335">
              <path id="Path_56662" data-name="Path 56662" d="M815.783,631.162c.375,3.731-.374,1.721-3.808,2.387-7.873,1.534-14.21-5.472-9.316-11.607C806.8,616.75,815.855,623.419,815.783,631.162Z" transform="translate(-800.942 -620.103)" fill="#ffbdbd"/>
            </g>
          </g>
        </g>
        <g id="Group_27342" data-name="Group 27342" transform="translate(73.832 0)">
          <g id="Group_27339" data-name="Group 27339">
            <g id="Group_27338" data-name="Group 27338">
              <path id="Path_56663" data-name="Path 56663" d="M873.813,630.048c-.578,5.742.575,2.647,5.86,3.675,12.119,2.36,21.874-8.423,14.341-17.867C887.638,607.865,873.7,618.129,873.813,630.048Z" transform="translate(-873.678 -613.026)" fill="#6d9fcc"/>
            </g>
          </g>
          <g id="Group_27341" data-name="Group 27341" transform="translate(1.22 6.427)">
            <g id="Group_27340" data-name="Group 27340">
              <path id="Path_56664" data-name="Path 56664" d="M875.11,631.162c-.376,3.731.373,1.721,3.808,2.387,7.873,1.534,14.21-5.472,9.316-11.607C884.092,616.75,875.038,623.419,875.11,631.162Z" transform="translate(-875.022 -620.103)" fill="#ffbdbd"/>
            </g>
          </g>
        </g>
        <path id="Path_56665" data-name="Path 56665" d="M892.056,670.565c0,23.841-22.317,36.914-49.843,36.914s-49.844-13.073-49.844-36.914,22.317-49.427,49.844-49.427S892.056,646.724,892.056,670.565Z" transform="translate(-792.369 -613.772)" fill="#6d9fcc"/>
        <g id="Group_27343" data-name="Group 27343" transform="translate(14.909 44.03)">
          <path id="Path_56666" data-name="Path 56666" d="M816.285,666.732c0,2.878-1.678,5.213-3.748,5.213s-3.748-2.335-3.748-5.213,1.677-5.217,3.748-5.217S816.285,663.85,816.285,666.732Z" transform="translate(-808.788 -661.515)" fill="#441f04"/>
          <path id="Path_56667" data-name="Path 56667" d="M812.837,664.4c0,1.195-.7,2.166-1.555,2.166s-1.557-.971-1.557-2.166.7-2.162,1.557-2.162S812.837,663.2,812.837,664.4Z" transform="translate(-808.874 -661.581)" fill="#fff"/>
        </g>
        <path id="Path_56668" data-name="Path 56668" d="M884,689.894c0,12.092-18.167,21.895-40.575,21.895s-40.577-9.8-40.577-21.895S821.015,668,843.425,668,884,677.8,884,689.894Z" transform="translate(-793.333 -618.081)" fill="#ffbdbd"/>
        <g id="Group_27344" data-name="Group 27344" transform="translate(75.199 44.03)">
          <path id="Path_56669" data-name="Path 56669" d="M882.682,666.732c0,2.878-1.677,5.213-3.748,5.213s-3.749-2.335-3.749-5.213,1.678-5.217,3.749-5.217S882.682,663.85,882.682,666.732Z" transform="translate(-875.184 -661.515)" fill="#441f04"/>
          <path id="Path_56670" data-name="Path 56670" d="M879.234,664.4c0,1.195-.7,2.166-1.555,2.166s-1.557-.971-1.557-2.166.7-2.162,1.557-2.162S879.234,663.2,879.234,664.4Z" transform="translate(-875.27 -661.581)" fill="#fff"/>
        </g>
        <path id="Path_56671" data-name="Path 56671" d="M851.1,698.741a5.321,5.321,0,0,1-5.239,3.81c-2.306,0-5.727-1.3-5.727-4.235a7.058,7.058,0,0,0,5.727,2.723A8.03,8.03,0,0,0,851.1,698.741Z" transform="translate(-796.761 -620.869)" fill="#441f04"/>
        <path id="Path_56672" data-name="Path 56672" d="M827.828,680.449c-.744,1.407-3.512,3.145-4.837,2.446s-.7-3.572.04-4.98a2.718,2.718,0,1,1,4.8,2.533Z" transform="translate(-795.114 -618.848)" fill="#c45353"/>
        <path id="Path_56673" data-name="Path 56673" d="M865.4,679.751c.745,1.408,3.513,3.146,4.838,2.447s.7-3.571-.04-4.98a2.718,2.718,0,1,0-4.8,2.533Z" transform="translate(-799.052 -618.784)" fill="#c45353"/>
      </g>
    </g>
  </g>
</svg>
