<svg xmlns="http://www.w3.org/2000/svg" xmlns:xlink="http://www.w3.org/1999/xlink" width="181" height="181" viewBox="0 0 181 181">
  <defs>
    <linearGradient id="linear-gradient" x1="0.5" y1="0.136" x2="0.5" y2="1.1" gradientUnits="objectBoundingBox">
      <stop offset="0" stop-color="#206fcb"/>
      <stop offset="1" stop-color="#103866"/>
    </linearGradient>
    <linearGradient id="linear-gradient-3" x1="0.535" y1="-0.102" x2="0.5" y2="0.811" gradientUnits="objectBoundingBox">
      <stop offset="0" stop-color="#effaff"/>
      <stop offset="1" stop-color="#54bbed"/>
    </linearGradient>
    <linearGradient id="linear-gradient-4" x1="0.5" x2="0.5" y2="1" gradientUnits="objectBoundingBox">
      <stop offset="0" stop-color="#206fcb"/>
      <stop offset="1" stop-color="#246dc1"/>
    </linearGradient>
    <clipPath id="clip-Artboard_80">
      <rect width="181" height="181"/>
    </clipPath>
  </defs>
  <g id="Artboard_80" data-name="Artboard – 80" clip-path="url(#clip-Artboard_80)">
    <rect width="181" height="181" fill="#fff"/>
    <g id="Group_28036" data-name="Group 28036" transform="translate(-865.593 -4988)">
      <g id="Group_28030" data-name="Group 28030" transform="translate(693.25 4908.851)">
        <g id="Group_27306" data-name="Group 27306" transform="translate(173.751 218.662)">
          <path id="Path_56597" data-name="Path 56597" d="M53.973,0H0V28.789H53.973L46.58,14.826Z" transform="translate(124.213)" fill="url(#linear-gradient)"/>
          <path id="Path_56596" data-name="Path 56596" d="M0,0H53.973V28.789H0L7.394,14.826Z" fill="url(#linear-gradient)"/>
          <path id="Path_56595" data-name="Path 56595" d="M17.745,0H37.707L19.963,12.846V32.532H0V12.577Z" transform="translate(23.66)" fill="#1e559a"/>
          <path id="Path_56598" data-name="Path 56598" d="M19.963,0H0L17.745,12.846V32.532H37.707V12.577Z" transform="translate(117.558)" fill="#1e559a"/>
        </g>
        <ellipse id="Ellipse_681" data-name="Ellipse 681" cx="58.064" cy="58.064" rx="58.064" ry="58.064" transform="translate(204.453 141.149)" fill="url(#linear-gradient-3)"/>
        <rect id="Rectangle_19590" data-name="Rectangle 19590" width="132.146" height="29.366" transform="translate(197.248 230.58)" fill="url(#linear-gradient-4)"/>
        <g id="Group_27753" data-name="Group 27753" transform="translate(209.203 234.928)">
          <g id="Group_27749" data-name="Group 27749" transform="translate(0 0)">
            <g id="Group_27254" data-name="Group 27254" transform="translate(0.467 2.15)" opacity="0.26">
              <path id="Path_56544" data-name="Path 56544" d="M83.26,76.978c-.36-2.518-6.547-2.266-6.547-2.266s-1.654-5.288-3.633-5.18-3.957,5.4-3.957,5.4-5.539-.719-5.9,1.763a2.163,2.163,0,0,0-.02.31c-.1,2.273,3.308,4.339,3.657,4.545a12.692,12.692,0,0,0-1.1,4.308c-.015,1.14.375,2.072,1.671,2.113a8.869,8.869,0,0,0,5.8-2.086s3.806,3.057,5.892,2.158c.672-.29.9-1.066.907-1.983a14.59,14.59,0,0,0-.953-4.509c4.289-2.937,4.182-4.478,4.182-4.478l0-.017A.519.519,0,0,0,83.26,76.978Z" transform="translate(-63.203 -69.53)"/>
            </g>
            <g id="Group_27255" data-name="Group 27255">
              <path id="Path_56545" data-name="Path 56545" d="M72.858,66.545c1.952,0,3.573,5.181,3.573,5.181s.172-.007.46-.007c1.44,0,5.787.175,6.087,2.273a.516.516,0,0,1,0,.072l0,.018s.107,1.54-4.182,4.478a14.59,14.59,0,0,1,.953,4.509c-.005.918-.235,1.694-.907,1.983a2.2,2.2,0,0,1-.875.166c-2.124,0-5.017-2.324-5.017-2.324a8.9,8.9,0,0,1-5.554,2.09c-.081,0-.163,0-.244,0-1.3-.041-1.686-.973-1.671-2.113a12.7,12.7,0,0,1,1.1-4.308c-.349-.206-3.755-2.272-3.657-4.545a2.16,2.16,0,0,1,.02-.31c.227-1.571,2.531-1.859,4.19-1.859a14.794,14.794,0,0,1,1.709.1s1.978-5.287,3.957-5.4h.06m0-.465h0l-.085,0c-1.974.108-3.724,4.085-4.237,5.361-.319-.029-.821-.062-1.4-.062-3.574,0-4.5,1.228-4.652,2.258a2.7,2.7,0,0,0-.025.375c-.093,2.168,2.467,4.045,3.54,4.733a12.32,12.32,0,0,0-.982,4.124c-.028,2.181,1.317,2.55,2.122,2.575.087,0,.173,0,.259,0a9.323,9.323,0,0,0,5.566-1.96c.822.61,3.139,2.194,5,2.194a2.662,2.662,0,0,0,1.06-.2c.781-.337,1.181-1.147,1.189-2.408a14.232,14.232,0,0,0-.861-4.334c3.994-2.806,4.108-4.389,4.088-4.688a.534.534,0,0,0,0-.09v-.006l0-.028c-.345-2.412-4.693-2.673-6.547-2.673h-.125c-.464-1.378-1.923-5.175-3.909-5.175Z" transform="translate(-62.454 -66.08)" fill="#fff"/>
            </g>
            <g id="Group_27747" data-name="Group 27747" transform="translate(0.466 0.465)">
              <path id="Path_56547" data-name="Path 56547" d="M66.893,78.771s-4.029-2.3-3.669-4.784,5.9-1.762,5.9-1.762,1.978-5.288,3.957-5.4,3.633,5.18,3.633,5.18,6.187-.252,6.547,2.266c0,0,.108,1.547-4.208,4.5,0,0,2.158,5.576.072,6.475s-5.892-2.158-5.892-2.158a8.869,8.869,0,0,1-5.8,2.086C64.016,85.065,66.893,78.771,66.893,78.771Z" transform="translate(-63.201 -66.826)" fill="#ffdb2d"/>
            </g>
            <g id="Group_27748" data-name="Group 27748" transform="translate(0.781 0.694)">
              <path id="Path_56552" data-name="Path 56552" d="M77.013,67.2s-1.34.007-3.139,4.152c0,0,2.59-4.847,3.975-3.678C78.334,68.032,77.952,67.131,77.013,67.2Z" transform="translate(-67.539 -67.194)" fill="#fff" opacity="0.7"/>
              <path id="Path_56553" data-name="Path 56553" d="M69.143,75.729a16.515,16.515,0,0,0-4,.523c-.746.238-1.216,1.257-1.376,1.214C63.478,77.376,64.107,75.1,69.143,75.729Z" transform="translate(-63.708 -70.37)" fill="#fff" opacity="0.5"/>
            </g>
          </g>
          <g id="Group_27750" data-name="Group 27750" transform="translate(28.891 0)">
            <g id="Group_27254-2" data-name="Group 27254" transform="translate(0.467 2.15)" opacity="0.26">
              <path id="Path_56544-2" data-name="Path 56544" d="M83.26,76.978c-.36-2.518-6.547-2.266-6.547-2.266s-1.654-5.288-3.633-5.18-3.957,5.4-3.957,5.4-5.539-.719-5.9,1.763a2.163,2.163,0,0,0-.02.31c-.1,2.273,3.308,4.339,3.657,4.545a12.692,12.692,0,0,0-1.1,4.308c-.015,1.14.375,2.072,1.671,2.113a8.869,8.869,0,0,0,5.8-2.086s3.806,3.057,5.892,2.158c.672-.29.9-1.066.907-1.983a14.59,14.59,0,0,0-.953-4.509c4.289-2.937,4.182-4.478,4.182-4.478l0-.017A.519.519,0,0,0,83.26,76.978Z" transform="translate(-63.203 -69.53)"/>
            </g>
            <g id="Group_27255-2" data-name="Group 27255" transform="translate(0)">
              <path id="Path_56545-2" data-name="Path 56545" d="M72.858,66.545c1.952,0,3.573,5.181,3.573,5.181s.172-.007.46-.007c1.44,0,5.787.175,6.087,2.273a.516.516,0,0,1,0,.072l0,.018s.107,1.54-4.182,4.478a14.59,14.59,0,0,1,.953,4.509c-.005.918-.235,1.694-.907,1.983a2.2,2.2,0,0,1-.875.166c-2.124,0-5.017-2.324-5.017-2.324a8.9,8.9,0,0,1-5.554,2.09c-.081,0-.163,0-.244,0-1.3-.041-1.686-.973-1.671-2.113a12.7,12.7,0,0,1,1.1-4.308c-.349-.206-3.755-2.272-3.657-4.545a2.16,2.16,0,0,1,.02-.31c.227-1.571,2.531-1.859,4.19-1.859a14.794,14.794,0,0,1,1.709.1s1.978-5.287,3.957-5.4h.06m0-.465h0l-.085,0c-1.974.108-3.724,4.085-4.237,5.361-.319-.029-.821-.062-1.4-.062-3.574,0-4.5,1.228-4.652,2.258a2.7,2.7,0,0,0-.025.375c-.093,2.168,2.467,4.045,3.54,4.733a12.32,12.32,0,0,0-.982,4.124c-.028,2.181,1.317,2.55,2.122,2.575.087,0,.173,0,.259,0a9.323,9.323,0,0,0,5.566-1.96c.822.61,3.139,2.194,5,2.194a2.662,2.662,0,0,0,1.06-.2c.781-.337,1.181-1.147,1.189-2.408a14.232,14.232,0,0,0-.861-4.334c3.994-2.806,4.108-4.389,4.088-4.688a.534.534,0,0,0,0-.09v-.006l0-.028c-.345-2.412-4.693-2.673-6.547-2.673h-.125c-.464-1.378-1.923-5.175-3.909-5.175Z" transform="translate(-62.454 -66.08)" fill="#fff"/>
            </g>
            <g id="Group_27747-2" data-name="Group 27747" transform="translate(0.466 0.465)">
              <path id="Path_56547-2" data-name="Path 56547" d="M66.893,78.771s-4.029-2.3-3.669-4.784,5.9-1.762,5.9-1.762,1.978-5.288,3.957-5.4,3.633,5.18,3.633,5.18,6.187-.252,6.547,2.266c0,0,.108,1.547-4.208,4.5,0,0,2.158,5.576.072,6.475s-5.892-2.158-5.892-2.158a8.869,8.869,0,0,1-5.8,2.086C64.016,85.065,66.893,78.771,66.893,78.771Z" transform="translate(-63.201 -66.826)" fill="#ffdb2d"/>
            </g>
            <g id="Group_27748-2" data-name="Group 27748" transform="translate(0.781 0.694)">
              <path id="Path_56552-2" data-name="Path 56552" d="M77.013,67.2s-1.34.007-3.139,4.152c0,0,2.59-4.847,3.975-3.678C78.334,68.032,77.952,67.131,77.013,67.2Z" transform="translate(-67.539 -67.194)" fill="#fff" opacity="0.7"/>
              <path id="Path_56553-2" data-name="Path 56553" d="M69.143,75.729a16.515,16.515,0,0,0-4,.523c-.746.238-1.216,1.257-1.376,1.214C63.478,77.376,64.107,75.1,69.143,75.729Z" transform="translate(-63.708 -70.37)" fill="#fff" opacity="0.5"/>
            </g>
          </g>
          <g id="Group_27751" data-name="Group 27751" transform="translate(57.781 0)">
            <g id="Group_27254-3" data-name="Group 27254" transform="translate(0.467 2.15)" opacity="0.26">
              <path id="Path_56544-3" data-name="Path 56544" d="M83.26,76.978c-.36-2.518-6.547-2.266-6.547-2.266s-1.654-5.288-3.633-5.18-3.957,5.4-3.957,5.4-5.539-.719-5.9,1.763a2.163,2.163,0,0,0-.02.31c-.1,2.273,3.308,4.339,3.657,4.545a12.692,12.692,0,0,0-1.1,4.308c-.015,1.14.375,2.072,1.671,2.113a8.869,8.869,0,0,0,5.8-2.086s3.806,3.057,5.892,2.158c.672-.29.9-1.066.907-1.983a14.59,14.59,0,0,0-.953-4.509c4.289-2.937,4.182-4.478,4.182-4.478l0-.017A.519.519,0,0,0,83.26,76.978Z" transform="translate(-63.203 -69.53)"/>
            </g>
            <g id="Group_27255-3" data-name="Group 27255" transform="translate(0)">
              <path id="Path_56545-3" data-name="Path 56545" d="M72.858,66.545c1.952,0,3.573,5.181,3.573,5.181s.172-.007.46-.007c1.44,0,5.787.175,6.087,2.273a.516.516,0,0,1,0,.072l0,.018s.107,1.54-4.182,4.478a14.59,14.59,0,0,1,.953,4.509c-.005.918-.235,1.694-.907,1.983a2.2,2.2,0,0,1-.875.166c-2.124,0-5.017-2.324-5.017-2.324a8.9,8.9,0,0,1-5.554,2.09c-.081,0-.163,0-.244,0-1.3-.041-1.686-.973-1.671-2.113a12.7,12.7,0,0,1,1.1-4.308c-.349-.206-3.755-2.272-3.657-4.545a2.16,2.16,0,0,1,.02-.31c.227-1.571,2.531-1.859,4.19-1.859a14.794,14.794,0,0,1,1.709.1s1.978-5.287,3.957-5.4h.06m0-.465h0l-.085,0c-1.974.108-3.724,4.085-4.237,5.361-.319-.029-.821-.062-1.4-.062-3.574,0-4.5,1.228-4.652,2.258a2.7,2.7,0,0,0-.025.375c-.093,2.168,2.467,4.045,3.54,4.733a12.32,12.32,0,0,0-.982,4.124c-.028,2.181,1.317,2.55,2.122,2.575.087,0,.173,0,.259,0a9.323,9.323,0,0,0,5.566-1.96c.822.61,3.139,2.194,5,2.194a2.662,2.662,0,0,0,1.06-.2c.781-.337,1.181-1.147,1.189-2.408a14.232,14.232,0,0,0-.861-4.334c3.994-2.806,4.108-4.389,4.088-4.688a.534.534,0,0,0,0-.09v-.006l0-.028c-.345-2.412-4.693-2.673-6.547-2.673h-.125c-.464-1.378-1.923-5.175-3.909-5.175Z" transform="translate(-62.454 -66.08)" fill="#fff"/>
            </g>
            <g id="Group_27747-3" data-name="Group 27747" transform="translate(0.466 0.465)">
              <path id="Path_56547-3" data-name="Path 56547" d="M66.893,78.771s-4.029-2.3-3.669-4.784,5.9-1.762,5.9-1.762,1.978-5.288,3.957-5.4,3.633,5.18,3.633,5.18,6.187-.252,6.547,2.266c0,0,.108,1.547-4.208,4.5,0,0,2.158,5.576.072,6.475s-5.892-2.158-5.892-2.158a8.869,8.869,0,0,1-5.8,2.086C64.016,85.065,66.893,78.771,66.893,78.771Z" transform="translate(-63.201 -66.826)" fill="#ffdb2d"/>
            </g>
            <g id="Group_27748-3" data-name="Group 27748" transform="translate(0.781 0.694)">
              <path id="Path_56552-3" data-name="Path 56552" d="M77.013,67.2s-1.34.007-3.139,4.152c0,0,2.59-4.847,3.975-3.678C78.334,68.032,77.952,67.131,77.013,67.2Z" transform="translate(-67.539 -67.194)" fill="#fff" opacity="0.7"/>
              <path id="Path_56553-3" data-name="Path 56553" d="M69.143,75.729a16.515,16.515,0,0,0-4,.523c-.746.238-1.216,1.257-1.376,1.214C63.478,77.376,64.107,75.1,69.143,75.729Z" transform="translate(-63.708 -70.37)" fill="#fff" opacity="0.5"/>
            </g>
          </g>
          <g id="Group_27752" data-name="Group 27752" transform="translate(86.672 0)">
            <g id="Group_27254-4" data-name="Group 27254" transform="translate(0.467 2.15)" opacity="0.26">
              <path id="Path_56544-4" data-name="Path 56544" d="M83.26,76.978c-.36-2.518-6.547-2.266-6.547-2.266s-1.654-5.288-3.633-5.18-3.957,5.4-3.957,5.4-5.539-.719-5.9,1.763a2.163,2.163,0,0,0-.02.31c-.1,2.273,3.308,4.339,3.657,4.545a12.692,12.692,0,0,0-1.1,4.308c-.015,1.14.375,2.072,1.671,2.113a8.869,8.869,0,0,0,5.8-2.086s3.806,3.057,5.892,2.158c.672-.29.9-1.066.907-1.983a14.59,14.59,0,0,0-.953-4.509c4.289-2.937,4.182-4.478,4.182-4.478l0-.017A.519.519,0,0,0,83.26,76.978Z" transform="translate(-63.203 -69.53)"/>
            </g>
            <g id="Group_27255-4" data-name="Group 27255" transform="translate(0)">
              <path id="Path_56545-4" data-name="Path 56545" d="M72.858,66.545c1.952,0,3.573,5.181,3.573,5.181s.172-.007.46-.007c1.44,0,5.787.175,6.087,2.273a.516.516,0,0,1,0,.072l0,.018s.107,1.54-4.182,4.478a14.59,14.59,0,0,1,.953,4.509c-.005.918-.235,1.694-.907,1.983a2.2,2.2,0,0,1-.875.166c-2.124,0-5.017-2.324-5.017-2.324a8.9,8.9,0,0,1-5.554,2.09c-.081,0-.163,0-.244,0-1.3-.041-1.686-.973-1.671-2.113a12.7,12.7,0,0,1,1.1-4.308c-.349-.206-3.755-2.272-3.657-4.545a2.16,2.16,0,0,1,.02-.31c.227-1.571,2.531-1.859,4.19-1.859a14.794,14.794,0,0,1,1.709.1s1.978-5.287,3.957-5.4h.06m0-.465h0l-.085,0c-1.974.108-3.724,4.085-4.237,5.361-.319-.029-.821-.062-1.4-.062-3.574,0-4.5,1.228-4.652,2.258a2.7,2.7,0,0,0-.025.375c-.093,2.168,2.467,4.045,3.54,4.733a12.32,12.32,0,0,0-.982,4.124c-.028,2.181,1.317,2.55,2.122,2.575.087,0,.173,0,.259,0a9.323,9.323,0,0,0,5.566-1.96c.822.61,3.139,2.194,5,2.194a2.662,2.662,0,0,0,1.06-.2c.781-.337,1.181-1.147,1.189-2.408a14.232,14.232,0,0,0-.861-4.334c3.994-2.806,4.108-4.389,4.088-4.688a.534.534,0,0,0,0-.09v-.006l0-.028c-.345-2.412-4.693-2.673-6.547-2.673h-.125c-.464-1.378-1.923-5.175-3.909-5.175Z" transform="translate(-62.454 -66.08)" fill="#fff"/>
            </g>
            <g id="Group_27747-4" data-name="Group 27747" transform="translate(0.466 0.465)">
              <path id="Path_56547-4" data-name="Path 56547" d="M66.893,78.771s-4.029-2.3-3.669-4.784,5.9-1.762,5.9-1.762,1.978-5.288,3.957-5.4,3.633,5.18,3.633,5.18,6.187-.252,6.547,2.266c0,0,.108,1.547-4.208,4.5,0,0,2.158,5.576.072,6.475s-5.892-2.158-5.892-2.158a8.869,8.869,0,0,1-5.8,2.086C64.016,85.065,66.893,78.771,66.893,78.771Z" transform="translate(-63.201 -66.826)" fill="#ffdb2d"/>
            </g>
            <g id="Group_27748-4" data-name="Group 27748" transform="translate(0.781 0.694)">
              <path id="Path_56552-4" data-name="Path 56552" d="M77.013,67.2s-1.34.007-3.139,4.152c0,0,2.59-4.847,3.975-3.678C78.334,68.032,77.952,67.131,77.013,67.2Z" transform="translate(-67.539 -67.194)" fill="#fff" opacity="0.7"/>
              <path id="Path_56553-4" data-name="Path 56553" d="M69.143,75.729a16.515,16.515,0,0,0-4,.523c-.746.238-1.216,1.257-1.376,1.214C63.478,77.376,64.107,75.1,69.143,75.729Z" transform="translate(-63.708 -70.37)" fill="#fff" opacity="0.5"/>
            </g>
          </g>
        </g>
      </g>
      <g id="Group_28031" data-name="Group 28031" transform="translate(898 5026)">
        <g id="Group_27419" data-name="Group 27419" transform="translate(22.623)">
          <g id="Group_27411" data-name="Group 27411" transform="translate(40.942)">
            <g id="Group_27407" data-name="Group 27407" transform="translate(0 4.677)">
              <g id="Group_27406" data-name="Group 27406">
                <g id="Group_27405" data-name="Group 27405">
                  <path id="Path_56816" data-name="Path 56816" d="M1330.55,623.883c.71-1.979,2.82-7.119,4.686-11.613a38.592,38.592,0,0,1-9.309-4.891,84.679,84.679,0,0,1-5.235,10.338,23.948,23.948,0,0,1-10.374,9.71c-6.941,3.064,24.773,6.091,24.773,6.091S1329.221,627.685,1330.55,623.883Z" transform="translate(-1309.325 -607.379)" fill="#f4c534"/>
                </g>
              </g>
            </g>
            <g id="Group_27410" data-name="Group 27410" transform="translate(14.213)">
              <g id="Group_27409" data-name="Group 27409">
                <g id="Group_27408" data-name="Group 27408">
                  <path id="Path_56817" data-name="Path 56817" d="M1335.091,603.56c4.712,2.126,6.657,5.338,5.155,8.525-1.326,3.273-4.952,3.886-9.614,1.645-4.71-2.121-6.661-5.337-5.154-8.524C1326.8,601.936,1330.427,601.317,1335.091,603.56Z" transform="translate(-1324.978 -602.229)" fill="#6d4135"/>
                </g>
              </g>
            </g>
          </g>
          <g id="Group_27418" data-name="Group 27418">
            <g id="Group_27414" data-name="Group 27414" transform="translate(4.067 4.677)">
              <g id="Group_27413" data-name="Group 27413">
                <g id="Group_27412" data-name="Group 27412">
                  <path id="Path_56818" data-name="Path 56818" d="M1273.4,623.883c-.71-1.979-2.819-7.119-4.687-11.613a38.575,38.575,0,0,0,9.309-4.891,84.573,84.573,0,0,0,5.236,10.338,23.945,23.945,0,0,0,10.373,9.71c6.942,3.064-24.772,6.091-24.772,6.091S1274.732,627.685,1273.4,623.883Z" transform="translate(-1268.715 -607.379)" fill="#f4c534"/>
                </g>
              </g>
            </g>
            <g id="Group_27417" data-name="Group 27417">
              <g id="Group_27416" data-name="Group 27416">
                <g id="Group_27415" data-name="Group 27415">
                  <path id="Path_56819" data-name="Path 56819" d="M1269.889,603.56c-4.711,2.126-6.656,5.338-5.154,8.525,1.326,3.273,4.952,3.886,9.612,1.645,4.711-2.121,6.661-5.337,5.155-8.524C1278.179,601.936,1274.553,601.317,1269.889,603.56Z" transform="translate(-1264.236 -602.229)" fill="#6d4135"/>
                </g>
              </g>
            </g>
          </g>
        </g>
        <g id="Group_27444" data-name="Group 27444" transform="translate(0 19.877)">
          <g id="Group_27431" data-name="Group 27431" transform="translate(76.337)">
            <g id="Group_27428" data-name="Group 27428">
              <g id="Group_27422" data-name="Group 27422">
                <g id="Group_27421" data-name="Group 27421">
                  <g id="Group_27420" data-name="Group 27420">
                    <path id="Path_56820" data-name="Path 56820" d="M1323.411,651.408c-.639-11.558,13.981-15.751,20.558-18.014,12.256-4.217,11.276-6.776,14.511-8.8,1.489-.933,2.89-.568,3.6,1.812a29.914,29.914,0,0,1,1.25,8.706c-.031,5.6-3.21,10.652-7.527,14.214a26.341,26.341,0,0,1-15.489,5.684C1334.725,655.272,1328.575,653.558,1323.411,651.408Z" transform="translate(-1323.391 -624.119)" fill="#f4c534"/>
                  </g>
                </g>
              </g>
              <g id="Group_27425" data-name="Group 27425" transform="translate(5.503 4.021)">
                <g id="Group_27424" data-name="Group 27424">
                  <g id="Group_27423" data-name="Group 27423">
                    <path id="Path_56821" data-name="Path 56821" d="M1329.451,650.052c.6-6.187,8.553-8.259,11.861-9.138,10.225-2.72,17.051-8.07,19.119-12.367a16.351,16.351,0,0,1-5.353,18.939C1341.134,657.506,1329.451,650.052,1329.451,650.052Z" transform="translate(-1329.451 -628.547)" fill="#fc97b2"/>
                  </g>
                </g>
              </g>
              <g id="Group_27427" data-name="Group 27427" transform="translate(5.502 4.021)">
                <g id="Group_27426" data-name="Group 27426">
                  <path id="Path_56822" data-name="Path 56822" d="M1360.431,628.547c-2.068,4.3-8.894,9.647-19.12,12.367-3.307.88-11.26,2.951-11.861,9.138a20.8,20.8,0,0,0,9.3,2.629,27.429,27.429,0,0,1-3.11-1.484c-3.121-1.838,1.258-1.2,4.007-1.995s-1.417-1.453-4.014-1.574.4-2.682,7.814-4.957S1358.208,634.56,1360.431,628.547Z" transform="translate(-1329.45 -628.547)" fill="#e88ea7"/>
                </g>
              </g>
            </g>
            <g id="Group_27430" data-name="Group 27430" transform="translate(0.02 4.349)">
              <g id="Group_27429" data-name="Group 27429">
                <path id="Path_56823" data-name="Path 56823" d="M1352.093,650.712c-13.155,7.49-26.818,1.912-28.679,1.09,0,.016,0,.031,0,.047,5.164,2.151,11.314,3.864,16.9,3.6a26.339,26.339,0,0,0,15.49-5.683c4.316-3.561,7.495-8.618,7.526-14.214a29.913,29.913,0,0,0-.8-6.643C1363.12,632.842,1363.642,644.136,1352.093,650.712Z" transform="translate(-1323.413 -628.908)" fill="#e9b02c"/>
              </g>
            </g>
          </g>
          <g id="Group_27443" data-name="Group 27443">
            <g id="Group_27440" data-name="Group 27440">
              <g id="Group_27434" data-name="Group 27434">
                <g id="Group_27433" data-name="Group 27433">
                  <g id="Group_27432" data-name="Group 27432">
                    <path id="Path_56824" data-name="Path 56824" d="M1279.243,651.408c.638-11.558-13.982-15.751-20.558-18.014-12.257-4.217-11.276-6.776-14.511-8.8-1.49-.933-2.891-.568-3.6,1.812a29.881,29.881,0,0,0-1.249,8.706c.03,5.6,3.209,10.652,7.526,14.214a26.342,26.342,0,0,0,15.49,5.684C1267.928,655.272,1274.078,653.558,1279.243,651.408Z" transform="translate(-1239.323 -624.119)" fill="#f4c534"/>
                  </g>
                </g>
              </g>
              <g id="Group_27437" data-name="Group 27437" transform="translate(2.353 4.021)">
                <g id="Group_27436" data-name="Group 27436">
                  <g id="Group_27435" data-name="Group 27435">
                    <path id="Path_56825" data-name="Path 56825" d="M1274,650.052c-.6-6.187-8.553-8.259-11.86-9.138-10.225-2.72-17.052-8.07-19.12-12.367a16.351,16.351,0,0,0,5.353,18.939C1262.316,657.506,1274,650.052,1274,650.052Z" transform="translate(-1241.914 -628.547)" fill="#fc97b2"/>
                  </g>
                </g>
              </g>
              <g id="Group_27439" data-name="Group 27439" transform="translate(3.457 4.021)">
                <g id="Group_27438" data-name="Group 27438">
                  <path id="Path_56826" data-name="Path 56826" d="M1243.13,628.547c2.068,4.3,8.894,9.647,19.12,12.367,3.307.88,11.26,2.951,11.86,9.138a20.8,20.8,0,0,1-9.3,2.629,27.436,27.436,0,0,0,3.11-1.484c3.121-1.838-1.258-1.2-4.007-1.995s1.417-1.453,4.014-1.574-.4-2.682-7.814-4.957S1245.352,634.56,1243.13,628.547Z" transform="translate(-1243.13 -628.547)" fill="#e88ea7"/>
                </g>
              </g>
            </g>
            <g id="Group_27442" data-name="Group 27442" transform="translate(0 4.349)">
              <g id="Group_27441" data-name="Group 27441">
                <path id="Path_56827" data-name="Path 56827" d="M1250.563,650.712c13.155,7.49,26.818,1.912,28.678,1.09,0,.016,0,.031,0,.047-5.164,2.151-11.314,3.864-16.9,3.6a26.339,26.339,0,0,1-15.491-5.683c-4.316-3.561-7.495-8.618-7.525-14.214a29.862,29.862,0,0,1,.8-6.643C1239.535,632.842,1239.012,644.136,1250.563,650.712Z" transform="translate(-1239.323 -628.908)" fill="#e9b02c"/>
              </g>
            </g>
          </g>
        </g>
        <path id="Path_56828" data-name="Path 56828" d="M1348.084,667.374c0,23.841-22.317,36.914-49.844,36.914s-49.843-13.073-49.843-36.914,22.317-49.427,49.843-49.427S1348.084,643.533,1348.084,667.374Z" transform="translate(-1240.157 -603.674)" fill="#f4c534"/>
        <g id="Group_27471" data-name="Group 27471" transform="translate(20.326 41.586)">
          <g id="Group_27457" data-name="Group 27457" transform="translate(62.528)">
            <g id="Group_27447" data-name="Group 27447" transform="translate(0 15.138)">
              <g id="Group_27446" data-name="Group 27446">
                <g id="Group_27445" data-name="Group 27445">
                  <path id="Path_56829" data-name="Path 56829" d="M1330.587,673.357c.277-2.645,1.495-6.135,3.594-7.726,2.654-2.011,5.76-.489,5.7,1.862.224.385-.393.98-.8,1.154-1.339.573-1.781.273-1.488,2.558C1338.472,678.091,1330.113,677.884,1330.587,673.357Z" transform="translate(-1330.568 -664.697)" fill="#f29a2e"/>
                </g>
              </g>
            </g>
            <g id="Group_27450" data-name="Group 27450" transform="translate(7.988 25.077)">
              <g id="Group_27449" data-name="Group 27449">
                <g id="Group_27448" data-name="Group 27448">
                  <path id="Path_56830" data-name="Path 56830" d="M1343.387,681.05c-.944,1.119-3.075.733-3.819-1.522-.87-2.637,1.263-4.482,2.63-3.708C1343.539,676.58,1344.4,679.853,1343.387,681.05Z" transform="translate(-1339.365 -675.643)" fill="#f29a2e"/>
                </g>
              </g>
            </g>
            <g id="Group_27453" data-name="Group 27453" transform="translate(10.696 12.724)">
              <g id="Group_27452" data-name="Group 27452">
                <g id="Group_27451" data-name="Group 27451">
                  <path id="Path_56831" data-name="Path 56831" d="M1344.987,663.2c1.334-2,2.813-1.147,3.057.59a7.63,7.63,0,0,1-1.3,4.666c-2,3.546-4.845,2.147-4.334.047A17.822,17.822,0,0,1,1344.987,663.2Z" transform="translate(-1342.346 -662.038)" fill="#f29a2e"/>
                </g>
              </g>
            </g>
            <g id="Group_27456" data-name="Group 27456" transform="translate(8.281)">
              <g id="Group_27455" data-name="Group 27455">
                <g id="Group_27454" data-name="Group 27454">
                  <path id="Path_56832" data-name="Path 56832" d="M1347.577,651.339a12.894,12.894,0,0,1-1.768,2.994c-3.6,4.556-8.148-.31-5.143-3.595C1343.018,648.167,1349.842,645.957,1347.577,651.339Z" transform="translate(-1339.688 -648.026)" fill="#f29a2e"/>
                </g>
              </g>
            </g>
          </g>
          <g id="Group_27470" data-name="Group 27470">
            <g id="Group_27460" data-name="Group 27460" transform="translate(7.262 15.138)">
              <g id="Group_27459" data-name="Group 27459">
                <g id="Group_27458" data-name="Group 27458">
                  <path id="Path_56833" data-name="Path 56833" d="M1279.049,673.357c-.278-2.645-1.5-6.135-3.595-7.726-2.654-2.011-5.76-.489-5.7,1.862-.224.385.392.98.8,1.154,1.339.573,1.781.273,1.488,2.558C1271.163,678.091,1279.522,677.884,1279.049,673.357Z" transform="translate(-1269.704 -664.697)" fill="#f29a2e"/>
                </g>
              </g>
            </g>
            <g id="Group_27463" data-name="Group 27463" transform="translate(4.172 25.077)">
              <g id="Group_27462" data-name="Group 27462">
                <g id="Group_27461" data-name="Group 27461">
                  <path id="Path_56834" data-name="Path 56834" d="M1266.744,681.05c.945,1.119,3.076.733,3.819-1.522.87-2.637-1.263-4.482-2.63-3.708C1266.592,676.58,1265.733,679.853,1266.744,681.05Z" transform="translate(-1266.301 -675.643)" fill="#f29a2e"/>
                </g>
              </g>
            </g>
            <g id="Group_27466" data-name="Group 27466" transform="translate(0.189 12.724)">
              <g id="Group_27465" data-name="Group 27465">
                <g id="Group_27464" data-name="Group 27464">
                  <path id="Path_56835" data-name="Path 56835" d="M1265.015,663.2c-1.334-2-2.813-1.147-3.056.59a7.629,7.629,0,0,0,1.3,4.666c2,3.546,4.845,2.147,4.335.047A17.845,17.845,0,0,0,1265.015,663.2Z" transform="translate(-1261.916 -662.038)" fill="#f29a2e"/>
                </g>
              </g>
            </g>
            <g id="Group_27469" data-name="Group 27469">
              <g id="Group_27468" data-name="Group 27468">
                <g id="Group_27467" data-name="Group 27467">
                  <path id="Path_56836" data-name="Path 56836" d="M1262.16,651.339a12.928,12.928,0,0,0,1.769,2.994c3.6,4.556,8.148-.31,5.143-3.595C1266.72,648.167,1259.9,645.957,1262.16,651.339Z" transform="translate(-1261.707 -648.026)" fill="#f29a2e"/>
                </g>
              </g>
            </g>
          </g>
        </g>
        <g id="Group_27474" data-name="Group 27474" transform="translate(22.18 64.235)">
          <g id="Group_27472" data-name="Group 27472" transform="translate(0.422)">
            <path id="Path_56837" data-name="Path 56837" d="M1271.713,678.184c0,2.878-1.678,5.213-3.749,5.213s-3.749-2.335-3.749-5.213,1.679-5.215,3.749-5.215S1271.713,675.3,1271.713,678.184Z" transform="translate(-1264.214 -672.969)" fill="#441f04"/>
            <path id="Path_56838" data-name="Path 56838" d="M1268.265,675.85c0,1.2-.7,2.166-1.556,2.166s-1.557-.97-1.557-2.166.7-2.162,1.557-2.162S1268.265,674.655,1268.265,675.85Z" transform="translate(-1264.3 -673.035)" fill="#fff"/>
          </g>
          <g id="Group_27473" data-name="Group 27473" transform="translate(61.737)">
            <path id="Path_56839" data-name="Path 56839" d="M1339.236,678.184c0,2.878-1.678,5.213-3.748,5.213s-3.749-2.335-3.749-5.213,1.679-5.215,3.749-5.215S1339.236,675.3,1339.236,678.184Z" transform="translate(-1331.738 -672.969)" fill="#441f04"/>
            <path id="Path_56840" data-name="Path 56840" d="M1335.788,675.85c0,1.2-.7,2.166-1.555,2.166s-1.557-.97-1.557-2.166.7-2.162,1.557-2.162S1335.788,674.655,1335.788,675.85Z" transform="translate(-1331.824 -673.035)" fill="#fff"/>
          </g>
          <path id="Path_56841" data-name="Path 56841" d="M1275.585,691.676a5.918,5.918,0,1,1-5.918-5.917A5.918,5.918,0,0,1,1275.585,691.676Z" transform="translate(-1263.749 -674.145)" fill="#ffbdbd"/>
          <path id="Path_56842" data-name="Path 56842" d="M1341.629,691.676a5.917,5.917,0,1,1-5.918-5.917A5.918,5.918,0,0,1,1341.629,691.676Z" transform="translate(-1269.823 -674.145)" fill="#ffbdbd"/>
        </g>
        <g id="Group_27490" data-name="Group 27490" transform="translate(39.702 29.042)">
          <g id="Group_27477" data-name="Group 27477" transform="translate(23.151 8.071)">
            <g id="Group_27476" data-name="Group 27476">
              <g id="Group_27475" data-name="Group 27475">
                <path id="Path_56843" data-name="Path 56843" d="M1311.6,643.788c3.077-1.9,6.321.433,3.069,3.46C1307.942,653.508,1306.5,646.942,1311.6,643.788Z" transform="translate(-1308.541 -643.1)" fill="#f29a2e"/>
              </g>
            </g>
          </g>
          <g id="Group_27480" data-name="Group 27480" transform="translate(7.587 8.544)">
            <g id="Group_27479" data-name="Group 27479">
              <g id="Group_27478" data-name="Group 27478">
                <path id="Path_56844" data-name="Path 56844" d="M1291.793,651.127a7.97,7.97,0,0,1,.25-5.629c1.148-2.489,3.4-2.256,3.827-.736.247.867.233,1.812.428,2.7C1298.374,656.887,1292.974,654.966,1291.793,651.127Z" transform="translate(-1291.4 -643.62)" fill="#f29a2e"/>
              </g>
            </g>
          </g>
          <g id="Group_27483" data-name="Group 27483" transform="translate(16.145 1.714)">
            <g id="Group_27482" data-name="Group 27482">
              <g id="Group_27481" data-name="Group 27481">
                <path id="Path_56845" data-name="Path 56845" d="M1305.732,641.623c-2.217,2.474-6,1.68-4.608-2.785C1302.926,633.05,1309.315,637.627,1305.732,641.623Z" transform="translate(-1300.825 -636.099)" fill="#f29a2e"/>
              </g>
            </g>
          </g>
          <g id="Group_27486" data-name="Group 27486" transform="translate(0 0.078)">
            <g id="Group_27485" data-name="Group 27485">
              <g id="Group_27484" data-name="Group 27484">
                <path id="Path_56846" data-name="Path 56846" d="M1285.128,638.885c-2.868-.148-3.689-4.46,3.592-4.585C1297.48,634.149,1292.266,639.254,1285.128,638.885Z" transform="translate(-1283.045 -634.297)" fill="#f29a2e"/>
              </g>
            </g>
          </g>
          <g id="Group_27489" data-name="Group 27489" transform="translate(28.582)">
            <g id="Group_27488" data-name="Group 27488">
              <g id="Group_27487" data-name="Group 27487">
                <path id="Path_56847" data-name="Path 56847" d="M1314.731,637.113c-.865-2.718.919-4.557,6.013-.69C1327.124,641.267,1315.989,641.069,1314.731,637.113Z" transform="translate(-1314.522 -634.211)" fill="#f29a2e"/>
              </g>
            </g>
          </g>
        </g>
        <g id="Group_27517" data-name="Group 27517" transform="translate(35.042 72.268)">
          <g id="Group_27493" data-name="Group 27493">
            <g id="Group_27492" data-name="Group 27492">
              <g id="Group_27491" data-name="Group 27491">
                <path id="Path_56848" data-name="Path 56848" d="M1326.485,700.28c.242,11.459-9.208,18.646-24.283,18.461-15.076.182-24.527-7-24.284-18.461-.24-11.46,9.208-18.645,24.284-18.46C1317.278,681.634,1326.728,688.821,1326.485,700.28Z" transform="translate(-1277.914 -681.816)" fill="#6d4135"/>
              </g>
            </g>
          </g>
          <g id="Group_27496" data-name="Group 27496" transform="translate(0.009 18.886)" opacity="0.5">
            <g id="Group_27495" data-name="Group 27495">
              <g id="Group_27494" data-name="Group 27494">
                <path id="Path_56849" data-name="Path 56849" d="M1326.5,702.615c0,11.227-9.413,18.211-24.3,18.025-14.889.185-24.271-6.8-24.271-18.025.031,9.382,9.413,15.227,24.271,15.073C1317.052,717.842,1326.465,712,1326.5,702.615Z" transform="translate(-1277.924 -702.615)" fill="#633b2a"/>
              </g>
            </g>
          </g>
          <g id="Group_27511" data-name="Group 27511" transform="translate(6.499 7.024)">
            <g id="Group_27503" data-name="Group 27503" transform="translate(23.726)">
              <g id="Group_27499" data-name="Group 27499" transform="translate(0 0.008)">
                <g id="Group_27498" data-name="Group 27498">
                  <g id="Group_27497" data-name="Group 27497">
                    <path id="Path_56850" data-name="Path 56850" d="M1320.234,696.934c-3.095,2.273-9.034,2.182-9.034,2.182s1.706-5.7,4.8-7.976,5.237-1.853,6.405-.253S1323.329,694.661,1320.234,696.934Z" transform="translate(-1311.2 -689.56)" fill="#633b2a"/>
                  </g>
                </g>
              </g>
              <g id="Group_27502" data-name="Group 27502" transform="translate(0.068)">
                <g id="Group_27501" data-name="Group 27501">
                  <g id="Group_27500" data-name="Group 27500">
                    <path id="Path_56851" data-name="Path 56851" d="M1321.642,695.713a2.425,2.425,0,0,0-.492-1.354c-.892-1.23-2.523-1.538-4.861.184a49.658,49.658,0,0,0-5.014,4.43c.277-.893,1.908-5.783,4.737-7.844,3.077-2.276,5.229-1.845,6.4-.246C1323.365,692.206,1323.365,693.9,1321.642,695.713Z" transform="translate(-1311.275 -689.552)" fill="#5b331d"/>
                  </g>
                </g>
              </g>
            </g>
            <g id="Group_27510" data-name="Group 27510">
              <g id="Group_27506" data-name="Group 27506" transform="translate(0 0.008)">
                <g id="Group_27505" data-name="Group 27505">
                  <g id="Group_27504" data-name="Group 27504">
                    <path id="Path_56852" data-name="Path 56852" d="M1287.89,696.934c3.094,2.273,9.033,2.182,9.033,2.182s-1.705-5.7-4.8-7.976-5.237-1.853-6.406-.253S1284.795,694.661,1287.89,696.934Z" transform="translate(-1285.071 -689.56)" fill="#633b2a"/>
                  </g>
                </g>
              </g>
              <g id="Group_27509" data-name="Group 27509" transform="translate(0.008)">
                <g id="Group_27508" data-name="Group 27508">
                  <g id="Group_27507" data-name="Group 27507">
                    <path id="Path_56853" data-name="Path 56853" d="M1286.489,695.713a2.425,2.425,0,0,1,.492-1.354c.893-1.23,2.523-1.538,4.86.184a49.664,49.664,0,0,1,5.015,4.43c-.278-.893-1.908-5.783-4.738-7.844-3.076-2.276-5.229-1.845-6.4-.246C1284.767,692.206,1284.767,693.9,1286.489,695.713Z" transform="translate(-1285.08 -689.552)" fill="#5b331d"/>
                  </g>
                </g>
              </g>
            </g>
          </g>
          <g id="Group_27516" data-name="Group 27516" transform="translate(6.123 20.988)">
            <g id="Group_27515" data-name="Group 27515">
              <g id="Group_27514" data-name="Group 27514">
                <g id="Group_27513" data-name="Group 27513">
                  <g id="Group_27512" data-name="Group 27512">
                    <path id="Path_56854" data-name="Path 56854" d="M1320.987,709.575a4.363,4.363,0,0,1-2.984-1.692,22.2,22.2,0,0,1-15.2,6.582,21.254,21.254,0,0,1-15.2-6.582c0,.34-1.62,1.6-2.954,1.692l4.031-4.645a4.053,4.053,0,0,1-.954,2.8c3.324,1.655,8.645,4.527,15.073,4.428,5.515,0,10.489-2.141,15.073-4.428a4.21,4.21,0,0,1-.923-2.8A46.8,46.8,0,0,0,1320.987,709.575Z" transform="translate(-1284.657 -704.93)" fill="#5b331d"/>
                  </g>
                </g>
              </g>
            </g>
          </g>
        </g>
      </g>
    </g>
  </g>
</svg>
