<svg xmlns="http://www.w3.org/2000/svg" xmlns:xlink="http://www.w3.org/1999/xlink" width="181" height="181" viewBox="0 0 181 181">
  <defs>
    <linearGradient id="linear-gradient" x1="0.5" y1="0.136" x2="0.5" y2="1.1" gradientUnits="objectBoundingBox">
      <stop offset="0" stop-color="#206fcb"/>
      <stop offset="1" stop-color="#103866"/>
    </linearGradient>
    <linearGradient id="linear-gradient-3" x1="0.535" y1="-0.102" x2="0.5" y2="0.811" gradientUnits="objectBoundingBox">
      <stop offset="0" stop-color="#effaff"/>
      <stop offset="1" stop-color="#54bbed"/>
    </linearGradient>
    <linearGradient id="linear-gradient-4" x1="0.5" x2="0.5" y2="1" gradientUnits="objectBoundingBox">
      <stop offset="0" stop-color="#206fcb"/>
      <stop offset="1" stop-color="#246dc1"/>
    </linearGradient>
    <clipPath id="clip-Artboard_82">
      <rect width="181" height="181"/>
    </clipPath>
  </defs>
  <g id="Artboard_82" data-name="Artboard – 82" clip-path="url(#clip-Artboard_82)">
    <rect width="181" height="181" fill="#fff"/>
    <g id="Group_28048" data-name="Group 28048" transform="translate(-373.593 -5368.66)">
      <g id="Group_28043" data-name="Group 28043" transform="translate(201.25 5289.714)">
        <g id="Group_27306" data-name="Group 27306" transform="translate(173.751 218.662)">
          <path id="Path_56597" data-name="Path 56597" d="M53.973,0H0V28.789H53.973L46.58,14.826Z" transform="translate(124.213)" fill="url(#linear-gradient)"/>
          <path id="Path_56596" data-name="Path 56596" d="M0,0H53.973V28.789H0L7.394,14.826Z" fill="url(#linear-gradient)"/>
          <path id="Path_56595" data-name="Path 56595" d="M17.745,0H37.707L19.963,12.846V32.532H0V12.577Z" transform="translate(23.66)" fill="#1e559a"/>
          <path id="Path_56598" data-name="Path 56598" d="M19.963,0H0L17.745,12.846V32.532H37.707V12.577Z" transform="translate(117.558)" fill="#1e559a"/>
        </g>
        <ellipse id="Ellipse_681" data-name="Ellipse 681" cx="58.064" cy="58.064" rx="58.064" ry="58.064" transform="translate(204.453 141.149)" fill="url(#linear-gradient-3)"/>
        <rect id="Rectangle_19590" data-name="Rectangle 19590" width="132.146" height="29.366" transform="translate(197.248 230.58)" fill="url(#linear-gradient-4)"/>
        <g id="Group_27753" data-name="Group 27753" transform="translate(209.203 234.928)">
          <g id="Group_27749" data-name="Group 27749" transform="translate(0 0)">
            <g id="Group_27254" data-name="Group 27254" transform="translate(0.467 2.15)" opacity="0.26">
              <path id="Path_56544" data-name="Path 56544" d="M83.26,76.978c-.36-2.518-6.547-2.266-6.547-2.266s-1.654-5.288-3.633-5.18-3.957,5.4-3.957,5.4-5.539-.719-5.9,1.763a2.163,2.163,0,0,0-.02.31c-.1,2.273,3.308,4.339,3.657,4.545a12.692,12.692,0,0,0-1.1,4.308c-.015,1.14.375,2.072,1.671,2.113a8.869,8.869,0,0,0,5.8-2.086s3.806,3.057,5.892,2.158c.672-.29.9-1.066.907-1.983a14.59,14.59,0,0,0-.953-4.509c4.289-2.937,4.182-4.478,4.182-4.478l0-.017A.519.519,0,0,0,83.26,76.978Z" transform="translate(-63.203 -69.53)"/>
            </g>
            <g id="Group_27255" data-name="Group 27255">
              <path id="Path_56545" data-name="Path 56545" d="M72.858,66.545c1.952,0,3.573,5.181,3.573,5.181s.172-.007.46-.007c1.44,0,5.787.175,6.087,2.273a.516.516,0,0,1,0,.072l0,.018s.107,1.54-4.182,4.478a14.59,14.59,0,0,1,.953,4.509c-.005.918-.235,1.694-.907,1.983a2.2,2.2,0,0,1-.875.166c-2.124,0-5.017-2.324-5.017-2.324a8.9,8.9,0,0,1-5.554,2.09c-.081,0-.163,0-.244,0-1.3-.041-1.686-.973-1.671-2.113a12.7,12.7,0,0,1,1.1-4.308c-.349-.206-3.755-2.272-3.657-4.545a2.16,2.16,0,0,1,.02-.31c.227-1.571,2.531-1.859,4.19-1.859a14.794,14.794,0,0,1,1.709.1s1.978-5.287,3.957-5.4h.06m0-.465h0l-.085,0c-1.974.108-3.724,4.085-4.237,5.361-.319-.029-.821-.062-1.4-.062-3.574,0-4.5,1.228-4.652,2.258a2.7,2.7,0,0,0-.025.375c-.093,2.168,2.467,4.045,3.54,4.733a12.32,12.32,0,0,0-.982,4.124c-.028,2.181,1.317,2.55,2.122,2.575.087,0,.173,0,.259,0a9.323,9.323,0,0,0,5.566-1.96c.822.61,3.139,2.194,5,2.194a2.662,2.662,0,0,0,1.06-.2c.781-.337,1.181-1.147,1.189-2.408a14.232,14.232,0,0,0-.861-4.334c3.994-2.806,4.108-4.389,4.088-4.688a.534.534,0,0,0,0-.09v-.006l0-.028c-.345-2.412-4.693-2.673-6.547-2.673h-.125c-.464-1.378-1.923-5.175-3.909-5.175Z" transform="translate(-62.454 -66.08)" fill="#fff"/>
            </g>
            <g id="Group_27747" data-name="Group 27747" transform="translate(0.466 0.465)">
              <path id="Path_56547" data-name="Path 56547" d="M66.893,78.771s-4.029-2.3-3.669-4.784,5.9-1.762,5.9-1.762,1.978-5.288,3.957-5.4,3.633,5.18,3.633,5.18,6.187-.252,6.547,2.266c0,0,.108,1.547-4.208,4.5,0,0,2.158,5.576.072,6.475s-5.892-2.158-5.892-2.158a8.869,8.869,0,0,1-5.8,2.086C64.016,85.065,66.893,78.771,66.893,78.771Z" transform="translate(-63.201 -66.826)" fill="#ffdb2d"/>
            </g>
            <g id="Group_27748" data-name="Group 27748" transform="translate(0.781 0.694)">
              <path id="Path_56552" data-name="Path 56552" d="M77.013,67.2s-1.34.007-3.139,4.152c0,0,2.59-4.847,3.975-3.678C78.334,68.032,77.952,67.131,77.013,67.2Z" transform="translate(-67.539 -67.194)" fill="#fff" opacity="0.7"/>
              <path id="Path_56553" data-name="Path 56553" d="M69.143,75.729a16.515,16.515,0,0,0-4,.523c-.746.238-1.216,1.257-1.376,1.214C63.478,77.376,64.107,75.1,69.143,75.729Z" transform="translate(-63.708 -70.37)" fill="#fff" opacity="0.5"/>
            </g>
          </g>
          <g id="Group_27750" data-name="Group 27750" transform="translate(28.891 0)">
            <g id="Group_27254-2" data-name="Group 27254" transform="translate(0.467 2.15)" opacity="0.26">
              <path id="Path_56544-2" data-name="Path 56544" d="M83.26,76.978c-.36-2.518-6.547-2.266-6.547-2.266s-1.654-5.288-3.633-5.18-3.957,5.4-3.957,5.4-5.539-.719-5.9,1.763a2.163,2.163,0,0,0-.02.31c-.1,2.273,3.308,4.339,3.657,4.545a12.692,12.692,0,0,0-1.1,4.308c-.015,1.14.375,2.072,1.671,2.113a8.869,8.869,0,0,0,5.8-2.086s3.806,3.057,5.892,2.158c.672-.29.9-1.066.907-1.983a14.59,14.59,0,0,0-.953-4.509c4.289-2.937,4.182-4.478,4.182-4.478l0-.017A.519.519,0,0,0,83.26,76.978Z" transform="translate(-63.203 -69.53)"/>
            </g>
            <g id="Group_27255-2" data-name="Group 27255" transform="translate(0)">
              <path id="Path_56545-2" data-name="Path 56545" d="M72.858,66.545c1.952,0,3.573,5.181,3.573,5.181s.172-.007.46-.007c1.44,0,5.787.175,6.087,2.273a.516.516,0,0,1,0,.072l0,.018s.107,1.54-4.182,4.478a14.59,14.59,0,0,1,.953,4.509c-.005.918-.235,1.694-.907,1.983a2.2,2.2,0,0,1-.875.166c-2.124,0-5.017-2.324-5.017-2.324a8.9,8.9,0,0,1-5.554,2.09c-.081,0-.163,0-.244,0-1.3-.041-1.686-.973-1.671-2.113a12.7,12.7,0,0,1,1.1-4.308c-.349-.206-3.755-2.272-3.657-4.545a2.16,2.16,0,0,1,.02-.31c.227-1.571,2.531-1.859,4.19-1.859a14.794,14.794,0,0,1,1.709.1s1.978-5.287,3.957-5.4h.06m0-.465h0l-.085,0c-1.974.108-3.724,4.085-4.237,5.361-.319-.029-.821-.062-1.4-.062-3.574,0-4.5,1.228-4.652,2.258a2.7,2.7,0,0,0-.025.375c-.093,2.168,2.467,4.045,3.54,4.733a12.32,12.32,0,0,0-.982,4.124c-.028,2.181,1.317,2.55,2.122,2.575.087,0,.173,0,.259,0a9.323,9.323,0,0,0,5.566-1.96c.822.61,3.139,2.194,5,2.194a2.662,2.662,0,0,0,1.06-.2c.781-.337,1.181-1.147,1.189-2.408a14.232,14.232,0,0,0-.861-4.334c3.994-2.806,4.108-4.389,4.088-4.688a.534.534,0,0,0,0-.09v-.006l0-.028c-.345-2.412-4.693-2.673-6.547-2.673h-.125c-.464-1.378-1.923-5.175-3.909-5.175Z" transform="translate(-62.454 -66.08)" fill="#fff"/>
            </g>
            <g id="Group_27747-2" data-name="Group 27747" transform="translate(0.466 0.465)">
              <path id="Path_56547-2" data-name="Path 56547" d="M66.893,78.771s-4.029-2.3-3.669-4.784,5.9-1.762,5.9-1.762,1.978-5.288,3.957-5.4,3.633,5.18,3.633,5.18,6.187-.252,6.547,2.266c0,0,.108,1.547-4.208,4.5,0,0,2.158,5.576.072,6.475s-5.892-2.158-5.892-2.158a8.869,8.869,0,0,1-5.8,2.086C64.016,85.065,66.893,78.771,66.893,78.771Z" transform="translate(-63.201 -66.826)" fill="#ffdb2d"/>
            </g>
            <g id="Group_27748-2" data-name="Group 27748" transform="translate(0.781 0.694)">
              <path id="Path_56552-2" data-name="Path 56552" d="M77.013,67.2s-1.34.007-3.139,4.152c0,0,2.59-4.847,3.975-3.678C78.334,68.032,77.952,67.131,77.013,67.2Z" transform="translate(-67.539 -67.194)" fill="#fff" opacity="0.7"/>
              <path id="Path_56553-2" data-name="Path 56553" d="M69.143,75.729a16.515,16.515,0,0,0-4,.523c-.746.238-1.216,1.257-1.376,1.214C63.478,77.376,64.107,75.1,69.143,75.729Z" transform="translate(-63.708 -70.37)" fill="#fff" opacity="0.5"/>
            </g>
          </g>
          <g id="Group_27751" data-name="Group 27751" transform="translate(57.781 0)">
            <g id="Group_27254-3" data-name="Group 27254" transform="translate(0.467 2.15)" opacity="0.26">
              <path id="Path_56544-3" data-name="Path 56544" d="M83.26,76.978c-.36-2.518-6.547-2.266-6.547-2.266s-1.654-5.288-3.633-5.18-3.957,5.4-3.957,5.4-5.539-.719-5.9,1.763a2.163,2.163,0,0,0-.02.31c-.1,2.273,3.308,4.339,3.657,4.545a12.692,12.692,0,0,0-1.1,4.308c-.015,1.14.375,2.072,1.671,2.113a8.869,8.869,0,0,0,5.8-2.086s3.806,3.057,5.892,2.158c.672-.29.9-1.066.907-1.983a14.59,14.59,0,0,0-.953-4.509c4.289-2.937,4.182-4.478,4.182-4.478l0-.017A.519.519,0,0,0,83.26,76.978Z" transform="translate(-63.203 -69.53)"/>
            </g>
            <g id="Group_27255-3" data-name="Group 27255" transform="translate(0)">
              <path id="Path_56545-3" data-name="Path 56545" d="M72.858,66.545c1.952,0,3.573,5.181,3.573,5.181s.172-.007.46-.007c1.44,0,5.787.175,6.087,2.273a.516.516,0,0,1,0,.072l0,.018s.107,1.54-4.182,4.478a14.59,14.59,0,0,1,.953,4.509c-.005.918-.235,1.694-.907,1.983a2.2,2.2,0,0,1-.875.166c-2.124,0-5.017-2.324-5.017-2.324a8.9,8.9,0,0,1-5.554,2.09c-.081,0-.163,0-.244,0-1.3-.041-1.686-.973-1.671-2.113a12.7,12.7,0,0,1,1.1-4.308c-.349-.206-3.755-2.272-3.657-4.545a2.16,2.16,0,0,1,.02-.31c.227-1.571,2.531-1.859,4.19-1.859a14.794,14.794,0,0,1,1.709.1s1.978-5.287,3.957-5.4h.06m0-.465h0l-.085,0c-1.974.108-3.724,4.085-4.237,5.361-.319-.029-.821-.062-1.4-.062-3.574,0-4.5,1.228-4.652,2.258a2.7,2.7,0,0,0-.025.375c-.093,2.168,2.467,4.045,3.54,4.733a12.32,12.32,0,0,0-.982,4.124c-.028,2.181,1.317,2.55,2.122,2.575.087,0,.173,0,.259,0a9.323,9.323,0,0,0,5.566-1.96c.822.61,3.139,2.194,5,2.194a2.662,2.662,0,0,0,1.06-.2c.781-.337,1.181-1.147,1.189-2.408a14.232,14.232,0,0,0-.861-4.334c3.994-2.806,4.108-4.389,4.088-4.688a.534.534,0,0,0,0-.09v-.006l0-.028c-.345-2.412-4.693-2.673-6.547-2.673h-.125c-.464-1.378-1.923-5.175-3.909-5.175Z" transform="translate(-62.454 -66.08)" fill="#fff"/>
            </g>
            <g id="Group_27747-3" data-name="Group 27747" transform="translate(0.466 0.465)">
              <path id="Path_56547-3" data-name="Path 56547" d="M66.893,78.771s-4.029-2.3-3.669-4.784,5.9-1.762,5.9-1.762,1.978-5.288,3.957-5.4,3.633,5.18,3.633,5.18,6.187-.252,6.547,2.266c0,0,.108,1.547-4.208,4.5,0,0,2.158,5.576.072,6.475s-5.892-2.158-5.892-2.158a8.869,8.869,0,0,1-5.8,2.086C64.016,85.065,66.893,78.771,66.893,78.771Z" transform="translate(-63.201 -66.826)" fill="#0f4e98"/>
            </g>
            <g id="Group_27748-3" data-name="Group 27748" transform="translate(0.781 0.694)">
              <path id="Path_56552-3" data-name="Path 56552" d="M77.013,67.2s-1.34.007-3.139,4.152c0,0,2.59-4.847,3.975-3.678C78.334,68.032,77.952,67.131,77.013,67.2Z" transform="translate(-67.539 -67.194)" fill="#fff" opacity="0.7"/>
              <path id="Path_56553-3" data-name="Path 56553" d="M69.143,75.729a16.515,16.515,0,0,0-4,.523c-.746.238-1.216,1.257-1.376,1.214C63.478,77.376,64.107,75.1,69.143,75.729Z" transform="translate(-63.708 -70.37)" fill="#fff" opacity="0.5"/>
            </g>
          </g>
          <g id="Group_27752" data-name="Group 27752" transform="translate(86.672 0)">
            <g id="Group_27254-4" data-name="Group 27254" transform="translate(0.467 2.15)" opacity="0.26">
              <path id="Path_56544-4" data-name="Path 56544" d="M83.26,76.978c-.36-2.518-6.547-2.266-6.547-2.266s-1.654-5.288-3.633-5.18-3.957,5.4-3.957,5.4-5.539-.719-5.9,1.763a2.163,2.163,0,0,0-.02.31c-.1,2.273,3.308,4.339,3.657,4.545a12.692,12.692,0,0,0-1.1,4.308c-.015,1.14.375,2.072,1.671,2.113a8.869,8.869,0,0,0,5.8-2.086s3.806,3.057,5.892,2.158c.672-.29.9-1.066.907-1.983a14.59,14.59,0,0,0-.953-4.509c4.289-2.937,4.182-4.478,4.182-4.478l0-.017A.519.519,0,0,0,83.26,76.978Z" transform="translate(-63.203 -69.53)"/>
            </g>
            <g id="Group_27255-4" data-name="Group 27255" transform="translate(0)">
              <path id="Path_56545-4" data-name="Path 56545" d="M72.858,66.545c1.952,0,3.573,5.181,3.573,5.181s.172-.007.46-.007c1.44,0,5.787.175,6.087,2.273a.516.516,0,0,1,0,.072l0,.018s.107,1.54-4.182,4.478a14.59,14.59,0,0,1,.953,4.509c-.005.918-.235,1.694-.907,1.983a2.2,2.2,0,0,1-.875.166c-2.124,0-5.017-2.324-5.017-2.324a8.9,8.9,0,0,1-5.554,2.09c-.081,0-.163,0-.244,0-1.3-.041-1.686-.973-1.671-2.113a12.7,12.7,0,0,1,1.1-4.308c-.349-.206-3.755-2.272-3.657-4.545a2.16,2.16,0,0,1,.02-.31c.227-1.571,2.531-1.859,4.19-1.859a14.794,14.794,0,0,1,1.709.1s1.978-5.287,3.957-5.4h.06m0-.465h0l-.085,0c-1.974.108-3.724,4.085-4.237,5.361-.319-.029-.821-.062-1.4-.062-3.574,0-4.5,1.228-4.652,2.258a2.7,2.7,0,0,0-.025.375c-.093,2.168,2.467,4.045,3.54,4.733a12.32,12.32,0,0,0-.982,4.124c-.028,2.181,1.317,2.55,2.122,2.575.087,0,.173,0,.259,0a9.323,9.323,0,0,0,5.566-1.96c.822.61,3.139,2.194,5,2.194a2.662,2.662,0,0,0,1.06-.2c.781-.337,1.181-1.147,1.189-2.408a14.232,14.232,0,0,0-.861-4.334c3.994-2.806,4.108-4.389,4.088-4.688a.534.534,0,0,0,0-.09v-.006l0-.028c-.345-2.412-4.693-2.673-6.547-2.673h-.125c-.464-1.378-1.923-5.175-3.909-5.175Z" transform="translate(-62.454 -66.08)" fill="#fff"/>
            </g>
            <g id="Group_27747-4" data-name="Group 27747" transform="translate(0.466 0.465)">
              <path id="Path_56547-4" data-name="Path 56547" d="M66.893,78.771s-4.029-2.3-3.669-4.784,5.9-1.762,5.9-1.762,1.978-5.288,3.957-5.4,3.633,5.18,3.633,5.18,6.187-.252,6.547,2.266c0,0,.108,1.547-4.208,4.5,0,0,2.158,5.576.072,6.475s-5.892-2.158-5.892-2.158a8.869,8.869,0,0,1-5.8,2.086C64.016,85.065,66.893,78.771,66.893,78.771Z" transform="translate(-63.201 -66.826)" fill="#0f4e98"/>
            </g>
            <g id="Group_27748-4" data-name="Group 27748" transform="translate(0.781 0.694)">
              <path id="Path_56552-4" data-name="Path 56552" d="M77.013,67.2s-1.34.007-3.139,4.152c0,0,2.59-4.847,3.975-3.678C78.334,68.032,77.952,67.131,77.013,67.2Z" transform="translate(-67.539 -67.194)" fill="#fff" opacity="0.7"/>
              <path id="Path_56553-4" data-name="Path 56553" d="M69.143,75.729a16.515,16.515,0,0,0-4,.523c-.746.238-1.216,1.257-1.376,1.214C63.478,77.376,64.107,75.1,69.143,75.729Z" transform="translate(-63.708 -70.37)" fill="#fff" opacity="0.5"/>
            </g>
          </g>
        </g>
      </g>
      <g id="Group_28045" data-name="Group 28045" transform="translate(391 5407)">
        <g id="Group_27722" data-name="Group 27722" transform="translate(0 2.058)">
          <g id="Group_27721" data-name="Group 27721" transform="translate(96.257)">
            <path id="Path_57020" data-name="Path 57020" d="M1553.2,616.839a28.615,28.615,0,0,1,24.212-4.574c15.633,4.31,26.95,24.629,25.073,31.313s-9.968,1.877-13.018,5.4-8.092,14.308-20.289,12.08S1553.2,616.839,1553.2,616.839Z" transform="translate(-1553.198 -611.267)" fill="#bbbcc4"/>
            <path id="Path_57021" data-name="Path 57021" d="M1557.356,623.771a22.946,22.946,0,0,1,17.131-4.139c9.571,1.4,21.474,14.877,19.444,19.942-.891,2.22-4.251,2.184-6.626,2.932a9.4,9.4,0,0,0-4.046,2.434,17.886,17.886,0,0,0-2.345,3.782c-2.7,5.011-7.306,7.072-12.549,5.805C1560.536,652.635,1557.356,623.771,1557.356,623.771Z" transform="translate(-1553.58 -612.012)" fill="#ededed"/>
          </g>
          <path id="Path_57022" data-name="Path 57022" d="M1496.683,616.839a28.617,28.617,0,0,0-24.213-4.574c-15.633,4.31-26.95,24.629-25.074,31.313s9.969,1.877,13.018,5.4,8.092,14.308,20.289,12.08S1496.683,616.839,1496.683,616.839Z" transform="translate(-1447.193 -611.267)" fill="#bbbcc4"/>
          <path id="Path_57023" data-name="Path 57023" d="M1493.809,623.771a22.946,22.946,0,0,0-17.131-4.139c-9.57,1.4-21.474,14.877-19.443,19.942.89,2.22,4.25,2.184,6.626,2.932a9.415,9.415,0,0,1,4.046,2.434,17.911,17.911,0,0,1,2.345,3.782c2.7,5.011,7.306,7.072,12.549,5.805C1490.63,652.635,1493.809,623.771,1493.809,623.771Z" transform="translate(-1448.095 -612.012)" fill="#ededed"/>
        </g>
        <path id="Path_57024" data-name="Path 57024" d="M1570.411,658.427c0,23.841-22.317,36.914-49.845,36.914s-49.842-13.073-49.842-36.914S1493.041,609,1520.566,609,1570.411,634.586,1570.411,658.427Z" transform="translate(-1449.357 -609)" fill="#bbbcc4"/>
        <g id="Group_27723" data-name="Group 27723" transform="translate(36.275 49.962)">
          <path id="Path_57025" data-name="Path 57025" d="M1494.641,669.237c0,2.879-1.679,5.213-3.749,5.213s-3.749-2.334-3.749-5.213,1.679-5.215,3.749-5.215S1494.641,666.356,1494.641,669.237Z" transform="translate(-1487.142 -664.022)" fill="#441f04"/>
          <path id="Path_57026" data-name="Path 57026" d="M1491.193,666.9c0,1.2-.7,2.166-1.556,2.166s-1.558-.97-1.558-2.166.7-2.162,1.558-2.162S1491.193,665.708,1491.193,666.9Z" transform="translate(-1487.228 -664.088)" fill="#fff"/>
        </g>
        <g id="Group_27724" data-name="Group 27724" transform="translate(97.589 49.962)">
          <path id="Path_57027" data-name="Path 57027" d="M1562.164,669.237c0,2.879-1.678,5.213-3.749,5.213s-3.749-2.334-3.749-5.213,1.679-5.215,3.749-5.215S1562.164,666.356,1562.164,669.237Z" transform="translate(-1554.665 -664.022)" fill="#441f04"/>
          <path id="Path_57028" data-name="Path 57028" d="M1558.716,666.9c0,1.2-.7,2.166-1.555,2.166s-1.558-.97-1.558-2.166.7-2.162,1.558-2.162S1558.716,665.708,1558.716,666.9Z" transform="translate(-1554.751 -664.088)" fill="#fff"/>
        </g>
        <path id="Path_57029" data-name="Path 57029" d="M1498.512,682.729a5.918,5.918,0,1,1-5.917-5.917A5.917,5.917,0,0,1,1498.512,682.729Z" transform="translate(-1450.824 -615.236)" fill="#ffbdbd"/>
        <path id="Path_57030" data-name="Path 57030" d="M1564.557,682.729a5.917,5.917,0,1,1-5.918-5.917A5.918,5.918,0,0,1,1564.557,682.729Z" transform="translate(-1456.898 -615.236)" fill="#ffbdbd"/>
        <g id="Group_27729" data-name="Group 27729" transform="translate(25.498 60.296)">
          <path id="Path_57031" data-name="Path 57031" d="M1476.224,709.019c-.832,3.217,2.427,4.286,2.427,5.164s-3.259,1.947-2.427,5.164c.774,2.995,5.236,3.775,8.055.154a8.324,8.324,0,0,0,1.7-5.318,8.545,8.545,0,0,0-1.7-5.319C1481.495,705.217,1477,706.024,1476.224,709.019Z" transform="translate(-1475.349 -678.257)" fill="#bbbcc4"/>
          <g id="Group_27728" data-name="Group 27728">
            <path id="Path_57032" data-name="Path 57032" d="M1536.672,682.52l-28.927-.781c.279,28.74-23.886,25.976-23.886,25.976v8.6c8.843,4.606,24.52,3.069,31.9-.215C1537.5,706.426,1536.672,682.52,1536.672,682.52Z" transform="translate(-1476.063 -675.986)" fill="#bbbcc4"/>
            <g id="Group_27725" data-name="Group 27725" transform="translate(0 5.017)">
              <path id="Path_57033" data-name="Path 57033" d="M1479.744,720.309a5.114,5.114,0,0,1-1.03-.1,4.141,4.141,0,0,1-3.279-3.019c-.677-2.621.928-4.067,1.888-4.931.145-.131.329-.3.442-.418-.114-.122-.3-.287-.442-.418-.96-.865-2.565-2.31-1.888-4.931a4.16,4.16,0,0,1,3.32-3.034,6.19,6.19,0,0,1,6.035,2.616,8.9,8.9,0,0,1,.6.9,22.2,22.2,0,0,0,12.35-3.966c5.721-4.192,8.573-11.369,8.477-21.329a.736.736,0,0,1,.729-.744h.007a.737.737,0,0,1,.737.729c.1,10.462-2.954,18.043-9.078,22.533a23.836,23.836,0,0,1-13.646,4.259.7.7,0,0,1-.66-.4,7.4,7.4,0,0,0-.689-1.086,4.7,4.7,0,0,0-4.571-2.066,2.716,2.716,0,0,0-2.185,1.958c-.454,1.755.556,2.664,1.446,3.467.538.485,1,.9,1,1.513s-.465,1.028-1,1.513c-.891.8-1.9,1.712-1.446,3.466a2.7,2.7,0,0,0,2.15,1.945,4.754,4.754,0,0,0,4.61-2.058c.068-.087.131-.175.193-.263a.736.736,0,0,1,.888-.252c8.477,3.592,22.6,2.442,29.967-.837,21.042-9.362,20.482-32.646,20.474-32.88a.737.737,0,0,1,1.473-.051,40.349,40.349,0,0,1-2.344,13.431,34.839,34.839,0,0,1-19,20.846c-7.495,3.335-21.737,4.539-30.608,1.066A6.485,6.485,0,0,1,1479.744,720.309Z" transform="translate(-1475.274 -680.928)" fill="#9d9ea8"/>
            </g>
            <g id="Group_27726" data-name="Group 27726" transform="translate(37.533)">
              <path id="Path_57034" data-name="Path 57034" d="M1532.394,679.677a.918.918,0,0,1-.6-.22,11.3,11.3,0,0,0-6.686-2.2,10.974,10.974,0,0,0-7.01,1.84.921.921,0,0,1-1.146-1.443,12.847,12.847,0,0,1,8.224-2.238,12.981,12.981,0,0,1,7.811,2.641.921.921,0,0,1-.6,1.623Z" transform="translate(-1516.608 -675.403)" fill="#a6a7ad"/>
            </g>
            <g id="Group_27727" data-name="Group 27727" transform="translate(37.57 11.036)">
              <path id="Path_57035" data-name="Path 57035" d="M1530.943,692.415a.922.922,0,0,1-.635-.253h0a10.888,10.888,0,0,0-12.318-1.489.921.921,0,0,1-.842-1.639c8.065-4.141,14.367,1.734,14.43,1.794a.921.921,0,0,1-.636,1.587Z" transform="translate(-1516.649 -687.557)" fill="#a6a7ad"/>
            </g>
          </g>
        </g>
      </g>
    </g>
  </g>
</svg>
